<?xml version="1.0" encoding="UTF-8" standalone="no"?>
<!-- Created with Inkscape (http://www.inkscape.org/) -->

<svg
   xmlns:dc="http://purl.org/dc/elements/1.1/"
   xmlns:cc="http://creativecommons.org/ns#"
   xmlns:rdf="http://www.w3.org/1999/02/22-rdf-syntax-ns#"
   xmlns:svg="http://www.w3.org/2000/svg"
   xmlns="http://www.w3.org/2000/svg"
   xmlns:sodipodi="http://sodipodi.sourceforge.net/DTD/sodipodi-0.dtd"
   xmlns:inkscape="http://www.inkscape.org/namespaces/inkscape"
   width="97.772903mm"
   height="19.392599mm"
   viewBox="0 0 346.43942 68.713934"
   id="svg2"
   version="1.1"
   inkscape:version="0.91 r13725"
   sodipodi:docname="btn-claro.svg"
   preserveAspectRatio="none">
  <defs
     id="defs4" />
  <sodipodi:namedview
     id="base"
     pagecolor="#ffffff"
     bordercolor="#666666"
     borderopacity="1.0"
     inkscape:pageopacity="0.0"
     inkscape:pageshadow="2"
     inkscape:zoom="1.4"
     inkscape:cx="159.45002"
     inkscape:cy="52.857995"
     inkscape:document-units="px"
     inkscape:current-layer="layer1"
     showgrid="false"
     inkscape:window-width="1280"
     inkscape:window-height="752"
     inkscape:window-x="600"
     inkscape:window-y="1046"
     inkscape:window-maximized="0"
     fit-margin-top="0"
     fit-margin-left="0"
     fit-margin-right="0"
     fit-margin-bottom="0" />
  <metadata
     id="metadata7">
    <rdf:RDF>
      <cc:Work
         rdf:about="">
        <dc:format>image/svg+xml</dc:format>
        <dc:type
           rdf:resource="http://purl.org/dc/dcmitype/StillImage" />
        <dc:title></dc:title>
      </cc:Work>
    </rdf:RDF>
  </metadata>
  <g
     inkscape:label="Camada 1"
     inkscape:groupmode="layer"
     id="layer1"
     transform="translate(-268.06291,-954.29664)">
    <path
       style="fill:#e0bd7e;fill-opacity:1"
       d="m 268.68046,1022.6165 c -0.24293,-0.1617 -0.16712,-0.374 0.25333,-0.7096 0.58318,-0.4656 0.57725,-0.475 -0.21142,-0.3385 -0.78599,0.136 -0.79875,0.1162 -0.40703,-0.6314 0.33152,-0.6327 0.6129,-0.7683 1.56142,-0.7521 1.00255,0.017 1.02685,0 0.18203,-0.1021 -0.53625,-0.067 -0.975,-0.199 -0.975,-0.2933 0,-0.5675 1.33907,-2.1923 1.80676,-2.1923 0.30681,0 0.64126,-0.135 0.74324,-0.3 0.10198,-0.165 -0.0251,-0.3 -0.28229,-0.3 -0.25724,0 -0.46771,-0.067 -0.46771,-0.1495 0,-0.082 3.85368,-6.4553 8.56373,-14.1623 l 8.56372,-14.01267 -0.53872,-1.05819 c -0.2963,-0.582 -0.69722,-1.22838 -0.89093,-1.43639 -0.6752,-0.72506 -2.21339,-3.63528 -2.13091,-4.03164 0.0457,-0.21962 0.21811,-0.5133 0.38311,-0.65261 0.17295,-0.14603 0.0682,-0.17816 -0.24729,-0.0759 -0.67104,0.21756 -1.40271,-0.46023 -1.40271,-1.29941 0,-0.34179 -0.17339,-0.62143 -0.38532,-0.62143 -0.21192,0 -0.62456,-0.405 -0.91696,-0.9 -0.2924,-0.495 -0.43071,-0.9 -0.30734,-0.9 0.12336,0 0.0167,-0.16875 -0.23703,-0.375 -0.25372,-0.20625 -0.75539,-0.86888 -1.11481,-1.47251 -0.48891,-0.82109 -0.55716,-1.13624 -0.27102,-1.25131 0.24776,-0.0996 0.20662,-0.16216 -0.11679,-0.1775 -0.2746,-0.013 -0.90765,-0.68738 -1.40678,-1.49858 -0.75159,-1.2215 -0.82911,-1.50497 -0.45119,-1.65 0.68741,-0.26378 0.78778,-0.2177 0.59875,0.2749 -0.15437,0.40228 -0.008,0.50575 0.59995,0.42438 0.1053,-0.0141 0.3002,0.15032 0.43311,0.36537 0.18549,0.30013 0.37577,0.23636 0.81873,-0.27437 0.3859,-0.44495 0.91327,-0.66386 1.59189,-0.66079 0.93393,0.004 2.30132,0.53457 1.61481,0.62631 -0.165,0.022 0.0833,0.12537 0.55183,0.22959 l 0.85182,0.18951 -0.6041,0.6947 c -0.33226,0.38209 -0.67058,0.65209 -0.75183,0.6 -0.0812,-0.0521 -0.26022,0.0197 -0.39772,0.15963 -0.1375,0.13989 0.02,0.22559 0.35,0.19046 0.33,-0.0351 0.9375,-0.044 1.35,-0.0198 0.72521,0.0426 0.73075,0.0586 0.16766,0.48455 -0.85673,0.64799 0.0453,0.57658 1.46998,-0.11637 0.76995,-0.37451 1.02257,-0.63235 0.77154,-0.7875 -0.29258,-0.18082 -0.28528,-0.2864 0.0338,-0.48858 0.26938,-0.17068 0.0266,-0.25946 -0.71797,-0.2625 -0.74682,-0.003 -1.125,-0.14188 -1.125,-0.41299 0,-0.2775 0.26443,-0.36613 0.825,-0.27651 0.64951,0.10383 0.72928,0.0631 0.375,-0.1916 -0.4,-0.28755 -0.4,-0.35631 0,-0.6189 0.56881,-0.3734 1.2,-0.38896 1.2,-0.0296 0,0.15125 -0.16875,0.34309 -0.375,0.42631 -0.20625,0.0832 -0.0712,0.16198 0.3,0.175 0.37125,0.013 0.945,-0.24631 1.275,-0.57631 0.33,-0.33 0.95194,-0.6 1.3821,-0.6 0.5475,0 0.7337,-0.12611 0.62076,-0.42044 -0.0993,-0.2588 0.0902,-0.4879 0.4929,-0.5959 1.13838,-0.30531 1.69521,-0.20106 2.22385,0.41634 0.31108,0.36332 0.87204,0.59466 1.42206,0.58647 l 0.90833,-0.0135 -0.9,-0.41211 c -0.495,-0.22665 -0.765,-0.42513 -0.6,-0.44106 0.6322,-0.061 -0.64133,-0.61081 -1.425,-0.61518 -0.61506,-0.003 -0.825,-0.15277 -0.825,-0.58689 0,-0.65388 -0.56499,-1.13504 -0.85854,-0.73114 -0.1053,0.14489 -0.68669,0.26344 -1.29197,0.26344 -0.60528,0 -1.0452,-0.0551 -0.9776,-0.1224 0.17159,-0.17088 -0.48808,-0.9276 -0.80862,-0.9276 -0.1448,0 -0.26327,0.2295 -0.26327,0.51 0,0.39667 -0.08,0.43 -0.36,0.15 -0.198,-0.198 -0.56925,-0.35051 -0.825,-0.33892 -0.32957,0.0149 -0.29025,0.0962 0.135,0.27892 0.48131,0.20683 0.37746,0.262 -0.525,0.27891 -0.61875,0.0116 -1.125,-0.11391 -1.125,-0.27891 0,-0.165 0.2025,-0.3 0.45,-0.3 0.545,0 0.59692,-0.48882 0.075,-0.70615 -0.27196,-0.11325 -0.22883,-0.27486 0.15699,-0.58819 0.50932,-0.41362 0.50932,-0.43796 0,-0.57114 -0.71092,-0.18591 -1.14797,-0.13247 -1.06059,0.12968 0.0393,0.11781 -0.1431,0.13189 -0.40528,0.0313 -0.26217,-0.10061 -0.5643,-0.049 -0.6714,0.1146 -0.10709,0.16364 -0.56237,0.38748 -1.01173,0.49743 -1.03512,0.25327 -0.86539,-0.42824 0.25615,-1.02847 0.41652,-0.22291 0.88075,-0.63595 1.03162,-0.91785 0.23309,-0.43553 0.0606,-0.55813 -1.14823,-0.81597 -0.8265,-0.17629 -1.86247,-0.19935 -2.47253,-0.055 -0.93169,0.2204 -0.7627,0.46153 0.23173,0.33065 0.20995,-0.0276 0.59085,0.15887 0.84643,0.41445 0.3954,0.3954 0.39935,0.4647 0.0265,0.4647 -0.241,0 -0.7569,0.27372 -1.14642,0.60827 -0.61296,0.52643 -0.63211,0.59706 -0.14232,0.525 0.35632,-0.0524 0.59776,0.11978 0.65187,0.46495 0.064,0.40844 -0.042,0.49538 -0.41593,0.34096 -0.27602,-0.11399 -0.77186,-0.2679 -1.10186,-0.34202 -0.46713,-0.10492 -0.43398,-0.0364 0.1497,0.30957 l 0.74971,0.44434 -0.87629,0.21993 -0.87628,0.21994 0.69408,0.56203 c 0.38174,0.30912 0.6249,0.63121 0.54035,0.71576 -0.24582,0.24582 -1.72901,-0.52968 -1.55416,-0.8126 0.0871,-0.14087 -0.25467,-0.25613 -0.7594,-0.25613 -1.24578,0 -1.15487,0.37058 0.20729,0.84503 2.01428,0.70158 2.45857,0.73474 3.21389,0.23984 0.82247,-0.53891 3.62918,-0.65788 4.36111,-0.18487 0.4,0.2585 0.4,0.29183 0,0.3 -0.4,0.008 -0.4,0.0415 0,0.3 0.36806,0.23786 0.33378,0.29165 -0.18827,0.29541 -0.83318,0.006 -1.41752,0.6788 -0.97439,1.12193 0.23074,0.23074 0.12534,0.38581 -0.36887,0.54267 -0.43003,0.13648 -0.73481,0.091 -0.8052,-0.1202 -0.0623,-0.1869 -0.31787,-0.33981 -0.56793,-0.33981 -0.25007,0 -0.9174,-0.21958 -1.48296,-0.48796 -0.65098,-0.30891 -1.41067,-0.42591 -2.07034,-0.31886 -0.57312,0.093 -1.04204,0.0426 -1.04204,-0.11204 0,-0.15463 -0.27,-0.28114 -0.6,-0.28114 -0.33,0 -0.6,0.135 -0.6,0.3 0,0.165 0.135,0.3 0.3,0.3 0.165,0 0.3,0.135 0.3,0.3 0,0.58195 -0.50812,0.29027 -0.8672,-0.49781 -0.29048,-0.63754 -0.28509,-0.84754 0.0269,-1.0454 0.2759,-0.17501 0.20247,-0.24895 -0.25047,-0.2522 -0.43451,-0.003 -0.80039,-0.34087 -1.13648,-1.04914 -0.27262,-0.5745 -0.47897,-1.13316 -0.45856,-1.24146 0.0204,-0.1083 -0.14317,-0.31325 -0.36352,-0.45545 -0.32848,-0.21198 -0.31959,-0.31725 0.0494,-0.58456 0.36736,-0.26615 0.33184,-0.30038 -0.19341,-0.18635 -0.46081,0.10004 -0.73311,-0.0572 -0.95952,-0.55414 -0.27822,-0.61062 -0.21906,-0.73 0.4934,-0.99564 0.7985,-0.29772 0.79567,-0.30106 -0.20782,-0.24484 -0.56719,0.0318 -1.07379,-0.10215 -1.14489,-0.30266 -0.0877,-0.24729 0.24604,-0.33877 1.06815,-0.29281 0.65762,0.0368 1.13111,-0.0376 1.05218,-0.16535 -0.0789,-0.12771 0.0627,-0.23219 0.31479,-0.23219 0.56757,0 0.30712,-0.83812 -0.47706,-1.53519 -0.76415,-0.67926 -0.67951,-1.41982 0.18713,-1.63734 1.16927,-0.29347 1.56722,0.1622 0.73286,0.83914 l -0.71581,0.58076 0.825,-0.1794 c 0.94712,-0.20596 2.325,0.0693 2.325,0.46455 0,0.14711 -0.26203,0.26748 -0.58229,0.26748 -0.32027,0 -0.66573,0.135 -0.76771,0.3 -0.22747,0.36806 0.81936,0.40143 1.215,0.0387 0.4606,-0.42224 1.935,-0.6847 1.935,-0.34445 0,0.16815 -0.135,0.30572 -0.3,0.30572 -0.165,0 -0.3,0.135 -0.3,0.3 0,0.7118 0.95152,0.21232 1.40429,-0.73715 0.27202,-0.57044 0.62243,-0.95814 0.77869,-0.86157 0.15625,0.0966 0.37509,0.0284 0.48629,-0.15157 0.11121,-0.17993 0.4996,-0.24938 0.86309,-0.15432 0.36349,0.0951 0.58694,0.29248 0.49656,0.43872 -0.0904,0.14624 0.14739,0.26382 0.52837,0.2613 0.50938,-0.003 0.58365,-0.0737 0.28066,-0.26561 -0.30135,-0.19088 0.021,-0.47854 1.2,-1.07069 0.88663,-0.44533 1.67955,-0.80956 1.76205,-0.8094 0.0825,1.6e-4 0.20625,-0.056 0.275,-0.12471 0.0687,-0.0688 -0.10964,-0.125 -0.39643,-0.125 -0.28678,0 -0.73169,-0.21026 -0.98868,-0.46725 -0.25699,-0.25699 -0.65235,-0.39623 -0.87857,-0.30942 -0.22623,0.0868 -0.41132,0.0271 -0.41132,-0.13275 0,-0.15982 0.2116,-0.29058 0.47022,-0.29058 0.32387,0 0.41444,-0.17572 0.29101,-0.56463 -0.14335,-0.45163 4.2e-4,-0.59099 0.71827,-0.69635 0.58575,-0.086 0.95287,0.0126 1.05694,0.28383 0.0877,0.22856 0.39664,0.37654 0.68651,0.32884 0.28988,-0.0477 0.69701,0.0199 0.90473,0.15016 0.47464,0.29769 1.64024,-0.0493 1.41109,-0.42001 -0.0935,-0.15123 0.0396,-0.19457 0.29565,-0.0963 0.25607,0.0983 0.46558,0.0292 0.46558,-0.15343 0,-0.51067 2.60116,-0.42239 2.79971,0.095 0.11783,0.30708 0.56567,0.40003 1.59341,0.33074 0.78624,-0.053 1.75726,0.0282 2.15782,0.18053 0.81657,0.31046 1.95042,0.0683 1.68571,-0.35998 -0.16563,-0.268 0.643,-0.42126 1.73835,-0.32947 0.28875,0.0242 0.525,-0.066 0.525,-0.20051 0,-0.13448 0.42418,-0.18225 0.94261,-0.10616 0.69501,0.10201 0.88251,0.0411 0.7138,-0.23189 -0.17779,-0.28767 -0.0883,-0.29502 0.40137,-0.033 0.6422,0.34369 3.54863,0.23034 3.89969,-0.15208 0.10589,-0.11536 -0.19003,-0.11783 -0.65761,-0.006 -0.52356,0.12578 -0.7809,0.0922 -0.66991,-0.0874 0.0991,-0.16038 -0.19332,-0.34807 -0.64987,-0.41707 -0.45654,-0.069 0.35117,-0.1457 1.79492,-0.17042 1.57996,-0.0271 2.625,0.0745 2.625,0.25505 0,0.165 -0.13025,0.3 -0.28945,0.3 -0.47435,0 -1.06374,1.29894 -0.6517,1.43628 0.18969,0.0632 0.2644,0.2452 0.16602,0.40438 -0.11058,0.17892 0.74796,0.26194 2.2487,0.21744 1.34377,-0.0399 2.25989,-0.17845 2.052,-0.31045 -0.26137,-0.16595 -0.20073,-0.23986 0.19943,-0.24306 0.31625,-0.003 0.4847,-0.0949 0.37434,-0.20524 -0.31162,-0.31163 0.7259,-1.29935 1.36486,-1.29935 0.31417,0 0.48778,-0.135 0.3858,-0.3 -0.10198,-0.165 0.0813,-0.3 0.40729,-0.3 0.32599,0 0.64525,0.15763 0.70947,0.35028 0.0889,0.26667 0.45279,0.26567 1.52456,-0.004 1.15411,-0.29061 1.59709,-0.2754 2.45824,0.0844 0.57774,0.2414 1.05044,0.32671 1.05044,0.18958 0,-0.13713 0.54209,-0.25681 1.20465,-0.26596 0.66256,-0.009 1.47322,-0.10186 1.80148,-0.20605 0.39475,-0.12528 0.65798,-0.0301 0.77744,0.28126 0.0993,0.25888 0.31562,0.47069 0.48062,0.47069 0.165,0 0.2223,-0.2025 0.12732,-0.45 -0.13006,-0.33894 0.0515,-0.45 0.73561,-0.45 0.52913,0 0.83089,0.12523 0.72288,0.3 -0.10198,0.165 -0.0504,0.3 0.11459,0.3 0.165,0 0.36962,-0.11264 0.4547,-0.25031 0.27777,-0.44945 2.49056,-0.3698 2.8836,0.1038 0.49978,0.60219 2.52932,0.57028 3.48327,-0.0548 0.57569,-0.37721 0.82033,-0.41182 0.98843,-0.13984 0.12286,0.19879 0.44884,0.27493 0.72439,0.16918 0.27556,-0.10574 0.50102,-0.0572 0.50102,0.10775 0,0.61142 0.85563,0.60013 1.52135,-0.0201 0.45874,-0.42738 0.7273,-0.51978 0.80791,-0.27795 0.14515,0.43548 0.97074,0.4884 0.97074,0.0622 0,-0.44036 2.32457,-0.37022 2.4858,0.075 0.10865,0.3 0.26283,0.3 0.77093,0 0.81595,-0.48176 2.51508,-0.48319 2.99576,-0.003 0.26321,0.26321 0.43484,0.27645 0.585,0.0452 0.13974,-0.21526 2.06157,-0.33387 5.61251,-0.34639 3.51184,-0.0124 5.13775,0.0748 4.65,0.24928 -0.68486,0.24502 -0.67183,0.25489 0.15,0.11367 2.5401,-0.43649 3.55162,-0.43523 4.0381,0.005 0.27489,0.24877 0.99725,0.48797 1.60525,0.53154 0.79293,0.0568 1.10562,0.21858 1.10605,0.57213 3e-4,0.2711 0.23685,0.5867 0.5256,0.70134 0.41981,0.16667 0.2996,0.29974 -0.6,0.66418 -1.10332,0.44697 -1.49141,0.97098 -0.75,1.01267 0.20625,0.0116 0.105,0.1371 -0.225,0.27891 -0.53919,0.2317 -0.51964,0.25997 0.1929,0.27891 0.67236,0.0179 1.1571,0.49258 1.1571,1.13313 0,0.0896 -0.43875,0.0755 -0.975,-0.0313 -0.92575,-0.18448 -0.94317,-0.17195 -0.34476,0.24816 0.50813,0.35672 0.84172,0.37754 1.72183,0.10743 0.93648,-0.28742 1.17831,-0.25655 1.70185,0.21725 0.46784,0.42338 0.69262,0.46991 0.96317,0.19936 0.42904,-0.42904 1.24243,-0.47283 0.98291,-0.0529 -0.2866,0.46373 0.53871,0.35448 1.28827,-0.17053 0.36947,-0.25879 0.59404,-0.59629 0.49904,-0.75 -0.25241,-0.4084 0.22885,-0.32396 0.85359,0.14977 0.40477,0.30693 0.44252,0.44958 0.15,0.56678 -0.215,0.0861 0.11535,0.16727 0.7341,0.1803 1.15077,0.0242 1.54444,0.48354 0.6,0.70003 -0.86993,0.19941 1.79206,0.82394 4.25772,0.99891 1.76209,0.12504 2.41276,0.0569 2.93265,-0.30728 0.54861,-0.38426 0.57569,-0.46798 0.15138,-0.46798 -0.28421,0 -0.51675,-0.11162 -0.51675,-0.24804 0,-0.23586 1.15886,-0.18288 2.625,0.12002 0.37125,0.0767 0.675,0.34413 0.675,0.59429 0,0.37094 0.11771,0.39184 0.63815,0.11331 0.48749,-0.26089 0.69227,-0.25397 0.86735,0.0293 0.17639,0.28539 0.39036,0.25797 0.9286,-0.11903 0.38467,-0.26943 1.00686,-0.48988 1.38265,-0.48988 0.37579,0 0.68325,-0.135 0.68325,-0.3 0,-0.39061 1.40859,-0.39061 1.65,0 0.10198,0.165 0.41369,0.29144 0.69271,0.28098 0.36426,-0.0136 0.3151,-0.0962 -0.17436,-0.29279 -0.37491,-0.15058 -0.76358,-0.48728 -0.86371,-0.74822 -0.10014,-0.26095 -0.36832,-0.40298 -0.59596,-0.31563 -0.22764,0.0874 -0.78397,0.009 -1.23628,-0.17485 l -0.8224,-0.33368 0.75,-0.20214 0.75,-0.20214 -0.84707,-0.45071 c -0.65571,-0.3489 -0.75737,-0.51679 -0.45,-0.7432 0.77009,-0.56724 2.61117,-1.03806 3.34197,-0.85464 0.84027,0.21089 1.40932,-0.36507 0.64896,-0.65685 -0.395,-0.15157 -0.41386,-0.24053 -0.094,-0.44329 0.30645,-0.19425 0.27721,-0.25473 -0.12484,-0.25825 -0.28875,-0.003 -0.525,-0.15533 -0.525,-0.33956 0,-0.19554 -0.3122,-0.2753 -0.75,-0.1916 -0.86618,0.16558 -0.95538,-0.007 -0.26459,-0.51223 0.37573,-0.27474 0.83111,-0.26526 2.01538,0.0419 0.84148,0.21828 1.84714,0.39687 2.23481,0.39687 0.57754,0 0.66903,0.11279 0.50661,0.62453 -0.16728,0.52706 -0.0885,0.60789 0.50479,0.51788 0.38665,-0.0587 0.66586,-0.28237 0.62046,-0.49714 -0.0575,-0.27197 0.11326,-0.32834 0.56257,-0.18574 0.40342,0.12804 0.57497,0.0913 0.4579,-0.0982 -0.20868,-0.33764 1.25948,-0.93942 1.82022,-0.74608 0.59821,0.20626 0.0997,0.93061 -0.52752,0.76658 -0.34488,-0.0902 -0.58063,2e-5 -0.58063,0.22217 0,0.2653 0.38881,0.33018 1.33774,0.22322 0.84021,-0.0947 1.38929,-0.0255 1.47632,0.18598 0.0921,0.22374 0.14652,0.21091 0.16225,-0.0382 0.0149,-0.2358 0.48471,-0.375 1.26562,-0.375 0.80065,0 1.36871,-0.17339 1.59875,-0.48798 0.29184,-0.39912 0.47655,-0.42391 1.01427,-0.13613 0.3616,0.19352 0.78966,0.27015 0.95125,0.17028 0.16159,-0.0999 0.2938,-0.0512 0.2938,0.10804 0,0.15929 0.25476,0.223 0.56614,0.14157 0.31138,-0.0814 0.65685,-10e-4 0.76771,0.17808 0.11086,0.17938 0.42984,0.32407 0.70886,0.32155 0.38121,-0.003 0.41056,-0.066 0.11809,-0.25149 -0.31342,-0.19881 -0.30402,-0.31758 0.0483,-0.60997 0.24062,-0.1997 0.50808,-0.24888 0.59434,-0.1093 0.13672,0.22122 0.80548,0.25527 2.23928,0.11403 0.21988,-0.0217 0.29724,-0.19314 0.17578,-0.38966 -0.15372,-0.24873 -0.0496,-0.2798 0.3573,-0.10664 0.31581,0.13439 0.80055,0.25377 1.07718,0.26527 0.27664,0.0115 0.44343,0.11727 0.37065,0.23504 -0.0728,0.11776 0.13963,0.30043 0.47202,0.40593 0.72355,0.22964 0.78272,0.61874 0.13207,0.86842 -0.42829,0.16435 -0.42757,0.22596 0.008,0.66124 0.4868,0.4868 1.54565,0.35739 1.23172,-0.15054 -0.094,-0.15207 -10e-4,-0.34487 0.20599,-0.42843 0.24806,-0.10001 0.21452,-0.16004 -0.0981,-0.17563 -0.26125,-0.013 -0.475,-0.19656 -0.475,-0.40785 0,-0.2397 0.36501,-0.37206 0.97065,-0.35196 0.72904,0.0242 0.9294,-0.0753 0.80496,-0.39956 -0.13282,-0.34611 0.0292,-0.38895 0.81688,-0.21596 0.68592,0.15065 0.92078,0.11582 0.7779,-0.11536 -0.14775,-0.23907 0.0226,-0.24476 0.61257,-0.0205 0.61548,0.23401 0.87619,0.21527 1.05593,-0.0759 0.18345,-0.29717 2.19107,-0.40715 8.67604,-0.47529 5.21788,-0.0548 8.37081,0.019 8.26294,0.19357 -0.0959,0.15522 0.0383,0.36386 0.29839,0.46365 0.641,0.24598 0.7881,0.22828 0.60222,-0.0725 -0.0863,-0.13966 0.37822,-0.20041 1.03229,-0.135 0.67974,0.068 1.18923,-0.011 1.18923,-0.18432 0,-0.19729 3.06604,-0.30517 8.775,-0.30875 5.73976,-0.004 8.61935,0.0945 8.325,0.28365 -0.38432,0.24695 -0.37337,0.28982 0.075,0.29375 0.28875,0.003 0.525,-0.12979 0.525,-0.29404 0,-0.19251 3.35736,-0.28764 9.44773,-0.26768 6.44087,0.0211 9.38652,0.12999 9.25541,0.34213 -0.12899,0.20872 0.094,0.22771 0.67727,0.0577 0.47828,-0.13942 26.51959,-0.26704 57.86959,-0.2836 31.35,-0.0166 56.3925,0.0263 55.65,0.0951 -1.21893,0.11311 -1.05393,0.17636 1.69944,0.65148 1.9533,0.33706 3.37185,0.75577 3.94632,1.16484 0.49326,0.35124 1.10103,0.63862 1.35054,0.63862 0.24954,0 0.50769,0.162 0.57369,0.36 0.0668,0.20033 0.64338,0.35699 1.30002,0.35321 0.64899,-0.004 1.27095,0.12934 1.38213,0.29571 0.13161,0.19698 0.35706,0.17391 0.64629,-0.0661 0.5262,-0.43671 2.08575,-0.13593 1.90818,0.36801 -0.0658,0.18656 -0.47877,0.3 -0.91785,0.2521 -0.49197,-0.0537 -0.86382,0.0837 -0.96906,0.35787 -0.12924,0.33678 -0.34689,0.378 -0.89523,0.16953 -0.48972,-0.1862 -0.72447,-0.17011 -0.72447,0.0497 0,0.20369 -0.30807,0.24955 -0.825,0.12279 -0.80151,-0.19655 -0.80793,-0.1883 -0.225,0.28972 0.33,0.27062 0.4248,0.40257 0.21066,0.29322 -0.22185,-0.11329 -0.72342,0.13525 -1.16592,0.57775 -0.42711,0.42711 -0.63111,0.77657 -0.45336,0.77657 0.17778,0 0.41232,-0.1442 0.52125,-0.32045 0.10893,-0.17625 0.42066,-0.22304 0.69273,-0.10399 0.27204,0.11906 1.09134,0.29701 1.82064,0.39546 0.72933,0.0984 1.37829,0.33711 1.44216,0.53037 0.0747,0.22601 -0.13089,0.29893 -0.57603,0.20436 -0.52275,-0.11105 -0.582,-0.077 -0.24213,0.13918 0.77808,0.49488 2.4,0.73898 2.4,0.3612 0,-0.19339 0.16266,-0.24381 0.375,-0.11625 0.29826,0.1792 0.29931,0.13175 0.005,-0.23191 -0.29634,-0.36629 -0.28143,-0.5716 0.075,-1.03258 0.42162,-0.54523 0.46632,-0.54787 0.85299,-0.0504 0.42594,0.54797 1.26549,0.74852 0.94194,0.225 -0.30504,-0.49359 0.94437,-0.33875 1.36602,0.16929 0.2472,0.29787 0.64413,0.40536 1.08672,0.29428 0.38802,-0.0974 0.69726,-0.0394 0.69726,0.13071 0,0.16815 0.19554,0.30572 0.43455,0.30572 0.23898,0 0.79872,0.3375 1.2438,0.75 0.81318,0.75364 2.52165,1.04652 2.52165,0.43229 0,-0.17473 -0.16875,-0.22243 -0.375,-0.10598 -0.28743,0.16227 -0.29352,0.12346 -0.0261,-0.16616 0.19185,-0.20783 0.49806,-0.28566 0.68043,-0.17295 0.47919,0.29615 -0.77922,1.9628 -1.48203,1.9628 -0.76749,0 -1.01325,0.49083 -0.37056,0.73999 0.49632,0.19241 0.49647,0.22261 0.003,0.5861 -0.28617,0.21078 -0.43242,0.47114 -0.32499,0.57857 0.10743,0.10744 0.0528,0.19534 -0.12132,0.19534 -0.17418,0 -0.29793,0.16875 -0.27501,0.375 0.0228,0.20625 -2.8386,5.06733 -6.35895,10.8024 l -6.40065,10.4274 6.97836,11.4726 c 3.83808,6.30995 7.83693,12.86775 8.88633,14.57285 1.8513,3.0082 1.8876,3.1059 1.22229,3.2885 -0.64488,0.177 -0.6321,0.2002 0.21429,0.3892 0.88614,0.198 0.88296,0.2016 -0.2073,0.2365 -0.609,0.019 -1.19073,0.1705 -1.2927,0.3355 -0.10197,0.165 -0.0279,0.3 0.1644,0.3 0.19239,0 0.2721,0.2025 0.17712,0.45 -0.21768,0.5673 -0.14925,0.5632 1.17678,-0.069 1.04076,-0.4963 1.10628,-0.495 1.48956,0.029 0.4824,0.6598 0.26562,1.3883 -0.41496,1.3946 -0.42783,0 -0.4335,0.043 -0.0429,0.2954 0.38457,0.2486 0.37365,0.2915 -0.075,0.2954 -0.31809,0 -0.525,0.2341 -0.525,0.5869 0,0.6754 -0.47148,1.0684 -0.74697,0.6226 -0.24303,-0.3932 -1.86069,-0.397 -2.10303,0 -0.11334,0.1834 -2.45901,0.3 -6.0354,0.3 -4.35435,0 -5.79513,-0.089 -5.63538,-0.3472 0.15387,-0.249 0.0102,-0.2788 -0.5073,-0.1052 -1.22205,0.4099 -12.60543,0.4799 -13.60215,0.084 -0.67713,-0.2691 -0.90786,-0.2671 -0.99984,0.01 -0.0926,0.2777 -31.33412,0.3586 -138.20922,0.3579 -119.63412,-9e-4 -138.1374,-0.059 -138.4471,-0.4317 -0.19661,-0.2369 -0.56373,-0.3516 -0.81582,-0.2549 -0.25209,0.097 -0.54597,0.052 -0.65307,-0.099 -0.27083,-0.3822 -1.88857,-1.0687 -2.07624,-0.8811 -0.0847,0.085 -0.002,0.3373 0.18401,0.5613 0.26254,0.3163 0.22186,0.4075 -0.18225,0.4085 -0.28613,6e-4 -0.67935,-0.2131 -0.87381,-0.475 -0.31588,-0.4255 -0.37752,-0.4123 -0.57812,0.1237 -0.1235,0.33 -0.36939,0.6992 -0.54643,0.8204 -0.47673,0.3264 -1.672,0.2761 -1.672,-0.07 0,-0.165 -0.43875,-0.2979 -0.975,-0.2954 -0.73987,0 -0.86648,0.075 -0.525,0.2954 0.34941,0.2258 0.26163,0.2919 -0.39271,0.2954 -0.46348,0 -0.76606,-0.1194 -0.67238,-0.271 0.32887,-0.5321 -1.6396,-0.7131 -2.20368,-0.2026 -0.66163,0.5987 -1.21826,0.6087 -1.64816,0.029 -0.29566,-0.3984 -0.42959,-0.3984 -1.19236,0 -1.16544,0.6086 -1.89804,0.61 -1.39394,0 0.21385,-0.2577 0.28958,-0.7675 0.17928,-1.2069 -0.15229,-0.6068 -0.0528,-0.8183 0.4915,-1.0447 0.52468,-0.2182 0.26013,-0.275 -1.14436,-0.2456 -1.00474,0.021 -1.96798,-0.049 -2.14053,-0.1556 -0.17256,-0.1067 -0.73857,-0.046 -1.2578,0.1352 -0.69846,0.2434 -0.86419,0.4253 -0.63706,0.699 0.16885,0.2034 0.20692,0.4719 0.0846,0.5966 -0.12232,0.1247 0.0476,0.1928 0.3776,0.1513 0.33,-0.042 0.87,0.043 1.2,0.1874 0.54199,0.2375 0.51298,0.281 -0.3,0.4497 l -0.9,0.1869 0.75,0.3274 c 0.58462,0.2552 -0.24228,0.3269 -3.75,0.3253 -2.77658,-10e-4 -4.27021,-0.1008 -3.9,-0.2599 0.57847,-0.2486 0.57641,-0.2586 -0.0573,-0.2789 -0.36152,-0.012 -0.74073,-0.1562 -0.84271,-0.3212 -0.10198,-0.165 -0.51494,-0.3 -0.91771,-0.3 -0.40276,0 -0.73229,0.135 -0.73229,0.3 0,0.165 0.3375,0.3 0.75,0.3 0.4125,0 0.75,0.135 0.75,0.3 0,0.175 -1,0.3 -2.4,0.3 -1.71755,0 -2.40131,-0.1066 -2.40459,-0.375 -0.003,-0.2622 -0.0709,-0.2748 -0.225,-0.042 -0.24841,0.3755 -4.41832,0.4058 -4.97374,0.036 z m 334.60099,-0.8943 c 0.004,-0.3319 -0.84666,-0.2734 -1.5579,0.1072 -0.44388,0.2376 -0.51615,0.397 -0.25362,0.5592 0.3876,0.2396 1.80753,-0.2828 1.81152,-0.6664 z m -319.53073,0.2648 c 0.27479,-0.3311 0.12313,-0.4454 -0.78685,-0.593 -0.88487,-0.1436 -1.25478,-0.055 -1.72033,0.4101 -0.59078,0.5908 -0.58772,0.5931 0.78685,0.5931 0.80104,0 1.52273,-0.1721 1.72033,-0.4102 z m 2.13307,0.1102 c 0,-0.165 -0.23625,-0.2979 -0.525,-0.2954 -0.44866,0 -0.45957,0.047 -0.075,0.2954 0.56616,0.3659 0.6,0.3659 0.6,0 z m 25.50869,0.012 c -0.77557,-0.4905 -0.16464,-0.6064 0.73528,-0.1395 0.47662,0.2472 1.07039,0.3713 1.3195,0.2757 0.85884,-0.3295 -1.28745,-1.178 -2.73847,-1.0825 -1.0988,0.072 -0.49196,1.1568 0.675,1.2063 0.39361,0.017 0.3947,-0.016 0.009,-0.26 z m 8.09131,-0.012 c 0.54839,-0.3544 0.0747,-0.3544 -0.75,0 -0.39562,0.17 -0.44672,0.2634 -0.15,0.2743 0.2475,0.01 0.6525,-0.1144 0.9,-0.2743 z m -47.18125,-0.1813 c -0.0997,-0.1 -0.35844,-0.1103 -0.575,-0.024 -0.23932,0.096 -0.16823,0.1669 0.18125,0.1813 0.31625,0.013 0.49344,-0.058 0.39375,-0.1576 z m 50.1,0 c -0.0997,-0.1 -0.35844,-0.1103 -0.575,-0.024 -0.23932,0.096 -0.16823,0.1669 0.18125,0.1813 0.31625,0.013 0.49344,-0.058 0.39375,-0.1576 z m -42,-0.3 c -0.0997,-0.1 -0.35844,-0.1103 -0.575,-0.024 -0.23932,0.096 -0.16823,0.1669 0.18125,0.1813 0.31625,0.013 0.49344,-0.058 0.39375,-0.1576 z m 12.98125,0.049 c 0,-0.073 -0.135,-0.2157 -0.3,-0.3177 -0.165,-0.1019 -0.3,-0.042 -0.3,0.1323 0,0.1748 0.135,0.3177 0.3,0.3177 0.165,0 0.3,-0.059 0.3,-0.1323 z m 13.71875,-0.3489 c -0.0997,-0.1 -0.35844,-0.1104 -0.575,-0.024 -0.23932,0.096 -0.16823,0.1668 0.18125,0.1812 0.31625,0.013 0.49344,-0.058 0.39375,-0.1575 z m 290.18125,-0.1188 c 0,-0.3758 -0.31836,-0.3758 -0.9,0 -0.3639,0.2352 -0.32082,0.2917 0.225,0.2954 0.37125,0 0.675,-0.1304 0.675,-0.2954 z m 3.6,0 c 0.36585,-0.2364 0.32709,-0.2916 -0.2073,-0.2954 -0.3615,0 -0.74073,0.1304 -0.8427,0.2954 -0.23607,0.382 0.45897,0.382 1.05,0 z m -174.9,-0.1323 c 0,-0.073 -0.135,-0.2157 -0.3,-0.3177 -0.165,-0.1019 -0.3,-0.043 -0.3,0.1323 0,0.1748 0.135,0.3177 0.3,0.3177 0.165,0 0.3,-0.059 0.3,-0.1323 z m 86.25,-0.1677 c 0.10198,-0.165 -0.0926,-0.3 -0.43229,-0.3 -0.33974,0 -0.61771,0.135 -0.61771,0.3 0,0.165 0.19453,0.3 0.43229,0.3 0.23777,0 0.51573,-0.135 0.61771,-0.3 z m -218.7,-0.3 c -0.10198,-0.165 -0.37198,-0.3 -0.6,-0.3 -0.22802,0 -0.49802,0.135 -0.6,0.3 -0.10557,0.1709 0.15279,0.3 0.6,0.3 0.44721,0 0.70557,-0.1291 0.6,-0.3 z m 315.32406,-0.095 c -0.51138,-0.3739 -0.5127,-0.4232 -0.0243,-0.9116 0.48843,-0.4884 0.45375,-0.5126 -0.64173,-0.4476 -1.29027,0.077 -2.20806,0.515 -2.20806,1.0547 0,0.1957 -0.23625,0.4176 -0.525,0.493 -0.28875,0.076 0.47955,0.1529 1.70733,0.172 1.91553,0.03 2.15562,-0.021 1.69173,-0.3605 z m -287.06606,-0.2382 c -0.76191,-0.4432 -5.25225,-0.7418 -4.858,-0.323 0.28922,0.3072 1.67864,0.504 4.2,0.595 0.97107,0.035 1.0966,-0.017 0.658,-0.272 z m 267.4727,0.1368 c -0.2031,-0.082 -0.6081,-0.087 -0.9,-0.011 -0.29187,0.076 -0.1257,0.1433 0.3693,0.1494 0.495,0.01 0.73383,-0.056 0.5307,-0.1383 z m 4.79244,-0.3026 c -0.2073,-0.084 -0.30057,-0.2754 -0.2073,-0.4263 0.0933,-0.1509 -0.0329,-0.2744 -0.28044,-0.2744 -0.51585,0 -0.86142,0.424 -0.57723,0.7082 0.10551,0.1055 0.47307,0.1812 0.81684,0.1682 0.34374,-0.013 0.4554,-0.092 0.24813,-0.1757 z m -313.27314,-0.8612 c 0,-0.077 -0.6075,-0.1395 -1.35,-0.1395 -0.79397,0 -1.35,0.138 -1.35,0.335 0,0.1956 0.3122,0.2753 0.75,0.1916 0.4125,-0.079 0.75,-0.022 0.75,0.1256 0,0.1479 0.27,0.1245 0.6,-0.052 0.33,-0.1766 0.6,-0.3839 0.6,-0.4606 z m 17.91875,0.5793 c -0.0997,-0.1 -0.35844,-0.1104 -0.575,-0.024 -0.23932,0.096 -0.16823,0.1668 0.18125,0.1812 0.31625,0.013 0.49344,-0.058 0.39375,-0.1575 z m 2.48125,0.035 c 0,-0.3087 -2.21815,-1.0536 -3.11164,-1.0449 -0.80276,0.01 -0.85986,0.055 -0.39514,0.3251 0.29877,0.1738 0.74849,0.2372 0.99938,0.1409 0.25088,-0.096 0.74522,0.027 1.09853,0.2749 0.62002,0.4343 1.40887,0.6045 1.40887,0.304 z m -29.58885,-0.911 c 0.14738,-0.384 0.0687,-0.4015 -0.4929,-0.1093 -0.9565,0.4975 -0.99299,0.5663 -0.30035,0.5663 0.33985,0 0.69681,-0.2057 0.79325,-0.457 z m 54.4076,-0.3243 c -0.0997,-0.1 -0.35844,-0.1103 -0.575,-0.024 -0.23932,0.096 -0.16823,0.1669 0.18125,0.1813 0.31625,0.013 0.49344,-0.058 0.39375,-0.1576 z m 24.83125,-0.1187 c 0.2279,-0.3688 -2.14186,-0.3688 -3,0 -0.43266,0.1859 -0.12385,0.2637 1.10729,0.2789 0.93902,0.012 1.79073,-0.1139 1.89271,-0.2789 z m 249.06876,-0.4813 c -0.0997,-0.1 -0.35844,-0.1103 -0.57501,-0.024 -0.23931,0.096 -0.16824,0.1669 0.18126,0.1813 0.31623,0.013 0.49344,-0.058 0.39375,-0.1576 z m -314.61876,-0.4324 c 0.32864,-0.2224 0.20727,-0.2503 -0.45,-0.1032 -1.10308,0.2467 -1.34253,0.4184 -0.575,0.4123 0.31625,0 0.7775,-0.1416 1.025,-0.3091 z m 204.49286,-0.1363 c 0.2475,-0.2475 0.32188,-0.45 0.1653,-0.45 -0.15658,0 -0.45275,0.2025 -0.65816,0.45 -0.20541,0.2475 -0.2798,0.45 -0.16531,0.45 0.11449,0 0.41067,-0.2025 0.65817,-0.45 z m -167.19981,-0.4154 c 1.15376,-0.4564 0.74119,-0.9346 -0.80631,-0.9346 -1.68326,0 -4.46637,0.8284 -4.20482,1.2516 0.24292,0.3931 3.78208,0.1692 5.01113,-0.317 z m -40.63602,-0.3017 c 0.54196,-0.3434 0.14686,-0.548 -1.30703,-0.6767 -1.31063,-0.116 -1.80499,0.3756 -0.69271,0.6889 1.00464,0.2829 1.53909,0.2797 1.99974,-0.012 z m 12.76671,-0.2144 c 0.77005,-0.2955 0.22356,-0.7185 -0.92818,-0.7185 -0.91623,0 -1.01565,0.064 -0.69556,0.45 0.39989,0.4818 0.86673,0.559 1.62374,0.2685 z m 235.67626,-0.1091 c 0,-0.1598 -0.2025,-0.2129 -0.45,-0.1179 -0.2475,0.095 -0.45,0.2257 -0.45,0.2906 0,0.065 0.2025,0.1179 0.45,0.1179 0.2475,0 0.45,-0.1308 0.45,-0.2906 z m 69.3,-0.6094 c 0,-0.165 -0.0595,-0.3 -0.1323,-0.3 -0.0728,0 -0.21573,0.135 -0.3177,0.3 -0.10197,0.165 -0.0424,0.3 0.1323,0.3 0.17472,0 0.3177,-0.135 0.3177,-0.3 z m -111.98125,-1.3813 c -0.0997,-0.1 -0.35844,-0.1103 -0.575,-0.024 -0.23932,0.096 -0.16823,0.1669 0.18125,0.1813 0.31625,0.013 0.49344,-0.058 0.39375,-0.1576 z m 89.78125,0.049 c 0,-0.073 -0.135,-0.2157 -0.3,-0.3177 -0.165,-0.102 -0.3,-0.043 -0.3,0.1323 0,0.1748 0.135,0.3177 0.3,0.3177 0.165,0 0.3,-0.059 0.3,-0.1323 z m -71.18125,-1.5489 c -0.0997,-0.1 -0.35844,-0.1104 -0.575,-0.024 -0.23932,0.096 -0.16823,0.1668 0.18125,0.1812 0.31625,0.013 0.49344,-0.058 0.39375,-0.1575 z m -118.86875,-0.7188 c 0.24019,-0.3886 -1.64861,-0.3886 -2.25,0 -0.3301,0.2133 -0.115,0.2921 0.80729,0.2954 0.69152,0 1.34073,-0.1304 1.44271,-0.2954 z m -57.15,-3.7323 c 0,-0.073 -0.135,-0.2157 -0.3,-0.3177 -0.165,-0.102 -0.3,-0.043 -0.3,0.1323 0,0.1748 0.135,0.3177 0.3,0.3177 0.165,0 0.3,-0.059 0.3,-0.1323 z m 0.64179,-3.1355 c -0.3723,-0.2359 -1.54179,-0.12 -1.54179,0.1528 0,0.063 0.43875,0.113 0.975,0.1104 0.66289,0 0.84433,-0.087 0.56679,-0.2632 z m -5.29179,-0.9322 c 0.11195,-0.1811 -0.26734,-0.2916 -0.95729,-0.2789 -0.91252,0.017 -1.02184,0.073 -0.54271,0.2789 0.82454,0.3543 1.28102,0.3543 1.5,0 z m -36.96929,-5.59675 c -0.20311,-0.0822 -0.60811,-0.0872 -0.9,-0.0111 -0.29189,0.0761 -0.12571,0.14329 0.36929,0.14941 0.495,0.006 0.73382,-0.0561 0.53071,-0.1383 z m 282.43805,-1.48447 c -0.0997,-0.0997 -0.35844,-0.11035 -0.57501,-0.0237 -0.23931,0.0958 -0.16824,0.16685 0.18126,0.18125 0.31623,0.013 0.49344,-0.0579 0.39375,-0.15757 z m -168.66876,-1.61875 c -0.10198,-0.165 -0.32041,-0.3 -0.48541,-0.3 -0.165,0 -0.21657,0.135 -0.11459,0.3 0.10198,0.165 0.32041,0.3 0.48541,0.3 0.165,0 0.21657,-0.135 0.11459,-0.3 z m 30.9,-1.05 c 0,-0.34838 -1.49326,-0.57434 -2.14436,-0.32449 -0.24402,0.0936 -0.35507,0.3136 -0.24678,0.48882 0.24432,0.39532 2.39114,0.24778 2.39114,-0.16433 z m 6.75,-0.75 c 0,-0.165 -0.135,-0.3 -0.3,-0.3 -0.165,0 -0.3,0.135 -0.3,0.3 0,0.165 0.135,0.3 0.3,0.3 0.165,0 0.3,-0.135 0.3,-0.3 z m -57.975,-0.66481 c 0.84497,-0.69548 0.33469,-0.91151 -1.82562,-0.77287 -2.70627,0.17368 -3.32093,0.46955 -2.11555,1.01833 0.93806,0.42709 3.30302,0.27979 3.94117,-0.24546 z m -52.29608,-2.00108 c 0.0904,-0.14625 -0.10415,-0.33611 -0.4323,-0.42192 -0.58685,-0.15346 -0.78912,0.0953 -0.39662,0.48781 0.27794,0.27794 0.63391,0.24964 0.82892,-0.0659 z m 45.47108,-0.76641 c 0,-0.31664 -0.57573,-0.44967 -0.74698,-0.17259 -0.10363,0.16769 0.022,0.30489 0.27927,0.30489 0.25724,0 0.46771,-0.0595 0.46771,-0.1323 z m 192.21876,-1.24895 c -0.0997,-0.0997 -0.35844,-0.11035 -0.57501,-0.0237 -0.23932,0.0958 -0.16823,0.16685 0.18126,0.18125 0.31623,0.013 0.49344,-0.0579 0.39375,-0.15757 z M 383.08379,988.2321 c 0,-0.30074 -1.52459,-0.65518 -1.87818,-0.43665 -0.12739,0.0787 -0.15394,0.26881 -0.059,0.42241 0.21972,0.35551 1.93719,0.36814 1.93719,0.0143 z m -16.88125,-0.81622 c -0.0997,-0.0997 -0.35844,-0.11035 -0.575,-0.0237 -0.23932,0.0958 -0.16823,0.16685 0.18125,0.18125 0.31625,0.013 0.49344,-0.0579 0.39375,-0.15757 z m -4.64375,-0.61744 c -0.20625,-0.0832 -0.54375,-0.0832 -0.75,0 -0.20625,0.0832 -0.0375,0.15132 0.375,0.15132 0.4125,0 0.58125,-0.0681 0.375,-0.15132 z m 165.225,-0.10131 c 0,-0.165 -0.12703,-0.3 -0.28229,-0.3 -0.15527,0 -0.36573,0.135 -0.46771,0.3 -0.10198,0.165 0.025,0.3 0.28229,0.3 0.25724,0 0.46771,-0.135 0.46771,-0.3 z M 296.1645,985.90035 c -0.20311,-0.0822 -0.60811,-0.0872 -0.9,-0.0111 -0.29189,0.0761 -0.12571,0.14329 0.36929,0.14941 0.495,0.006 0.73382,-0.0561 0.53071,-0.1383 z m 83.23804,-0.58447 c -0.0997,-0.0997 -0.35844,-0.11035 -0.575,-0.0237 -0.23932,0.0958 -0.16823,0.16685 0.18125,0.18125 0.31625,0.013 0.49344,-0.0579 0.39375,-0.15757 z m -90.06875,-0.41875 c 0.10198,-0.165 0.0504,-0.3 -0.11459,-0.3 -0.165,0 -0.38343,0.135 -0.48541,0.3 -0.10198,0.165 -0.0504,0.3 0.11459,0.3 0.165,0 0.38343,-0.135 0.48541,-0.3 z m 169.35,-0.6 c 0,-0.165 -0.14297,-0.3 -0.31771,-0.3 -0.17473,0 -0.23427,0.135 -0.13229,0.3 0.10198,0.165 0.24494,0.3 0.31771,0.3 0.0728,0 0.13229,-0.135 0.13229,-0.3 z m -25.05,-1.2 c 0.10198,-0.165 0.0424,-0.3 -0.13229,-0.3 -0.17474,0 -0.31771,0.135 -0.31771,0.3 0,0.165 0.0595,0.3 0.13229,0.3 0.0728,0 0.21573,-0.135 0.31771,-0.3 z m -145.73125,-0.18125 c -0.0997,-0.0997 -0.35844,-0.11035 -0.575,-0.0237 -0.23932,0.0958 -0.16823,0.16686 0.18125,0.18125 0.31625,0.013 0.49344,-0.0579 0.39375,-0.15756 z m 60.53935,-0.40565 c -0.0975,-0.15779 -0.37549,-0.21085 -0.61771,-0.1179 -0.62013,0.23797 -0.54706,0.4048 0.17732,0.4048 0.33973,0 0.53791,-0.12911 0.44039,-0.2869 z m -35.2581,-0.29482 c -0.2475,-0.14492 -0.99,-0.36449 -1.65,-0.48794 -1.09488,-0.20479 -1.16393,-0.18091 -0.78827,0.2726 0.26468,0.31953 0.854,0.4938 1.65,0.48794 0.85575,-0.006 1.09926,-0.0905 0.78827,-0.2726 z m 1.41875,-0.19953 c -0.0997,-0.0997 -0.35844,-0.11035 -0.575,-0.0237 -0.23932,0.0958 -0.16823,0.16686 0.18125,0.18125 0.31625,0.013 0.49344,-0.0579 0.39375,-0.15756 z m 12.33161,-0.0817 c 0.51003,-0.32331 -0.54872,-0.63756 -2.05036,-0.60857 l -1.05,0.0203 0.9,0.4121 c 1.05035,0.48095 1.64453,0.52853 2.20036,0.1762 z m 10.39964,-0.037 c -0.10198,-0.165 -0.32041,-0.3 -0.48541,-0.3 -0.165,0 -0.21657,0.135 -0.11459,0.3 0.10198,0.165 0.32041,0.3 0.48541,0.3 0.165,0 0.21657,-0.135 0.11459,-0.3 z m 201.6,-0.6 c 0.10198,-0.165 0.0424,-0.3 -0.13229,-0.3 -0.17474,0 -0.31771,0.135 -0.31771,0.3 0,0.165 0.0595,0.3 0.13229,0.3 0.0728,0 0.21573,-0.135 0.31771,-0.3 z m -241.57687,-0.19931 c -0.20728,-0.0836 -0.30056,-0.27541 -0.20729,-0.42631 0.19501,-0.31554 -0.20231,-0.35668 -0.8913,-0.0923 -0.81358,0.31219 -0.52031,0.71901 0.50046,0.69421 0.53625,-0.013 0.80541,-0.092 0.59813,-0.17562 z m 47.32687,-0.10069 c 0,-0.165 -0.135,-0.3 -0.3,-0.3 -0.165,0 -0.3,0.135 -0.3,0.3 0,0.165 0.135,0.3 0.3,0.3 0.165,0 0.3,-0.135 0.3,-0.3 z m -45.98125,-0.18125 c -0.0997,-0.0997 -0.35844,-0.11035 -0.575,-0.0237 -0.23932,0.0958 -0.16823,0.16686 0.18125,0.18125 0.31625,0.013 0.49344,-0.0579 0.39375,-0.15756 z m -14.1,-0.6 c -0.0997,-0.0997 -0.35844,-0.11035 -0.575,-0.0237 -0.23932,0.0958 -0.16823,0.16686 0.18125,0.18125 0.31625,0.013 0.49344,-0.0579 0.39375,-0.15756 z m 7.81977,-0.7532 c -0.15198,-0.45593 -2.61353,-1.35761 -3.53852,-1.29617 -0.4125,0.0274 -1.11449,0.14843 -1.55997,0.26896 -0.64523,0.17459 -0.73676,0.29843 -0.45,0.60892 0.19798,0.21437 0.44219,0.34022 0.54269,0.27968 0.10049,-0.0606 0.77549,0.006 1.5,0.14861 1.9691,0.38672 3.63645,0.38197 3.5058,-0.01 z m 2.23648,0.13576 c -0.20625,-0.0832 -0.54375,-0.0832 -0.75,0 -0.20625,0.0832 -0.0375,0.15132 0.375,0.15132 0.4125,0 0.58125,-0.0681 0.375,-0.15132 z m -10.8,-1.19387 c 0.61875,-0.10227 1.125,-0.30328 1.125,-0.44669 0,-0.40883 -1.57039,-0.285 -2.4,0.18925 -0.83016,0.47456 -0.47383,0.54651 1.275,0.25744 z m 301.34376,-0.28869 c -0.0997,-0.0997 -0.35844,-0.11035 -0.57501,-0.0237 -0.23931,0.0958 -0.16824,0.16686 0.18126,0.18125 0.31623,0.013 0.49344,-0.0579 0.39375,-0.15756 z m -292.79376,-0.92555 c -0.28875,-0.0755 -0.76125,-0.0755 -1.05,0 -0.28875,0.0755 -0.0525,0.1372 0.525,0.1372 0.5775,0 0.81375,-0.0617 0.525,-0.1372 z m 4.95,0.008 c -0.20625,-0.0832 -0.54375,-0.0832 -0.75,0 -0.20625,0.0832 -0.0375,0.15131 0.375,0.15131 0.4125,0 0.58125,-0.0681 0.375,-0.15131 z m -10.35625,-0.88257 c -0.0997,-0.0997 -0.35844,-0.11035 -0.575,-0.0237 -0.23932,0.0958 -0.16823,0.16686 0.18125,0.18125 0.31625,0.013 0.49344,-0.0579 0.39375,-0.15756 z m 7.525,-1 c 0.075,-0.225 -0.0375,-0.3375 -0.2625,-0.2625 -0.21656,0.0722 -0.45281,0.30844 -0.525,0.525 -0.075,0.225 0.0375,0.3375 0.2625,0.2625 0.21656,-0.0722 0.45281,-0.30844 0.525,-0.525 z m 18.20625,-0.31875 c -0.10198,-0.165 -0.31244,-0.3 -0.46771,-0.3 -0.15526,0 -0.28229,0.135 -0.28229,0.3 0,0.165 0.21047,0.3 0.46771,0.3 0.25723,0 0.38427,-0.135 0.28229,-0.3 z m -29.93125,-0.18125 c -0.0997,-0.0997 -0.35844,-0.11035 -0.575,-0.0237 -0.23932,0.0958 -0.16823,0.16686 0.18125,0.18125 0.31625,0.013 0.49344,-0.0579 0.39375,-0.15756 z m 8.25625,-0.0174 c -0.20625,-0.0832 -0.54375,-0.0832 -0.75,0 -0.20625,0.0832 -0.0375,0.15132 0.375,0.15132 0.4125,0 0.58125,-0.0681 0.375,-0.15132 z m 92.025,-0.40131 c 0.4,-0.2585 0.4,-0.29081 0,-0.29081 -0.2475,0 -0.6525,0.13086 -0.9,0.29081 -0.4,0.2585 -0.4,0.29081 0,0.29081 0.2475,0 0.6525,-0.13086 0.9,-0.29081 z m -101.625,-0.49869 c -0.20625,-0.0832 -0.54375,-0.0832 -0.75,0 -0.20625,0.0832 -0.0375,0.15132 0.375,0.15132 0.4125,0 0.58125,-0.0681 0.375,-0.15132 z m 27.19592,-0.21628 c 0.26648,-0.32108 0.23581,-0.45663 -0.13555,-0.59913 -0.50104,-0.19227 -1.44456,0.50491 -1.12108,0.82838 0.31321,0.31322 0.89442,0.20719 1.25663,-0.22925 z m 131.12908,0.11497 c 0,-0.165 -0.26203,-0.3 -0.58229,-0.3 -0.32027,0 -0.66573,0.135 -0.76771,0.3 -0.10516,0.17015 0.14689,0.3 0.58229,0.3 0.42224,0 0.76771,-0.135 0.76771,-0.3 z m 13.05,0 c 0.10198,-0.165 -0.033,-0.3 -0.3,-0.3 -0.26698,0 -0.40198,0.135 -0.3,0.3 0.10198,0.165 0.23698,0.3 0.3,0.3 0.063,0 0.19802,-0.135 0.3,-0.3 z m -147.3,-0.3 c -0.10198,-0.165 -0.37994,-0.3 -0.61771,-0.3 -0.23776,0 -0.43229,0.135 -0.43229,0.3 0,0.165 0.27797,0.3 0.61771,0.3 0.33973,0 0.53427,-0.135 0.43229,-0.3 z m 141.82933,0.12067 c 0.35623,-0.35623 -0.15795,-1.02057 -0.78643,-1.01608 -0.52708,0.004 -0.56183,0.0578 -0.1929,0.3 0.4,0.26259 0.4,0.32823 0,0.59082 -0.37102,0.24355 -0.3403,0.29621 0.175,0.3 0.34375,0.003 0.7057,-0.0761 0.80433,-0.17474 z m 2.92067,-0.12067 c 0,-0.165 -0.135,-0.3 -0.3,-0.3 -0.165,0 -0.3,0.135 -0.3,0.3 0,0.165 0.135,0.3 0.3,0.3 0.165,0 0.3,-0.135 0.3,-0.3 z m -170.18125,-0.18125 c -0.0997,-0.0997 -0.35844,-0.11035 -0.575,-0.0237 -0.23932,0.0958 -0.16823,0.16686 0.18125,0.18125 0.31625,0.013 0.49344,-0.0579 0.39375,-0.15756 z m 32.93125,-0.11875 c -0.33,-0.14181 -0.8025,-0.26525 -1.05,-0.27432 -0.4,-0.0147 -0.4,0.0158 0,0.27432 0.2475,0.15995 0.72,0.28339 1.05,0.27432 0.6,-0.0165 0.6,-0.0165 0,-0.27432 z m 130.65,0 c 0.35945,-0.2323 0.29909,-0.29862 -0.3,-0.32961 -0.4125,-0.0213 -1.11884,-0.0826 -1.56965,-0.13621 -0.68211,-0.0811 -0.75763,-0.0269 -0.45,0.32279 0.42898,0.48764 1.66817,0.56405 2.31965,0.14303 z m -146.85,-0.3 c 0.107,-0.17313 -0.17097,-0.29806 -0.65729,-0.29541 -0.65434,0.004 -0.74212,0.0696 -0.39271,0.29541 0.57639,0.37249 0.81979,0.37249 1.05,0 z m 139.80794,-0.24206 c -0.0924,-0.0924 -0.33444,-1.9e-4 -0.53794,0.20483 -0.29408,0.29629 -0.25962,0.33075 0.16794,0.16794 0.29586,-0.11266 0.46236,-0.28041 0.37,-0.37277 z m -125.33919,0.0608 c -0.0997,-0.0997 -0.35844,-0.11035 -0.575,-0.0237 -0.23932,0.0958 -0.16823,0.16686 0.18125,0.18125 0.31625,0.013 0.49344,-0.0579 0.39375,-0.15756 z m 45.98125,-0.41875 c 0,-0.165 -0.23625,-0.29793 -0.525,-0.29541 -0.44867,0.004 -0.45957,0.0469 -0.075,0.29541 0.56616,0.36588 0.6,0.36588 0.6,0 z m 81.675,0.10131 c -0.20625,-0.0832 -0.54375,-0.0832 -0.75,0 -0.20625,0.0832 -0.0375,0.15132 0.375,0.15132 0.4125,0 0.58125,-0.0681 0.375,-0.15132 z m -144.375,-0.40131 c 0,-0.165 -0.2025,-0.3 -0.45,-0.3 -0.2475,0 -0.45,0.135 -0.45,0.3 0,0.165 0.2025,0.3 0.45,0.3 0.2475,0 0.45,-0.135 0.45,-0.3 z m 54.675,0.10131 c -0.20625,-0.0832 -0.54375,-0.0832 -0.75,0 -0.20625,0.0832 -0.0375,0.15132 0.375,0.15132 0.4125,0 0.58125,-0.0681 0.375,-0.15132 z m -66.45625,-0.28256 c -0.0997,-0.0997 -0.35844,-0.11035 -0.575,-0.0237 -0.23932,0.0958 -0.16823,0.16686 0.18125,0.18125 0.31625,0.013 0.49344,-0.0579 0.39375,-0.15756 z m 14.03066,-0.0949 c 0.51184,-0.19976 0.45705,-0.25483 -0.375,-0.37695 -0.68147,-0.10002 -0.97441,-0.0233 -0.97441,0.25503 0,0.43907 0.4359,0.47846 1.34941,0.12192 z m 10.50059,-0.0239 c -0.10198,-0.165 -0.38791,-0.3 -0.63541,-0.3 -0.2475,0 -0.36657,0.135 -0.26459,0.3 0.10198,0.165 0.38791,0.3 0.63541,0.3 0.2475,0 0.36657,-0.135 0.26459,-0.3 z m 11.85,0 c 0.36389,-0.23516 0.32083,-0.29169 -0.225,-0.29541 -0.37125,-0.003 -0.675,0.13041 -0.675,0.29541 0,0.37588 0.31837,0.37588 0.9,0 z m 226.41875,0.11875 c -0.0997,-0.0997 -0.35844,-0.11035 -0.575,-0.0237 -0.23932,0.0958 -0.16823,0.16686 0.18125,0.18125 0.31625,0.013 0.49344,-0.0579 0.39375,-0.15756 z m -252.24713,-1.24375 c -0.22101,-0.28875 -0.43106,-0.57227 -0.46677,-0.63004 -0.0357,-0.0578 -0.20302,-0.0197 -0.37179,0.0846 -0.48687,0.3009 -0.0298,1.07043 0.63577,1.07043 0.52893,0 0.55432,-0.0657 0.20279,-0.525 z m 5.29072,0.20504 c 0.10875,-0.17598 0.13605,-0.38166 0.0606,-0.45706 -0.20924,-0.20924 -1.12298,0.20501 -1.12298,0.50912 0,0.37553 0.82299,0.3352 1.06234,-0.0521 z m 64.97867,-0.21637 c -0.21643,-0.0721 -0.53615,0.0115 -0.71048,0.18579 -0.22262,0.22262 -0.10549,0.26167 0.39352,0.13118 0.40566,-0.10609 0.54165,-0.24208 0.31696,-0.31697 z m -58.7603,0.0396 c -0.20311,-0.0822 -0.60811,-0.0872 -0.9,-0.0111 -0.29189,0.0761 -0.12571,0.1433 0.36929,0.14942 0.495,0.006 0.73382,-0.0561 0.53071,-0.1383 z m 16.93804,0.0155 c -0.0997,-0.0997 -0.35844,-0.11035 -0.575,-0.0237 -0.23932,0.0958 -0.16823,0.16686 0.18125,0.18125 0.31625,0.013 0.49344,-0.0579 0.39375,-0.15756 z m 4.98234,-0.4232 c 0.27597,-0.29444 0.0727,-0.33061 -0.97225,-0.17298 -1.98009,0.29868 -2.6482,0.84669 -0.82775,0.67895 0.7981,-0.0735 1.6081,-0.30122 1.8,-0.50597 z m 34.31766,0.4232 c -0.0997,-0.0997 -0.35844,-0.11035 -0.575,-0.0237 -0.23932,0.0958 -0.16823,0.16686 0.18125,0.18125 0.31625,0.013 0.49344,-0.0579 0.39375,-0.15756 z m -53.61875,-0.88986 c 0,-0.0825 -0.27,-0.005 -0.6,0.17111 -0.33,0.17661 -0.6,0.38861 -0.6,0.47111 0,0.0825 0.27,0.005 0.6,-0.17111 0.33,-0.17661 0.6,-0.38861 0.6,-0.47111 z m -23.7,0.17111 c 0.38457,-0.24853 0.37366,-0.29148 -0.075,-0.29541 -0.28875,-0.003 -0.525,-0.13959 -0.525,-0.30459 0,-0.165 -0.27114,-0.3 -0.60254,-0.3 -0.52745,0 -0.55584,0.0748 -0.22784,0.6 0.41454,0.66378 0.75649,0.7355 1.43038,0.3 z m 14.1,0 c 0,-0.165 -0.39703,-0.3 -0.88229,-0.3 -0.48527,0 -0.96573,0.135 -1.06771,0.3 -0.11034,0.17853 0.24688,0.3 0.88229,0.3 0.58724,0 1.06771,-0.135 1.06771,-0.3 z m 31.62509,-0.0403 c -0.14569,-0.23573 0.0793,-0.29779 0.73229,-0.20195 0.74223,0.10893 0.94262,0.0296 0.94262,-0.37297 0,-0.80234 -0.80244,-1.3392 -1.33771,-0.89497 -0.46215,0.38355 -2.11772,0.17779 -2.76637,-0.34381 -0.24236,-0.19489 -0.4626,-0.082 -0.69801,0.35791 -0.22872,0.42737 -0.51208,0.57864 -0.84592,0.45159 -0.3592,-0.1367 -0.41036,-0.0986 -0.17984,0.13388 0.17718,0.17871 0.85218,0.34198 1.5,0.36281 0.64782,0.0208 1.44414,0.22013 1.7696,0.44286 0.72146,0.49372 1.16875,0.52646 0.88334,0.0646 z m -27.20634,-0.14094 c -0.0997,-0.0997 -0.35844,-0.11035 -0.575,-0.0237 -0.23932,0.0958 -0.16823,0.16686 0.18125,0.18125 0.31625,0.013 0.49344,-0.0579 0.39375,-0.15756 z m -2.61875,-0.39732 c 0,-0.15322 -0.19607,-0.47464 -0.43571,-0.71429 -0.23965,-0.23964 -0.35215,-0.51928 -0.25,-0.62143 0.10214,-0.10214 -0.27554,-0.18778 -0.83929,-0.1903 -0.77219,-0.003 -0.91401,-0.0763 -0.575,-0.29541 0.38457,-0.24853 0.37366,-0.29148 -0.075,-0.29541 -0.28875,-0.003 -0.525,0.0974 -0.525,0.22218 0,0.12472 -0.405,0.40603 -0.9,0.62514 -0.96306,0.4263 -1.20098,0.94809 -0.43229,0.94809 0.25723,0 0.38427,-0.135 0.28229,-0.3 -0.10775,-0.17434 0.18871,-0.3 0.70776,-0.3 0.49124,0 1.13014,-0.0909 1.41979,-0.20208 0.40602,-0.15581 0.48249,-0.0871 0.33395,0.3 -0.14111,0.36771 -0.0299,0.50208 0.41562,0.50208 0.33456,0 0.52486,0.135 0.42288,0.3 -0.10198,0.165 -0.0424,0.3 0.13229,0.3 0.17474,0 0.31771,-0.12536 0.31771,-0.27857 z m 16.2,-0.0214 c 0,-0.165 -0.23625,-0.29793 -0.525,-0.29541 -0.44867,0.004 -0.45957,0.0469 -0.075,0.29541 0.56616,0.36588 0.6,0.36588 0.6,0 z m 18.43736,-0.0204 c -0.10893,-0.17625 -0.37817,-0.25133 -0.59832,-0.16685 -0.22015,0.0845 -0.46622,-0.008 -0.54682,-0.20455 -0.10824,-0.26453 -0.21132,-0.2692 -0.39438,-0.0179 -0.13631,0.18717 -0.51784,0.40776 -0.84784,0.4902 -0.33,0.0824 0.11672,0.16557 0.99271,0.18471 1.06053,0.0232 1.52652,-0.0723 1.39465,-0.28565 z m 1.51326,0.1287 c 0.3986,-0.15296 0.41874,-0.24306 0.0995,-0.4454 -0.57031,-0.36153 -0.76249,-0.32401 -0.95864,0.18715 -0.18615,0.4851 0.0685,0.56165 0.85911,0.25825 z m -31.02102,-0.87798 c -0.56121,-0.24171 -1.08996,-0.36991 -1.17499,-0.28488 -0.085,0.085 0.0109,0.15461 0.21309,0.15461 0.20224,0 0.3054,0.10125 0.22923,0.225 -0.0762,0.12375 0.28713,0.25195 0.8073,0.28488 l 0.94577,0.0599 -1.0204,-0.43949 z m 12.78915,0.28848 c -0.0997,-0.0997 -0.35844,-0.11035 -0.575,-0.0237 -0.23932,0.0958 -0.16823,0.16686 0.18125,0.18125 0.31625,0.013 0.49344,-0.0579 0.39375,-0.15756 z m 6.15625,-0.0174 c -0.20625,-0.0832 -0.54375,-0.0832 -0.75,0 -0.20625,0.0832 -0.0375,0.15131 0.375,0.15131 0.4125,0 0.58125,-0.0681 0.375,-0.15131 z m -13.65625,-0.28257 c -0.0997,-0.0997 -0.35844,-0.11035 -0.575,-0.0237 -0.23932,0.0958 -0.16823,0.16686 0.18125,0.18125 0.31625,0.013 0.49344,-0.0579 0.39375,-0.15756 z m 246.68125,-0.11875 c -0.58163,-0.37588 -0.9,-0.37588 -0.9,0 0,0.165 0.30375,0.29793 0.675,0.29541 0.54583,-0.004 0.58889,-0.0602 0.225,-0.29541 z m -261.9,-0.3304 c 0.2475,-0.0212 -0.09,-0.14384 -0.75,-0.27247 -1.32035,-0.25732 -1.51512,-0.207 -1.19618,0.30905 0.11764,0.19035 0.50241,0.26867 0.85504,0.17405 0.35263,-0.0946 0.84364,-0.18941 1.09114,-0.21063 z m 8.01739,-0.16727 c 0.16767,-0.50961 -1.69577,-0.85078 -2.12204,-0.38853 -0.26835,0.29101 -0.2283,0.33332 0.17965,0.18977 0.35252,-0.12405 0.525,-0.0331 0.525,0.27671 0,0.54033 1.23634,0.47233 1.41739,-0.078 z m 9.00136,0.31642 c -0.0997,-0.0997 -0.35844,-0.11035 -0.575,-0.0237 -0.23932,0.0958 -0.16823,0.16686 0.18125,0.18125 0.31625,0.013 0.49344,-0.0579 0.39375,-0.15756 z m -2.16875,-0.41875 c 0.10198,-0.165 -0.025,-0.3 -0.28229,-0.3 -0.25724,0 -0.46771,0.135 -0.46771,0.3 0,0.165 0.12703,0.3 0.28229,0.3 0.15527,0 0.36573,-0.135 0.46771,-0.3 z m -4.38447,-0.57235 c 0.32767,-0.20752 0.26425,-0.34379 -0.3,-0.64452 -0.63993,-0.34107 -0.67422,-0.33127 -0.3246,0.0927 0.32925,0.39926 0.30559,0.49618 -0.15,0.61431 -0.36533,0.0947 -0.39485,0.15007 -0.0909,0.17048 0.2475,0.0166 0.63699,-0.0882 0.86553,-0.23296 z m 3.63447,-0.21264 c 0,-0.0633 -0.27,-0.11501 -0.6,-0.11501 -0.33,0 -0.6,0.12236 -0.6,0.27191 0,0.14956 0.27,0.20131 0.6,0.11501 0.33,-0.0863 0.6,-0.20865 0.6,-0.27191 z m 5.31875,0.30374 c -0.0997,-0.0997 -0.35844,-0.11035 -0.575,-0.0237 -0.23932,0.0958 -0.16823,0.16686 0.18125,0.18125 0.31625,0.013 0.49344,-0.0579 0.39375,-0.15756 z m 12.83125,-0.11875 c -0.10198,-0.165 -0.37994,-0.3 -0.61771,-0.3 -0.23776,0 -0.43229,0.135 -0.43229,0.3 0,0.165 0.27797,0.3 0.61771,0.3 0.33973,0 0.53427,-0.135 0.43229,-0.3 z m -49.65,-0.3 c 0,-0.165 -0.43875,-0.28654 -0.975,-0.2701 -0.92378,0.0283 -0.9356,0.0425 -0.225,0.2701 1.05864,0.33904 1.2,0.33904 1.2,0 z m 14.85,0 c -0.495,-0.12596 -0.765,-0.25354 -0.6,-0.28352 0.165,-0.03 -0.0342,-0.18789 -0.44278,-0.3509 -0.55437,-0.22121 -0.64136,-0.35907 -0.34297,-0.54349 0.59782,-0.36947 -0.089,-0.67752 -1.00045,-0.44875 -0.4743,0.11905 -0.7638,0.0657 -0.7638,-0.14082 0,-0.18289 0.14464,-0.33252 0.32143,-0.33252 0.17678,0 0.10286,-0.21857 -0.16429,-0.48571 -0.56778,-0.56779 -0.55256,-0.58068 -0.95763,0.81127 -0.29958,1.02944 -0.27533,1.08977 0.56561,1.40719 0.48324,0.1824 1.07127,0.25771 1.30675,0.16735 0.23547,-0.0904 0.42813,-0.0148 0.42813,0.1678 0,0.19627 0.52147,0.31758 1.275,0.2966 1.19658,-0.0333 1.21965,-0.0496 0.375,-0.2645 z m 3.76105,0.0537 c -0.29514,-0.0984 -0.28851,-0.18361 0.03,-0.3854 0.27407,-0.17364 0.0544,-0.26061 -0.66605,-0.26369 -0.68441,-0.003 -1.075,0.13711 -1.075,0.38541 0,0.24536 0.38756,0.39 1.045,0.39 0.57475,0 0.87447,-0.0568 0.66605,-0.12632 z m 4.03895,-0.0537 c -0.35436,-0.15228 -0.42601,-0.26646 -0.175,-0.27892 0.23375,-0.0116 0.35432,-0.0918 0.26794,-0.17814 -0.22412,-0.22412 -1.14294,0.16911 -1.14294,0.48916 0,0.14734 0.37125,0.25841 0.825,0.24681 0.73105,-0.0187 0.75667,-0.0504 0.225,-0.27891 z m 84.36875,0.11875 c -0.0997,-0.0997 -0.35844,-0.11035 -0.575,-0.0237 -0.23932,0.0958 -0.16823,0.16686 0.18125,0.18125 0.31625,0.013 0.49344,-0.0579 0.39375,-0.15756 z m 2.30244,-0.46537 c -0.11057,-0.17891 0.1046,-0.28071 0.52011,-0.24606 1.127,0.094 1.4587,0.0161 1.4587,-0.34231 0,-0.19243 -0.26766,-0.265 -0.62894,-0.17052 -0.87918,0.22991 -1.66481,-0.0822 -1.12122,-0.44535 0.24978,-0.16689 0.0619,-0.19021 -0.49984,-0.0621 -1.22444,0.27931 -1.47224,0.75842 -0.71702,1.38631 0.63595,0.52874 1.33657,0.44366 0.98821,-0.12001 z m 2.05952,0.44984 c -0.20311,-0.0822 -0.60811,-0.0872 -0.9,-0.0111 -0.29189,0.0761 -0.12571,0.1433 0.36929,0.14942 0.495,0.006 0.73382,-0.0561 0.53071,-0.1383 z m -7.58071,-0.59559 c 0.81575,-0.30752 -2.47829,-0.97107 -5.1,-1.02734 -1.4025,-0.0301 -2.8875,0.0885 -3.3,0.26347 -0.78871,0.33463 -0.7099,0.36611 1.34697,0.53801 0.65833,0.055 1.23173,0.20538 1.27422,0.33414 0.0849,0.25713 5.0566,0.16398 5.77881,-0.10828 z m -71.78125,-0.28888 c -0.0997,-0.0997 -0.35844,-0.11035 -0.575,-0.0237 -0.23932,0.0958 -0.16823,0.16686 0.18125,0.18125 0.31625,0.013 0.49344,-0.0579 0.39375,-0.15756 z m 255.60625,-0.29268 c 0.37125,-0.10783 0.675,-0.28235 0.675,-0.38783 0,-0.28191 1.48344,-0.8712 2.7783,-1.10368 1.56954,-0.28179 1.65225,-0.64179 0.13224,-0.57544 -2.48931,0.10865 -4.3313,0.67349 -6.78781,2.08148 -0.67543,0.38713 -0.61127,0.40846 0.9,0.29919 0.895,-0.0647 1.93102,-0.20589 2.30227,-0.31372 z m 28.13295,-0.0681 c -0.0924,-0.0924 -0.33444,-1.9e-4 -0.53796,0.20483 -0.29406,0.29629 -0.25962,0.33075 0.16794,0.16794 0.29586,-0.11266 0.46236,-0.28041 0.37002,-0.37277 z m -292.50795,-0.0579 c 0.10198,-0.165 -0.033,-0.3 -0.3,-0.3 -0.26698,0 -0.40198,0.135 -0.3,0.3 0.10198,0.165 0.23698,0.3 0.3,0.3 0.063,0 0.19802,-0.135 0.3,-0.3 z m 2.25,-0.1179 c 0,-0.0648 -0.2025,-0.19561 -0.45,-0.29059 -0.2475,-0.095 -0.45,-0.0419 -0.45,0.11791 0,0.15982 0.2025,0.29058 0.45,0.29058 0.2475,0 0.45,-0.0531 0.45,-0.1179 z m 292.8,-0.1821 c 0,-0.165 -0.135,-0.3 -0.3,-0.3 -0.165,0 -0.3,0.135 -0.3,0.3 0,0.165 0.135,0.3 0.3,0.3 0.165,0 0.3,-0.135 0.3,-0.3 z m -318,-0.3 c 0,-0.165 -0.12703,-0.3 -0.28229,-0.3 -0.15527,0 -0.36573,0.135 -0.46771,0.3 -0.10198,0.165 0.0251,0.3 0.28229,0.3 0.25724,0 0.46771,-0.135 0.46771,-0.3 z m 17.44101,-0.23633 c -0.21643,-0.0721 -0.53614,0.0115 -0.71048,0.18579 -0.22262,0.22262 -0.10549,0.26167 0.39352,0.13118 0.40566,-0.10609 0.54165,-0.24207 0.31696,-0.31697 z m 31.37774,0.35508 c -0.0997,-0.0997 -0.35844,-0.11035 -0.575,-0.0237 -0.23932,0.0958 -0.16823,0.16686 0.18125,0.18125 0.31625,0.013 0.49344,-0.0579 0.39375,-0.15756 z m 63,0 c -0.0997,-0.0997 -0.35844,-0.11035 -0.575,-0.0237 -0.23932,0.0958 -0.16823,0.16686 0.18125,0.18125 0.31625,0.013 0.49344,-0.0579 0.39375,-0.15756 z m 200.48125,-0.11875 c 0,-0.165 -0.135,-0.3 -0.3,-0.3 -0.165,0 -0.3,0.135 -0.3,0.3 0,0.165 0.135,0.3 0.3,0.3 0.165,0 0.3,-0.135 0.3,-0.3 z m 4.42812,-0.1726 c 0.80814,-0.0907 1.58424,-0.3723 1.79799,-0.65237 0.26946,-0.35302 0.46809,-0.40084 0.70032,-0.16861 0.53985,0.53985 1.47357,0.10174 1.47357,-0.69141 0,-0.39326 -0.13077,-0.71501 -0.29058,-0.71501 -0.15984,0 -0.21333,0.20136 -0.11889,0.44747 0.21624,0.56345 -0.76212,0.9839 -1.08267,0.46527 -0.18261,-0.29547 -0.37503,-0.2979 -0.91023,-0.0115 -0.54531,0.29185 -0.59703,0.41901 -0.26316,0.6471 0.31689,0.2165 0.27312,0.2613 -0.18447,0.18874 -0.80145,-0.12709 -0.89292,-1.45591 -0.11424,-1.65953 0.30663,-0.0802 0.48354,-0.26545 0.39315,-0.41169 -0.2823,-0.45676 -1.17819,-0.29122 -1.60137,0.29591 -0.24609,0.34141 -0.63012,0.5029 -0.97902,0.41166 -0.31575,-0.0826 -0.55233,-0.0316 -0.52578,0.11321 0.11877,0.64738 -0.0584,1.01333 -0.49044,1.01333 -0.25725,0 -0.38427,0.135 -0.2823,0.3 0.10293,0.16655 -0.12273,0.30204 -0.5073,0.30459 -0.56148,0.004 -0.60744,0.0611 -0.2427,0.30299 0.2475,0.16411 0.75516,0.22662 1.12812,0.1389 0.37299,-0.0877 1.31799,-0.2313 2.1,-0.31908 z m -302.37012,-1.04456 c -0.0587,-0.81232 0.0584,-1.31767 0.35206,-1.51935 0.31197,-0.2143 0.0909,-0.24799 -0.76006,-0.11582 -0.66,0.10252 -1.561,0.19862 -2.00222,0.21357 -0.71966,0.0244 -0.75504,0.0744 -0.34377,0.48563 0.37819,0.37819 0.56422,0.3924 1.06259,0.0812 0.33228,-0.20751 0.7188,-0.26263 0.85894,-0.12249 0.31417,0.31417 0.0105,1.59446 -0.37823,1.59446 -0.1555,0 -0.19929,0.135 -0.0973,0.3 0.10198,0.165 0.45777,0.3 0.79065,0.3 0.52197,0 0.59314,-0.16745 0.51735,-1.21716 z m 314.36076,1.03591 c -0.0997,-0.0997 -0.35844,-0.11035 -0.57501,-0.0237 -0.23931,0.0958 -0.16824,0.16686 0.18126,0.18125 0.31623,0.013 0.49344,-0.0579 0.39375,-0.15756 z m -320.61876,-0.40933 c 0,-0.15983 -0.2025,-0.21288 -0.45,-0.11791 -0.2475,0.095 -0.45,0.22574 -0.45,0.29059 0,0.0648 0.2025,0.1179 0.45,0.1179 0.2475,0 0.45,-0.13076 0.45,-0.29058 z m 18.3,-0.009 c -0.59498,-0.3845 -1.88764,-0.3845 -1.65,0 0.10198,0.165 0.61619,0.29793 1.14271,0.29541 0.72842,-0.004 0.8497,-0.0741 0.50729,-0.29541 z m -27,-0.3 c 0,-0.37588 -0.31837,-0.37588 -0.9,0 -0.36389,0.23516 -0.32083,0.29169 0.225,0.29541 0.37125,0.003 0.675,-0.13041 0.675,-0.29541 z m 16.42143,-0.20714 c -0.27893,-0.27893 -0.6077,-0.40659 -0.7306,-0.28369 -0.1229,0.1229 -0.0249,0.34905 0.21786,0.50255 0.73037,0.4619 1.05495,0.32335 0.51274,-0.21886 z m 112.19732,0.32589 c -0.0997,-0.0997 -0.35844,-0.11035 -0.575,-0.0237 -0.23932,0.0958 -0.16823,0.16686 0.18125,0.18125 0.31625,0.013 0.49344,-0.0579 0.39375,-0.15756 z M 590.213,963.32688 c -0.0789,-0.0789 -0.37653,0.0998 -0.66135,0.39717 -0.49479,0.51658 -0.4884,0.52298 0.14349,0.1435 0.36375,-0.21844 0.59679,-0.46174 0.51786,-0.54067 z m 10.1997,0.6049 c 0.0904,-0.14624 -0.10401,-0.33607 -0.432,-0.42184 -0.66369,-0.17356 -1.11711,0.24922 -0.52377,0.48842 0.5829,0.235 0.77778,0.22142 0.95577,-0.0666 z m -321.42891,-0.14912 c 0,-0.0633 -0.27,-0.18562 -0.6,-0.27192 -0.33,-0.0863 -0.6,-0.0345 -0.6,0.11502 0,0.14955 0.27,0.27191 0.6,0.27191 0.33,0 0.6,-0.0518 0.6,-0.11501 z m 8.85077,-0.18374 c -0.0761,-0.12307 -0.57984,-0.31273 -1.11953,-0.42148 -0.7698,-0.15512 -0.88427,-0.25945 -0.53124,-0.48415 0.2475,-0.15754 0.30705,-0.2885 0.13234,-0.29103 -0.17471,-0.003 -0.57971,0.19362 -0.9,0.43587 -0.56924,0.43055 -0.56756,0.44067 0.075,0.45 0.36152,0.005 0.73031,0.12766 0.81953,0.27204 0.0892,0.14437 0.49974,0.2625 0.91224,0.2625 0.4125,0 0.68777,-0.10069 0.61171,-0.22375 z m 7.49923,0.0692 c 0.34076,-0.25036 0.48804,-1.27041 0.18342,-1.27041 -0.10995,0 -0.5137,0.21979 -0.89722,0.48841 -0.54636,0.38268 -0.60952,0.54405 -0.29175,0.74541 0.49502,0.31369 0.62209,0.31831 1.00555,0.0366 z m 8.7,-0.0704 c -0.10198,-0.165 -0.37994,-0.3 -0.61771,-0.3 -0.23776,0 -0.43229,0.135 -0.43229,0.3 0,0.165 0.27797,0.3 0.61771,0.3 0.33973,0 0.53427,-0.135 0.43229,-0.3 z m 271.35,0 c 0,-0.165 -0.0595,-0.3 -0.1323,-0.3 -0.0727,0 -0.21573,0.135 -0.3177,0.3 -0.10197,0.165 -0.0425,0.3 0.1323,0.3 0.17472,0 0.3177,-0.135 0.3177,-0.3 z m 5.4,0 c 0,-0.165 -0.12702,-0.3 -0.2823,-0.3 -0.15525,0 -0.36573,0.135 -0.4677,0.3 -0.10197,0.165 0.0249,0.3 0.2823,0.3 0.25722,0 0.4677,-0.135 0.4677,-0.3 z m -296.71375,-0.62569 c -0.18417,-0.34414 -0.41066,-0.5499 -0.50331,-0.45725 -0.0926,0.0926 0.002,0.3742 0.21104,0.62569 0.53935,0.64987 0.68522,0.5658 0.29227,-0.16844 z m 13.66375,0.32569 c -0.10198,-0.165 -0.34619,-0.29793 -0.54271,-0.29541 -0.21468,0.003 -0.17768,0.12067 0.0927,0.29541 0.57634,0.37246 0.68019,0.37246 0.45,0 z m 4.65,0 c 0,-0.165 -0.57375,-0.29051 -1.275,-0.27891 -0.98746,0.0163 -1.13969,0.0792 -0.675,0.27891 0.83663,0.35951 1.95,0.35951 1.95,0 z m 8.7,0.18499 c 0,-0.0633 -0.27,-0.18562 -0.6,-0.27192 -0.33,-0.0863 -0.6,-0.0345 -0.6,0.11502 0,0.14955 0.27,0.27191 0.6,0.27191 0.33,0 0.6,-0.0518 0.6,-0.11501 z m 281.01876,-0.0662 c -0.0997,-0.0997 -0.35844,-0.11035 -0.57501,-0.0237 -0.23931,0.0958 -0.16824,0.16686 0.18126,0.18125 0.31623,0.013 0.49344,-0.0579 0.39375,-0.15756 z m 12.6,0 c -0.0997,-0.0997 -0.35844,-0.11035 -0.57501,-0.0237 -0.23931,0.0958 -0.16824,0.16686 0.18126,0.18125 0.31623,0.013 0.49344,-0.0579 0.39375,-0.15756 z m -227.70001,-0.6 c -0.0997,-0.0997 -0.35844,-0.11035 -0.575,-0.0237 -0.23932,0.0958 -0.16823,0.16686 0.18125,0.18125 0.31625,0.013 0.49344,-0.0579 0.39375,-0.15756 z m 49.65625,-0.0174 c -0.20625,-0.0832 -0.54375,-0.0832 -0.75,0 -0.20625,0.0832 -0.0375,0.15131 0.375,0.15131 0.4125,0 0.58125,-0.0681 0.375,-0.15131 z m -111.45625,-0.28257 c -0.0997,-0.0997 -0.35844,-0.11035 -0.575,-0.0237 -0.23932,0.0958 -0.16823,0.16686 0.18125,0.18125 0.31625,0.013 0.49344,-0.0579 0.39375,-0.15756 z m 237.75625,-0.0174 c -0.20625,-0.0832 -0.54375,-0.0832 -0.75,0 -0.20625,0.0832 -0.0375,0.15131 0.375,0.15131 0.4125,0 0.58125,-0.0681 0.375,-0.15131 z m -271.575,-0.40132 c 0.54839,-0.3544 0.0747,-0.3544 -0.75,0 -0.39562,0.17 -0.44672,0.26345 -0.15,0.27432 0.2475,0.009 0.6525,-0.11437 0.9,-0.27432 z m 7.2,0 c 0,-0.165 -0.27797,-0.3 -0.61771,-0.3 -0.33973,0 -0.53427,0.135 -0.43229,0.3 0.10198,0.165 0.37994,0.3 0.61771,0.3 0.23776,0 0.43229,-0.135 0.43229,-0.3 z m 10.41875,0.11875 c -0.0997,-0.0997 -0.35844,-0.11035 -0.575,-0.0237 -0.23932,0.0958 -0.16823,0.16686 0.18125,0.18125 0.31625,0.013 0.49344,-0.0579 0.39375,-0.15756 z m 98.63125,-0.11875 c -0.10198,-0.165 -0.34619,-0.29793 -0.54271,-0.29541 -0.21468,0.003 -0.17768,0.12067 0.0927,0.29541 0.57634,0.37246 0.68019,0.37246 0.45,0 z m -119.03125,-0.18125 c -0.0997,-0.0997 -0.35844,-0.11035 -0.575,-0.0237 -0.23932,0.0958 -0.16823,0.16686 0.18125,0.18125 0.31625,0.013 0.49344,-0.0579 0.39375,-0.15756 z m 13.27256,-0.32011 c 0.21292,-0.19778 -0.67045,-0.68881 -1.2486,-0.69405 -0.69166,-0.006 -1.01609,0.59005 -0.33542,0.6165 0.48708,0.0189 0.4812,0.0496 -0.0573,0.29923 -0.4404,0.20416 -0.32069,0.22913 0.45,0.0939 0.5775,-0.10135 1.11359,-0.24335 1.19131,-0.31555 z m -5.17256,0.0201 c -0.0997,-0.0997 -0.35844,-0.11035 -0.575,-0.0237 -0.23932,0.0958 -0.16823,0.16686 0.18125,0.18125 0.31625,0.013 0.49344,-0.0579 0.39375,-0.15756 z m 110.18125,-0.30374 c 0,-0.0633 -0.43875,-0.11294 -0.975,-0.11042 -0.66289,0.003 -0.84433,0.0874 -0.56679,0.26323 0.3723,0.23589 1.54179,0.11998 1.54179,-0.15281 z m -51.3,0.0527 c 0,-0.0728 -0.135,-0.21572 -0.3,-0.3177 -0.165,-0.10198 -0.3,-0.0424 -0.3,0.13229 0,0.17474 0.135,0.31771 0.3,0.31771 0.165,0 0.3,-0.0595 0.3,-0.1323 z m 46.71875,-0.34895 c -0.0997,-0.0997 -0.35844,-0.11035 -0.575,-0.0237 -0.23932,0.0958 -0.16823,0.16686 0.18125,0.18125 0.31625,0.013 0.49344,-0.0579 0.39375,-0.15756 z m -96.6,-0.3 c -0.0997,-0.0997 -0.35844,-0.11035 -0.575,-0.0237 -0.23932,0.0958 -0.16823,0.16686 0.18125,0.18125 0.31625,0.013 0.49344,-0.0579 0.39375,-0.15756 z m 292.73125,-0.25961 c 0.495,-0.0621 1.33875,-0.12335 1.875,-0.13605 0.53625,-0.0127 0.975,-0.17273 0.975,-0.35561 0,-0.20103 -0.28422,-0.26119 -0.71871,-0.15214 -0.4866,0.12213 -0.77424,0.0357 -0.89061,-0.26747 -0.0945,-0.24633 -0.4461,-0.44787 -0.78126,-0.44787 -0.33519,0 -0.60942,-0.135 -0.60942,-0.3 0,-0.51291 -0.62553,-0.33185 -1.55472,0.45 -0.89367,0.75197 -1.64274,1.01221 -1.29528,0.45 0.10197,-0.165 -0.003,-0.3 -0.23229,-0.3 -0.48663,0 -0.57618,0.88972 -0.0927,0.92109 0.17874,0.0116 0.055,0.13096 -0.27501,0.26527 -0.561,0.22831 1.28778,0.16298 3.6,-0.12722 z m -302.1,-0.15914 c -0.10198,-0.165 -0.41369,-0.29793 -0.69271,-0.29541 -0.43718,0.004 -0.4451,0.0448 -0.0573,0.29541 0.58751,0.37968 0.98465,0.37968 0.75,0 z m 2.25,0 c 0.60292,-0.19309 0.63234,-0.24192 0.15,-0.24901 -0.33,-0.005 -0.87,0.1072 -1.2,0.24901 -0.76447,0.3285 0.0242,0.3285 1.05,0 z m 3.6,0 c 0,-0.165 -0.12703,-0.3 -0.28229,-0.3 -0.15527,0 -0.36573,0.135 -0.46771,0.3 -0.10198,0.165 0.0251,0.3 0.28229,0.3 0.25724,0 0.46771,-0.135 0.46771,-0.3 z m 22.65062,0.10825 c 0.3986,-0.15296 0.41874,-0.24306 0.0995,-0.44541 -0.53685,-0.34031 -1.75015,-0.33188 -1.75015,0.0122 0,0.25227 0.46015,0.54339 0.95046,0.60132 0.11026,0.013 0.42533,-0.0626 0.70016,-0.16807 z m 43.62438,-0.30045 c 0.30105,-0.25962 -1.06989,-0.0682 -1.475,0.20591 -0.32864,0.22239 -0.20728,0.25022 0.45,0.1032 0.495,-0.11072 0.95625,-0.24982 1.025,-0.30911 z m -46.325,-0.1078 c 0.10198,-0.165 0.0424,-0.3 -0.13229,-0.3 -0.17474,0 -0.31771,0.135 -0.31771,0.3 0,0.165 0.0595,0.3 0.13229,0.3 0.0728,0 0.21573,-0.135 0.31771,-0.3 z m 5.7,0 c 0.39562,-0.17 0.44672,-0.26345 0.15,-0.27432 -0.2475,-0.009 -0.6525,0.11437 -0.9,0.27432 -0.54839,0.3544 -0.0747,0.3544 0.75,0 z m 74.16875,0.11875 c -0.0997,-0.0997 -0.35844,-0.11035 -0.575,-0.0237 -0.23932,0.0958 -0.16823,0.16686 0.18125,0.18125 0.31625,0.013 0.49344,-0.0579 0.39375,-0.15756 z m 126,0 c -0.0997,-0.0997 -0.35844,-0.11035 -0.575,-0.0237 -0.23932,0.0958 -0.16823,0.16686 0.18125,0.18125 0.31625,0.013 0.49344,-0.0579 0.39375,-0.15756 z m 65.93125,-0.11875 c -0.10197,-0.165 -0.4137,-0.29793 -0.6927,-0.29541 -0.43719,0.004 -0.44511,0.0448 -0.0573,0.29541 0.58752,0.37968 0.98466,0.37968 0.75,0 z m -286.99732,-0.6469 c 0.57867,-0.4695 0.63278,-0.58232 0.19732,-0.41142 -0.33,0.12951 -0.90375,0.30135 -1.275,0.38187 -0.37125,0.0805 -0.675,0.26566 -0.675,0.41142 0,0.48112 0.94198,0.27589 1.75268,-0.38187 z m 284.36608,0.46565 c -0.0997,-0.0997 -0.35844,-0.11035 -0.57501,-0.0237 -0.23931,0.0958 -0.16824,0.16686 0.18126,0.18125 0.31623,0.013 0.49344,-0.0579 0.39375,-0.15756 z m 12.56274,-0.16973 c 0.14829,-0.23992 0.0496,-0.28679 -0.31176,-0.14811 -0.29076,0.11158 -1.14426,-0.006 -1.89666,-0.26157 -0.9486,-0.32206 -1.46379,-0.36862 -1.68054,-0.15189 -0.21672,0.21673 0.005,0.31396 0.72246,0.31714 0.56925,0.003 1.2375,0.13546 1.485,0.29541 0.61515,0.39754 1.41939,0.37316 1.6815,-0.051 z m -252.4815,-0.2396 c 0,-0.15983 -0.2025,-0.21288 -0.45,-0.11791 -0.2475,0.095 -0.45,0.22574 -0.45,0.29059 0,0.0648 0.2025,0.1179 0.45,0.1179 0.2475,0 0.45,-0.13076 0.45,-0.29058 z m 15.75,-0.0127 c -0.77101,-0.32704 -1.35016,-0.35779 -1.3494,-0.0717 3e-4,0.12375 0.43907,0.24776 0.975,0.27558 0.78134,0.0406 0.85552,1.6e-4 0.3744,-0.20391 z m 36.6,0.003 c 0.23465,-0.37968 -0.16249,-0.37968 -0.75,0 -0.38781,0.25062 -0.37989,0.29145 0.0573,0.29541 0.27902,0.003 0.59073,-0.13041 0.69271,-0.29541 z m -107.33125,-0.18125 c -0.0997,-0.0997 -0.35844,-0.11035 -0.575,-0.0237 -0.23932,0.0958 -0.16823,0.16686 0.18125,0.18125 0.31625,0.013 0.49344,-0.0579 0.39375,-0.15756 z m 6.83125,-0.11875 c 0.10198,-0.165 -0.0171,-0.3 -0.26459,-0.3 -0.2475,0 -0.53343,0.135 -0.63541,0.3 -0.10198,0.165 0.0171,0.3 0.26459,0.3 0.2475,0 0.53343,-0.135 0.63541,-0.3 z m 8.5963,-0.3737 c -0.16828,-0.16828 -0.55129,-0.20605 -0.85113,-0.0839 -0.5132,0.20901 -0.50998,0.23554 0.0548,0.45229 0.72864,0.27963 1.21795,0.0533 0.7963,-0.36836 z m 3.1037,0.3737 c -0.10198,-0.165 -0.41369,-0.29051 -0.69271,-0.27891 -0.41354,0.0172 -0.39641,0.0687 0.0927,0.27891 0.80277,0.34496 0.8132,0.34496 0.6,0 z m 30.33593,-0.18583 c 0.58151,-0.14594 0.65999,-0.26786 0.3854,-0.59872 -0.26342,-0.31739 -0.25352,-0.41545 0.0419,-0.41545 0.2127,0 0.30378,-0.0829 0.20239,-0.18434 -0.10139,-0.10139 -0.81136,0.11919 -1.57771,0.49017 -1.00672,0.48735 -1.28161,0.74574 -0.99066,0.93119 0.22149,0.14117 0.584,0.19002 0.80558,0.10855 0.22158,-0.0815 0.73146,-0.2306 1.13306,-0.3314 z m 8.2851,0.18583 c 0.17708,0 0.0985,-0.24688 -0.17453,-0.54862 -0.64014,-0.70734 -0.63025,-0.97414 0.0285,-0.76931 0.42721,0.13283 0.44118,0.11072 0.075,-0.11868 -0.67743,-0.42439 -2.66483,-0.663 -2.86221,-0.34364 -0.0953,0.15414 -0.3757,0.28025 -0.6232,0.28025 -0.26376,0 -0.36141,-0.14335 -0.23594,-0.34635 0.13281,-0.2149 0.0823,-0.26491 -0.13316,-0.13176 -0.19097,0.11802 -0.71808,0.41774 -1.17135,0.66604 -0.81768,0.44791 -0.81415,0.44991 0.45086,0.25539 1.04701,-0.161 1.275,-0.11088 1.275,0.28031 0,0.49138 0.26482,0.58209 1.425,0.48811 0.37125,-0.0301 0.675,0.10443 0.675,0.29889 0,0.19915 0.20724,0.27404 0.47454,0.17147 0.26099,-0.10016 0.61941,-0.1821 0.79649,-0.1821 z m 10.04772,0.11875 c -0.0997,-0.0997 -0.35844,-0.11035 -0.575,-0.0237 -0.23932,0.0958 -0.16823,0.16686 0.18125,0.18125 0.31625,0.013 0.49344,-0.0579 0.39375,-0.15756 z m -46.04375,-0.39808 c 0.43492,-0.04 0.21969,-0.92067 -0.225,-0.92067 -0.2475,0 -0.45,0.13757 -0.45,0.30572 0,0.17169 -0.36167,0.23666 -0.825,0.1482 -0.45375,-0.0866 -0.65541,-0.0777 -0.44813,0.0199 0.20728,0.0976 0.30609,0.29194 0.21959,0.4319 -0.0865,0.13997 0.2164,0.20524 0.67313,0.14505 0.45672,-0.0602 0.93166,-0.11874 1.05541,-0.13011 z m 3.98431,-0.3056 c -0.11042,-0.17867 -0.34086,-0.23828 -0.51207,-0.13246 -0.20156,0.12457 -0.17088,0.27918 0.087,0.43858 0.48143,0.29754 0.70057,0.13971 0.42503,-0.30612 z m 34.4734,0.31291 c 0.0925,-0.14961 -0.10207,-0.20137 -0.4323,-0.11501 -0.70049,0.18318 -0.78904,0.38703 -0.16812,0.38703 0.23777,0 0.50795,-0.12241 0.60042,-0.27202 z m 14.18604,0.0908 c -0.0997,-0.0997 -0.35844,-0.11035 -0.575,-0.0237 -0.23932,0.0958 -0.16823,0.16686 0.18125,0.18125 0.31625,0.013 0.49344,-0.0579 0.39375,-0.15756 z m 1.58125,-0.30085 c 0,-0.0648 -0.27797,-0.1179 -0.61771,-0.1179 -0.33973,0 -0.53791,0.1291 -0.44039,0.2869 0.16009,0.25902 1.0581,0.11559 1.0581,-0.169 z m -70.65,-0.1179 c -0.10198,-0.165 -0.38791,-0.3 -0.63541,-0.3 -0.2475,0 -0.36657,0.135 -0.26459,0.3 0.10198,0.165 0.38791,0.3 0.63541,0.3 0.2475,0 0.36657,-0.135 0.26459,-0.3 z m 3.75,-0.15 c -0.403,-0.48558 -1.95154,-0.63791 -1.6581,-0.1631 0.0975,0.15779 0.36184,0.21609 0.58736,0.12955 0.22553,-0.0865 0.49917,-0.0131 0.6081,0.1631 0.10893,0.17625 0.34161,0.32045 0.51708,0.32045 0.20117,0 0.18106,-0.16623 -0.0544,-0.45 z m 14.25,0.15 c 0.10198,-0.165 -0.033,-0.3 -0.3,-0.3 -0.26698,0 -0.40198,0.135 -0.3,0.3 0.10198,0.165 0.23698,0.3 0.3,0.3 0.063,0 0.19802,-0.135 0.3,-0.3 z m 28.86875,0.11875 c -0.0997,-0.0997 -0.35844,-0.11035 -0.575,-0.0237 -0.23932,0.0958 -0.16823,0.16686 0.18125,0.18125 0.31625,0.013 0.49344,-0.0579 0.39375,-0.15756 z m 51.98125,-0.13897 c 0,-0.17612 0.23625,-0.24523 0.525,-0.15358 0.40397,0.12821 0.525,-0.005 0.525,-0.57979 0,-0.41052 -0.10125,-0.74641 -0.225,-0.74641 -0.12375,0 -0.225,0.21694 -0.225,0.4821 0,0.29021 -0.16734,0.41788 -0.42044,0.32076 -0.24999,-0.0959 -0.48185,0.0735 -0.57191,0.4179 -0.0833,0.31858 -0.0291,0.57924 0.12044,0.57924 0.14955,0 0.27191,-0.1441 0.27191,-0.32022 z m 193.6326,-0.43659 c 1.12611,-0.0865 2.13972,-0.21429 2.25249,-0.28397 0.11277,-0.0697 1.11852,-0.21418 2.23503,-0.3211 1.11651,-0.10691 2.43147,-0.30952 2.92215,-0.45024 0.49065,-0.14072 1.08687,-0.18112 1.32492,-0.0898 0.23805,0.0913 0.43281,0.0124 0.43281,-0.17543 0,-0.64588 -0.92427,-0.69238 -3.98364,-0.20045 -1.68651,0.27119 -4.13835,0.62457 -5.4486,0.78531 -2.26665,0.27807 -3.2505,0.7705 -2.48484,1.24371 0.19317,0.11939 0.4302,0.0893 0.52671,-0.0669 0.0965,-0.15617 1.09686,-0.35471 2.22297,-0.44121 z m 11.7174,0.45681 c -0.10197,-0.165 -0.3462,-0.29793 -0.5427,-0.29541 -0.21468,0.003 -0.17769,0.12067 0.0927,0.29541 0.57633,0.37246 0.68019,0.37246 0.45,0 z m -282.15,-0.25185 c 0,-0.13851 -0.34385,-0.40851 -0.76412,-0.6 -0.93219,-0.42473 -1.03588,-0.42955 -1.03588,-0.0482 0,0.165 0.27,0.3 0.6,0.3 0.33,0 0.6,0.135 0.6,0.3 0,0.165 0.135,0.3 0.3,0.3 0.165,0 0.3,-0.11333 0.3,-0.25185 z m 10.35,-0.0481 c 0.10198,-0.165 -0.033,-0.3 -0.3,-0.3 -0.26698,0 -0.40198,0.135 -0.3,0.3 0.10198,0.165 0.23698,0.3 0.3,0.3 0.063,0 0.19802,-0.135 0.3,-0.3 z m 2.625,0.10132 c -0.20625,-0.0832 -0.54375,-0.0832 -0.75,0 -0.20625,0.0832 -0.0375,0.15131 0.375,0.15131 0.4125,0 0.58125,-0.0681 0.375,-0.15131 z m 61.87288,-0.0979 c 0.1051,-0.17006 -0.0153,-0.22036 -0.2823,-0.11791 -0.51972,0.19944 -0.61482,0.41447 -0.18329,0.41447 0.15527,0 0.36478,-0.13345 0.46559,-0.29656 z m 23.92712,0.0979 c -0.20625,-0.0832 -0.54375,-0.0832 -0.75,0 -0.20625,0.0832 -0.0375,0.15131 0.375,0.15131 0.4125,0 0.58125,-0.0681 0.375,-0.15131 z m 3,0 c -0.20625,-0.0832 -0.54375,-0.0832 -0.75,0 -0.20625,0.0832 -0.0375,0.15131 0.375,0.15131 0.4125,0 0.58125,-0.0681 0.375,-0.15131 z m 175.6833,-0.0692 c 0.28407,-0.17998 0.0831,-0.29666 -0.6603,-0.38346 -0.84852,-0.0991 -1.0023,-0.0448 -0.74658,0.26329 0.37215,0.44842 0.82743,0.4873 1.40688,0.12017 z m -241.9083,-0.33212 c 0.23914,-0.38693 -1.35126,-0.38693 -1.95,0 -0.33543,0.21677 -0.16808,0.29198 0.65729,0.29541 0.60902,0.003 1.19073,-0.13041 1.29271,-0.29541 z m 3.9,0 c -0.33,-0.14181 -0.8025,-0.25783 -1.05,-0.25783 -0.28364,0 -0.22819,0.0953 0.15,0.25783 0.33,0.14181 0.8025,0.25783 1.05,0.25783 0.28364,0 0.22819,-0.0953 -0.15,-0.25783 z m 169.5,0 c 0.10198,-0.165 0.0424,-0.3 -0.13229,-0.3 -0.17474,0 -0.31771,0.135 -0.31771,0.3 0,0.165 0.0595,0.3 0.13229,0.3 0.0728,0 0.21573,-0.135 0.31771,-0.3 z m -230.33125,-0.18125 c -0.0997,-0.0997 -0.35844,-0.11035 -0.575,-0.0237 -0.23932,0.0958 -0.16823,0.16686 0.18125,0.18125 0.31625,0.013 0.49344,-0.0579 0.39375,-0.15756 z m 9.52913,-0.11531 c 0.1051,-0.17006 -0.0153,-0.22036 -0.2823,-0.11791 -0.51972,0.19944 -0.61482,0.41447 -0.18329,0.41447 0.15527,0 0.36478,-0.13345 0.46559,-0.29656 z m 53.40212,-0.003 c 0.23606,-0.38196 -0.45896,-0.38196 -1.05,0 -0.36584,0.23643 -0.32708,0.29167 0.20729,0.29541 0.36152,0.003 0.74073,-0.13041 0.84271,-0.29541 z m 2.36685,-0.17179 c 0.12625,-0.32901 0.03,-0.4425 -0.31804,-0.375 -0.2745,0.0532 -0.55528,0.26554 -0.62395,0.47179 -0.18366,0.5516 0.72917,0.4578 0.94199,-0.0968 z m 2.92038,-0.20821 c -0.29629,-0.29408 -0.33075,-0.25962 -0.16794,0.16794 0.11266,0.29586 0.2804,0.46236 0.37277,0.37 0.0924,-0.0924 1.9e-4,-0.33444 -0.20483,-0.53794 z m 2.21277,0.08 c -0.10198,-0.165 -0.34619,-0.29793 -0.54271,-0.29541 -0.21468,0.003 -0.17768,0.12067 0.0927,0.29541 0.57634,0.37246 0.68019,0.37246 0.45,0 z m 31.35,0 c 0,-0.165 -0.21047,-0.3 -0.46771,-0.3 -0.25723,0 -0.38427,0.135 -0.28229,0.3 0.10198,0.165 0.31244,0.3 0.46771,0.3 0.15526,0 0.28229,-0.135 0.28229,-0.3 z m 3.525,0.11091 c 0.37125,-0.0995 0.675,-0.30014 0.675,-0.4459 0,-0.42561 -1.59635,-0.2865 -2.23234,0.19453 -0.56316,0.42595 -0.55822,0.44032 0.15,0.43636 0.40279,-0.002 1.03609,-0.0855 1.40734,-0.18499 z m 71.1,0 c 0.77027,-0.20642 0.91356,-0.71091 0.20192,-0.71091 -0.26019,0 -0.88434,-0.41127 -1.387,-0.91392 -0.90362,-0.90362 -0.91877,-0.907 -1.34393,-0.3 -0.23651,0.33765 -0.62486,0.61392 -0.863,0.61392 -0.94374,0 -0.35437,0.60602 0.99201,1.02003 1.72459,0.5303 1.5745,0.51211 2.4,0.29088 z m -123.525,-0.22881 c 0,-0.0649 -0.2025,-0.19561 -0.45,-0.29059 -0.2475,-0.095 -0.45,-0.0419 -0.45,0.11791 0,0.15982 0.2025,0.29058 0.45,0.29058 0.2475,0 0.45,-0.0531 0.45,-0.1179 z m 63.15,-0.1821 c 0.10198,-0.165 0.0424,-0.3 -0.13229,-0.3 -0.17474,0 -0.31771,0.135 -0.31771,0.3 0,0.165 0.0595,0.3 0.13229,0.3 0.0728,0 0.21573,-0.135 0.31771,-0.3 z m 7.26875,0.11875 c -0.0997,-0.0997 -0.35844,-0.11035 -0.575,-0.0237 -0.23932,0.0958 -0.16823,0.16685 0.18125,0.18125 0.31625,0.013 0.49344,-0.0579 0.39375,-0.15757 z m 113.78125,-0.11875 c 0,-0.165 -0.0595,-0.3 -0.13229,-0.3 -0.0728,0 -0.21573,0.135 -0.31771,0.3 -0.10198,0.165 -0.0424,0.3 0.13229,0.3 0.17474,0 0.31771,-0.135 0.31771,-0.3 z m -236.01803,-0.18283 c 0.32015,-0.32015 -0.49457,-0.93241 -1.04811,-0.78766 -0.78631,0.20563 -0.6554,0.96963 0.16614,0.96963 0.385,0 0.78189,-0.0819 0.88197,-0.18197 z m 10.52652,-0.26803 c -0.095,-0.2475 -0.46199,-0.43434 -0.81559,-0.4152 -0.51258,0.0277 -0.53573,0.0628 -0.11423,0.1727 0.29077,0.0759 0.45156,0.26269 0.3573,0.4152 -0.0943,0.15252 0.0349,0.2773 0.28691,0.2773 0.28411,0 0.39266,-0.17102 0.28561,-0.45 z m 2.89151,0.15 c 0,-0.165 -0.135,-0.3 -0.3,-0.3 -0.165,0 -0.3,0.135 -0.3,0.3 0,0.165 0.135,0.3 0.3,0.3 0.165,0 0.3,-0.135 0.3,-0.3 z m 41.85,0 c 0.10198,-0.165 -0.0251,-0.3 -0.28229,-0.3 -0.25724,0 -0.46771,0.135 -0.46771,0.3 0,0.165 0.12703,0.3 0.28229,0.3 0.15527,0 0.36573,-0.135 0.46771,-0.3 z m 61.65,0 c 0,-0.165 -0.0595,-0.3 -0.13229,-0.3 -0.0728,0 -0.21573,0.135 -0.31771,0.3 -0.10198,0.165 -0.0424,0.3 0.13229,0.3 0.17474,0 0.31771,-0.135 0.31771,-0.3 z m 10.5,0 c 0,-0.165 -0.2025,-0.3 -0.45,-0.3 -0.2475,0 -0.45,0.135 -0.45,0.3 0,0.165 0.2025,0.3 0.45,0.3 0.2475,0 0.45,-0.135 0.45,-0.3 z m 6.45,0 c -0.10198,-0.165 -0.31244,-0.3 -0.46771,-0.3 -0.15526,0 -0.28229,0.135 -0.28229,0.3 0,0.165 0.21047,0.3 0.46771,0.3 0.25723,0 0.38427,-0.135 0.28229,-0.3 z m -101.33125,-0.48125 c -0.0997,-0.0997 -0.35844,-0.11035 -0.575,-0.0237 -0.23932,0.0958 -0.16823,0.16685 0.18125,0.18125 0.31625,0.013 0.49344,-0.0579 0.39375,-0.15757 z m 27.6,0 c -0.0997,-0.0997 -0.35844,-0.11035 -0.575,-0.0237 -0.23932,0.0958 -0.16823,0.16685 0.18125,0.18125 0.31625,0.013 0.49344,-0.0579 0.39375,-0.15757 z m 4.13125,-0.11875 c 0.10198,-0.165 -0.0251,-0.3 -0.28229,-0.3 -0.25724,0 -0.46771,0.135 -0.46771,0.3 0,0.165 0.12703,0.3 0.28229,0.3 0.15527,0 0.36573,-0.135 0.46771,-0.3 z m 2.46462,-0.26161 c 0.0366,-0.48609 -0.0522,-0.51701 -0.66055,-0.22992 -0.7708,0.36376 -0.71687,0.79153 0.0998,0.79153 0.29158,0 0.53697,-0.24576 0.56076,-0.56161 z m 55.88538,0.26161 c 0,-0.165 -0.135,-0.3 -0.3,-0.3 -0.165,0 -0.3,0.135 -0.3,0.3 0,0.165 0.135,0.3 0.3,0.3 0.165,0 0.3,-0.135 0.3,-0.3 z m 1.8,0.16771 c 0,-0.0728 -0.135,-0.21573 -0.3,-0.31771 -0.165,-0.10198 -0.3,-0.0424 -0.3,0.13229 0,0.17474 0.135,0.31771 0.3,0.31771 0.165,0 0.3,-0.0595 0.3,-0.13229 z m 1.65794,-0.70977 c -0.0924,-0.0924 -0.33444,-1.9e-4 -0.53794,0.20483 -0.29408,0.29629 -0.25962,0.33075 0.16794,0.16794 0.29586,-0.11266 0.46236,-0.28041 0.37,-0.37277 z m -73.58294,0.0434 c -0.20625,-0.0832 -0.54375,-0.0832 -0.75,0 -0.20625,0.0832 -0.0375,0.15131 0.375,0.15131 0.4125,0 0.58125,-0.0681 0.375,-0.15131 z m 15.525,-0.10132 c 0,-0.165 -0.135,-0.3 -0.3,-0.3 -0.165,0 -0.3,0.135 -0.3,0.3 0,0.165 0.135,0.3 0.3,0.3 0.165,0 0.3,-0.135 0.3,-0.3 z m 66.3,-0.11501 c 0,-0.0633 -0.27019,-0.18567 -0.60041,-0.27202 -0.33023,-0.0864 -0.52476,-0.0346 -0.4323,0.11501 0.16148,0.26127 1.03271,0.39373 1.03271,0.15701 z m 112.8,-0.18499 c -0.2475,-0.15995 -0.72,-0.28339 -1.05,-0.27432 -0.6,0.0165 -0.6,0.0165 0,0.27432 0.33,0.14181 0.8025,0.26525 1.05,0.27432 0.4,0.0147 0.4,-0.0158 0,-0.27432 z m -23.55,-0.3 c 0.23465,-0.37968 -0.16249,-0.37968 -0.75,0 -0.38781,0.25062 -0.37989,0.29145 0.0573,0.29541 0.27902,0.003 0.59073,-0.13041 0.69271,-0.29541 z m 2.46875,-0.18125 c -0.0997,-0.0997 -0.35844,-0.11035 -0.575,-0.0237 -0.23932,0.0958 -0.16823,0.16685 0.18125,0.18125 0.31625,0.013 0.49344,-0.0579 0.39375,-0.15757 z"
       id="path4201"
       inkscape:connector-curvature="0" />
  </g>
</svg>
