<?xml version="1.0" encoding="UTF-8" standalone="no"?>
<svg
   xmlns:dc="http://purl.org/dc/elements/1.1/"
   xmlns:cc="http://creativecommons.org/ns#"
   xmlns:rdf="http://www.w3.org/1999/02/22-rdf-syntax-ns#"
   xmlns:svg="http://www.w3.org/2000/svg"
   xmlns="http://www.w3.org/2000/svg"
   xmlns:sodipodi="http://sodipodi.sourceforge.net/DTD/sodipodi-0.dtd"
   xmlns:inkscape="http://www.inkscape.org/namespaces/inkscape"
   viewBox="0 0 841.88977 595.27557"
   id="svg2"
   height="595.27557"
   width="841.88977"
   version="1.1"
   inkscape:version="0.91 r13725"
   sodipodi:docname="logo-jj-paraguacu.svg">
  <sodipodi:namedview
     pagecolor="#ffffff"
     bordercolor="#666666"
     borderopacity="1"
     objecttolerance="10"
     gridtolerance="10"
     guidetolerance="10"
     inkscape:pageopacity="0"
     inkscape:pageshadow="2"
     inkscape:window-width="1280"
     inkscape:window-height="752"
     id="namedview52"
     showgrid="false"
     inkscape:zoom="0.19822752"
     inkscape:cx="-1170.2595"
     inkscape:cy="348.73728"
     inkscape:window-x="600"
     inkscape:window-y="790"
     inkscape:window-maximized="0"
     inkscape:current-layer="svg2" />
  <metadata
     id="metadata102">
    <rdf:RDF>
      <cc:Work
         rdf:about="">
        <dc:format>image/svg+xml</dc:format>
        <dc:type
           rdf:resource="http://purl.org/dc/dcmitype/StillImage" />
        <dc:title />
      </cc:Work>
    </rdf:RDF>
  </metadata>
  <defs
     id="defs100" />
  <g
     id="g3391"
     style="fill:#000000"
     transform="translate(980.62159,366.68951)">
    <path
       d="m -712.8536,-160.6932 c 0,-18.8603 12.7021,-40.3549 34.6261,-32.3226 7.7862,2.8536 11.7893,6.6685 18.3537,11.5891 0.0607,0.053 0.7849,0.7081 0.906,0.8224 l 2.6762,2.5061 c 5.3872,4.9663 10.1392,10.6268 15.5911,15.5032 13.7418,11.469 26.7083,23.6599 43.922,29.785 4.4725,1.5909 10.0332,3.0028 14.9428,2.3228 5.2455,-0.7263 -2.1574,-3.1179 -2.9605,-3.3639 -10.7297,-3.0753 -27.1315,-13.6437 -33.8434,-21.5544 4.2489,-0.9901 8.4852,-2.4545 12.8115,-3.6405 12.0484,-3.3027 28.7348,-5.1095 44.8795,-5.3141 0.1409,-0.002 0.2812,-0.002 0.4221,-0.001 16.1779,0.1982 32.9116,2.0053 44.9869,5.3153 4.3263,1.186 8.5627,2.6504 12.8115,3.6405 -6.7119,7.9107 -23.1137,18.4791 -33.8434,21.5544 -0.8031,0.246 -8.206,2.6376 -2.9605,3.3639 4.9096,0.68 10.4703,-0.7319 14.9428,-2.3228 17.2137,-6.1251 30.1802,-18.316 43.922,-29.785 5.4519,-4.8764 10.2039,-10.5369 15.5911,-15.5032 l 2.6762,-2.5061 c 0.1211,-0.1143 0.8453,-0.7694 0.906,-0.8224 6.5645,-4.9206 10.5675,-8.7355 18.3537,-11.5891 21.924,-8.0323 34.6261,13.4623 34.6261,32.3226 0,2.262 -0.7625,13.82 -3.4552,13.82 l -31.6709,0 c -2.8831,0 -4.5833,-2.9857 -7.1867,-4.3296 -14.2914,-7.3761 -32.9261,5.8904 -41.792,11.2062 l -10.4119,6.8638 c -17.2922,12.0166 -37.0222,18.1057 -56.7851,18.2701 l -0.2012,10e-4 c -0.2223,0.001 -0.4445,0.003 -0.6667,0.003 -0.2223,0 -0.4445,-10e-4 -0.6668,-0.003 l -0.2012,-10e-4 c -19.7632,-0.1641 -39.4929,-6.2532 -56.7851,-18.2701 l -10.4119,-6.8638 c -8.8659,-5.3158 -27.5006,-18.5823 -41.792,-11.2062 -2.6034,1.3439 -4.3036,4.3296 -7.1867,4.3296 l -31.6709,0 c -2.6927,0 -3.4552,-11.558 -3.4552,-13.82 z m 155.4038,-13.2469 c 19.0123,0.2568 37.9208,3.1459 55.8017,9.0646 2.2995,0.762 3.9019,1.4678 5.2084,1.9922 0,0 1.313,-1.7436 1.313,-1.7436 -19.9996,-8.0093 -38.7337,-11.8941 -55.7578,-12.8979 -8.1314,-0.4788 -16.4667,-0.3603 -24.5744,0.3722 -15.6756,1.4196 -32.7123,5.2892 -50.7821,12.5257 0,0 1.313,1.7436 1.313,1.7436 1.3065,-0.5244 2.9089,-1.2302 5.2084,-1.9922 17.5096,-5.7957 36.0037,-8.6865 54.6168,-9.0453 2.5506,-0.0499 5.1021,-0.0547 7.653,-0.0193 z m 3.6836,-11.4148 c 21.4512,0.729 43.9251,5.938 63.9295,12.871 2.0106,-3.2525 3.8024,-6.5203 5.2991,-9.8093 -2.6674,-13.1514 -4.2528,-24.91 -10.7447,-36.7427 -1.3207,-2.4075 -4.7934,-6.0721 -7.0881,-9.0346 -1.2087,-1.561 -2.2532,-2.4627 -3.4605,-4.0249 -4.7472,-6.143 -17.8237,-20.6192 -24.6447,-23.15 -5.2526,-1.9485 -10.2841,-0.7242 -15.4293,0.349 -2.55,0.5317 -4.8999,0.9887 -7.2657,1.3042 -4.7432,0.6321 -9.9085,0.6505 -14.6659,0.047 -2.488,-0.316 -4.9467,-0.7925 -7.6263,-1.3512 -5.1452,-1.0732 -10.1767,-2.2975 -15.4293,-0.349 -6.821,2.5308 -19.8975,17.007 -24.6447,23.15 -1.2073,1.5622 -2.2518,2.4639 -3.4605,4.0249 -2.2947,2.9625 -5.7674,6.6271 -7.0881,9.0346 -6.4919,11.8327 -8.0773,23.5913 -10.7447,36.7427 1.4967,3.289 3.2885,6.5568 5.2991,9.8093 18.4949,-6.4097 39.1008,-11.346 59.0576,-12.6307 5.9388,-0.3804 12.6785,-0.4447 18.7072,-0.2403 z m 49.8555,-32.2124 c -4.5524,6.7564 -47.8837,-4.8512 -38.3355,-32.322 0.1273,-0.366 0.2883,-0.7019 0.4896,-1.0009 1.6163,-2.3979 2.9497,-0.9491 3.5566,1.188 0.5434,1.9139 0.8776,4.7642 3.5484,9.5737 4.5462,8.1867 9.7651,12.4818 18.5,16.0495 2.3831,0.9731 9.3983,2.6081 11.8041,4.2077 0.9453,0.6279 1.0831,1.3453 0.4368,2.304 z m -113.5463,0 c 4.5525,6.7564 47.8837,-4.8512 38.3355,-32.322 -0.1273,-0.366 -0.2883,-0.7019 -0.4896,-1.0009 -1.6163,-2.3979 -2.9497,-0.9491 -3.5566,1.188 -0.5434,1.9139 -0.8776,4.7642 -3.5484,9.5737 -4.5462,8.1867 -9.7651,12.4818 -18.5,16.0495 -2.3831,0.9731 -9.3983,2.6081 -11.8041,4.2077 -0.9453,0.6279 -1.0831,1.3453 -0.4368,2.304 z"
       style="fill:#000000;fill-rule:evenodd"
       id="path36"
       inkscape:connector-curvature="0" />
    <path
       d="m -287.2874,-195.2002 c -1.9899,0.485 -2.8528,1.0641 -4.7596,1.9264 -12.4248,6.7175 -19.1608,12.5246 -30.2712,20.9778 -21.7525,16.5501 -30.2272,27.5051 -57.3004,33.3391 -5.7841,1.2461 -9.3129,1.6518 -15.156,1.6623 l -66.9033,0.123 c 6.1308,10.9913 4.1528,22.4019 0.0938,30.6068 l 42.0356,0 c 24.2796,0 46.6982,-1.5798 66.2298,-16.6907 18.9385,-14.6494 24.927,-25.0019 39.8571,-43.0631 9.2602,-11.1997 13.147,-17.7554 24.6356,-27.28 0.5836,-0.4839 1.131,-0.8289 1.6228,-1.5061 0.0737,-0.1273 -0.0479,-0.1046 -0.0842,-0.0955 z"
       style="fill:#000000;fill-rule:evenodd"
       id="path38"
       inkscape:connector-curvature="0" />
    <path
       d="m -459.6908,-102.8432 0.0862,0.1757 0.0861,-0.1757 -0.1723,0 z M -573.1537,39.2902 c 1.6704,0.9045 3.5501,1.6582 5.5326,1.6582 21.5028,0 29.4356,-15.2203 29.4356,-41.8926 l 0,-74.4415 8.6641,0 0,-19.7405 -39.2477,0 0,19.7405 8.977,0 0,74.4415 c 0,16.1243 -3.4449,21.6998 -8.6641,21.6998 -1.879,0 -3.34,-0.4522 -4.6975,-1.3561 l 0,19.8907 z m 124.6643,-23.0097 0,-22.7772 -6.7632,-0.4496 -19.0196,-88.1799 -40.0828,0 0,19.4392 4.2801,0 -14.0069,65.7768 -7.1827,0.0116 0,20.8449 33.1937,1.2291 0,-21.7089 -8.0682,-0.3447 2.3882,-10.9117 21.1288,1.0092 2.4492,10.7093 -10.1738,-0.4621 0,21.9334 41.8572,3.8806 z m -51.5506,-54.5873 6.6654,-32.1061 6.8904,32.5491 -13.5558,-0.443 z m 127.9264,-28.4381 0,9.5143 0,58.2446 -5.8456,-0.7869 0.3266,25.7989 32.6576,6.1577 0,-27.6828 -5.7401,-1.1248 0,-76.6874 5.7401,0.0556 0,-21.8699 -39.7692,0 -9.6936,64.6957 -10.8689,-64.6957 -39.5612,0 0,20.8015 5.5327,0.3095 0,68.4904 -5.6367,-0.3855 0,22.6574 28.2875,3.2054 0.0672,-23.4238 -6.0177,-0.5273 0,-62.7469 0.4184,0 c 0.3129,8.0629 1.669,17.2545 2.192,19.9954 l 13.0493,68.39 22.0876,2.9795 9.3291,-69.7569 c 0.5014,-3.7494 2.192,-14.3518 3.0274,-21.608 l 0.4175,0 z m 31.701,-28.3821 0,22.4881 6.1815,0.1613 0.3952,78.4768 -6.5767,-1.2373 0,28.1251 62.9422,14.1715 0,-42.2623 -18.0573,-5.0808 0,13.9876 -16.7009,-3.5992 0,-31.4257 19.8323,2.6994 0,-25.8199 -19.8323,-1.2371 0,-26.2845 16.7009,1.012 0,16.2989 18.0573,1.5746 0,-42.0485 -62.9422,0 z m 68.9797,170.0813 20.3666,8.1436 -0.0116,-19.1384 c 0.006,9.5701 16.5084,28.1795 28.3881,28.1795 13.9975,0 27.2784,-7.1504 27.2784,-46.3685 0,-58.8663 -51.2923,-64.4644 -51.2923,-95.8363 0,-18.2959 17.5464,-19.637 25.7966,8.4722 l 21.2891,4.2211 0,-57.8013 -21.4498,0 0.0431,22.3364 c -4.7044,-18.8549 -14.9335,-22.7126 -24.8133,-22.7126 -9.0284,0 -21.7956,5.9627 -26.9045,26.4294 -4.1695,16.7018 -1.8471,31.093 5.4286,46.6016 6.1858,13.1851 14.5928,21.7987 22.3384,28.7314 11.632,10.4114 23.6495,21.5331 22.5403,34.1561 0,5.4357 -1.7079,9.2868 -4.2993,11.1889 -3.5833,2.6305 -8.8577,1.5352 -13.6432,-4.2457 -4.598,-5.5548 -10.9638,-20.6065 -10.9638,-33.4409 l -21.4438,-7.6519 1.3524,68.7354 z"
       style="fill:#000000;fill-rule:evenodd"
       id="path40"
       inkscape:connector-curvature="0" />
    <path
       d="m -923.942,89.7026 c 1.916,1.2541 4.0711,2.2995 6.3468,2.2995 24.6693,0 33.77,-21.1116 33.77,-58.108 l 0,-100.3152 9.9391,-0.2741 0,-29.1473 -45.0264,0 0,30.3883 10.2983,-0.2838 0,99.6321 c 0,22.3645 -3.9515,30.0994 -9.9391,30.0994 -2.1561,0 -3.8319,-0.627 -5.3887,-1.8813 l 0,27.5904 z m 53.9606,-185.5088 0,29.0038 6.5761,-0.182 -0.7033,93.3333 -6.5769,1.5188 0,27.9788 62.9422,-16.4194 0,-46.9854 -18.0576,2.6994 0,22.4351 -16.7011,4.0487 0.7032,-35.2437 19.8329,-2.4743 0,-26.1241 -19.8329,1.9683 0,-27.3305 16.7009,-0.4603 0,16.2805 18.0587,-1.012 0,-43.035 -62.9422,0 z m 66.8461,134.3469 18.1842,-4.1984 1.2302,-15.0211 c 3.9666,8.286 10.5373,10.6112 21.0796,10.6112 12.4217,0 28.2665,-9.625 28.2665,-38.3485 0,-43.2697 -41.2044,-33.2078 -41.2044,-52.173 0,-6.444 4.1755,-9.7583 7.2026,-9.7583 7.3071,0 13.3616,7.7329 13.3616,21.3585 l 18.893,0 0,-46.8624 -17.9538,0 -1.044,16.1136 c -4.1752,-13.8099 -12.9651,-16.0515 -21.733,-16.0515 -10.2305,0 -24.9259,9.6066 -24.9259,36.8575 0,46.9519 39.6647,38.4894 39.6647,52.8505 0,14.0826 -21.9875,17.4033 -21.9875,-4.8809 l -19.0338,2.8681 0,46.6347 z m 72.138,-14.1273 18.2665,-2.8443 1.148,-14.0479 c 3.9674,7.4557 9.3611,11.209 19.9032,11.209 12.4217,0 30.6618,-7.7185 30.6618,-33.5659 0,-38.9367 -42.4225,-32.4856 -42.4225,-49.5513 0,-5.7994 4.1752,-8.7817 7.2026,-8.7817 7.3063,0 13.3608,6.959 13.3608,19.2194 l 18.8923,0 0,-41.8612 -17.9538,0 -1.0434,14.192 c -4.284,-10.4582 -13.2656,-14.2007 -22.0328,-14.2007 -10.2297,0 -24.626,8.4016 -24.626,32.9232 0,42.2501 40.0836,36.7827 40.0836,49.7064 0,10.8505 -22.0258,12.0339 -22.0258,-8.2845 l -19.4145,2.7498 0,43.1377 z m 72.7957,-120.2196 0,23.1659 6.5767,-0.1803 0,65.0052 -6.5767,0.3373 0,21.0538 62.9422,-4.0487 0,-35.3064 -18.057,0.4377 0,15.5024 -16.7017,0.7869 0,-26.0255 19.8323,0 0,-20.0418 -19.8323,0 0,-18.2965 16.7017,-0.4603 0,11.3728 18.057,0 0,-33.3025 -62.9422,0 z"
       style="fill:#000000;fill-rule:evenodd"
       id="path42"
       inkscape:connector-curvature="0" />
    <path
       d="m -284.1418,91.8186 c -23.6683,-3.4971 -52.6768,-7.0523 -75.9436,-6.3967 -12.7184,0.3592 -10.8014,-12.4584 -1.8257,-11.3167 15.6833,1.9957 63.5971,10.2872 77.7693,17.7134 z"
       style="fill:#000000;fill-rule:evenodd"
       id="path44"
       inkscape:connector-curvature="0" />
    <path
       d="m -728.8415,103.2454 0,-12.607 8.6136,0 c 5.7946,0 16.1308,-3.5238 16.1308,-17.1491 0,-5.2463 -1.7226,-9.2401 -5.1681,-12.1374 -3.5237,-2.8973 -7.204,-4.3066 -11.1977,-4.3066 l -20.7507,0 0,46.2001 12.3721,0 z m 8.5354,-34.141 c 1.8793,0 3.9152,1.7226 3.9152,4.5417 0,3.5237 -2.0359,4.9331 -3.9152,4.9331 l -8.5354,0 0,-9.4748 8.5354,0 z"
       style="fill:#000000;fill-rule:evenodd"
       id="path46"
       inkscape:connector-curvature="0" />
    <path
       d="m -693.8289,57.0453 -16.9922,46.2001 13.077,0 2.6623,-7.2039 14.095,0 2.8191,7.2039 13.0768,0 -16.992,-46.2001 -0.0785,0 -11.6675,0 z m 5.8729,19.6545 2.819,7.5958 -5.6381,0 2.8191,-7.5958 z"
       style="fill:#000000;fill-rule:evenodd"
       id="path48"
       inkscape:connector-curvature="0" />
    <path
       d="m -627.8856,73.0196 c 0,-11.5891 -8.7701,-15.9743 -15.6612,-15.9743 l -20.4375,0 0,46.2001 12.2939,0 0,-13.86 5.7946,0 c 1.6443,0 2.8972,1.5662 3.9152,4.6982 l 2.9758,9.1618 12.9985,0 -3.9152,-11.7459 c -1.0179,-3.2887 -2.1926,-5.7946 -3.5237,-7.4389 3.5237,-1.9576 5.5596,-6.2643 5.5596,-11.041 z m -23.8048,-3.837 7.9872,0 c 1.8793,0 3.5237,1.1747 3.5237,4.072 0,3.6802 -2.0358,3.9935 -3.5237,3.9935 l -7.9872,0 0,-8.0655 z"
       style="fill:#000000;fill-rule:evenodd"
       id="path50"
       inkscape:connector-curvature="0" />
    <path
       d="m -610.0999,57.0453 -16.9923,46.2001 13.0771,0 2.6622,-7.2039 14.095,0 2.8191,7.2039 13.0768,0 -16.992,-46.2001 -0.0785,0 -11.6674,0 z m 5.8728,19.6545 2.819,7.5958 -5.6381,0 2.8191,-7.5958 z"
       style="fill:#000000;fill-rule:evenodd"
       id="path52"
       inkscape:connector-curvature="0" />
    <path
       d="m -561.0705,68.6344 c 3.6802,0 6.8908,1.1747 9.7098,3.602 l 7.2825,-8.6919 c -4.8552,-4.6199 -10.493,-6.9689 -16.9141,-6.9689 -5.3248,0 -10.6494,1.8008 -15.2696,5.2463 -4.6982,3.5238 -7.9087,9.9448 -7.9087,18.0102 0,7.5172 2.5056,13.5468 5.7161,16.9141 5.1684,5.3246 12.3724,7.0475 17.5405,6.9689 6.186,0 12.9203,-2.1923 16.7573,-7.1257 l 0,-20.9857 -18.6367,0 0,12.0589 6.3428,0 0,3.289 c -1.4094,0.4697 -2.9755,0.7047 -4.6199,0.7047 -3.6023,0 -10.493,-2.0359 -10.493,-11.8242 0,-3.9934 1.0962,-6.8125 3.2105,-8.6136 2.1144,-1.7226 4.5417,-2.5841 7.2825,-2.5841 z"
       style="fill:#000000;fill-rule:evenodd"
       id="path54"
       inkscape:connector-curvature="0" />
    <path
       d="m -520.1847,103.7151 c 12.6071,-0.0782 18.9499,-7.2822 18.9499,-21.6121 l 0,-25.0577 -12.2939,0 0,26.0756 c 0,6.8128 -2.6625,8.5354 -6.8127,8.5354 -4.1503,0 -6.8126,-1.7226 -6.8126,-8.5354 l 0,-26.0756 -12.2938,0 0,25.0577 c 0,14.3299 6.3428,21.5339 18.9499,21.6121 l 0.3132,0 z"
       style="fill:#000000;fill-rule:evenodd"
       id="path56"
       inkscape:connector-curvature="0" />
    <path
       d="m -486.2682,57.0453 -16.9922,46.2001 13.077,0 2.6623,-7.2039 14.095,0 2.8191,7.2039 13.0768,0 -16.992,-46.2001 -0.0786,0 -11.6674,0 z m 5.8729,19.6545 2.819,7.5958 -5.6381,0 2.8191,-7.5958 z"
       style="fill:#000000;fill-rule:evenodd"
       id="path58"
       inkscape:connector-curvature="0" />
    <path
       d="m -438.5866,118.1713 5.1338,-11.8724 c -1.1916,0.1676 -2.4018,0.2509 -3.6294,0.2509 l 0,-0.0108 c -1.8941,0.0261 -4.032,-0.165 -6.2521,-0.6449 l -6.9018,12.2772 11.6495,0 z"
       style="fill:#000000;fill-rule:evenodd"
       id="path60"
       inkscape:connector-curvature="0" />
    <path
       d="m -437.2387,68.6344 c 3.6802,0 6.8907,1.1747 9.7098,3.602 l 7.2825,-8.6919 c -4.8552,-4.6199 -10.493,-6.9689 -16.9141,-6.9689 -5.3249,0 -10.6495,1.8008 -15.2696,5.2463 -4.6982,3.5238 -7.9087,9.9448 -7.9087,18.0102 0,7.5172 2.5055,13.5468 5.7161,16.9141 5.1684,5.3246 12.3723,7.0475 17.5405,6.9689 6.186,0 11.8241,-2.349 16.7573,-7.1257 l -6.8125,-8.6919 c -3.0538,2.5059 -6.4211,3.7588 -10.1013,3.7588 -3.6023,0 -10.493,-2.0359 -10.493,-11.8242 0,-3.9934 1.0961,-6.8125 3.2105,-8.6136 2.1144,-1.7226 4.5417,-2.5841 7.2825,-2.5841 z"
       style="fill:#000000;fill-rule:evenodd"
       id="path62"
       inkscape:connector-curvature="0" />
    <path
       d="m -399.0937,103.7151 c 12.6071,-0.0782 18.9499,-7.2822 18.9499,-21.6121 l 0,-25.0577 -12.2939,0 0,26.0756 c 0,6.8128 -2.6626,8.5354 -6.8128,8.5354 -4.1502,0 -6.8125,-1.7226 -6.8125,-8.5354 l 0,-26.0756 -12.2939,0 0,25.0577 c 0,14.3299 6.3429,21.5339 18.9499,21.6121 l 0.3133,0 z"
       style="fill:#000000;fill-rule:evenodd"
       id="path64"
       inkscape:connector-curvature="0" />
    <path
       d="m -833.9769,-195.2002 c 1.99,0.485 2.8528,1.0641 4.7597,1.9264 12.4248,6.7175 19.1608,12.5246 30.2712,20.9778 21.7525,16.5501 30.2272,27.5051 57.3004,33.3391 5.7841,1.2461 9.3129,1.6518 15.156,1.6623 l 66.9033,0.123 c -6.1308,10.9913 -4.1528,22.4019 -0.0939,30.6068 l -42.0355,0 c -24.2796,0 -46.6982,-1.5798 -66.2298,-16.6907 -18.9385,-14.6494 -24.927,-25.0019 -39.8571,-43.0631 -9.2602,-11.1997 -13.1471,-17.7554 -24.6356,-27.28 -0.5837,-0.4839 -1.131,-0.8289 -1.6228,-1.5061 -0.0737,-0.1273 0.0479,-0.1046 0.0841,-0.0955 z"
       style="fill:#000000;fill-rule:evenodd"
       id="path66"
       inkscape:connector-curvature="0" />
    <path
       d="m -837.2126,91.8186 c 23.6684,-3.4971 52.6768,-7.0523 75.9437,-6.3967 12.7183,0.3592 10.8013,-12.4584 1.8257,-11.3167 -15.6834,1.9957 -63.5971,10.2872 -77.7694,17.7134 z"
       style="fill:#000000;fill-rule:evenodd"
       id="path68"
       inkscape:connector-curvature="0" />
    <path
       d="m -237.8666,-147.6777 c 2.6041,0 5.1448,0.6667 7.6296,2.0072 2.4776,1.3336 4.4148,3.2498 5.7975,5.7346 1.3826,2.4917 2.0777,5.0886 2.0777,7.7837 0,2.6744 -0.681,5.2501 -2.0496,7.7136 -1.3618,2.4708 -3.2708,4.387 -5.7343,5.7487 -2.4636,1.3686 -5.0396,2.0493 -7.7209,2.0493 -2.6882,0 -5.2642,-0.6807 -7.7277,-2.0493 -2.4636,-1.3617 -4.3798,-3.2779 -5.7484,-5.7487 -1.3686,-2.4635 -2.0565,-5.0392 -2.0565,-7.7136 0,-2.6951 0.6948,-5.292 2.0846,-7.7837 1.3967,-2.4848 3.3339,-4.401 5.8115,-5.7346 2.4848,-1.3405 5.0255,-2.0072 7.6365,-2.0072 z m -6.1904,24.0885 0,-16.6766 5.7415,0 c 1.9653,0 3.3829,0.1543 4.2604,0.463 0.8841,0.309 1.5792,0.8425 2.1056,1.6145 0.5192,0.765 0.7791,1.5791 0.7791,2.4426 0,1.2143 -0.4352,2.2811 -1.3127,3.1795 -0.8703,0.9054 -2.0284,1.4108 -3.4741,1.523 0.5894,0.2458 1.0668,0.5404 1.4176,0.8843 0.6738,0.653 1.4951,1.7548 2.4707,3.3061 l 2.0356,3.2636 -3.2708,0 -1.4882,-2.625 c -1.1649,-2.0706 -2.1124,-3.3689 -2.8284,-3.8884 -0.4914,-0.379 -1.2075,-0.5686 -2.1549,-0.5614 l -1.5861,0 0,7.0748 -2.6953,0 z m 2.6953,-9.3912 3.2708,0 c 1.5651,0 2.6319,-0.2315 3.2005,-0.6948 0.5685,-0.4633 0.8563,-1.0809 0.8563,-1.839 0,-0.4911 -0.1403,-0.9335 -0.4143,-1.3196 -0.2736,-0.393 -0.6526,-0.6807 -1.1368,-0.8703 -0.4914,-0.1893 -1.3898,-0.2878 -2.7094,-0.2878 l -3.0671,0 0,5.0115 z m 3.4951,-12.1284 c -2.1827,0 -4.3095,0.5613 -6.3732,1.6775 -2.0634,1.1159 -3.6778,2.7163 -4.8427,4.7937 -1.1653,2.0778 -1.7479,4.2395 -1.7479,6.4854 0,2.2392 0.5754,4.3797 1.7198,6.4294 1.1439,2.0493 2.7443,3.6497 4.8008,4.7937 2.0565,1.1443 4.2043,1.7197 6.4432,1.7197 2.2321,0 4.3798,-0.5754 6.4363,-1.7197 2.0565,-1.144 3.6569,-2.7444 4.794,-4.7937 1.1368,-2.0497 1.7054,-4.1902 1.7054,-6.4294 0,-2.2459 -0.5823,-4.4076 -1.7407,-6.4854 -1.1581,-2.0774 -2.7722,-3.6778 -4.8428,-4.7937 -2.0705,-1.1162 -4.1904,-1.6775 -6.3522,-1.6775 z"
       style="fill:#000000;fill-rule:evenodd"
       id="path74"
       inkscape:connector-curvature="0" />
  </g>
</svg>
