<?xml version="1.0" encoding="UTF-8" standalone="no"?>
<svg
   xmlns:dc="http://purl.org/dc/elements/1.1/"
   xmlns:cc="http://creativecommons.org/ns#"
   xmlns:rdf="http://www.w3.org/1999/02/22-rdf-syntax-ns#"
   xmlns:svg="http://www.w3.org/2000/svg"
   xmlns="http://www.w3.org/2000/svg"
   xmlns:sodipodi="http://sodipodi.sourceforge.net/DTD/sodipodi-0.dtd"
   xmlns:inkscape="http://www.inkscape.org/namespaces/inkscape"
   viewBox="0 0 841.88977 595.27557"
   id="svg2"
   height="595.27557"
   width="841.88977"
   version="1.1"
   inkscape:version="0.91 r13725"
   sodipodi:docname="logo-jj-pub.svg">
  <sodipodi:namedview
     pagecolor="#ffffff"
     bordercolor="#666666"
     borderopacity="1"
     objecttolerance="10"
     gridtolerance="10"
     guidetolerance="10"
     inkscape:pageopacity="0"
     inkscape:pageshadow="2"
     inkscape:window-width="1280"
     inkscape:window-height="752"
     id="namedview52"
     showgrid="false"
     inkscape:zoom="0.19822752"
     inkscape:cx="-933.15817"
     inkscape:cy="297.98268"
     inkscape:window-x="600"
     inkscape:window-y="790"
     inkscape:window-maximized="0"
     inkscape:current-layer="svg2" />
  <metadata
     id="metadata102">
    <rdf:RDF>
      <cc:Work
         rdf:about="">
        <dc:format>image/svg+xml</dc:format>
        <dc:type
           rdf:resource="http://purl.org/dc/dcmitype/StillImage" />
        <dc:title></dc:title>
      </cc:Work>
    </rdf:RDF>
  </metadata>
  <defs
     id="defs100" />
  <g
     id="g3422"
     style="fill:#000000"
     transform="translate(976.81579,-204.73151)">
    <path
       d="m -709.0478,414.3438 c 0,-18.8603 12.7021,-40.3548 34.6261,-32.3226 7.7862,2.8537 11.7893,6.6685 18.3537,11.5892 0.0607,0.053 0.7849,0.7081 0.906,0.8223 l 2.6762,2.5061 c 5.3872,4.9663 10.1392,10.6268 15.5911,15.5033 13.7418,11.469 26.7083,23.6599 43.922,29.785 4.4725,1.5908 10.0332,3.0028 14.9428,2.3227 5.2455,-0.7262 -2.1574,-3.1178 -2.9605,-3.3638 -10.7297,-3.0754 -27.1315,-13.6438 -33.8434,-21.5544 4.2489,-0.9902 8.4852,-2.4545 12.8115,-3.6405 12.0483,-3.3027 28.7348,-5.1095 44.8795,-5.3142 0.1409,-0.002 0.2812,-0.002 0.4221,-10e-4 16.1779,0.1982 32.9116,2.0052 44.9869,5.3153 4.3263,1.186 8.5627,2.6503 12.8115,3.6405 -6.7119,7.9106 -23.1137,18.479 -33.8434,21.5544 -0.8031,0.246 -8.206,2.6376 -2.9605,3.3638 4.9096,0.6801 10.4703,-0.7319 14.9428,-2.3227 17.2137,-6.1251 30.1802,-18.316 43.922,-29.785 5.4519,-4.8765 10.2039,-10.537 15.5911,-15.5033 l 2.6762,-2.5061 c 0.1211,-0.1142 0.8453,-0.7693 0.906,-0.8223 6.5644,-4.9207 10.5675,-8.7355 18.3537,-11.5892 21.924,-8.0322 34.6261,13.4623 34.6261,32.3226 0,2.2621 -0.7625,13.8201 -3.4552,13.8201 l -31.6709,0 c -2.8831,0 -4.5833,-2.9858 -7.1867,-4.3297 -14.2914,-7.376 -32.9261,5.8904 -41.792,11.2062 l -10.4119,6.8639 c -17.2922,12.0166 -37.0222,18.1057 -56.7851,18.2701 l -0.2012,10e-4 c -0.2223,10e-4 -0.4445,0.003 -0.6667,0.003 -0.2223,0 -0.4445,-10e-4 -0.6668,-0.003 l -0.2012,-10e-4 c -19.7632,-0.1641 -39.4929,-6.2532 -56.7851,-18.2701 l -10.4119,-6.8639 c -8.8659,-5.3158 -27.5006,-18.5822 -41.792,-11.2062 -2.6034,1.3439 -4.3036,4.3297 -7.1867,4.3297 l -31.6709,0 c -2.6927,0 -3.4552,-11.558 -3.4552,-13.8201 z M -553.644,401.097 c 19.0123,0.2568 37.9208,3.1459 55.8017,9.0646 2.2995,0.762 3.9019,1.4678 5.2084,1.9922 0,0 1.313,-1.7436 1.313,-1.7436 -19.9996,-8.0093 -38.7337,-11.8942 -55.7578,-12.8979 -8.1314,-0.4788 -16.4667,-0.3603 -24.5744,0.3722 -15.6756,1.4196 -32.7123,5.2891 -50.7821,12.5257 0,0 1.313,1.7436 1.313,1.7436 1.3065,-0.5244 2.9089,-1.2302 5.2084,-1.9922 17.5096,-5.7957 36.0037,-8.6865 54.6168,-9.0453 2.5506,-0.0499 5.1021,-0.0548 7.653,-0.0193 z m 3.6836,-11.4149 c 21.4512,0.7291 43.9251,5.9381 63.9295,12.871 2.0106,-3.2524 3.8024,-6.5202 5.2991,-9.8093 -2.6674,-13.1513 -4.2528,-24.91 -10.7447,-36.7426 -1.3207,-2.4075 -4.7934,-6.0721 -7.0881,-9.0346 -1.2087,-1.5611 -2.2532,-2.4628 -3.4605,-4.0249 -4.7472,-6.143 -17.8237,-20.6192 -24.6447,-23.15 -5.2526,-1.9486 -10.2841,-0.7243 -15.4293,0.3489 -2.55,0.5318 -4.8999,0.9888 -7.2657,1.3043 -4.7432,0.6321 -9.9085,0.6505 -14.6659,0.047 -2.488,-0.3161 -4.9467,-0.7926 -7.6263,-1.3513 -5.1452,-1.0732 -10.1767,-2.2975 -15.4293,-0.3489 -6.821,2.5308 -19.8975,17.007 -24.6447,23.15 -1.2073,1.5621 -2.2518,2.4638 -3.4605,4.0249 -2.2947,2.9625 -5.7674,6.6271 -7.0881,9.0346 -6.4919,11.8326 -8.0773,23.5913 -10.7447,36.7426 1.4967,3.2891 3.2885,6.5569 5.2991,9.8093 18.4949,-6.4097 39.1008,-11.3459 59.0576,-12.6306 5.9388,-0.3804 12.6785,-0.4447 18.7072,-0.2404 z m 49.8555,-32.2123 c -4.5525,6.7564 -47.8837,-4.8512 -38.3355,-32.3221 0.1273,-0.3659 0.2883,-0.7018 0.4896,-1.0009 1.6163,-2.3978 2.9497,-0.949 3.5566,1.188 0.5434,1.914 0.8776,4.7642 3.5484,9.5738 4.5462,8.1867 9.7651,12.4818 18.5,16.0494 2.3831,0.9732 9.3983,2.6082 11.8041,4.2078 0.9453,0.6279 1.0831,1.3453 0.4368,2.304 z m -113.5463,0 c 4.5525,6.7564 47.8837,-4.8512 38.3355,-32.3221 -0.1273,-0.3659 -0.2883,-0.7018 -0.4896,-1.0009 -1.6163,-2.3978 -2.9497,-0.949 -3.5566,1.188 -0.5434,1.914 -0.8776,4.7642 -3.5484,9.5738 -4.5462,8.1867 -9.7651,12.4818 -18.5,16.0494 -2.3831,0.9732 -9.3983,2.6082 -11.8041,4.2078 -0.9453,0.6279 -1.0831,1.3453 -0.4368,2.304 z"
       style="fill:#000000;fill-rule:evenodd"
       id="path80"
       inkscape:connector-curvature="0" />
    <path
       d="m -283.4816,379.8369 c -1.9899,0.485 -2.8528,1.0641 -4.7596,1.9264 -12.4248,6.7175 -19.1608,12.5246 -30.2712,20.9778 -21.7525,16.55 -30.2273,27.5051 -57.3004,33.3391 -5.7841,1.2461 -9.3129,1.6517 -15.156,1.6622 l -66.9033,0.123 c 6.1308,10.9914 4.1528,22.402 0.0938,30.6069 l 42.0356,0 c 24.2796,0 46.6982,-1.5798 66.2298,-16.6907 18.9385,-14.6495 24.927,-25.0019 39.8571,-43.0631 9.2602,-11.1997 13.147,-17.7554 24.6356,-27.2801 0.5836,-0.4838 1.131,-0.8288 1.6228,-1.506 0.0737,-0.1273 -0.0479,-0.1046 -0.0842,-0.0955 z"
       style="fill:#000000;fill-rule:evenodd"
       id="path82"
       inkscape:connector-curvature="0" />
    <path
       d="m -455.885,472.1939 0.0862,0.1757 0.0861,-0.1757 -0.1723,0 z m -113.4629,142.1333 c 1.6704,0.9046 3.5501,1.6583 5.5326,1.6583 21.5028,0 29.4356,-15.2203 29.4356,-41.8926 l 0,-74.4415 8.664,0 0,-19.7405 -39.2476,0 0,19.7405 8.977,0 0,74.4415 c 0,16.1243 -3.4449,21.6997 -8.6641,21.6997 -1.879,0 -3.34,-0.4521 -4.6975,-1.3561 l 0,19.8907 z m 124.6643,-23.0096 0,-22.7773 -6.7632,-0.4495 -19.0196,-88.1799 -40.0828,0 0,19.4391 4.2801,0 -14.0069,65.7769 -7.1827,0.0116 0,20.8448 33.1937,1.2291 0,-21.7088 -8.0682,-0.3447 2.3882,-10.9117 21.1288,1.0091 2.4492,10.7093 -10.1739,-0.462 0,21.9333 41.8573,3.8807 z m -51.5506,-54.5874 6.6654,-32.106 6.8904,32.5491 -13.5558,-0.4431 z m 127.9264,-28.438 0,9.5142 0,58.2446 -5.8456,-0.7869 0.3266,25.799 32.6576,6.1577 0,-27.6829 -5.7401,-1.1248 0,-76.6873 5.7401,0.0555 0,-21.8698 -39.7692,0 -9.6936,64.6956 -10.8689,-64.6956 -39.5612,0 0,20.8014 5.5327,0.3096 0,68.4904 -5.6367,-0.3855 0,22.6573 28.2875,3.2054 0.0672,-23.4238 -6.0177,-0.5272 0,-62.7469 0.4184,0 c 0.3129,8.0629 1.669,17.2545 2.192,19.9953 l 13.0493,68.3901 22.0876,2.9795 9.3291,-69.7569 c 0.5014,-3.7494 2.192,-14.3519 3.0274,-21.608 l 0.4175,0 z m 31.701,-28.3822 0,22.4881 6.1815,0.1613 0.3952,78.4769 -6.5767,-1.2373 0,28.1251 62.9422,14.1715 0,-42.2623 -18.0573,-5.0808 0,13.9875 -16.7009,-3.5991 0,-31.4258 19.8323,2.6995 0,-25.82 -19.8323,-1.237 0,-26.2845 16.7009,1.0119 0,16.299 18.0573,1.5746 0,-42.0486 -62.9422,0 z m 68.9797,170.0813 20.3666,8.1437 -0.0116,-19.1384 c 0.006,9.57 16.5084,28.1795 28.3881,28.1795 13.9975,0 27.2784,-7.1504 27.2784,-46.3686 0,-58.8662 -51.2924,-64.4644 -51.2924,-95.8362 0,-18.296 17.5465,-19.637 25.7967,8.4722 l 21.2891,4.221 0,-57.8012 -21.4498,0 0.0431,22.3364 c -4.7044,-18.8549 -14.9335,-22.7126 -24.8134,-22.7126 -9.0283,0 -21.7955,5.9627 -26.9044,26.4294 -4.1695,16.7017 -1.8471,31.0929 5.4286,46.6016 6.1858,13.185 14.5928,21.7987 22.3384,28.7314 11.632,10.4114 23.6495,21.5331 22.5403,34.156 0,5.4358 -1.7079,9.2869 -4.2993,11.189 -3.5833,2.6305 -8.8577,1.5352 -13.6432,-4.2458 -4.5981,-5.5547 -10.9638,-20.6064 -10.9638,-33.4409 l -21.4438,-7.6518 1.3524,68.7353 z"
       style="fill:#000000;fill-rule:evenodd"
       id="path84"
       inkscape:connector-curvature="0" />
    <path
       d="m -920.1362,664.7397 c 1.9159,1.2541 4.0711,2.2995 6.3468,2.2995 24.6693,0 33.77,-21.1116 33.77,-58.108 l 0,-100.3153 9.9391,-0.2741 0,-29.1472 -45.0264,0 0,30.3882 10.2983,-0.2837 0,99.6321 c 0,22.3645 -3.9515,30.0994 -9.9391,30.0994 -2.1561,0 -3.8319,-0.627 -5.3887,-1.8813 l 0,27.5904 z m 53.9606,-185.5088 0,29.0038 6.5761,-0.182 -0.7033,93.3333 -6.5769,1.5188 0,27.9788 62.9422,-16.4194 0,-46.9854 -18.0576,2.6994 0,22.4351 -16.7012,4.0487 0.7033,-35.2437 19.8329,-2.4744 0,-26.1241 -19.8329,1.9684 0,-27.3305 16.7009,-0.4603 0,16.2805 18.0587,-1.012 0,-43.035 -62.9422,0 z m 66.8461,134.3469 18.1842,-4.1984 1.2302,-15.0211 c 3.9666,8.286 10.5373,10.6112 21.0796,10.6112 12.4217,0 28.2665,-9.625 28.2665,-38.3485 0,-43.2697 -41.2044,-33.2079 -41.2044,-52.1731 0,-6.444 4.1754,-9.7582 7.2026,-9.7582 7.3071,0 13.3616,7.7329 13.3616,21.3585 l 18.8929,0 0,-46.8624 -17.9537,0 -1.044,16.1135 c -4.1752,-13.8098 -12.9651,-16.0514 -21.733,-16.0514 -10.2305,0 -24.9259,9.6066 -24.9259,36.8575 0,46.9519 39.6646,38.4893 39.6646,52.8505 0,14.0825 -21.9874,17.4033 -21.9874,-4.881 l -19.0338,2.8681 0,46.6348 z m 72.138,-14.1273 18.2665,-2.8443 1.148,-14.048 c 3.9674,7.4557 9.3611,11.2091 19.9032,11.2091 12.4217,0 30.6618,-7.7185 30.6618,-33.5659 0,-38.9367 -42.4225,-32.4856 -42.4225,-49.5513 0,-5.7994 4.1752,-8.7818 7.2026,-8.7818 7.3063,0 13.3608,6.9591 13.3608,19.2195 l 18.8923,0 0,-41.8612 -17.9538,0 -1.0434,14.192 c -4.284,-10.4582 -13.2656,-14.2008 -22.0329,-14.2008 -10.2296,0 -24.6259,8.4016 -24.6259,32.9233 0,42.2501 40.0836,36.7826 40.0836,49.7064 0,10.8504 -22.0258,12.0339 -22.0258,-8.2846 l -19.4145,2.7499 0,43.1377 z m 72.7957,-120.2196 0,23.1658 6.5767,-0.1803 0,65.0053 -6.5767,0.3373 0,21.0538 62.9422,-4.0488 0,-35.3063 -18.057,0.4376 0,15.5024 -16.7017,0.7869 0,-26.0254 19.8323,0 0,-20.0418 -19.8323,0 0,-18.2965 16.7017,-0.4604 0,11.3729 18.057,0 0,-33.3025 -62.9422,0 z"
       style="fill:#000000;fill-rule:evenodd"
       id="path86"
       inkscape:connector-curvature="0" />
    <path
       d="m -398.8049,666.8557 c -23.6684,-3.4971 -52.6768,-7.0523 -75.9437,-6.3967 -12.7183,0.3592 -10.8013,-12.4584 -1.8256,-11.3167 15.6833,1.9957 63.5971,10.2871 77.7693,17.7134 z"
       style="fill:#000000;fill-rule:evenodd"
       id="path88"
       inkscape:connector-curvature="0" />
    <path
       d="m -830.1711,379.8369 c 1.99,0.485 2.8528,1.0641 4.7597,1.9264 12.4248,6.7175 19.1608,12.5246 30.2712,20.9778 21.7525,16.55 30.2272,27.5051 57.3004,33.3391 5.7841,1.2461 9.3129,1.6517 15.156,1.6622 l 66.9033,0.123 c -6.1308,10.9914 -4.1528,22.402 -0.0939,30.6069 l -42.0355,0 c -24.2796,0 -46.6982,-1.5798 -66.2298,-16.6907 -18.9385,-14.6495 -24.927,-25.0019 -39.8571,-43.0631 -9.2602,-11.1997 -13.1471,-17.7554 -24.6356,-27.2801 -0.5837,-0.4838 -1.131,-0.8288 -1.6228,-1.506 -0.0737,-0.1273 0.0479,-0.1046 0.0841,-0.0955 z"
       style="fill:#000000;fill-rule:evenodd"
       id="path90"
       inkscape:connector-curvature="0" />
    <path
       d="m -716.7575,666.8557 c 23.6684,-3.4971 52.6768,-7.0523 75.9437,-6.3967 12.7184,0.3592 10.8013,-12.4584 1.8257,-11.3167 -15.6834,1.9957 -63.5971,10.2871 -77.7694,17.7134 z"
       style="fill:#000000;fill-rule:evenodd"
       id="path92"
       inkscape:connector-curvature="0" />
    <path
       d="m -234.0608,427.3611 c 2.6041,0 5.1448,0.6667 7.6296,2.0071 2.4776,1.3337 4.4148,3.2499 5.7975,5.7347 1.3826,2.4916 2.0777,5.0886 2.0777,7.7836 0,2.6744 -0.681,5.2501 -2.0496,7.7137 -1.3618,2.4707 -3.2708,4.387 -5.7344,5.7487 -2.4635,1.3686 -5.0395,2.0493 -7.7208,2.0493 -2.6882,0 -5.2642,-0.6807 -7.7277,-2.0493 -2.4636,-1.3617 -4.3798,-3.278 -5.7484,-5.7487 -1.3686,-2.4636 -2.0565,-5.0393 -2.0565,-7.7137 0,-2.695 0.6948,-5.292 2.0846,-7.7836 1.3967,-2.4848 3.3339,-4.401 5.8115,-5.7347 2.4848,-1.3404 5.0255,-2.0071 7.6365,-2.0071 z m -6.1904,24.0885 0,-16.6766 5.7415,0 c 1.9653,0 3.3829,0.1543 4.2604,0.463 0.8841,0.3089 1.5792,0.8425 2.1056,1.6144 0.5192,0.7651 0.7791,1.5792 0.7791,2.4426 0,1.2143 -0.4352,2.2812 -1.3127,3.1796 -0.8703,0.9053 -2.0284,1.4108 -3.4741,1.5229 0.5894,0.2459 1.0668,0.5405 1.4176,0.8844 0.6738,0.6529 1.4951,1.7547 2.4707,3.3061 l 2.0356,3.2636 -3.2708,0 -1.4882,-2.6251 c -1.1649,-2.0705 -2.1124,-3.3688 -2.8285,-3.8883 -0.4913,-0.379 -1.2074,-0.5686 -2.1549,-0.5614 l -1.586,0 0,7.0748 -2.6953,0 z m 2.6953,-9.3912 3.2708,0 c 1.5651,0 2.6319,-0.2315 3.2005,-0.6948 0.5685,-0.4633 0.8563,-1.0809 0.8563,-1.8391 0,-0.4911 -0.1403,-0.9334 -0.4143,-1.3195 -0.2736,-0.393 -0.6526,-0.6807 -1.1368,-0.8704 -0.4914,-0.1893 -1.3898,-0.2877 -2.7094,-0.2877 l -3.0671,0 0,5.0115 z m 3.4951,-12.1285 c -2.1827,0 -4.3095,0.5614 -6.3732,1.6776 -2.0634,1.1159 -3.6778,2.7163 -4.8427,4.7937 -1.1653,2.0777 -1.7479,4.2395 -1.7479,6.4853 0,2.2393 0.5754,4.3798 1.7197,6.4294 1.144,2.0493 2.7444,3.6497 4.8009,4.7937 2.0565,1.1443 4.2043,1.7198 6.4432,1.7198 2.2321,0 4.3798,-0.5755 6.4363,-1.7198 2.0565,-1.144 3.6569,-2.7444 4.794,-4.7937 1.1368,-2.0496 1.7054,-4.1901 1.7054,-6.4294 0,-2.2458 -0.5823,-4.4076 -1.7407,-6.4853 -1.1581,-2.0774 -2.7722,-3.6778 -4.8428,-4.7937 -2.0705,-1.1162 -4.1904,-1.6776 -6.3522,-1.6776 z"
       style="fill:#000000;fill-rule:evenodd"
       id="path94"
       inkscape:connector-curvature="0" />
    <path
       d="m -606.901,685.4709 0,-13.5609 9.265,0 c 6.2331,0 17.3514,-3.7903 17.3514,-18.4462 0,-5.6435 -1.853,-9.9391 -5.5593,-13.0558 -3.7902,-3.1164 -7.749,-4.6324 -12.0447,-4.6324 l -22.3208,0 0,49.6953 13.3084,0 z m 9.1808,-36.724 c 2.0217,0 4.2114,1.853 4.2114,4.8853 0,3.7902 -2.1897,5.3064 -4.2114,5.3064 l -9.1808,0 0,-10.1917 9.1808,0 z m 40.2704,37.2294 c 13.5609,-0.0842 20.3837,-7.8332 20.3837,-23.2475 l 0,-26.9532 -13.2242,0 0,28.0482 c 0,7.3282 -2.8639,9.1812 -7.3279,9.1812 -4.4643,0 -7.3281,-1.853 -7.3281,-9.1812 l 0,-28.0482 -13.2239,0 0,26.9532 c 0,15.4143 6.8224,23.1633 20.3834,23.2475 l 0.337,0 z m 38.2484,-37.2294 6.7386,0 c 1.9372,0 3.706,0.9264 3.706,2.611 0,1.9372 -1.2634,2.8639 -3.706,2.8639 l -6.7386,0 0,-5.4749 z m 0,18.362 8.8441,0 c 2.4429,0 3.7063,0.8422 3.7063,2.5268 0,1.9372 -1.2634,2.8639 -3.7063,2.8639 l -8.8441,0 0,-5.3907 z m 8.2545,18.362 c 6.4857,0 11.5396,-2.2742 13.9822,-5.4748 2.4426,-3.2009 3.5376,-6.4857 3.5376,-9.7708 0,-5.1381 -1.6001,-8.6757 -4.8852,-10.6971 1.853,-2.4426 2.7797,-5.2222 2.7797,-8.3387 0,-12.4659 -9.5182,-15.4139 -16.846,-15.4139 l -20.0467,0 0,49.6953 21.4784,0 z"
       style="fill:#000000;fill-rule:evenodd"
       id="path96"
       inkscape:connector-curvature="0" />
  </g>
</svg>
