<svg width="728.53029" height="361.05353" xmlns="http://www.w3.org/2000/svg">
 <metadata id="metadata102">image/svg+xml</metadata>

 <g>
  <title>background</title>
  <rect fill="none" id="canvas_background" height="363.05353" width="730.53029" y="-1" x="-1"/>
 </g>
 <g>
  <title>Layer 1</title>
  <g fill="#000000" id="g3380">
   <g id="svg_1">
    <path fill="#000000" fill-rule="evenodd" id="path20" d="m211.088483,95.581542c0,-18.8603 12.702,-40.3549 34.626,-32.3226c7.7862,2.8536 11.7893,6.6685 18.3538,11.5891c0.061,0.053 0.7849,0.7081 0.9059,0.8224l2.6762,2.5061c5.3873,4.9663 10.1393,10.6268 15.5911,15.5032c13.7418,11.469 26.7083,23.66 43.922,29.7851c4.4725,1.5908 10.0332,3.0027 14.9428,2.3227c5.2456,-0.7263 -2.1574,-3.1179 -2.9605,-3.3639c-10.7297,-3.0753 -27.1315,-13.6437 -33.8434,-21.5544c4.2489,-0.9901 8.4853,-2.4545 12.8115,-3.6405c12.0484,-3.3027 28.7348,-5.1095 44.8795,-5.3141c0.1409,-0.002 0.2812,-0.002 0.4221,-0.001c16.1779,0.1982 32.9117,2.0053 44.987,5.3153c4.3262,1.186 8.5626,2.6504 12.8114,3.6405c-6.7118,7.9107 -23.1137,18.4791 -33.8434,21.5544c-0.803,0.246 -8.206,2.6376 -2.9605,3.3639c4.9096,0.68 10.4704,-0.7319 14.9429,-2.3227c17.2136,-6.1251 30.1802,-18.3161 43.922,-29.7851c5.4518,-4.8764 10.2038,-10.5369 15.5911,-15.5032l2.6762,-2.5061c0.121,-0.1143 0.8453,-0.7694 0.9059,-0.8224c6.5645,-4.9206 10.5676,-8.7355 18.3538,-11.5891c21.924,-8.0323 34.626,13.4623 34.626,32.3226c0,2.262 -0.7625,13.82 -3.4551,13.82l-31.671,0c-2.8831,0 -4.5833,-2.9857 -7.1866,-4.3296c-14.2915,-7.3761 -32.9261,5.8904 -41.7921,11.2062l-10.4119,6.8638c-17.2922,12.0166 -37.0222,18.1057 -56.785,18.2701l-0.2013,0.001c-0.2222,0.001 -0.4445,0.002 -0.6667,0.002c-0.2222,0 -0.4445,-0.001 -0.6667,-0.002l-0.2013,-0.001c-19.7631,-0.1641 -39.4928,-6.2532 -56.785,-18.2701l-10.412,-6.8638c-8.8659,-5.3158 -27.5006,-18.5823 -41.792,-11.2062c-2.6033,1.3439 -4.3035,4.3296 -7.1867,4.3296l-31.6709,0c-2.6926,0 -3.4551,-11.558 -3.4551,-13.82l0,-0.0002zm155.4037,-13.2469c19.0123,0.2568 37.9208,3.1459 55.8017,9.0646c2.2995,0.762 3.9019,1.4678 5.2084,1.9922c0,0 1.313,-1.7436 1.313,-1.7436c-19.9995,-8.0092 -38.7337,-11.8941 -55.7577,-12.8979c-8.1315,-0.4788 -16.4668,-0.3603 -24.5744,0.3722c-15.6756,1.4196 -32.7124,5.2892 -50.7821,12.5257c0,0 1.313,1.7436 1.313,1.7436c1.3065,-0.5244 2.9089,-1.2302 5.2083,-1.9922c17.5096,-5.7957 36.0037,-8.6864 54.6169,-9.0453c2.5506,-0.0499 5.102,-0.0547 7.6529,-0.0193zm3.6837,-11.4148c21.4511,0.729 43.9251,5.938 63.9294,12.871c2.0107,-3.2525 3.8024,-6.5203 5.2991,-9.8093c-2.6674,-13.1514 -4.2528,-24.91 -10.7447,-36.7427c-1.3207,-2.4075 -4.7934,-6.0721 -7.088,-9.0346c-1.2087,-1.561 -2.2533,-2.4627 -3.4606,-4.0249c-4.7471,-6.143 -17.8236,-20.6192 -24.6447,-23.15c-5.2526,-1.9485 -10.2841,-0.7242 -15.4292,0.349c-2.5501,0.5317 -4.9,0.9887 -7.2658,1.3042c-4.7432,0.6321 -9.9085,0.6505 -14.6659,0.047c-2.4879,-0.316 -4.9467,-0.7925 -7.6263,-1.3512c-5.1452,-1.0732 -10.1767,-2.2975 -15.4293,-0.349c-6.821,2.5308 -19.8975,17.007 -24.6447,23.15c-1.2072,1.5622 -2.2518,2.4639 -3.4605,4.0249c-2.2946,2.9625 -5.7674,6.6271 -7.088,9.0346c-6.4919,11.8327 -8.0773,23.5913 -10.7447,36.7427c1.4966,3.289 3.2884,6.5568 5.299,9.8093c18.495,-6.4097 39.1009,-11.346 59.0576,-12.6306c5.9389,-0.3805 12.6785,-0.4448 18.7073,-0.2404zm49.8554,-32.2124c-4.5524,6.7564 -47.8837,-4.8512 -38.3354,-32.322c0.1272,-0.366 0.2882,-0.7019 0.4895,-1.0009c1.6163,-2.3979 2.9497,-0.9491 3.5566,1.188c0.5434,1.9139 0.8776,4.7642 3.5484,9.5737c4.5462,8.1867 9.7651,12.4818 18.5001,16.0495c2.3831,0.9731 9.3982,2.6081 11.804,4.2077c0.9454,0.6279 1.0831,1.3454 0.4368,2.304zm-113.5462,0c4.5524,6.7564 47.8836,-4.8512 38.3354,-32.322c-0.1273,-0.366 -0.2883,-0.7019 -0.4895,-1.0009c-1.6163,-2.3979 -2.9498,-0.9491 -3.5567,1.188c-0.5434,1.9139 -0.8776,4.7642 -3.5484,9.5737c-4.5462,8.1867 -9.765,12.4818 -18.5,16.0495c-2.3831,0.9731 -9.3983,2.6081 -11.804,4.2077c-0.9454,0.6279 -1.0831,1.3454 -0.4368,2.304z"/>
    <path fill="#000000" fill-rule="evenodd" id="path22" d="m636.654683,61.074542c-1.99,0.485 -2.8528,1.0641 -4.7597,1.9264c-12.4248,6.7176 -19.1608,12.5246 -30.2712,20.9778c-21.7525,16.5501 -30.2272,27.5051 -57.3003,33.3391c-5.7841,1.2461 -9.313,1.6518 -15.156,1.6623l-66.9034,0.123c6.1308,10.9913 4.1528,22.4019 0.094,30.6068l42.0355,0c24.2796,0 46.6982,-1.5798 66.2298,-16.6907c18.9385,-14.6494 24.927,-25.0018 39.8571,-43.0631c9.2602,-11.1997 13.1471,-17.7553 24.6356,-27.28c0.5837,-0.4839 1.131,-0.8289 1.6229,-1.5061c0.074,-0.1273 -0.048,-0.1046 -0.084,-0.0955l-0.0003,0z"/>
    <path fill="#000000" fill-rule="evenodd" id="path24" d="m464.251183,153.431542l0.086,0.1757l0.086,-0.1757l-0.1724,0l0.0004,0zm-113.4629,142.1334c1.6705,0.9045 3.5501,1.6582 5.5327,1.6582c21.5027,0 29.4355,-15.2203 29.4355,-41.8926l0,-74.4415l8.6641,0l0,-19.7405l-39.2477,0l0,19.7405l8.9771,0l0,74.4415c0,16.1243 -3.445,21.6998 -8.6641,21.6998c-1.8791,0 -3.3401,-0.4522 -4.6976,-1.3561l0,19.8907zm124.6643,-23.0097l0,-22.7772l-6.7632,-0.4496l-19.0196,-88.1799l-40.0827,0l0,19.4392l4.28,0l-14.0068,65.7768l-7.1827,0.0116l0,20.8449l33.1937,1.2291l0,-21.7089l-8.0683,-0.3447l2.3882,-10.9117l21.1289,1.0092l2.4491,10.7093l-10.1738,-0.4621l0,21.9334l41.8572,3.8806zm-51.5506,-54.5873l6.6654,-32.1061l6.8905,32.5491l-13.5559,-0.443zm127.9265,-28.438l0,9.5142l0,58.2446l-5.8456,-0.7869l0.3265,25.7989l32.6577,6.1577l0,-27.6828l-5.7402,-1.1248l0,-76.6874l5.7402,0.0556l0,-21.8699l-39.7693,0l-9.6936,64.6957l-10.8689,-64.6957l-39.5611,0l0,20.8015l5.5326,0.3095l0,68.4905l-5.6367,-0.3856l0,22.6574l28.2875,3.2054l0.067,-23.4238l-6.0177,-0.5273l0,-62.7468l0.4184,0c0.313,8.0628 1.6691,17.2544 2.1921,19.9953l13.0493,68.39l22.0875,2.9795l9.3291,-69.7569c0.5015,-3.7494 2.192,-14.3518 3.0274,-21.6079l0.4176,0l0.0002,0zm31.7009,-28.3822l0,22.4881l6.1815,0.1613l0.3952,78.4769l-6.5767,-1.2374l0,28.1251l62.9422,14.1715l0,-42.2623l-18.0573,-5.0808l0,13.9876l-16.7008,-3.5992l0,-31.4257l19.8323,2.6994l0,-25.8199l-19.8323,-1.2371l0,-26.2845l16.7008,1.012l0,16.2989l18.0573,1.5747l0,-42.0486l-62.9422,0zm68.9797,170.0813l20.3667,8.1436l-0.012,-19.1384c0.01,9.5701 16.5085,28.1795 28.3882,28.1795c13.9975,0 27.2783,-7.1504 27.2783,-46.3685c0,-58.8663 -51.2923,-64.4644 -51.2923,-95.8363c0,-18.2959 17.5464,-19.637 25.7967,8.4722l21.289,4.2211l0,-57.8013l-21.4497,0l0.043,22.3365c-4.7043,-18.855 -14.9334,-22.7126 -24.8133,-22.7126c-9.0284,0 -21.7956,5.9626 -26.9045,26.4293c-4.1695,16.7018 -1.847,31.093 5.4286,46.6016c6.1858,13.1851 14.5928,21.7987 22.3385,28.7314c11.6319,10.4114 23.6494,21.5331 22.5402,34.1561c0,5.4357 -1.7079,9.2868 -4.2993,11.1889c-3.5833,2.6305 -8.8577,1.5352 -13.6431,-4.2457c-4.5981,-5.5548 -10.9639,-20.6065 -10.9639,-33.4409l-21.4438,-7.6519l1.3524,68.7354l0.0003,0z"/>
    <path fill="#000000" fill-rule="evenodd" id="path26" d="m-0.000017,345.977442c1.916,1.254 4.0712,2.2994 6.3468,2.2994c24.6694,0 33.77,-21.1116 33.77,-58.108l0,-100.3152l9.9391,-0.2741l0,-29.1473l-45.0263,0l0,30.3883l10.2982,-0.2838l0,99.6321c0,22.3646 -3.9515,30.0995 -9.9391,30.0995c-2.156,0 -3.8319,-0.6271 -5.3887,-1.8814l0,27.5905zm53.9606,-185.5089l0,29.0038l6.5761,-0.182l-0.7032,93.3333l-6.577,1.5188l0,27.9788l62.9422,-16.4194l0,-46.9854l-18.0575,2.6994l0,22.4351l-16.7012,4.0488l0.7033,-35.2438l19.8328,-2.4743l0,-26.1241l-19.8328,1.9684l0,-27.3306l16.7008,-0.4603l0,16.2805l18.0587,-1.012l0,-43.035l-62.9422,0zm66.8461,134.3469l18.1842,-4.1984l1.2303,-15.0211c3.9665,8.286 10.5372,10.6112 21.0795,10.6112c12.4217,0 28.2666,-9.625 28.2666,-38.3485c0,-43.2697 -41.2044,-33.2078 -41.2044,-52.173c0,-6.444 4.1754,-9.7583 7.2025,-9.7583c7.3072,0 13.3617,7.7329 13.3617,21.3585l18.8929,0l0,-46.8624l-17.9538,0l-1.044,16.1136c-4.1752,-13.8099 -12.9651,-16.0515 -21.733,-16.0515c-10.2305,0 -24.9258,9.6066 -24.9258,36.8575c0,46.9519 39.6646,38.4894 39.6646,52.8505c0,14.0826 -21.9875,17.4033 -21.9875,-4.8809l-19.0338,2.8681l0,46.6347zm72.138,-14.1273l18.2665,-2.8443l1.148,-14.0479c3.9674,7.4557 9.3612,11.209 19.9032,11.209c12.4217,0 30.6618,-7.7184 30.6618,-33.5659c0,-38.9367 -42.4224,-32.4856 -42.4224,-49.5513c0,-5.7994 4.1751,-8.7817 7.2025,-8.7817c7.3063,0 13.3608,6.959 13.3608,19.2194l18.8924,0l0,-41.8611l-17.9538,0l-1.0435,14.1919c-4.284,-10.4582 -13.2655,-14.2007 -22.0328,-14.2007c-10.2297,0 -24.626,8.4016 -24.626,32.9232c0,42.2501 40.0836,36.7827 40.0836,49.7064c0,10.8505 -22.0258,12.0339 -22.0258,-8.2845l-19.4145,2.7499l0,43.1376zm72.7957,-120.2196l0,23.1659l6.5767,-0.1803l0,65.0052l-6.5767,0.3373l0,21.0538l62.9422,-4.0487l0,-35.3064l-18.057,0.4377l0,15.5024l-16.7017,0.7869l0,-26.0255l19.8323,0l0,-20.0418l-19.8323,0l0,-18.2965l16.7017,-0.4603l0,11.3729l18.057,0l0,-33.3026l-62.9422,0z"/>
    <path fill="#000000" fill-rule="evenodd" id="path28" d="m556.268883,348.093342c-23.6683,-3.497 -52.6768,-7.0523 -75.9436,-6.3967c-12.7184,0.3592 -10.8014,-12.4584 -1.8257,-11.3167c15.6833,1.9957 63.5971,10.2872 77.7693,17.7134z"/>
    <path fill="#000000" fill-rule="evenodd" id="path30" d="m284.420483,308.640642l-19.1693,52.1195l14.7526,0l3.0033,-8.1272l15.9009,0l3.1802,8.1272l14.7527,0l-19.1696,-52.1195l-0.088,0l-13.1626,0l-0.0002,0zm6.6254,22.1729l3.1802,8.5688l-6.3604,0l3.1802,-8.5688zm46.1216,-22.6148c-10.7773,0 -21.2011,3.5336 -21.2011,16.166c0,6.0071 4.24,10.7773 9.5403,13.2508c7.774,3.7984 17.5793,5.8303 17.5793,8.3038c0,1.1483 -2.7383,1.7668 -8.3038,1.7668c-3.975,0 -9.6287,-1.2367 -17.0493,-3.7987l0,11.9257c2.9152,2.5619 9.9822,5.4771 19.0812,5.4771c12.9858,0 20.6711,-5.3002 20.6711,-16.2545c0,-5.9184 -4.2401,-10.777 -9.5403,-13.3389c-7.774,-3.7985 -17.4912,-5.8303 -17.4912,-7.9504c0,-1.3252 2.4735,-2.0318 7.5087,-2.0318c3.5336,0 8.6573,0.8832 15.4593,2.5619l0,-12.7208c-3.7103,-2.2084 -9.0989,-3.357 -16.2542,-3.357zm42.4112,0c-10.7774,0 -21.2012,3.5336 -21.2012,16.166c0,6.0071 4.2401,10.7773 9.5403,13.2508c7.774,3.7984 17.5793,5.8303 17.5793,8.3038c0,1.1483 -2.7382,1.7668 -8.3038,1.7668c-3.975,0 -9.6287,-1.2367 -17.0493,-3.7987l0,11.9257c2.9152,2.5619 9.9823,5.4771 19.0812,5.4771c12.9858,0 20.6711,-5.3002 20.6711,-16.2545c0,-5.9184 -4.2401,-10.777 -9.5403,-13.3389c-7.774,-3.7985 -17.4912,-5.8303 -17.4912,-7.9504c0,-1.3252 2.4735,-2.0318 7.5087,-2.0318c3.5337,0 8.6573,0.8832 15.4593,2.5619l0,-12.7208c-3.7103,-2.2084 -9.0989,-3.357 -16.2541,-3.357zm37.2875,52.5614l0,-52.1195l-13.8691,0l0,52.1195l13.8691,0zm24.3017,-52.5614c-10.7774,0 -21.2012,3.5336 -21.2012,16.166c0,6.0071 4.2401,10.7773 9.5403,13.2508c7.774,3.7984 17.5793,5.8303 17.5793,8.3038c0,1.1483 -2.7383,1.7668 -8.3038,1.7668c-3.975,0 -9.6287,-1.2367 -17.0493,-3.7987l0,11.9257c2.9152,2.5619 9.9823,5.4771 19.0812,5.4771c12.9858,0 20.6711,-5.3002 20.6711,-16.2545c0,-5.9184 -4.2401,-10.777 -9.5403,-13.3389c-7.774,-3.7985 -17.4912,-5.8303 -17.4912,-7.9504c0,-1.3252 2.4735,-2.0318 7.5087,-2.0318c3.5337,0 8.6573,0.8832 15.4593,2.5619l0,-12.7208c-3.7103,-2.2084 -9.0989,-3.357 -16.2541,-3.357z"/>
    <path fill="#000000" fill-rule="evenodd" id="path32" d="m89.965183,61.074542c1.9899,0.485 2.8528,1.0641 4.7596,1.9264c12.4249,6.7176 19.1608,12.5246 30.2712,20.9778c21.7525,16.5501 30.2273,27.5051 57.3004,33.3391c5.7841,1.2461 9.3129,1.6518 15.156,1.6623l66.9033,0.123c-6.1308,10.9913 -4.1528,22.4019 -0.094,30.6068l-42.0356,0c-24.2795,0 -46.6982,-1.5798 -66.2297,-16.6907c-18.9386,-14.6494 -24.9271,-25.0018 -39.8571,-43.0631c-9.2603,-11.1997 -13.1471,-17.7553 -24.6357,-27.28c-0.5836,-0.4839 -1.131,-0.8289 -1.6228,-1.5061c-0.074,-0.1273 0.048,-0.1046 0.084,-0.0955l0.0004,0z"/>
    <path fill="#000000" fill-rule="evenodd" id="path34" d="m174.836683,348.093342c23.6684,-3.497 52.6768,-7.0523 75.9437,-6.3967c12.7184,0.3592 10.8013,-12.4584 1.8257,-11.3167c-15.6834,1.9957 -63.5971,10.2872 -77.7694,17.7134z"/>
    <path fill="#000000" fill-rule="evenodd" id="path70" d="m686.075383,108.676442c2.6042,0 5.1449,0.6667 7.6297,2.0071c2.4776,1.3337 4.4147,3.2499 5.7974,5.7347c1.3827,2.4917 2.0777,5.0886 2.0777,7.7836c0,2.6744 -0.681,5.2501 -2.0496,7.7137c-1.3617,2.4707 -3.2708,4.387 -5.7343,5.7487c-2.4636,1.3686 -5.0396,2.0493 -7.7209,2.0493c-2.6881,0 -5.2641,-0.6807 -7.7277,-2.0493c-2.4635,-1.3617 -4.3798,-3.278 -5.7484,-5.7487c-1.3686,-2.4636 -2.0565,-5.0393 -2.0565,-7.7137c0,-2.695 0.6948,-5.2919 2.0846,-7.7836c1.3968,-2.4848 3.3339,-4.401 5.8115,-5.7347c2.4848,-1.3404 5.0255,-2.0071 7.6365,-2.0071zm-6.1904,24.0885l0,-16.6766l5.7415,0c1.9653,0 3.3829,0.1543 4.2605,0.463c0.884,0.3089 1.5791,0.8425 2.1055,1.6144c0.5192,0.7651 0.7791,1.5792 0.7791,2.4426c0,1.2143 -0.4351,2.2812 -1.3127,3.1796c-0.8703,0.9053 -2.0283,1.4108 -3.4741,1.5229c0.5895,0.2459 1.0668,0.5405 1.4176,0.8844c0.6739,0.6529 1.4952,1.7548 2.4708,3.3061l2.0355,3.2636l-3.2707,0l-1.4883,-2.6251c-1.1649,-2.0705 -2.1124,-3.3688 -2.8284,-3.8883c-0.4914,-0.379 -1.2074,-0.5686 -2.1549,-0.5614l-1.586,0l0,7.0748l-2.6954,0zm2.6954,-9.3912l3.2707,0c1.5651,0 2.632,-0.2315 3.2005,-0.6948c0.5686,-0.4633 0.8563,-1.0809 0.8563,-1.8391c0,-0.4911 -0.1403,-0.9334 -0.4142,-1.3195c-0.2737,-0.393 -0.6526,-0.6807 -1.1368,-0.8704c-0.4914,-0.1893 -1.3899,-0.2877 -2.7094,-0.2877l-3.0671,0l0,5.0115zm3.495,-12.1285c-2.1827,0 -4.3095,0.5614 -6.3731,1.6776c-2.0634,1.1159 -3.6779,2.7163 -4.8428,4.7937c-1.1652,2.0777 -1.7478,4.2395 -1.7478,6.4853c0,2.2393 0.5754,4.3798 1.7197,6.4294c1.144,2.0494 2.7444,3.6498 4.8009,4.7937c2.0565,1.1444 4.2042,1.7198 6.4431,1.7198c2.2321,0 4.3798,-0.5754 6.4363,-1.7198c2.0565,-1.1439 3.6569,-2.7443 4.794,-4.7937c1.1368,-2.0496 1.7054,-4.1901 1.7054,-6.4294c0,-2.2458 -0.5823,-4.4076 -1.7407,-6.4853c-1.158,-2.0774 -2.7722,-3.6778 -4.8427,-4.7937c-2.0706,-1.1162 -4.1905,-1.6776 -6.3523,-1.6776z"/>
   </g>
  </g>
 </g>
</svg>