<?xml version="1.0" encoding="UTF-8" standalone="no"?>
<svg
   xmlns:dc="http://purl.org/dc/elements/1.1/"
   xmlns:cc="http://creativecommons.org/ns#"
   xmlns:rdf="http://www.w3.org/1999/02/22-rdf-syntax-ns#"
   xmlns:svg="http://www.w3.org/2000/svg"
   xmlns="http://www.w3.org/2000/svg"
   xmlns:sodipodi="http://sodipodi.sourceforge.net/DTD/sodipodi-0.dtd"
   xmlns:inkscape="http://www.inkscape.org/namespaces/inkscape"
   viewBox="0 0 841.88977 595.27557"
   id="svg2"
   height="595.27557"
   width="841.88977"
   version="1.1"
   inkscape:version="0.91 r13725"
   sodipodi:docname="logo-jj-assis.svg">
  <sodipodi:namedview
     pagecolor="#ffffff"
     bordercolor="#666666"
     borderopacity="1"
     objecttolerance="10"
     gridtolerance="10"
     guidetolerance="10"
     inkscape:pageopacity="0"
     inkscape:pageshadow="2"
     inkscape:window-width="1280"
     inkscape:window-height="752"
     id="namedview52"
     showgrid="false"
     inkscape:zoom="0.19822752"
     inkscape:cx="-1170.2595"
     inkscape:cy="297.98268"
     inkscape:window-x="600"
     inkscape:window-y="790"
     inkscape:window-maximized="0"
     inkscape:current-layer="svg2" />
  <metadata
     id="metadata102">
    <rdf:RDF>
      <cc:Work
         rdf:about="">
        <dc:format>image/svg+xml</dc:format>
        <dc:type
           rdf:resource="http://purl.org/dc/dcmitype/StillImage" />
        <dc:title />
      </cc:Work>
    </rdf:RDF>
  </metadata>
  <defs
     id="defs100" />
  <g
     id="g3380"
     style="fill:#000000"
     transform="translate(1978.6846,372.46241)">
    <path
       d="m -1710.9164,-160.3882 c 0,-18.8603 12.702,-40.3549 34.626,-32.3226 7.7862,2.8536 11.7893,6.6685 18.3538,11.5891 0.061,0.053 0.7849,0.7081 0.9059,0.8224 l 2.6762,2.5061 c 5.3873,4.9663 10.1393,10.6268 15.5911,15.5032 13.7418,11.469 26.7083,23.66 43.922,29.7851 4.4725,1.5908 10.0332,3.0027 14.9428,2.3227 5.2456,-0.7263 -2.1574,-3.1179 -2.9605,-3.3639 -10.7297,-3.0753 -27.1315,-13.6437 -33.8434,-21.5544 4.2489,-0.9901 8.4853,-2.4545 12.8115,-3.6405 12.0484,-3.3027 28.7348,-5.1095 44.8795,-5.3141 0.1409,-0.002 0.2812,-0.002 0.4221,-10e-4 16.1779,0.1982 32.9117,2.0053 44.987,5.3153 4.3262,1.186 8.5626,2.6504 12.8114,3.6405 -6.7118,7.9107 -23.1137,18.4791 -33.8434,21.5544 -0.803,0.246 -8.206,2.6376 -2.9605,3.3639 4.9096,0.68 10.4704,-0.7319 14.9429,-2.3227 17.2136,-6.1251 30.1802,-18.3161 43.922,-29.7851 5.4518,-4.8764 10.2038,-10.5369 15.5911,-15.5032 l 2.6762,-2.5061 c 0.121,-0.1143 0.8453,-0.7694 0.9059,-0.8224 6.5645,-4.9206 10.5676,-8.7355 18.3538,-11.5891 21.924,-8.0323 34.626,13.4623 34.626,32.3226 0,2.262 -0.7625,13.82 -3.4551,13.82 l -31.671,0 c -2.8831,0 -4.5833,-2.9857 -7.1866,-4.3296 -14.2915,-7.3761 -32.9261,5.8904 -41.7921,11.2062 l -10.4119,6.8638 c -17.2922,12.0166 -37.0222,18.1057 -56.785,18.2701 l -0.2013,0.001 c -0.2222,0.001 -0.4445,0.002 -0.6667,0.002 -0.2222,0 -0.4445,-10e-4 -0.6667,-0.002 l -0.2013,-0.001 c -19.7631,-0.1641 -39.4928,-6.2532 -56.785,-18.2701 l -10.412,-6.8638 c -8.8659,-5.3158 -27.5006,-18.5823 -41.792,-11.2062 -2.6033,1.3439 -4.3035,4.3296 -7.1867,4.3296 l -31.6709,0 c -2.6926,0 -3.4551,-11.558 -3.4551,-13.82 z m 155.4037,-13.2469 c 19.0123,0.2568 37.9208,3.1459 55.8017,9.0646 2.2995,0.762 3.9019,1.4678 5.2084,1.9922 0,0 1.313,-1.7436 1.313,-1.7436 -19.9995,-8.0092 -38.7337,-11.8941 -55.7577,-12.8979 -8.1315,-0.4788 -16.4668,-0.3603 -24.5744,0.3722 -15.6756,1.4196 -32.7124,5.2892 -50.7821,12.5257 0,0 1.313,1.7436 1.313,1.7436 1.3065,-0.5244 2.9089,-1.2302 5.2083,-1.9922 17.5096,-5.7957 36.0037,-8.6864 54.6169,-9.0453 2.5506,-0.0499 5.102,-0.0547 7.6529,-0.0193 z m 3.6837,-11.4148 c 21.4511,0.729 43.9251,5.938 63.9294,12.871 2.0107,-3.2525 3.8024,-6.5203 5.2991,-9.8093 -2.6674,-13.1514 -4.2528,-24.91 -10.7447,-36.7427 -1.3207,-2.4075 -4.7934,-6.0721 -7.088,-9.0346 -1.2087,-1.561 -2.2533,-2.4627 -3.4606,-4.0249 -4.7471,-6.143 -17.8236,-20.6192 -24.6447,-23.15 -5.2526,-1.9485 -10.2841,-0.7242 -15.4292,0.349 -2.5501,0.5317 -4.9,0.9887 -7.2658,1.3042 -4.7432,0.6321 -9.9085,0.6505 -14.6659,0.047 -2.4879,-0.316 -4.9467,-0.7925 -7.6263,-1.3512 -5.1452,-1.0732 -10.1767,-2.2975 -15.4293,-0.349 -6.821,2.5308 -19.8975,17.007 -24.6447,23.15 -1.2072,1.5622 -2.2518,2.4639 -3.4605,4.0249 -2.2946,2.9625 -5.7674,6.6271 -7.088,9.0346 -6.4919,11.8327 -8.0773,23.5913 -10.7447,36.7427 1.4966,3.289 3.2884,6.5568 5.299,9.8093 18.495,-6.4097 39.1009,-11.346 59.0576,-12.6306 5.9389,-0.3805 12.6785,-0.4448 18.7073,-0.2404 z m 49.8554,-32.2124 c -4.5524,6.7564 -47.8837,-4.8512 -38.3354,-32.322 0.1272,-0.366 0.2882,-0.7019 0.4895,-1.0009 1.6163,-2.3979 2.9497,-0.9491 3.5566,1.188 0.5434,1.9139 0.8776,4.7642 3.5484,9.5737 4.5462,8.1867 9.7651,12.4818 18.5001,16.0495 2.3831,0.9731 9.3982,2.6081 11.804,4.2077 0.9454,0.6279 1.0831,1.3454 0.4368,2.304 z m -113.5462,0 c 4.5524,6.7564 47.8836,-4.8512 38.3354,-32.322 -0.1273,-0.366 -0.2883,-0.7019 -0.4895,-1.0009 -1.6163,-2.3979 -2.9498,-0.9491 -3.5567,1.188 -0.5434,1.9139 -0.8776,4.7642 -3.5484,9.5737 -4.5462,8.1867 -9.765,12.4818 -18.5,16.0495 -2.3831,0.9731 -9.3983,2.6081 -11.804,4.2077 -0.9454,0.6279 -1.0831,1.3454 -0.4368,2.304 z"
       style="fill:#000000;fill-rule:evenodd"
       id="path20"
       inkscape:connector-curvature="0" />
    <path
       d="m -1285.3502,-194.8952 c -1.99,0.485 -2.8528,1.0641 -4.7597,1.9264 -12.4248,6.7176 -19.1608,12.5246 -30.2712,20.9778 -21.7525,16.5501 -30.2272,27.5051 -57.3003,33.3391 -5.7841,1.2461 -9.313,1.6518 -15.156,1.6623 l -66.9034,0.123 c 6.1308,10.9913 4.1528,22.4019 0.094,30.6068 l 42.0355,0 c 24.2796,0 46.6982,-1.5798 66.2298,-16.6907 18.9385,-14.6494 24.927,-25.0018 39.8571,-43.0631 9.2602,-11.1997 13.1471,-17.7553 24.6356,-27.28 0.5837,-0.4839 1.131,-0.8289 1.6229,-1.5061 0.074,-0.1273 -0.048,-0.1046 -0.084,-0.0955 z"
       style="fill:#000000;fill-rule:evenodd"
       id="path22"
       inkscape:connector-curvature="0" />
    <path
       d="m -1457.7537,-102.5382 0.086,0.1757 0.086,-0.1757 -0.1724,0 z m -113.4629,142.1334 c 1.6705,0.9045 3.5501,1.6582 5.5327,1.6582 21.5027,0 29.4355,-15.2203 29.4355,-41.8926 l 0,-74.4415 8.6641,0 0,-19.7405 -39.2477,0 0,19.7405 8.9771,0 0,74.4415 c 0,16.1243 -3.445,21.6998 -8.6641,21.6998 -1.8791,0 -3.3401,-0.4522 -4.6976,-1.3561 l 0,19.8907 z m 124.6643,-23.0097 0,-22.7772 -6.7632,-0.4496 -19.0196,-88.1799 -40.0827,0 0,19.4392 4.28,0 -14.0068,65.7768 -7.1827,0.0116 0,20.8449 33.1937,1.2291 0,-21.7089 -8.0683,-0.3447 2.3882,-10.9117 21.1289,1.0092 2.4491,10.7093 -10.1738,-0.4621 0,21.9334 41.8572,3.8806 z m -51.5506,-54.5873 6.6654,-32.1061 6.8905,32.5491 -13.5559,-0.443 z m 127.9265,-28.438 0,9.5142 0,58.2446 -5.8456,-0.7869 0.3265,25.7989 32.6577,6.1577 0,-27.6828 -5.7402,-1.1248 0,-76.6874 5.7402,0.0556 0,-21.8699 -39.7693,0 -9.6936,64.6957 -10.8689,-64.6957 -39.5611,0 0,20.8015 5.5326,0.3095 0,68.4905 -5.6367,-0.3856 0,22.6574 28.2875,3.2054 0.067,-23.4238 -6.0177,-0.5273 0,-62.7468 0.4184,0 c 0.313,8.0628 1.6691,17.2544 2.1921,19.9953 l 13.0493,68.39 22.0875,2.9795 9.3291,-69.7569 c 0.5015,-3.7494 2.192,-14.3518 3.0274,-21.6079 l 0.4176,0 z m 31.7009,-28.3822 0,22.4881 6.1815,0.1613 0.3952,78.4769 -6.5767,-1.2374 0,28.1251 62.9422,14.1715 0,-42.2623 -18.0573,-5.0808 0,13.9876 -16.7008,-3.5992 0,-31.4257 19.8323,2.6994 0,-25.8199 -19.8323,-1.2371 0,-26.2845 16.7008,1.012 0,16.2989 18.0573,1.5747 0,-42.0486 -62.9422,0 z m 68.9797,170.0813 20.3667,8.1436 -0.012,-19.1384 c 0.01,9.5701 16.5085,28.1795 28.3882,28.1795 13.9975,0 27.2783,-7.1504 27.2783,-46.3685 0,-58.8663 -51.2923,-64.4644 -51.2923,-95.8363 0,-18.2959 17.5464,-19.637 25.7967,8.4722 l 21.289,4.2211 0,-57.8013 -21.4497,0 0.043,22.3365 c -4.7043,-18.855 -14.9334,-22.7126 -24.8133,-22.7126 -9.0284,0 -21.7956,5.9626 -26.9045,26.4293 -4.1695,16.7018 -1.847,31.093 5.4286,46.6016 6.1858,13.1851 14.5928,21.7987 22.3385,28.7314 11.6319,10.4114 23.6494,21.5331 22.5402,34.1561 0,5.4357 -1.7079,9.2868 -4.2993,11.1889 -3.5833,2.6305 -8.8577,1.5352 -13.6431,-4.2457 -4.5981,-5.5548 -10.9639,-20.6065 -10.9639,-33.4409 l -21.4438,-7.6519 1.3524,68.7354 z"
       style="fill:#000000;fill-rule:evenodd"
       id="path24"
       inkscape:connector-curvature="0" />
    <path
       d="m -1922.0049,90.0077 c 1.916,1.254 4.0712,2.2994 6.3468,2.2994 24.6694,0 33.77,-21.1116 33.77,-58.108 l 0,-100.3152 9.9391,-0.2741 0,-29.1473 -45.0263,0 0,30.3883 10.2982,-0.2838 0,99.6321 c 0,22.3646 -3.9515,30.0995 -9.9391,30.0995 -2.156,0 -3.8319,-0.6271 -5.3887,-1.8814 l 0,27.5905 z m 53.9606,-185.5089 0,29.0038 6.5761,-0.182 -0.7032,93.3333 -6.577,1.5188 0,27.9788 62.9422,-16.4194 0,-46.9854 -18.0575,2.6994 0,22.4351 -16.7012,4.0488 0.7033,-35.2438 19.8328,-2.4743 0,-26.1241 -19.8328,1.9684 0,-27.3306 16.7008,-0.4603 0,16.2805 18.0587,-1.012 0,-43.035 -62.9422,0 z m 66.8461,134.3469 18.1842,-4.1984 1.2303,-15.0211 c 3.9665,8.286 10.5372,10.6112 21.0795,10.6112 12.4217,0 28.2666,-9.625 28.2666,-38.3485 0,-43.2697 -41.2044,-33.2078 -41.2044,-52.173 0,-6.444 4.1754,-9.7583 7.2025,-9.7583 7.3072,0 13.3617,7.7329 13.3617,21.3585 l 18.8929,0 0,-46.8624 -17.9538,0 -1.044,16.1136 c -4.1752,-13.8099 -12.9651,-16.0515 -21.733,-16.0515 -10.2305,0 -24.9258,9.6066 -24.9258,36.8575 0,46.9519 39.6646,38.4894 39.6646,52.8505 0,14.0826 -21.9875,17.4033 -21.9875,-4.8809 l -19.0338,2.8681 0,46.6347 z m 72.138,-14.1273 18.2665,-2.8443 1.148,-14.0479 c 3.9674,7.4557 9.3612,11.209 19.9032,11.209 12.4217,0 30.6618,-7.7184 30.6618,-33.5659 0,-38.9367 -42.4224,-32.4856 -42.4224,-49.5513 0,-5.7994 4.1751,-8.7817 7.2025,-8.7817 7.3063,0 13.3608,6.959 13.3608,19.2194 l 18.8924,0 0,-41.8611 -17.9538,0 -1.0435,14.1919 c -4.284,-10.4582 -13.2655,-14.2007 -22.0328,-14.2007 -10.2297,0 -24.626,8.4016 -24.626,32.9232 0,42.2501 40.0836,36.7827 40.0836,49.7064 0,10.8505 -22.0258,12.0339 -22.0258,-8.2845 l -19.4145,2.7499 0,43.1376 z m 72.7957,-120.2196 0,23.1659 6.5767,-0.1803 0,65.0052 -6.5767,0.3373 0,21.0538 62.9422,-4.0487 0,-35.3064 -18.057,0.4377 0,15.5024 -16.7017,0.7869 0,-26.0255 19.8323,0 0,-20.0418 -19.8323,0 0,-18.2965 16.7017,-0.4603 0,11.3729 18.057,0 0,-33.3026 -62.9422,0 z"
       style="fill:#000000;fill-rule:evenodd"
       id="path26"
       inkscape:connector-curvature="0" />
    <path
       d="m -1365.736,92.1236 c -23.6683,-3.497 -52.6768,-7.0523 -75.9436,-6.3967 -12.7184,0.3592 -10.8014,-12.4584 -1.8257,-11.3167 15.6833,1.9957 63.5971,10.2872 77.7693,17.7134 z"
       style="fill:#000000;fill-rule:evenodd"
       id="path28"
       inkscape:connector-curvature="0" />
    <path
       d="m -1637.5844,53.6709 -19.1693,52.1195 14.7526,0 3.0033,-8.1272 15.9009,0 3.1802,8.1272 14.7527,0 -19.1696,-52.1195 -0.088,0 -13.1626,0 z m 6.6254,22.1729 3.1802,8.5688 -6.3604,0 3.1802,-8.5688 z m 46.1216,-22.6148 c -10.7773,0 -21.2011,3.5336 -21.2011,16.166 0,6.0071 4.24,10.7773 9.5403,13.2508 7.774,3.7984 17.5793,5.8303 17.5793,8.3038 0,1.1483 -2.7383,1.7668 -8.3038,1.7668 -3.975,0 -9.6287,-1.2367 -17.0493,-3.7987 l 0,11.9257 c 2.9152,2.5619 9.9822,5.4771 19.0812,5.4771 12.9858,0 20.6711,-5.3002 20.6711,-16.2545 0,-5.9184 -4.2401,-10.777 -9.5403,-13.3389 -7.774,-3.7985 -17.4912,-5.8303 -17.4912,-7.9504 0,-1.3252 2.4735,-2.0318 7.5087,-2.0318 3.5336,0 8.6573,0.8832 15.4593,2.5619 l 0,-12.7208 c -3.7103,-2.2084 -9.0989,-3.357 -16.2542,-3.357 z m 42.4112,0 c -10.7774,0 -21.2012,3.5336 -21.2012,16.166 0,6.0071 4.2401,10.7773 9.5403,13.2508 7.774,3.7984 17.5793,5.8303 17.5793,8.3038 0,1.1483 -2.7382,1.7668 -8.3038,1.7668 -3.975,0 -9.6287,-1.2367 -17.0493,-3.7987 l 0,11.9257 c 2.9152,2.5619 9.9823,5.4771 19.0812,5.4771 12.9858,0 20.6711,-5.3002 20.6711,-16.2545 0,-5.9184 -4.2401,-10.777 -9.5403,-13.3389 -7.774,-3.7985 -17.4912,-5.8303 -17.4912,-7.9504 0,-1.3252 2.4735,-2.0318 7.5087,-2.0318 3.5337,0 8.6573,0.8832 15.4593,2.5619 l 0,-12.7208 c -3.7103,-2.2084 -9.0989,-3.357 -16.2541,-3.357 z m 37.2875,52.5614 0,-52.1195 -13.8691,0 0,52.1195 13.8691,0 z m 24.3017,-52.5614 c -10.7774,0 -21.2012,3.5336 -21.2012,16.166 0,6.0071 4.2401,10.7773 9.5403,13.2508 7.774,3.7984 17.5793,5.8303 17.5793,8.3038 0,1.1483 -2.7383,1.7668 -8.3038,1.7668 -3.975,0 -9.6287,-1.2367 -17.0493,-3.7987 l 0,11.9257 c 2.9152,2.5619 9.9823,5.4771 19.0812,5.4771 12.9858,0 20.6711,-5.3002 20.6711,-16.2545 0,-5.9184 -4.2401,-10.777 -9.5403,-13.3389 -7.774,-3.7985 -17.4912,-5.8303 -17.4912,-7.9504 0,-1.3252 2.4735,-2.0318 7.5087,-2.0318 3.5337,0 8.6573,0.8832 15.4593,2.5619 l 0,-12.7208 c -3.7103,-2.2084 -9.0989,-3.357 -16.2541,-3.357 z"
       style="fill:#000000;fill-rule:evenodd"
       id="path30"
       inkscape:connector-curvature="0" />
    <path
       d="m -1832.0397,-194.8952 c 1.9899,0.485 2.8528,1.0641 4.7596,1.9264 12.4249,6.7176 19.1608,12.5246 30.2712,20.9778 21.7525,16.5501 30.2273,27.5051 57.3004,33.3391 5.7841,1.2461 9.3129,1.6518 15.156,1.6623 l 66.9033,0.123 c -6.1308,10.9913 -4.1528,22.4019 -0.094,30.6068 l -42.0356,0 c -24.2795,0 -46.6982,-1.5798 -66.2297,-16.6907 -18.9386,-14.6494 -24.9271,-25.0018 -39.8571,-43.0631 -9.2603,-11.1997 -13.1471,-17.7553 -24.6357,-27.28 -0.5836,-0.4839 -1.131,-0.8289 -1.6228,-1.5061 -0.074,-0.1273 0.048,-0.1046 0.084,-0.0955 z"
       style="fill:#000000;fill-rule:evenodd"
       id="path32"
       inkscape:connector-curvature="0" />
    <path
       d="m -1747.1682,92.1236 c 23.6684,-3.497 52.6768,-7.0523 75.9437,-6.3967 12.7184,0.3592 10.8013,-12.4584 1.8257,-11.3167 -15.6834,1.9957 -63.5971,10.2872 -77.7694,17.7134 z"
       style="fill:#000000;fill-rule:evenodd"
       id="path34"
       inkscape:connector-curvature="0" />
    <path
       d="m -1235.9295,-147.2933 c 2.6042,0 5.1449,0.6667 7.6297,2.0071 2.4776,1.3337 4.4147,3.2499 5.7974,5.7347 1.3827,2.4917 2.0777,5.0886 2.0777,7.7836 0,2.6744 -0.681,5.2501 -2.0496,7.7137 -1.3617,2.4707 -3.2708,4.387 -5.7343,5.7487 -2.4636,1.3686 -5.0396,2.0493 -7.7209,2.0493 -2.6881,0 -5.2641,-0.6807 -7.7277,-2.0493 -2.4635,-1.3617 -4.3798,-3.278 -5.7484,-5.7487 -1.3686,-2.4636 -2.0565,-5.0393 -2.0565,-7.7137 0,-2.695 0.6948,-5.2919 2.0846,-7.7836 1.3968,-2.4848 3.3339,-4.401 5.8115,-5.7347 2.4848,-1.3404 5.0255,-2.0071 7.6365,-2.0071 z m -6.1904,24.0885 0,-16.6766 5.7415,0 c 1.9653,0 3.3829,0.1543 4.2605,0.463 0.884,0.3089 1.5791,0.8425 2.1055,1.6144 0.5192,0.7651 0.7791,1.5792 0.7791,2.4426 0,1.2143 -0.4351,2.2812 -1.3127,3.1796 -0.8703,0.9053 -2.0283,1.4108 -3.4741,1.5229 0.5895,0.2459 1.0668,0.5405 1.4176,0.8844 0.6739,0.6529 1.4952,1.7548 2.4708,3.3061 l 2.0355,3.2636 -3.2707,0 -1.4883,-2.6251 c -1.1649,-2.0705 -2.1124,-3.3688 -2.8284,-3.8883 -0.4914,-0.379 -1.2074,-0.5686 -2.1549,-0.5614 l -1.586,0 0,7.0748 -2.6954,0 z m 2.6954,-9.3912 3.2707,0 c 1.5651,0 2.632,-0.2315 3.2005,-0.6948 0.5686,-0.4633 0.8563,-1.0809 0.8563,-1.8391 0,-0.4911 -0.1403,-0.9334 -0.4142,-1.3195 -0.2737,-0.393 -0.6526,-0.6807 -1.1368,-0.8704 -0.4914,-0.1893 -1.3899,-0.2877 -2.7094,-0.2877 l -3.0671,0 0,5.0115 z m 3.495,-12.1285 c -2.1827,0 -4.3095,0.5614 -6.3731,1.6776 -2.0634,1.1159 -3.6779,2.7163 -4.8428,4.7937 -1.1652,2.0777 -1.7478,4.2395 -1.7478,6.4853 0,2.2393 0.5754,4.3798 1.7197,6.4294 1.144,2.0494 2.7444,3.6498 4.8009,4.7937 2.0565,1.1444 4.2042,1.7198 6.4431,1.7198 2.2321,0 4.3798,-0.5754 6.4363,-1.7198 2.0565,-1.1439 3.6569,-2.7443 4.794,-4.7937 1.1368,-2.0496 1.7054,-4.1901 1.7054,-6.4294 0,-2.2458 -0.5823,-4.4076 -1.7407,-6.4853 -1.158,-2.0774 -2.7722,-3.6778 -4.8427,-4.7937 -2.0706,-1.1162 -4.1905,-1.6776 -6.3523,-1.6776 z"
       style="fill:#000000;fill-rule:evenodd"
       id="path70"
       inkscape:connector-curvature="0" />
  </g>
</svg>
