<?xml version="1.0" encoding="UTF-8" standalone="no"?>
<!-- Created with Inkscape (http://www.inkscape.org/) -->

<svg
   xmlns:dc="http://purl.org/dc/elements/1.1/"
   xmlns:cc="http://creativecommons.org/ns#"
   xmlns:rdf="http://www.w3.org/1999/02/22-rdf-syntax-ns#"
   xmlns:svg="http://www.w3.org/2000/svg"
   xmlns="http://www.w3.org/2000/svg"
   xmlns:sodipodi="http://sodipodi.sourceforge.net/DTD/sodipodi-0.dtd"
   xmlns:inkscape="http://www.inkscape.org/namespaces/inkscape"
   width="1000"
   height="150"
   viewBox="0 0 1000 150"
   id="svg5632"
   version="1.1"
   inkscape:version="0.91 r13725"
   sodipodi:docname="orn-bot-teste2.svg">
  <defs
     id="defs5634" />
  <sodipodi:namedview
     id="base"
     pagecolor="#ffffff"
     bordercolor="#666666"
     borderopacity="1.0"
     inkscape:pageopacity="0.0"
     inkscape:pageshadow="2"
     inkscape:zoom="0.49497475"
     inkscape:cx="631.79917"
     inkscape:cy="230.23625"
     inkscape:document-units="px"
     inkscape:current-layer="layer1"
     showgrid="false"
     units="px"
     fit-margin-top="0"
     fit-margin-left="0"
     fit-margin-right="0"
     fit-margin-bottom="0"
     showguides="true"
     inkscape:guide-bbox="true"
     inkscape:window-width="1309"
     inkscape:window-height="744"
     inkscape:window-x="57"
     inkscape:window-y="24"
     inkscape:window-maximized="1" />
  <metadata
     id="metadata5637">
    <rdf:RDF>
      <cc:Work
         rdf:about="">
        <dc:format>image/svg+xml</dc:format>
        <dc:type
           rdf:resource="http://purl.org/dc/dcmitype/StillImage" />
        <dc:title></dc:title>
      </cc:Work>
    </rdf:RDF>
  </metadata>
  <g
     inkscape:label="Camada 1"
     inkscape:groupmode="layer"
     id="layer1"
     transform="translate(11.986287,-398.08533)">
    <path
       id="svg_1"
       style="fill:#000000;stroke:none"
       d="m 488.49622,446.49391 -9.00358,18.21345 -19.01791,1.90153 14.53314,14.19358 -4.06687,18.67577 17.9888,-9.44238 16.50781,9.64089 -3.41911,-20.02878 14.26934,-12.71781 -20.10454,-2.93327 -7.68708,-17.50298 z m -43.91026,9.23078 -28.90173,0.33435 c -30.12726,0.34708 -39.31435,0.37509 -100.2353,0.31344 -20.2931,-0.0217 -40.54802,-0.0301 -45.0125,-0.0217 -4.4645,0.008 -14.09456,0.002 -21.40007,-0.0162 -7.30551,-0.019 -14.27938,-0.0271 -15.49698,-0.0162 -13.0089,0.11908 -41.51121,0.10552 -52.88506,-0.0271 -20.29632,-0.23489 -57.40029,0.0513 -67.88838,0.12287 -10.48805,0.0713 -14.767498,0.0678 -21.914617,0.31084 -7.147129,0.24302 -15.373316,0.0931 -25.78302,0.48583 -10.409679,0.39285 -28.299408,0.0903 -55.5832574,4.03814 l 18.5399574,0.17494 c 10.078907,0.20153 22.753641,0.27482 28.165146,0.16193 5.411497,-0.11283 12.498183,-0.17387 15.745086,-0.13833 3.246904,0.0355 21.333205,0.22757 40.195995,0.42836 18.8628,0.20098 34.47198,0.51778 34.68468,0.70523 0.21265,0.18742 5.58876,0.18715 11.94726,0 9.51223,-0.28013 30.99303,-0.47922 71.08806,-0.6582 13.96598,-0.0624 55.30411,0.4164 55.74781,0.64516 0.28179,0.14538 23.38639,0.0822 51.3414,-0.13834 35.58391,-0.28064 54.88289,-0.26689 64.35432,0.0418 8.06707,0.26283 19.53688,0.31954 28.41067,0.14105 l 14.88053,-0.3004 0,-6.59005 z m 87.59065,0 0,6.59006 14.85703,0.29779 c 8.85929,0.17847 20.30974,0.12423 28.36364,-0.13833 9.45596,-0.30858 28.72655,-0.32252 64.25249,-0.0418 27.90941,0.22052 50.97386,0.28372 51.25516,0.13834 0.44297,-0.22865 41.71318,-0.70752 55.65643,-0.64517 40.02957,0.17903 61.4764,0.37808 70.97314,0.65821 6.34808,0.18714 11.71402,0.18742 11.92627,0 0.21246,-0.18742 15.79781,-0.50436 34.62991,-0.70523 18.83199,-0.20099 36.89165,-0.39288 40.13331,-0.42836 3.24157,-0.0356 10.31365,0.0245 15.71635,0.13833 5.40261,0.11283 18.05564,0.0393 28.11809,-0.16193 l 18.50856,-0.17494 c -27.23931,-3.94782 -45.09648,-3.64529 -55.48916,-4.03814 -10.39276,-0.39289 -18.60838,-0.24303 -25.74378,-0.48584 -7.1355,-0.24302 -11.40449,-0.23949 -21.87548,-0.31083 -10.47098,-0.0713 -47.51552,-0.35781 -67.77869,-0.12287 -11.35536,0.13182 -39.81376,0.14511 -52.80141,0.0271 -1.21567,-0.0109 -8.17732,-0.003 -15.47086,0.0162 -7.29366,0.019 -16.90631,0.0245 -21.36355,0.0162 -4.45724,-0.008 -24.68198,0.003 -44.94201,0.0245 -60.82159,0.0616 -69.9926,0.0309 -100.07075,-0.31604 l -28.85469,-0.33433 z m -92.13553,11.63383 c -1.12598,-0.003 -1.48904,0.19827 -1.99818,0.8045 -0.73038,0.86987 -0.68581,1.01938 0.77838,2.61201 0.85392,0.9288 2.44812,2.48321 3.53927,3.45306 l 1.97989,1.76309 0.14375,-3.97285 c 0.0778,-2.18391 0.0218,-4.068 -0.12286,-4.18962 -0.14593,-0.12179 -1.45335,-0.30449 -2.90453,-0.40487 -0.57817,-0.0399 -1.04037,-0.0641 -1.41572,-0.0653 z m 96.67255,0 c -0.37471,9.9e-4 -0.83326,0.0245 -1.41047,0.0653 -1.44882,0.10035 -2.75632,0.28322 -2.90192,0.40487 -0.14565,0.12179 -0.20045,2.00571 -0.12286,4.18963 l 0.14375,3.97285 1.97989,-1.76309 c 1.08935,-0.96985 2.67888,-2.52426 3.53139,-3.45307 1.46184,-1.59263 1.50495,-1.74213 0.77578,-2.612 -0.50829,-0.60632 -0.87141,-0.80839 -1.99556,-0.8045 z m -113.83855,0.24031 -3.52884,0.59555 c -4.07453,0.68798 -4.7531,1.48847 -2.47095,2.9202 0.76612,0.48062 2.49986,1.83541 3.8527,3.01164 1.35289,1.17622 3.34121,2.53108 4.4195,3.00899 2.77014,1.22777 6.65015,1.06929 6.65015,-0.27163 0,-1.09407 -2.78086,-4.3078 -5.91358,-6.83559 l -3.00898,-2.42916 z m 130.97849,0 -3.00643,2.42916 c -3.12759,2.52779 -5.90312,5.74152 -5.90312,6.83559 0,1.34092 3.87407,1.4994 6.6397,0.27163 1.07655,-0.47791 3.06361,-1.83277 4.4143,-3.00899 1.35064,-1.17623 3.08001,-2.53102 3.84485,-3.01164 2.27843,-1.43173 1.60218,-2.23222 -2.46571,-2.9202 l -3.52359,-0.59555 z m -121.83654,0.29255 c -0.53728,-0.0109 -1.14759,0.0339 -1.91981,0.10959 -4.09099,0.4011 -3.8059,1.25965 2.02692,6.0781 l 4.7512,3.92586 3.11873,0 c 3.07825,0 3.11871,-0.0136 3.11871,-1.13623 0,-1.29997 -2.52954,-4.04625 -6.09639,-6.62141 -2.46135,-1.77707 -3.3874,-2.32243 -4.99936,-2.35602 z m 112.70761,0 c -1.6093,0.0337 -2.5342,0.57896 -4.99154,2.35602 -3.56099,2.57518 -6.08331,5.32147 -6.08331,6.62141 0,1.12165 0.0377,1.13623 3.11086,1.13623 l 3.11352,0 4.74596,-3.92586 c 5.82333,-4.81845 6.10865,-5.67701 2.02433,-6.0781 -0.77094,-0.0756 -1.38339,-0.12098 -1.91982,-0.10959 z m -135.74799,0.26392 c -2.94893,0 -3.25195,0.0789 -3.25195,0.83846 0,0.88495 3.00856,4.5043 4.98108,5.9919 0.64198,0.48415 1.94186,1.26794 2.88885,1.74222 1.72021,0.86148 7.05888,1.25831 7.52779,0.55895 0.51917,-0.77437 -1.36395,-3.03389 -4.9654,-5.95274 l -3.92585,-3.17879 -3.25452,0 z m 155.50248,0 -3.91798,3.17879 c -3.59557,2.91885 -5.47853,5.17837 -4.96017,5.95274 0.46812,0.69936 5.7999,0.30253 7.51732,-0.55895 0.94547,-0.47428 2.24532,-1.25807 2.88625,-1.74222 1.96929,-1.4876 4.97324,-5.10695 4.97324,-5.9919 0,-0.75965 -0.30524,-0.83846 -3.24931,-0.83846 l -3.24935,0 z m -198.08584,0.0653 c -0.34573,-0.008 -0.70784,0.0136 -1.11796,0.06 -1.09719,0.12288 -2.33251,0.50463 -2.74519,0.84889 -0.67249,0.56099 -0.43007,0.9149 2.34817,3.4165 3.53999,3.1875 6.73479,4.58774 10.52896,4.61801 l 2.39781,0.0217 -0.29517,-1.23287 c -0.16164,-0.67713 -0.1611,-1.23023 0.003,-1.23023 0.16329,0 1.17869,0.66601 2.25677,1.47839 l 0.003,0 c 1.6264,1.22559 2.21176,1.43517 3.43999,1.23025 0.81426,-0.13589 2.33051,-0.24546 3.3695,-0.24546 1.40415,0 2.02839,-0.21753 2.43176,-0.84627 0.48248,-0.752 0.0768,-1.23072 -3.66462,-4.30979 l -4.21057,-3.4635 -3.69595,0 c -3.38076,0 -3.696,0.0697 -3.696,0.82799 0,0.45589 0.58434,1.6102 1.29818,2.56496 l 1.29816,1.73698 -1.76309,-1.49666 c -0.97034,-0.82311 -3.01245,-2.09071 -4.53703,-2.81835 -1.70961,-0.81595 -2.61185,-1.13118 -3.64898,-1.15971 z m 243.85063,0 c -1.03543,0.0285 -1.93694,0.34377 -3.64374,1.15971 -1.52208,0.72766 -3.56042,1.99522 -4.5292,2.81836 l -1.76311,1.49666 1.29818,-1.73698 c 0.7127,-0.95476 1.29554,-2.10907 1.29554,-2.56496 0,-0.7581 -0.31549,-0.82802 -3.69075,-0.82802 l -3.69074,0 -4.2027,3.4635 c -3.73522,3.0791 -4.13844,3.55782 -3.65678,4.30982 0.40269,0.62871 1.02465,0.84627 2.42653,0.84627 1.03727,0 2.55131,0.10957 3.36425,0.24546 1.22671,0.20506 1.8122,-0.003 3.43739,-1.23025 1.07696,-0.81297 2.09106,-1.47839 2.25413,-1.47839 0.16302,0 0.16438,0.55313 0.003,1.23023 l -0.29514,1.23287 2.3952,-0.0217 c 3.78798,-0.0304 6.97383,-1.43051 10.50805,-4.61801 2.7737,-2.50162 3.01958,-2.85552 2.34817,-3.4165 -0.41201,-0.34426 -1.64717,-0.72613 -2.74258,-0.84891 -0.40946,-0.0458 -0.7676,-0.0694 -1.11271,-0.0599 l -0.003,0 z m -208.73499,0.0391 c -0.26771,-0.0109 -0.54993,0.0217 -0.89068,0.0811 -0.84478,0.14674 -2.58835,0.37661 -3.87361,0.50935 -1.28521,0.13291 -2.3351,0.40723 -2.3351,0.6112 0,0.60715 8.1614,7.27481 9.41885,7.69492 0.63779,0.2132 2.20963,0.39576 3.49484,0.41008 2.30074,0.0245 2.33776,0.008 2.33776,-1.2668 0,-1.48966 -1.50154,-3.33965 -5.05947,-6.23485 -1.62763,-1.32448 -2.28972,-1.76746 -3.09259,-1.80487 z m 173.67416,0 c -0.80155,0.0374 -1.45976,0.48043 -3.08475,1.80489 -3.55209,2.89517 -5.05161,4.74516 -5.05161,6.23483 0,1.275 0.0356,1.29505 2.33253,1.26945 1.28312,-0.0136 2.85548,-0.19963 3.49223,-0.41271 1.25542,-0.42011 9.40317,-7.08778 9.40317,-7.69492 0,-0.20397 -1.052,-0.47849 -2.33513,-0.61123 -1.28312,-0.13291 -3.02234,-0.36248 -3.86574,-0.50933 -0.3402,-0.0591 -0.6235,-0.0933 -0.8907,-0.0811 z m -241.76364,0.12802 c -0.48976,0.0217 -0.9942,0.10225 -1.53586,0.2376 -1.05647,0.26418 -1.91999,0.58999 -1.91981,0.72354 2.2e-4,0.13372 -2.04707,0.18146 -4.5501,0.10714 -4.82571,-0.14348 -7.54202,0.3647 -7.09939,1.3269 0.43733,0.95066 -1.71485,0.2639 -3.45047,-1.09967 -1.35253,-1.0626 -1.82467,-1.19911 -3.40865,-0.9847 -3.79882,0.51426 -3.88659,1.84064 -0.27423,4.13477 1.10105,0.69927 2.9674,1.95782 4.15043,2.79745 2.03354,1.44328 2.25353,1.50409 4.00943,1.09966 1.02154,-0.23543 2.75311,-0.30088 3.85007,-0.14619 1.84656,0.26038 1.97535,0.21861 1.72915,-0.5668 -0.25578,-0.81598 -0.17332,-0.8089 2.16012,0.20884 2.06179,0.89933 2.80254,1.01629 4.92885,0.78099 2.2605,-0.25007 4.40256,-1.19589 3.47916,-1.53585 -0.20263,-0.0746 -1.10329,-0.92138 -2.00341,-1.88065 -1.87357,-1.99676 -1.31969,-2.39984 0.63471,-0.46232 2.18466,2.1658 4.64107,3.28955 8.08152,3.69599 3.61521,0.42703 4.62837,0.0641 3.61238,-1.29294 -0.88217,-1.17838 -0.15839,-0.98167 2.35344,0.63731 2.0322,1.30992 2.43087,1.4105 4.86613,1.24333 4.40953,-0.30269 4.39522,-0.81621 -0.11472,-4.99415 -2.90803,-2.69378 -6.34547,-4.01187 -9.45544,-3.62284 -1.202,0.15028 -2.18363,0.44743 -2.18363,0.66084 0,0.21346 -0.22323,0.2753 -0.49369,0.13589 -0.27067,-0.13942 -0.49102,-0.0741 -0.49102,0.14619 0,0.22025 0.16545,0.4621 0.36828,0.53807 0.20287,0.0759 0.92211,0.67787 1.59854,1.33735 l 1.23026,1.1989 -1.96686,-0.97167 c -1.08227,-0.53405 -2.63228,-1.38545 -3.44519,-1.89109 -1.848,-1.14946 -3.19052,-1.62444 -4.6598,-1.56197 z m 309.74343,0 c -1.46688,-0.0624 -2.80436,0.41252 -4.64934,1.56197 -0.81158,0.50563 -2.35948,1.35703 -3.43999,1.89109 l -1.96685,0.97167 1.22765,-1.1989 c 0.67532,-0.65948 1.39332,-1.2614 1.59592,-1.33735 0.20261,-0.0759 0.3683,-0.31786 0.3683,-0.53806 0,-0.22025 -0.22079,-0.28577 -0.49107,-0.1462 -0.27014,0.13942 -0.48843,0.0776 -0.48843,-0.13589 0,-0.21346 -0.9836,-0.51046 -2.18365,-0.66083 -3.10487,-0.38903 -6.53908,0.92905 -9.44234,3.62283 -4.50282,4.17794 -4.5121,4.69146 -0.10957,4.99413 2.43127,0.16708 2.82939,0.0667 4.85828,-1.24331 2.50772,-1.61898 3.22895,-1.81569 2.34821,-0.63731 -1.01434,1.35708 -9.7e-4,1.71997 3.60715,1.29294 3.43487,-0.40644 5.8874,-1.53019 8.06847,-3.69599 1.9512,-1.93755 2.50524,-1.53444 0.63471,0.46232 -0.89862,0.95927 -1.80383,1.80609 -2.00601,1.88065 -0.92189,0.33996 1.22233,1.2857 3.47917,1.53585 2.12282,0.23517 2.85995,0.11826 4.91839,-0.78098 2.32972,-1.01786 2.41026,-1.02494 2.15489,-0.20885 -0.24574,0.78536 -0.11718,0.82704 1.72652,0.5668 1.0952,-0.15461 2.82501,-0.089 3.84487,0.14619 1.75304,0.40443 1.97398,0.34362 4.0042,-1.09966 1.1811,-0.83965 3.04336,-2.09818 4.14261,-2.79745 3.60647,-2.29416 3.52101,-3.62054 -0.27165,-4.13477 -1.5814,-0.21428 -2.0531,-0.0778 -3.40343,0.98471 -1.73276,1.36357 -3.88182,2.05033 -3.44523,1.09966 0.44189,-0.96221 -2.2685,-1.47038 -7.08633,-1.3269 -2.49894,0.0745 -4.54511,0.0271 -4.54489,-0.10714 2.2e-4,-0.13372 -0.86244,-0.4595 -1.91717,-0.72354 -0.54077,-0.13534 -1.04427,-0.21671 -1.53326,-0.2376 z m -286.04741,0.17766 c -2.34595,0 -5.01505,0.90741 -5.01505,1.70565 0,0.41569 0.19068,0.75747 0.42316,0.75747 0.23244,0 1.17225,0.68326 2.0896,1.51757 0.91738,0.83434 2.6144,2.30931 3.76911,3.28067 1.83074,1.54006 2.37251,1.76831 4.23141,1.76831 1.17249,0 2.8243,-0.20262 3.67246,-0.44925 1.3811,-0.40162 1.48599,-0.54192 0.98735,-1.33473 -1.96959,-3.13163 -7.73836,-7.24569 -10.15804,-7.24569 z m 262.38796,0 c -2.41575,0 -8.17078,4.11666 -10.13715,7.24829 -0.49779,0.79281 -0.3967,0.93051 0.98212,1.33213 0.84679,0.24655 2.49668,0.44925 3.66723,0.44925 1.85589,0 2.39586,-0.22811 4.22361,-1.76831 1.15279,-0.97136 2.8454,-2.44633 3.76128,-3.28066 0.91586,-0.83432 1.85739,-1.51758 2.08956,-1.51758 0.23217,0 0.42055,-0.34178 0.42055,-0.75747 0,-0.79824 -2.66511,-1.70565 -5.0072,-1.70565 z m -232.51718,0.41531 c -2.00564,0.003 -3.41081,0.1451 -3.12134,0.31083 0.28951,0.16573 1.46118,1.36289 2.60154,2.66164 1.14038,1.29872 3.19272,3.09965 4.56054,4.00158 2.3152,1.52658 2.7036,1.64031 5.63932,1.64031 2.27464,0 3.15267,-0.14973 3.15267,-0.53805 0,-1.06887 -4.51712,-5.58184 -6.82513,-6.81733 -2.09741,-1.12272 -2.76731,-1.26454 -6.0076,-1.25898 z m 202.69605,0 c -3.23502,-0.005 -3.90056,0.13615 -5.99455,1.25898 -2.30427,1.23549 -6.81729,5.74846 -6.81729,6.81733 0,0.38843 0.87915,0.53805 3.15007,0.53805 2.93091,0 3.31745,-0.11366 5.62884,-1.64031 1.36559,-0.90193 3.4168,-2.70286 4.55533,-4.00158 1.1385,-1.29875 2.3047,-2.4958 2.59369,-2.66164 0.28902,-0.16573 -1.11373,-0.30738 -3.11609,-0.31083 z m -297.5637,0.50674 c -0.56158,0.0162 -1.25725,0.0694 -2.17058,0.13833 -2.25344,0.17033 -3.76317,0.4662 -3.75083,0.73919 0.0109,0.25089 1.34551,1.29069 2.96201,2.30638 1.61651,1.01571 3.7398,2.35175 4.71987,2.97247 1.82846,1.158 3.80655,1.40477 6.99755,0.87238 1.07144,-0.17873 1.53584,-0.49087 1.53584,-1.03173 0,-0.7099 0.24113,-0.67274 2.82878,0.44143 1.55582,0.66992 3.06642,1.22722 3.35642,1.23809 1.21909,0.0455 5.12996,-1.33053 5.12996,-1.80489 0,-0.2836 -1.04991,-1.08045 -2.33511,-1.77353 -1.28527,-0.69308 -3.31248,-1.83088 -4.5031,-2.52581 -1.9481,-1.13701 -2.52995,-1.26421 -5.83519,-1.26421 -3.63525,0 -3.67387,0.0109 -3.44523,1.00823 l 0.23245,1.00822 -2.06346,-1.23547 c -1.50092,-0.89916 -1.97469,-1.1414 -3.65941,-1.08919 z m 391.52761,0 c -1.11775,0.0464 -1.65324,0.33989 -2.90194,1.08919 l -2.06086,1.23547 0.22974,-1.00823 c 0.22838,-0.99779 0.19449,-1.00822 -3.43477,-1.00822 -3.29986,0 -3.88245,0.1272 -5.82737,1.26421 -1.18869,0.69493 -3.2121,1.83273 -4.49524,2.52581 -1.28312,0.69307 -2.3351,1.48993 -2.3351,1.77353 0,0.47436 3.90504,1.85051 5.12211,1.80489 0.28955,-0.0109 1.79794,-0.56817 3.35119,-1.23809 2.58342,-1.11418 2.82357,-1.15133 2.82357,-0.44144 0,0.54087 0.46614,0.85301 1.53585,1.03174 3.18579,0.53239 5.159,0.28562 6.98447,-0.87239 0.97847,-0.62072 3.10078,-1.95675 4.71465,-2.97246 1.61386,-1.01569 2.94308,-2.05538 2.95415,-2.30638 0.0109,-0.273 -1.49321,-0.56886 -3.74296,-0.73919 -1.36774,-0.10361 -2.24698,-0.16627 -2.91759,-0.13833 z m -449.31017,0.29776 0,0.003 c -1.3043,0.006 -2.2726,0.1066 -2.27245,0.31865 1.4e-4,0.16925 -2.21252,0.27275 -4.91837,0.23244 -5.71945,-0.0851 -6.07748,0.22269 -2.70602,2.32989 1.21758,0.76106 2.21496,1.45585 2.21496,1.5437 0,0.0879 -1.27297,-0.43633 -2.8288,-1.16494 -6.22176,-2.91378 -6.94629,-3.13456 -9.63041,-2.93849 -1.5581,0.11392 -2.792,0.4467 -3.1814,0.85935 -0.58462,0.61949 -0.80014,0.60197 -2.63813,-0.2376 -1.48194,-0.677 -2.23415,-0.81153 -2.89932,-0.51455 -0.49382,0.2205 -1.79664,0.39963 -2.8967,0.39963 -2.29443,0 -2.66014,0.73669 -0.89331,1.79705 0.96933,0.58174 0.87859,0.57919 -0.73919,-0.0271 -1.31965,-0.49378 -1.67136,-0.79604 -1.23025,-1.05786 0.39491,-0.23435 0.14781,-0.28107 -0.68435,-0.13047 -0.71565,0.12939 -2.20447,-0.0307 -3.30679,-0.35523 -1.40708,-0.41414 -2.71746,-0.49662 -4.40379,-0.27427 -1.32104,0.1744 -2.87291,0.17278 -3.44786,-0.005 -0.57492,-0.17739 -2.87818,-0.14673 -5.11687,0.0678 -2.23872,0.21482 -4.25026,0.3902 -4.46915,0.39179 -0.21889,9.9e-4 -0.23462,0.22187 -0.0393,0.48583 0.25168,0.33989 0.0789,0.38128 -0.58773,0.1462 -1.55736,-0.54903 -9.54945,-0.79179 -9.54945,-0.28994 0,0.43377 -2.52529,-0.0716 -3.69075,-0.7392 -0.27067,-0.15487 -2.20761,-0.19881 -4.30457,-0.0993 -2.82388,0.13399 -3.81351,0.32692 -3.81351,0.74963 0,0.3139 -0.0553,0.56951 -0.12287,0.5668 -0.0676,-0.003 -1.21062,-0.27769 -2.53884,-0.6138 -2.95408,-0.74757 -5.5443,-0.7735 -7.17777,-0.0705 -0.84594,0.36408 -1.84357,0.42389 -3.19709,0.1934 -1.08228,-0.18445 -3.62827,-0.19448 -5.65758,-0.0217 l -3.69074,0.31607 2.46049,0.68956 c 1.35287,0.37969 2.18967,0.70173 1.85713,0.7157 -0.33251,0.0136 -2.25554,-0.43612 -4.2706,-1.00042 -3.48467,-0.97581 -8.56216,-1.37756 -9.32744,-0.73919 -0.18824,0.15704 -7.5838,0.33914 -16.43728,0.40487 -25.549008,0.18959 -28.257002,0.18118 -30.74057,-0.0965 -2.833766,-0.31704 -9.149315,0.2216 -7.258738,0.61903 0.67117,0.14105 -1.764583,0.18824 -5.412047,0.10443 -5.689889,-0.13073 -37.145142,-0.0605 -50.907793,0.11501 -2.435152,0.0309 -8.1693155,0.0917 -12.7465253,0.13317 -14.8842577,0.13508 -8.2129912,0.55822 11.1114253,0.70523 10.369337,0.0789 21.228448,0.27514 24.129607,0.4336 3.683826,0.20152 5.479529,0.14565 5.950116,-0.1801 0.37064,-0.25659 0.791511,-0.36487 0.93771,-0.24303 0.146185,0.12206 3.22647,0.32472 6.843438,0.45188 7.264189,0.2555 6.685247,0.24492 13.216686,0.2376 2.570448,-0.003 6.003581,-0.003 7.627017,-0.003 1.623467,0.003 3.836106,0.003 4.918398,0.003 1.08231,-2.2e-4 2.741138,-3e-5 3.688148,0 0.94701,0 4.600603,-0.0162 8.11808,-0.0393 3.517457,-0.0217 9.260288,0.0518 12.759578,0.16193 4.80399,0.15135 6.4568,0.0727 6.75462,-0.31867 0.24221,-0.31819 0.39768,-0.34338 0.40225,-0.0653 0.005,0.30345 2.16198,0.47821 6.52739,0.53025 3.5851,0.0429 7.37749,0.27124 8.42888,0.50412 2.03414,0.45055 6.75021,0.10605 7.23264,-0.52763 0.17386,-0.22837 1.14494,-0.21346 2.4579,0.039 2.59709,0.4994 7.83076,0.57285 7.83076,0.10959 0,-0.18065 -0.26554,-0.5493 -0.59032,-0.82016 -0.45917,-0.38303 -0.42768,-0.49367 0.14619,-0.49367 0.40585,0 0.95249,0.17793 1.21195,0.39439 0.25929,0.21646 1.85602,0.69013 3.55231,1.05263 2.50991,0.53642 3.57534,0.57431 5.71504,0.2037 2.22039,-0.38452 2.89742,-0.3507 4.35682,0.22973 1.93796,0.77094 5.82309,0.53499 6.89305,-0.42051 0.45006,-0.40192 0.92083,-0.43327 1.83624,-0.12015 1.44339,0.49366 9.83892,0.65662 9.83939,0.19067 1.5e-4,-0.17494 0.65396,-0.0388 1.45225,0.30559 0.93072,0.40151 2.80298,0.62691 5.2214,0.62691 3.7068,0 3.76705,-0.0162 3.54707,-0.9769 l -0.22212,-0.97687 2.89408,0.81491 c 3.66433,1.03229 7.52491,0.74631 7.12552,-0.5276 -0.20805,-0.66341 -0.0996,-0.71719 0.70525,-0.35786 0.52215,0.23326 0.85359,0.5525 0.7366,0.71046 -0.11691,0.15787 0.26337,0.31836 0.84627,0.35524 0.58295,0.0369 2.91025,0.20206 5.16912,0.3683 2.95373,0.21726 4.20492,0.16573 4.46129,-0.18037 0.26663,-0.36 0.81082,-0.3213 2.15229,0.1462 2.27053,0.79137 8.21996,0.85753 8.21996,0.0914 0,-0.29342 -0.27823,-0.76892 -0.61643,-1.05786 -0.33823,-0.28889 0.68556,-0.0494 2.27505,0.53286 2.30485,0.84443 3.67504,1.05786 6.76505,1.05786 2.13095,0 3.8736,-0.17765 3.8736,-0.39179 0,-0.21428 0.8264,-0.10118 1.83623,0.25062 1.28196,0.44683 2.60527,0.56633 4.38554,0.39182 3.91973,-0.38434 4.31199,-0.58744 2.99596,-1.54893 l -1.10228,-0.80187 1.32431,0.67127 c 2.74043,1.38942 9.23154,2.29458 11.42223,1.59333 0.65018,-0.20804 0.59571,-0.36578 -0.33171,-1.00562 -1.08241,-0.74682 -1.06005,-0.75101 1.36084,-0.21156 1.35291,0.30147 3.08317,0.7514 3.84485,1.00302 2.11095,0.69736 5.74903,0.59866 5.74903,-0.15678 0,-0.80898 0.32203,-0.7645 2.95154,0.41008 2.49557,1.11474 3.60041,1.22562 5.82997,0.57727 2.15673,-0.62718 2.00523,-1.74973 -0.41792,-3.0874 -1.0823,-0.59746 -1.96683,-1.15989 -1.96686,-1.24854 0,-0.35674 3.34952,1.28869 5.79081,2.84188 l 2.59635,1.65077 3.30939,-0.29778 c 1.8192,-0.1622 3.585,-0.30883 3.92323,-0.32912 1.02578,-0.0616 0.67555,-0.43614 -2.24373,-2.40825 -4.43726,-2.99755 -6.34641,-3.64894 -10.70916,-3.64894 -3.72485,0 -3.76294,0.0109 -3.53666,0.99778 l 0.22728,1.00038 -1.76048,-1.00038 c -1.14482,-0.64896 -2.45625,-0.99778 -3.74299,-0.99778 -2.31804,0 -5.21504,0.62768 -5.65758,1.22501 -0.198,0.26744 -1.40553,0.0847 -3.34337,-0.5041 -2.96814,-0.90177 -3.08106,-0.90365 -5.44339,-0.20371 -2.18481,0.64734 -2.58183,0.65604 -4.17918,0.0993 -1.12813,-0.39321 -4.23863,-0.63827 -6.41246,-0.62688 z m 507.74832,0.003 c -2.17027,-0.0109 -5.27566,0.23109 -6.40198,0.62425 -1.59478,0.55675 -1.9875,0.54805 -4.1688,-0.0993 -2.3584,-0.69989 -2.47481,-0.69804 -5.43817,0.2037 -1.9346,0.58874 -3.14035,0.77149 -3.33811,0.50414 -0.44184,-0.59734 -3.33286,-1.22504 -5.64708,-1.22504 -1.28459,0 -2.59224,0.35146 -3.73518,1.00041 l -1.76055,0.99778 0.23009,-0.99778 c 0.22592,-0.98746 0.1847,-1.00041 -3.53407,-1.00041 -4.35562,0 -6.26347,0.65139 -10.6935,3.64897 -2.91452,1.97208 -3.25998,2.34656 -2.23587,2.40824 0.33766,0.0217 2.09913,0.16953 3.91539,0.33172 l 3.30155,0.29516 2.59376,-1.65078 c 2.43733,-1.55313 5.78295,-3.19596 5.78295,-2.83924 0,0.0887 -0.88377,0.65107 -1.96429,1.24854 -2.4192,1.33767 -2.57107,2.45762 -0.41793,3.08476 2.22599,0.64835 3.33073,0.54011 5.82216,-0.57463 2.62527,-1.17458 2.94633,-1.21906 2.94633,-0.41008 0,0.75538 3.63113,0.85408 5.73858,0.15678 0.76047,-0.25171 2.48636,-0.70418 3.83699,-1.00563 2.41697,-0.53943 2.43885,-0.53522 1.35823,0.21157 -0.92593,0.63985 -0.9782,0.79747 -0.32907,1.00562 2.18708,0.70124 8.66798,-0.20397 11.40398,-1.59331 l 1.31903,-0.6713 -1.09705,0.80451 c -1.31384,0.96148 -0.92256,1.16201 2.99072,1.54629 1.77737,0.17467 3.09791,0.0575 4.37771,-0.38919 1.00818,-0.35195 1.8337,-0.46494 1.8337,-0.25062 0,0.21428 1.74089,0.38917 3.8683,0.38917 3.08494,0 4.45096,-0.21346 6.75202,-1.05787 1.58689,-0.58233 2.61008,-0.82172 2.27239,-0.53283 -0.33769,0.28892 -0.6164,0.76444 -0.6164,1.05786 0,0.76609 5.94272,0.69994 8.20954,-0.0914 1.33928,-0.46754 1.87817,-0.50365 2.14442,-0.14375 0.25603,0.34604 1.50717,0.39494 4.45603,0.17765 2.25527,-0.16626 4.57669,-0.33141 5.15874,-0.36828 0.58196,-0.0369 0.96312,-0.19718 0.84629,-0.35523 -0.11662,-0.15786 0.2153,-0.47734 0.73656,-0.71046 0.80353,-0.35933 0.91021,-0.30555 0.70262,0.35783 -0.39867,1.27393 3.4594,1.55992 7.11766,0.52763 l 2.88626,-0.81495 -0.22208,0.97691 c -0.21976,0.95989 -0.15896,0.97687 3.54186,0.97687 2.41444,0 4.2843,-0.22539 5.21347,-0.62688 0.79703,-0.34435 1.4495,-0.48067 1.4497,-0.30559 4.1e-4,0.46595 8.38269,0.30297 9.82368,-0.19068 0.91396,-0.31308 1.38174,-0.2817 1.83097,0.12015 1.06826,0.95548 4.94791,1.19406 6.88262,0.42313 1.4571,-0.58055 2.13227,-0.61697 4.34904,-0.23245 2.13622,0.37053 3.19881,0.33528 5.70453,-0.20125 1.69357,-0.3625 3.29071,-0.83879 3.54976,-1.05523 0.25905,-0.21645 0.8015,-0.3918 1.20676,-0.3918 0.57293,0 0.60728,0.10795 0.14883,0.49104 -0.3241,0.27096 -0.59025,0.63959 -0.59025,0.82018 0,0.46308 5.2249,0.3896 7.81774,-0.10957 1.31071,-0.25252 2.28152,-0.26771 2.45527,-0.0393 0.48165,0.6336 5.19128,0.97817 7.22212,0.52763 1.04973,-0.23299 4.83393,-0.45876 8.41318,-0.50151 4.35836,-0.0521 6.5119,-0.22675 6.51697,-0.53023 0.0104,-0.2781 0.16059,-0.25279 0.40222,0.0653 0.29736,0.39138 1.94808,0.46733 6.74423,0.31603 3.49364,-0.11011 9.2243,-0.18091 12.73608,-0.15921 3.51177,0.0217 7.1595,0.0366 8.10498,0.0366 0.94546,-3e-5 2.60237,-2.2e-4 3.683,0 1.08051,2.2e-4 3.28968,-1.6e-4 4.91052,-0.003 1.62073,-9.9e-4 5.05032,-2.7e-4 7.61653,0.003 6.52083,0.005 5.94354,0.019 13.19585,-0.2376 3.61107,-0.1272 6.68445,-0.32993 6.83035,-0.45187 0.14588,-0.12206 0.56766,-0.0109 0.93766,0.24547 0.46991,0.3258 2.26193,0.37902 5.9397,0.17765 2.8965,-0.1584 13.73544,-0.35208 24.08786,-0.43096 19.29285,-0.14701 25.95569,-0.57293 11.09572,-0.70787 -4.56971,-0.0415 -10.29706,-0.10224 -12.72833,-0.13317 -13.74014,-0.17549 -45.14351,-0.24574 -50.82413,-0.115 -3.64155,0.0838 -6.07169,0.0366 -5.40158,-0.10442 1.88749,-0.3975 -4.41652,-0.93608 -7.24574,-0.61904 -2.47947,0.27785 -5.18357,0.28634 -30.69088,0.0966 -8.839,-0.0656 -16.22587,-0.2479 -16.41381,-0.40484 -0.76401,-0.6384 -5.8327,-0.23652 -9.31173,0.73919 -2.01181,0.56428 -3.92819,1.01693 -4.26019,1.00299 -0.33191,-0.0136 0.5012,-0.33858 1.85193,-0.71828 l 2.45526,-0.68957 -3.68289,-0.31605 c -2.02599,-0.17359 -4.5692,-0.16355 -5.64972,0.0217 -1.35134,0.23055 -2.34737,0.17088 -3.19192,-0.19339 -1.63076,-0.70301 -4.21541,-0.67705 -7.16468,0.0705 -1.32611,0.33612 -2.46611,0.61138 -2.53368,0.61383 -0.0678,0.003 -0.12522,-0.25279 -0.12522,-0.56682 0,-0.42269 -0.98641,-0.61562 -3.80569,-0.74963 -2.09358,-0.0995 -4.02656,-0.0556 -4.29677,0.0993 -1.16358,0.66737 -3.68552,1.17295 -3.68552,0.7392 0,-0.50184 -7.97895,-0.25904 -9.53383,0.28992 -0.66543,0.23489 -0.83646,0.19365 -0.58498,-0.14619 0.19524,-0.26419 0.17679,-0.48413 -0.0415,-0.48584 -0.21853,-9.9e-4 -2.22619,-0.17712 -4.46129,-0.3918 -2.23501,-0.21481 -4.53244,-0.24519 -5.10637,-0.0678 -0.57406,0.17738 -2.12377,0.17901 -3.44268,0.006 -1.68355,-0.22241 -2.99375,-0.13996 -4.39858,0.27425 -1.10049,0.32442 -2.58707,0.48471 -3.30155,0.35523 -0.83077,-0.15054 -1.07596,-0.10388 -0.68174,0.13073 0.44041,0.26174 0.0902,0.56408 -1.22763,1.05786 -1.61516,0.60537 -1.70697,0.60791 -0.73919,0.0271 1.76399,-1.06036 1.39732,-1.79705 -0.89329,-1.79705 -1.09827,0 -2.40107,-0.17929 -2.89407,-0.39964 -0.66412,-0.29697 -1.41202,-0.16247 -2.89152,0.51456 -1.83501,0.83968 -2.04657,0.8572 -2.63034,0.2376 -0.38873,-0.41265 -1.62316,-0.74294 -3.17875,-0.85675 -2.67967,-0.1961 -3.40053,0.0217 -9.61214,2.93588 -1.55325,0.72862 -2.82617,1.25543 -2.82617,1.16757 0,-0.0879 0.99409,-0.78526 2.20978,-1.54629 3.36588,-2.10726 3.00934,-2.41508 -2.70086,-2.32992 -2.70145,0.0401 -4.91326,-0.0632 -4.91315,-0.23244 2e-4,-0.21211 -0.96503,-0.31183 -2.26722,-0.31868 z m -463.0179,0.008 c -3.89686,0 -4.19505,0.59229 -1.12839,2.25416 1.14992,0.62319 2.53579,1.461 3.07694,1.85974 0.54116,0.39874 1.86544,1.1129 2.94373,1.5881 2.57451,1.13456 7.79339,1.2525 7.5434,0.16978 -0.18062,-0.78226 -4.6144,-3.81499 -7.39451,-5.05683 -1.28766,-0.57512 -2.77152,-0.81495 -5.04117,-0.81495 z m 418.36324,0 c -2.26596,0 -3.75043,0.23977 -5.03592,0.81495 -2.77561,1.24184 -7.20121,4.27457 -7.38149,5.05683 -0.24954,1.08272 4.96005,0.96478 7.53036,-0.16978 1.07653,-0.4752 2.40084,-1.18936 2.94112,-1.5881 0.54028,-0.39874 1.92104,-1.23655 3.06907,-1.85974 3.06174,-1.66187 2.76732,-2.25416 -1.12314,-2.25416 z m -453.19681,2.05305 c 0.25849,0 0.87112,0.37134 1.36087,0.82278 1.12298,1.03544 0.83124,1.02852 -0.67131,-0.0162 -0.63873,-0.44391 -0.94819,-0.80714 -0.68956,-0.80712 z m 487.97034,0 c 0.25816,0 -0.0517,0.36321 -0.68965,0.8071 -1.50006,1.0442 -1.78719,1.05114 -0.66605,0.0162 0.48896,-0.45141 1.09745,-0.82279 1.3557,-0.82279 z m -552.77916,0.0271 c 0.40587,-0.003 1.29298,0.35526 1.96945,0.79666 1.54621,1.00891 1.22443,1.00891 -0.98475,0 -0.94697,-0.43251 -1.39059,-0.79235 -0.9847,-0.79666 z m 617.48345,0 c 0.40526,0.003 -0.0395,0.36415 -0.98469,0.79666 -2.20551,1.00891 -2.52578,1.00891 -0.98214,0 0.67537,-0.4414 1.56168,-0.80111 1.96683,-0.79666 z m -647.06169,1.39216 c 0.0773,0.008 0.17249,0.0304 0.2821,0.0653 0.4199,0.13453 0.7627,0.31876 0.7627,0.40747 0,0.33238 -0.93612,0.14431 -1.22504,-0.24546 -0.12938,-0.17441 -0.0521,-0.25604 0.1801,-0.22729 z m 676.59029,0 c 0.2319,-0.0287 0.30931,0.0529 0.18015,0.22729 -0.28846,0.38995 -1.22237,0.57793 -1.22237,0.24547 0,-0.0887 0.34345,-0.27308 0.76269,-0.40747 0.10922,-0.035 0.20234,-0.0556 0.27944,-0.0653 z m -518.60637,9.79748 c -3.56112,0.003 -7.77904,0.0854 -13.0417,0.24817 -21.01045,0.64917 -27.74352,0.68706 -47.71855,0.27688 -13.1424,-0.26988 -20.72718,-0.2235 -29.40061,0.1725 -9.66114,0.44089 -13.44055,0.43579 -21.79447,-0.0162 -8.56901,-0.46307 -11.50633,-0.45669 -19.30528,0.0366 -6.84856,0.43311 -16.4237,0.55012 -37.48472,0.45188 -26.13965,-0.12206 -50.610573,0.26337 -99.127828,1.56197 -24.645866,0.65973 -30.3980128,0.92859 -27.55132,1.29294 8.646801,1.10669 81.760913,2.97101 104.296958,2.659 8.92895,-0.12368 19.55379,-0.0822 23.61243,0.0942 10.02867,0.4352 59.64129,0.16682 77.33072,-0.41791 9.67575,-0.31981 20.67205,-0.36148 33.69998,-0.13317 16.67769,0.2922 67.18794,0.6375 113.79413,0.77838 7.57612,0.0217 23.62363,-0.0518 35.6642,-0.16464 12.04058,-0.11283 26.82034,-0.0355 32.84063,0.16979 l 10.94164,0.37089 0,-5.749 -6.71543,-0.26635 c -3.69554,-0.14783 -13.41491,-0.27164 -21.596,-0.27164 -8.18108,0 -17.16661,-0.19556 -19.9687,-0.43619 -3.96388,-0.34054 -8.59005,-0.28524 -20.83848,0.25333 -13.61326,0.5986 -18.13692,0.62994 -33.45182,0.22214 -9.74068,-0.25957 -21.03005,-0.66742 -25.08823,-0.90639 -2.6309,-0.15486 -5.53646,-0.23082 -9.09755,-0.22728 z m 360.88106,0 c -3.55529,-0.003 -6.45531,0.0724 -9.0819,0.22729 -4.0516,0.23896 -15.32425,0.64692 -25.04903,0.90635 -15.28995,0.4079 -19.80592,0.37661 -33.39699,-0.22214 -12.22847,-0.53859 -16.8471,-0.59386 -20.80453,-0.25333 -2.79748,0.24085 -11.767,0.43619 -19.93474,0.43619 -8.16777,0 -17.86991,0.12396 -21.55943,0.27167 l -6.70758,0.26636 0,5.74902 10.92595,-0.37092 c 6.01051,-0.20532 20.76484,-0.28264 32.78576,-0.16978 12.02097,0.11283 28.04561,0.18741 35.60935,0.16463 46.53023,-0.14077 96.95565,-0.48618 113.60613,-0.77835 13.00669,-0.22811 23.98517,-0.18662 33.64512,0.13317 17.66059,0.5847 67.19035,0.85313 77.20269,0.41792 4.05198,-0.17603 14.66146,-0.21753 23.57584,-0.0942 22.49939,0.31202 95.49197,-1.55232 104.12463,-2.65901 2.84198,-0.36432 -2.89859,-0.63321 -27.50435,-1.29294 -48.43815,-1.29866 -72.87143,-1.68389 -98.96849,-1.56197 -21.02667,0.0982 -30.58461,-0.019 -37.42204,-0.45188 -7.78624,-0.49318 -10.71891,-0.49969 -19.27392,-0.0366 -8.34024,0.4515 -12.11249,0.4566 -21.75786,0.0162 -8.65937,-0.39583 -16.23002,-0.44227 -29.351,-0.1725 -19.9425,0.41018 -26.66919,0.37232 -47.64543,-0.27688 -5.25405,-0.16247 -9.46289,-0.24465 -13.01818,-0.24818 z"
       inkscape:connector-curvature="0" />
  </g>
</svg>
