<svg xmlns="http://www.w3.org/2000/svg" viewBox="0 0 372.52388 21.632836">
  <path d="M55.3713078 19.45617744c-1.52551537-.07890238-5.51984493-.0975898-8.87610333-.04360395-8.47079422.14119374-35.95208053-.69890905-39.202236-1.1976552-1.0699579-.1640339 1.09134462-.28591733 10.35531547-.58325475 18.23683342-.5851235 27.43539835-.7589164 37.26061434-.70389235 7.91660876.04360395 11.5160111-.0207638 14.09030532-.2034851 2.93163897-.22217252 4.03544184-.22466417 7.25632036-.0207638 3.14031503.2034851 4.56097328.2034851 8.19235185.0207638 3.26032972-.17856857 6.110367-.19725598 11.0502794-.07682602 7.50818508.1847977 10.0397059.16818667 17.9374196-.1245827 3.9561242-.1474229 6.34312906-.14949927 8.32108733-.0207638 1.52551537.1079717 5.76901036.29152356 9.43028878.40842368 5.75675974.1827213 7.45752146.17026304 12.57454894-.09966618 4.6039543-.24272866 6.3422985-.26826812 7.8323078-.11420082 1.05313922.1079717 4.43099196.19725597 7.5061087.19725597 3.07511674 0 6.72767437.05398584 8.11677167.12042996l2.52549932.12042995v2.59028231l-4.11434423-.16818666c-2.26304507-.09343703-7.81735788-.1266591-12.34324036-.07474962-4.52588248.04983308-10.55859292.08513152-13.40655384.07267325-17.51819878-.06436774-36.5035667-.21926558-42.77256902-.350908-4.8967237-.10174254-9.02975535-.08305513-12.6665325.06229137-6.64918726.26370008-25.29818184.38413004-29.06763958.18895045zm107.06389552-5.72623696c-.40510147-.21532046-1.15301305-.82515286-1.66151817-1.35525232-.50850513-.52989182-1.16007274-1.1407624-1.44806645-1.3573287-.85795965-.64513084-.603188-1.00621308.92855652-1.31642405l1.32597538-.2682681 1.131834 1.09487444c1.1775143 1.13889367 2.22234803 2.58696012 2.22234803 3.08010004 0 .60422618-1.45782543.67544597-2.4991293.12250634zm2.62163564-1.37788485c-2.19244818-2.17106148-2.29979696-2.5572679-.7622386-2.73812048 1.16111094-.137041 1.36833352-.05606223 2.60170242 1.0118193 1.34092532 1.16028037 2.2912838 2.39800967 2.2912838 2.98375607 0 .50539056-.02076377.51182733-1.17211572.51182733h-1.1719081zm-31.55825573.94205298c-.94412936-.72963943-1.21613496-.8176779-.8845373-.28674788.38184603.6114935 0 .7749045-1.35753634.5824242-1.2931686-.1827213-2.21674182-.6893577-3.03794956-1.66525565-.73462276-.8731172-.94246826-.69060352-.23836827.20909133.33865735.43230203.67752234.8133175.75372544.84695484.3471705.15365202-.45867203.57951727-1.30832616.692057-.79919813.1058953-1.07722523.05190946-1.85212973-.35194618-.87706232-.45867204-.90800036-.46220188-.81186403-.09551342.09343704.35402256.04568033.3729176-.6499065.2556022-.41216116-.07059686-1.06372877-.03945118-1.44765118.06644413-.66008078.1827213-.742513.1557284-1.50662034-.49500867-.44496794-.37831618-1.1471992-.94558282-1.56102145-1.2607771-1.3579516-1.0338289-1.32493718-1.63141068.10381895-1.86313453.59529775-.0975898.77303576-.03529844 1.28154088.4437221.65239816.61440044 1.46177055.9229503 1.29732136.4945934-.1661103-.43354786.85380688-.6619495 2.66773124-.59737413.9410148.03322206 1.71072835.02076378 1.7105207-.0477567 0-.060215.32495326-.20763787.72195686-.32578382.8143557-.24397448 1.40197084-.09343703 2.32845098.59737413.3054353.22798638.88827478.61128587 1.29503735.85193815l.7398137.43749298-.46240952-.54027372c-.25414873-.29712978-.52470087-.56830483-.60090396-.60256508-.076826-.03529843-.13911737-.14327012-.13911737-.24252102 0-.09966617.08305515-.12873547.1847977-.0664441.10174255.06229134.1847977.03529842.1847977-.060215 0-.0955134.3695954-.23027038.821623-.29816796 1.16879354-.1744158 2.46133923.41818265 3.55434494 1.6320336 1.69536315 1.88244485 1.69972355 2.11458398.04152758 2.25100205-.9152677.07474963-1.06538987.0290693-1.82908193-.5610375zm3.84026226-.153652c-.43417078-.43770062-1.07120374-1.1033876-1.41609023-1.47921213-.3448865-.37603217-.69849377-.68375148-.7859093-.68375148-.0872079 0-.15988116-.15365203-.15988116-.34031847 0-.35983642 1.0035138-.76909064 1.88514416-.76909064.90945383 0 3.0771931 1.85399846 3.81762973 3.26510537.18687406.35734476.14742287.4200514-.37042596.6011116-.31872412.11004808-.94018424.20140874-1.38079178.20140874-.6987014 0-.90239415-.10174255-1.59050602-.79566828zm8.03953037.16818666c-.4053091-.3662732-.78736278-.66589462-.84882358-.66589462-.06229137 0-.06229137.2495807 0 .55480837l.11004805.55460074-.9015636-.0207638c-1.42605683-.02076378-2.6264113-.6449232-3.95716237-2.08115428-1.0442108-1.12726595-1.1357791-1.28693947-.88308383-1.53963475.1557284-.15572838.6195914-.3274449 1.03196018-.38267657.61668445-.08305514.9349933.0207638 1.79191475.49542394.57287286.32786018 1.34009476.89969486 1.70491448 1.27053608l.66319533.67440777-.48774134-.78217182c-.26847576-.4304333-.48794898-.9503585-.48794898-1.15571234 0-.34177192.11835358-.37354052 1.38951257-.37354052h1.38951258l1.58178523 1.56039854c1.4061236 1.3874362 1.55894507 1.60275665 1.3776772 1.94162165-.15157563.28342568-.38641405.3812231-.91402185.3812231-.3905668 0-.96053274.0498331-1.26659095.11004808-.4617866.09343704-.68188274 0-1.29379152-.55480836zm4.23082907-.11004806c-.5139037-.4063473-1.285486-1.21758843-1.71405055-1.80291956-.42856455-.58533113-.86834155-1.12518957-.9771438-1.1999392-.10797167-.07474964.41901322-.137041 1.17273866-.13911737 1.2180037 0 1.46945315.06021498 2.2578541.5664361.86771864.55688473 2.5659887 2.5896594 2.5659887 3.0711716 0 .1744158-.3301442.24272866-1.1851969.24272866-1.1033876 0-1.2497723-.04983308-2.12019022-.7387755zm4.81138454.54089663c-.47258377-.18895046-3.5400179-3.19305505-3.5400179-3.46672175 0-.09136066.39534248-.21594337.8785158-.27574308.4831733-.06021498 1.1380631-.16195753 1.4555414-.22902456.51245024-.1058953.6810522-.0207638 1.4966537.77635797 1.33739548 1.3045887 1.90196283 2.1382547 1.90196283 2.80954792 0 .57453396-.02076378.5834624-.87830815.57183467-.4831733-.0207638-1.07452594-.09136067-1.31434767-.1868741zm3.67186795-.19102684c-.3558913-.213867-.84467082-.56726665-1.085946-.7852864-.74147482-.67025502-1.8726859-2.30145806-1.8726859-2.70012276 0-.34239483.11420083-.3779009 1.22319465-.3779009h1.22319465l1.47505937 1.43332415c1.35359122 1.3151782 2.06184397 2.33218846 1.86666438 2.6812277-.17649218.31498664-2.18289684.137041-2.82948115-.2512418zm-40.727959-.36170516c-.97257574-.50206835-1.0633135-.51888702-1.0633135-.19933235 0 .24376684-.1744158.38475295-.57764852.46531644-1.19952392.23982173-1.94265983.12873547-2.6301488-.39305847-.36814192-.2796882-1.16671713-.8828762-1.77447316-1.34051004-.60754838-.45763385-1.10816326-.92481904-1.11210838-1.03777404-.0207638-.12250634.56145277-.25726332 1.4084076-.33408933 1.3731092-.1245827 1.4395533-.11212444 2.19161765.4287722l.7759427.55709237-.0872079-.454104c-.0872079-.4497436-.07267326-.45431164 1.29399915-.45431164 1.24229733 0 1.4619782.05606222 2.1941093.569343.44766722.31291027 1.20907526.8247376 1.69204093 1.13702495.4831733.31228734.8785158.67253903.8785158.80002868 0 .213867-1.47007607.83366602-1.92833283.81310987-.11004807-.0207638-.6766918-.25580985-1.26160765-.5577153zm-16.22648364-.08097877c-.98835623-.5292689-1.1094091-.54920214-1.1094091-.1847977 0 .34031846-1.36729532.38537588-2.1606796.07059688-.2863326-.11420083-.9366544-.31727066-1.4451595-.45306582-.90986913-.24314393-.91817464-.24169047-.51120443.09551342.34862397.28820135.36814193.3592135.12250634.4530658-.82349175.31602484-3.263029-.09136065-4.2929128-.71821935l-.49708503-.3021131.41340698.36212044c.4945934.43334022.34758578.52449324-1.12602012.69766322-.6690092.0789024-1.1665095.02699292-1.648437-.1764922-.379562-.15780476-.6899806-.20929895-.6899806-.11212443 0 .0975898-.65551274.1744158-1.4565796.1744158-1.16131857 0-1.67605283-.0975898-2.54252563-.4771518-.59737413-.26245426-.9821271-.3706336-.8550527-.24044465.12665908.13081186.23110093.34509413.23110093.4771518 0 .34530177-2.23625978.31540192-3.0896514-.04152756-.50435236-.21075243-.70783746-.22715582-.80812655-.06436774-.09551342.1557284-.56747428.17856856-1.67771393.08097877-.8490312-.07474963-1.7231866-.14949926-1.94224456-.1661103-.21905795-.02076378-.36232808-.08928427-.31830885-.15988115.04360395-.07059687-.08097877-.21532046-.2769889-.32038522-.30252837-.16195753-.34281012-.137041-.26453064.16195753.14949927.5741187-1.3018894.70285418-2.67935897.23774537l-1.08781475-.36731138.08305514.43998462c.08305515.43250966.0581386.43998463-1.333658.43998463-.90903855 0-1.61313854-.10174256-1.96300833-.28197222-.30003673-.1557284-.54567232-.21760448-.54567232-.13911737-.00020763.20992188-3.15568022.137041-3.6984456-.08513152-.3438483-.14119375-.52034048-.1266591-.6893577.05398584-.40219454.43064093-1.86271926.5379897-2.59111288.19102684-.54857923-.2616237-.80335088-.2780271-1.6380551-.10381893-.8039738.16611028-1.20409195.14949925-2.1475984-.09136067-.63744823-.1640339-1.23897512-.37686272-1.33656492-.47424488-.0975898-.0975898-.30190545-.17856856-.45451928-.17856856-.21594337 0-.228194.04983307-.05606222.22196486.12250634.12250634.22175724.288409.22175724.36980303 0 .20867605-1.96674583.17649218-2.94285142-.0498331-.49376284-.11420082-.85920547-.12042995-.92481904-.02076378-.18064494.28550206-1.95324937.43998463-2.7179796.23712244-.39513486-.10381893-1.8211917-.20763786-3.16876142-.22591-1.6407544-.02284016-2.45116496-.10174255-2.45282607-.2391988 0-.12458273-.06021498-.11420083-.15157564.0290693-.11212444.17649217-.73420748.21158297-2.53982633.1432701-1.31538585-.04983307-3.47336615-.08305513-4.79539642-.07267324-1.3222379.0207638-2.69513945.0207638-3.05123838.0207638-.3558913 0-.9800507.00020763-1.38681328.00020763-.40676257.00020763-1.23897512 0-1.8492228 0-.61024768 0-1.89988644-.00020764-2.8660254 0-2.4551101.02076378-2.2379209.02076378-4.9685664-.1058953-1.3594051-.0581386-2.5165709-.14949927-2.57159493-.20348512-.05606223-.05398584-.21407465-.02076378-.35319202.11004807-.17649218.14742288-.85152287.17026305-2.23605213.0789024-1.09051405-.0705969-5.17163623-.15988117-9.06941418-.1951796-7.2635877-.06644412-9.7726836-.2572633-4.17788142-.3181012 1.72048733-.0207638 3.8772218-.04568034 4.7924895-.060215 5.1730897-.07890238 16.99661247-.11212443 19.13528245-.05190945 1.37082516.0373748 2.2863005.02076378 2.0340205-.0477567-.7107444-.17856857 1.662764-.42192015 2.72794622-.2790653.93353983.12458272 1.95158827.12873548 11.55504702.04360395 3.32781202-.0290693 6.1087059-.11212444 6.17930278-.18272132.28778608-.28757843 2.1957704-.1058953 3.50555002.33367405.75746292.25435638 1.47941977.45721857 1.60441776.45098943.12458272-.02076378-.18895045-.15157563-.69745558-.3224616l-.92440376-.31124915 1.38681328-.14119374c.7628615-.07890238 1.71965678-.07474963 2.126627.0207638.50871275.10381892.88370673.076826 1.20180793-.0872079.61398516-.31664775 1.5875991-.3054353 2.69825402.03114567.4991614.15157564.92834887.276366.9536807.27719654.0269929 0 .04568032-.11420082.04568032-.2549793 0-.19102682.37167177-.27844236 1.43311652-.33865734.78819333-.04568033 1.5163793-.02491655 1.61812186.04568033.43790825.30065962 1.38681328.528646 1.38681328.33325876 0-.22611763 3.0047275-.1162772 3.589851.13081186.25082654.1058953.31498663.0872079.22030377-.06644412-.07267325-.11835358-.06644412-.21698156.0207638-.21781212.08097875 0 .8380264-.08097876 1.67958265-.17649218.84155626-.0975898 1.70678323-.11004807 1.92293424-.03114568.21615102.0789024.79919813.08097877 1.29566026 0 .6339184-.09966617 1.12726595-.06436774 1.65632723.12250634.41423753.1453465.97319866.21801976 1.24229733.15988115.31291025-.0685205.40551674-.04568033.25705567.06021498-.1661103.1183536-.03322206.25414875.46220188.4765289.6081713.27283615.6426392.2742896.27823474.02076378-.66402588-.47798235-.5265696-.80916474.33595807-.80916474.413407 0 .90363998-.08097878 1.0890606-.18064495.25020362-.13288824.53238347-.07474964 1.08947585.23110094.69081117.3785238.77137466.3872446.99105552.10797167.14742288-.18687407.6104553-.3361657 1.19599408-.38745225 1.00891238-.08928428 1.2811256.0207638 3.61975085 1.32410665.58470822.32827546 1.0633135.56456735 1.0633135.5249085 0-.03945118-.37437107-.35256907-.83200492-.69558682-1.2674215-.9493203-1.13287217-1.08823004 1.01701025-1.05002467 1.01701025.02076378 1.8492228-.0290693 1.8492228-.1058953-.00020764-.25477167 2.58529902-.1453465 3.26385955.13911736.6004887.25082653.74936505.24667378 1.5705728-.04568033.88806713-.3154019.93146344-.31332553 2.0473093.09343704.728186.26515355 1.18187472.34696287 1.2564167.2265329.1661103-.26909866 1.25537853-.5516938 2.126627-.5516938.48358858 0 .9761056.1578048 1.40633124.44995126l.66215714.44995125-.0872079-.44995125c-.08513153-.44496794-.07059688-.44995125 1.32971286-.44995125 1.63992384 0 2.35772793.29318466 4.02568287 1.64386896 1.0973661.88869006 1.22817795 1.057292.84259444 1.08490784-.1266591.02076378-.79047734.076826-1.47443646.14949926l-1.24333552.13288823-.9756903-.7441741c-.91755173-.69994723-2.1777059-1.4401762-2.1777059-1.2794645 0 .0394512.33284348.29297702.73960605.56228333.91090732.60256507.96821537 1.10816326.1578048 1.39055076-.83802642.29214647-1.25350978.24314393-2.19141-.25913205zm-41.79106486-.90467816c0-.0394512-.12873547-.12250633-.2867479-.1827213-.1640339-.06436775-.23899116-.0311457-.1744158.07267324.1079717.17649218.46095606.25975497.46095606.11004807zm11.46472455-.4821351c-.25414875-.19933236-.58699224-.35983642-.73939843-.35796768-.15365202 0 .02076378.1640339.3695954.35796767.83055144.45451927.95118904.45451927.36980302 0zm24.13167232 0c-.1847977-.2034851-.41423754-.36980304-.51141206-.36980304-.0975898 0 .0207638.1640339.25975497.3635739.56519026.47092267.67482305.47362196.2516571.02076378zm14.4208648 1.27489646c-.4053091-.21407463-.9032247-.5363286-1.1067098-.71593534-.20348512-.18064494-.72361796-.55646947-1.15571235-.83719586-1.1528054-.74894977-1.04130388-1.0161797.4233736-1.0161797.85318397 0 1.41131455.1079717 1.8953184.36731138 1.04504136.55958404 2.71154284 1.9254259 2.77944042 2.27778734.09343703.48794898-1.86811785.4354166-2.8357103-.07474963zm59.53974165-.57287286c-.41008478-.43687006-1.00828946-1.1368173-1.3292976-1.55541522-.55024032-.71759645-.56685135-.78466348-.2923541-1.17647613.2549793-.36440445.41361462-.40551674 1.2827867-.3334664.5456723.04568032 1.03652822.1266591 1.0913446.1827213.05606224.05398586.07682602.90488582.04568034 1.88888164l-.05190945 1.78921545-.7458352-.7946301zM45.01599234 4.3972415c13.21905685-.15157564 17.88924764-.16195753 25.5184856-.05606222 4.2752636.06021498 14.98854672.0664441 19.878626.02076378.45763385-.02076378 3.07864658 0 5.8246573.0207638 2.74601074.02076378 6.36576158.02076378 8.0438908.02076378 1.6781292-.0207638 9.2922096 0 16.9199941.02076378 22.89892632.02699292 26.35235925.0207638 37.6767206-.14119374l10.86382058-.14949926v2.96942906l-5.593764.1349646c-3.33528698.08097878-7.64667955.05606223-10.67902288-.06436773-3.55995115-.13911736-10.81481805-.1453465-24.19001857-.02076378-10.50792928.09966617-19.19175995.1266591-19.29765526.06229136-.16611028-.10174256-15.70614315-.3181012-20.95564357-.2900701-15.07097894.08097877-23.1449772.17026305-26.7205012.29629923-2.39011942.08513152-4.4108511.08513152-4.49079167 0v-.04568033C57.7338114 7.0905122 51.86845706 6.947865 44.778247 6.8573349c-7.09041772-.09136067-13.88972715-.1764922-15.1102225-.19310322-1.220703-.0207638-3.88345094.02076378-5.91747143.06436773-2.03422814.0498331-6.7980636.0207638-10.58662404-.07267324L3.6165325 6.55626c13.70721346-2.5313132 27.5525061-1.9972686 41.39945984-2.1590185zM317.15634857 19.45617744c1.52551537-.07890238 5.5196373-.0975898 8.8758957-.04360395 8.47100185.14119374 35.95208052-.69890905 39.2024436-1.1976552 1.06995792-.1640339-1.0913446-.28591733-10.35531544-.58325475-18.23683342-.5851235-27.4351907-.7589164-37.26082198-.70389235-7.91640113.04360395-11.5160111-.0207638-14.09009768-.2034851-2.93163897-.22217252-4.03564948-.22466417-7.256528-.0207638-3.1401074.2034851-4.56076564.2034851-8.1921442.0207638-3.26032972-.17856857-6.110367-.19725598-11.0502794-.07682602-7.50839272.1847977-10.03991353.16818667-17.9374196-.1245827-3.9561242-.1474229-6.3433367-.14949927-8.32108733-.0207638-1.52551538.1079717-5.76901036.29152356-9.43049642.40842368-5.7565521.1827213-7.45752145.17026304-12.5743413-.09966618-4.60416194-.24272866-6.34229848-.26826812-7.83230778-.11420082-1.05334688.1079717-4.43099198.19725597-7.5061087.19725597-3.07511675 0-6.72767438.05398584-8.11677168.12042996l-2.5254993.12042995v2.59028231l4.11434422-.16818666c2.26283742-.09343703 7.81735787-.1266591 12.34324035-.07474962 4.52567484.04983308 10.55880056.08513152 13.4063462.07267325 17.51840642-.06436774 36.50377433-.21926558 42.77256902-.350908 4.89693134-.10174254 9.029963-.08305513 12.66674014.06229137 6.64918724.26370008 25.2979742.38413004 29.06763957.18895045zm-107.06389552-5.72623696c.40510147-.21532046 1.1528054-.82515286 1.66131053-1.35525232.50871276-.52989182 1.16028038-1.1407624 1.4482741-1.3573287.857752-.64513084.60318798-1.00621308-.92855653-1.31642405l-1.32618302-.2682681-1.131834 1.09487444c-1.17730667 1.13889367-2.2221404 2.58696012-2.2221404 3.08010004 0 .60422618 1.45782544.67544597 2.49912932.12250634zm-2.62163565-1.37788485c2.1924482-2.17106148 2.3000046-2.5572679.76203096-2.73812048-1.1609033-.137041-1.36812588-.05606223-2.6017024 1.0118193-1.3407177 1.16028037-2.29107618 2.39800967-2.29107618 2.98375607 0 .50539056.02076378.51182733 1.1719081.51182733h1.17190808zm31.5580481.94205298c.944337-.72963943 1.2163426-.8176779.88474493-.28674788-.38184603.6114935 0 .7749045 1.35753634.5824242 1.2931686-.1827213 2.21694946-.6893577 3.03794956-1.66525565.73462276-.8731172.94246826-.69060352.23816063.20909133-.33844972.43230203-.67752234.8133175-.75372544.84695484-.34696287.15365202.45867204.57951727 1.3085338.692057.79919814.1058953 1.0770176.05190946 1.85212974-.35194618.87706233-.45867204.90800037-.46220188.81186404-.09551342-.09343704.35402256-.04568033.3729176.64969887.2556022.4123688-.07059686 1.0639364-.03945118 1.4478588.06644413.66008077.1827213.74230537.1557284 1.50662034-.49500867.4447603-.37831618 1.1471992-.94558282 1.56102145-1.2607771 1.35795162-1.0338289 1.32472956-1.63141068-.10381893-1.86313453-.5955054-.0975898-.7732434-.03529844-1.28154088.4437221-.65239816.61440044-1.46177055.9229503-1.29732136.4945934.1661103-.43354786-.85401453-.6619495-2.6679389-.59737413-.94080715.03322206-1.7105207.02076378-1.7105207-.0477567.00020764-.060215-.32474562-.20763787-.7217492-.32578382-.81456334-.24397448-1.4021785-.09343703-2.328451.59737413-.3054353.22798638-.88827477.61128587-1.29524498.85193815l-.73960606.43749298.46240952-.54027372c.25414874-.29712978.52449324-.56830483.60090397-.60256508.076826-.03529843.13911737-.14327012.13911737-.24252102 0-.09966617-.08305515-.12873547-.1847977-.0664441-.10174255.06229134-.1847977.03529842-.1847977-.060215 0-.0955134-.3695954-.23027038-.82141538-.29816796-1.16900116-.1744158-2.46133922.41818265-3.55434492 1.6320336-1.69557078 1.88244485-1.69972354 2.11458398-.04152757 2.25100205.9152677.07474963 1.06518223.0290693 1.82908192-.5610375zm-3.84026226-.153652c.43417077-.43770062 1.07141137-1.1033876 1.41609022-1.47921213.34509413-.37603217.6987014-.68375148.7859093-.68375148.0892843 0 .15988116-.15365203.15988116-.34031847 0-.35983642-1.00330615-.76909064-1.88514415-.76909064-.90945383 0-3.0771931 1.85399846-3.81762973 3.26510537-.18687407.35734476-.14742288.4200514.3706336.6011116.3187241.11004808.94018423.20140874 1.38079177.20140874.6987014 0 .90239416-.10174255 1.5902984-.79566828zm-8.03932274.16818666c.4053091-.3662732.78736277-.66589462.84882358-.66589462.06229136 0 .06229136.2495807 0 .55480837l-.11212444.55460074.90135595-.0207638c1.42626447-.02076378 2.62661895-.6449232 3.95737-2.08115428 1.04400318-1.12726595 1.1357791-1.28693947.8828762-1.53963475-.1557284-.15572838-.61959138-.3274449-1.03175254-.38267657-.6164768-.08305514-.9349933.0207638-1.7917071.49542394-.5730805.32786018-1.34051005.89969486-1.70512213 1.27053608l-.66319534.67440777.48774133-.78217182c.26826812-.4304333.48794898-.9503585.48794898-1.15571234 0-.34177192-.11835357-.37354052-1.38951257-.37354052h-1.38951257l-1.5815776 1.56039854c-1.40633123 1.3874362-1.5591527 1.60275665-1.37788485 1.94162165.15157565.28342568.38620644.3812231.91402188.3812231.39056682 0 .96053275.0498331 1.26659096.11004808.4617866.09343704.6816751 0 1.29379152-.55480836zm-4.23082908-.11004806c.5139037-.4063473 1.28527837-1.21758843 1.71384292-1.80291956.42877218-.58533113.86854917-1.12518957.9773514-1.1999392.1079717-.07474964-.4190132-.137041-1.17294627-.13911737-1.21779606 0-1.46945315.06021498-2.25764647.5664361-.86771863.55688473-2.56619634 2.5896594-2.56619634 3.0711716 0 .1744158.33035184.24272866 1.18519692.24272866 1.10359523 0 1.24997993-.04983308 2.12039784-.7387755zm-4.81159217.54089663c.4727914-.18895046 3.5400179-3.19305505 3.5400179-3.46672175 0-.09136066-.39534248-.21594337-.87830815-.27574308-.4831733-.06021498-1.13827076-.16195753-1.45574905-.22902456-.5122426-.1058953-.68084455-.0207638-1.49644607.77635797-1.3376031 1.3045887-1.90175518 2.1382547-1.90175518 2.80954792 0 .57453396.0207638.5834624.87810052.57183467.4831733-.0207638 1.07452593-.09136067 1.31414003-.1868741zm-3.67186795-.19102684c.35609893-.213867.84487846-.56726665 1.085946-.7852864.74168246-.67025502 1.87289353-2.30145806 1.87289353-2.70012276 0-.34239483-.11420082-.3779009-1.22319465-.3779009h-1.22319464l-1.475267 1.43332415c-1.35359123 1.3151782-2.06163634 2.33218846-1.86645675 2.6812277.17649217.31498664 2.18289683.137041 2.8292735-.2512418zm40.727959-.36170516c.97278338-.50206835 1.06352112-.51888702 1.06352112-.19933235 0 .24376684.1744158.38475295.57764854.46531644 1.19952392.23982173 1.94265983.12873547 2.62994116-.39305847.36834956-.2796882 1.16692478-.8828762 1.77447316-1.34051004.60775603-.45763385 1.10816327-.92481904 1.11231603-1.03777404.0207638-.12250634-.56145277-.25726332-1.4084076-.33408933-1.3731092-.1245827-1.4395533-.11212444-2.19182528.4287722l-.77573505.55709237.0872079-.454104c.0872079-.4497436.07267325-.45431164-1.29379152-.45431164-1.24250496 0-1.46218582.05606222-2.19431692.569343-.44766723.31291027-1.20907527.8247376-1.69224858 1.13702495-.48296567.31228734-.87830815.67253903-.87830815.80002868 0 .213867 1.4702837.83366602 1.92854046.81310987.11004806-.0207638.67648415-.25580985 1.2614-.5577153zm16.22648364-.08097877c.98835622-.5292689 1.1094091-.54920214 1.1094091-.1847977 0 .34031846 1.3672953.38537588 2.16088722.07059688.28612498-.11420083.9366544-.31727066 1.44515952-.45306582.9098691-.24314393.917967-.24169047.51120442.09551342-.34862397.28820135-.36814193.3592135-.12458272.4530658.82349176.31602484 3.26323664-.09136065 4.29312044-.71821935l.4968774-.3021131-.41319934.36212044c-.49480103.43334022-.34737815.52449324 1.12581248.69766322.66921683.0789024 1.16671715.02699292 1.64864463-.1764922.379562-.15780476.6899806-.20929895.6899806-.11212443 0 .0975898.65551273.1744158 1.45637197.1744158 1.1615262 0 1.67605282-.0975898 2.54252562-.4771518.59758175-.26245426.9823347-.3706336.8550527-.24044465-.1266591.13081186-.2308933.34509413-.2308933.4771518 0 .34530177 2.23625978.31540192 3.0896514-.04152756.50435235-.21075243.70762982-.22715582.8079189-.06436774.09551343.1557284.56768192.17856856 1.67792157.08097877.84903122-.07474963 1.72297898-.14949926 1.94224456-.1661103.2188503-.02076378.36232807-.08928427.31830885-.15988115-.04360395-.07059687.08097876-.21532046.2769889-.32038522.30252837-.16195753.3428101-.137041.26453064.16195753-.14949926.5741187 1.3018894.70285418 2.67915133.23774537l1.0880224-.36731138-.08513152.43998462c-.08305515.43250966-.0581386.43998463 1.333658.43998463.90903855 0 1.61334617-.10174256 1.96321597-.28197222.30024435-.1557284.54546466-.21760448.5456723-.13911737.00020764.20992188 3.15568023.137041 3.69823796-.08513152.34405594-.14119375.52054812-.1266591.68956534.05398584.40240218.43064093 1.86271926.5379897 2.59111288.19102684.54878687-.2616237.8033509-.2780271 1.63784746-.10381893.80438908.16611028 1.2042996.14949925 2.1475984-.09136067.63765588-.1640339 1.23918277-.37686272 1.33677256-.47424488.0975898-.0975898.3021131-.17856856.45472692-.17856856.2155281 0 .22798637.04983307.05606222.22196486-.12250634.12250634-.22196487.288409-.22196487.36980303 0 .20867605 1.96674583.17649218 2.94285142-.0498331.49355518-.11420082.85920546-.12042995.9246114-.02076378.18064493.28550206 1.953457.43998463 2.7179796.23712244.3953425-.10381893 1.8211917-.20763786 3.16896905-.22591 1.6407544-.02284016 2.45095732-.10174255 2.45282606-.2391988 0-.12458273.060215-.11420083.15157565.0290693.11212445.17649217.73399985.21158297 2.53982633.1432701 1.31538586-.04983307 3.47336616-.08305513 4.79560406-.07267324 1.32182263.0207638 2.69513945.0207638 3.05103075.0207638.35589128 0 .9800507.00020763 1.38681327.00020763.40676257.00020763 1.23897512 0 1.84901516 0 .61024768 0 1.90009407-.00020764 2.86644068 0 2.45490246.02076378 2.2379209.02076378 4.96815114-.1058953 1.35961272-.0581386 2.51698616-.14949927 2.57180256-.20348512.05606222-.05398584.213867-.02076378.35339964.11004807.17649218.14742288.85131523.17026305 2.2358445.0789024 1.09051405-.0705969 5.17184386-.15988117 9.06941417-.1951796 7.26379534-.06644412 9.772476-.2572633 4.17788143-.3181012-1.72048732-.0207638-3.87701415-.04568034-4.7924895-.060215-5.17308968-.07890238-16.99640482-.11212443-19.1350748-.05190945-1.37124044.0373748-2.28650814.02076378-2.03422814-.0477567.71053676-.17856857-1.66297164-.42192015-2.72794624-.2790653-.93353982.12458272-1.9517959.12873548-11.55525466.04360395-3.327812-.0290693-6.10829062-.11212444-6.17909513-.18272132-.28757844-.28757843-2.1957704-.1058953-3.50555003.33367405-.75746292.25435638-1.47941976.45721857-1.60441776.45098943-.1245827-.02076378.18895046-.15157563.69724794-.3224616l.9246114-.31124915-1.38681328-.14119374c-.76265386-.07890238-1.71965677-.07474963-2.12641934.0207638-.50871276.10381892-.88412202.076826-1.2020156-.0872079-.61419278-.31664775-1.58780672-.3054353-2.69804636.03114567-.49936906.15157564-.92876416.276366-.95409598.27719654-.02699292 0-.04568033-.11420082-.04568033-.2549793 0-.19102682-.37167177-.27844236-1.43311652-.33865734-.78819332-.04568033-1.5163793-.02491655-1.61791422.04568033-.43832352.30065962-1.3870209.528646-1.3870209.33325876 0-.22611763-3.00451988-.1162772-3.59005865.13081186-.25041126.1058953-.314779.0872079-.22009613-.06644412.07267325-.11835358.0664441-.21698156-.0207638-.21781212-.08097875 0-.83823404-.08097876-1.6797903-.17649218-.84155625-.0975898-1.70657558-.11004807-1.9227266-.03114568-.216151.0789024-.79919813.08097877-1.2958679 0-.63391838-.09966617-1.12726594-.06436774-1.65611958.12250634-.41423753.1453465-.9734063.21801976-1.24229733.15988115-.31291027-.0685205-.40551675-.04568033-.25726332.06021498.1661103.1183536.03322206.25414875-.46199424.4765289-.60837894.27283615-.64284682.2742896-.27844237.02076378.66423352-.47798235.5265696-.80916474-.33575043-.80916474-.41340698 0-.9038476-.08097878-1.08926822-.18064495-.25020362-.13288824-.53238348-.07474964-1.08926823.23110094-.6910188.3785238-.77137466.3872446-.99105552.10797167-.14742288-.18687407-.61066295-.3361657-1.19620172-.38745225-1.00891238-.08928428-1.2811256.0207638-3.61975085 1.32410665-.5847082.32827546-1.06331348.56456735-1.06331348.5249085 0-.03945118.3745787-.35256907.83221255-.69558682 1.26721387-.9493203 1.13266453-1.08823004-1.0172179-1.05002467-1.01701024.02076378-1.8492228-.0290693-1.84901515-.1058953 0-.25477167-2.58550666-.1453465-3.2640672.13911736-.60028105.25082653-.7491574.24667378-1.57057278-.04568033-.88806714-.3154019-.93146345-.31332553-2.04710168.09343704-.72839362.26515355-1.1818747.34696287-1.25662434.2265329-.1661103-.26909866-1.25517088-.5516938-2.126627-.5516938-.48358857 0-.97610557.1578048-1.40633123.44995126l-.66215715.44995125.0872079-.44995125c.08513153-.44496794.0685205-.44995125-1.32971286-.44995125-1.63992385 0-2.35772794.29318466-4.02568288 1.64386896-1.0973661.88869006-1.22817796 1.057292-.84259445 1.08490784.1266591.02076378.79047734.076826 1.47422882.14949926l1.2433355.13288823.97589796-.7441741c.91755172-.69994723 2.17749826-1.4401762 2.17749826-1.2794645 0 .0394512-.3328435.29297702-.73939842.56228333-.91111494.60256507-.96821535 1.10816326-.15780478 1.39055076.8380264.29214647 1.25350977.24314393 2.19141-.25913205zm41.7912725-.90467816c0-.0394512.12873546-.12250633.28674787-.1827213.16403392-.06436775.2389912-.0311457.17441582.07267324-.1079717.17649218-.46095606.25975497-.46095606.11004807zm-11.4649322-.4821351c.25435638-.19933236.58699223-.35983642.73960606-.35796768.15365202 0-.0207638.1640339-.36980303.35796767-.83013617.45451927-.9509814.45451927-.36980303 0zm-24.13167233 0c.1847977-.2034851.41444518-.36980304.5116197-.36980304.0975898 0-.02076378.1640339-.2599626.3635739-.56519026.47092267-.6746154.47362196-.2516571.02076378zm-14.42065714 1.27489646c.4053091-.21407463.9032247-.5363286 1.10650216-.71593534.2034851-.18064494.7238256-.55646947 1.15591998-.83719586 1.1528054-.74894977 1.04130388-1.0161797-.4233736-1.0161797-.85318398 0-1.4115222.1079717-1.89552604.36731138-1.04504136.55958404-2.7113352 1.9254259-2.7792328 2.27778734-.09343702.48794898 1.86811786.4354166 2.8357103-.07474963zm-59.5399493-.57287286c.4102924-.43687006 1.0084971-1.1368173 1.32950523-1.55541522.55024032-.71759645.56685135-.78466348.2923541-1.17647613-.25518693-.36440445-.41361462-.40551674-1.2827867-.3334664-.54567232.04568032-1.03673586.1266591-1.09134462.1827213-.05606222.05398586-.076826.90488582-.04568033 1.88888164l.05190947 1.78921545.74562756-.7946301zM314.7128662 7.1754361c.08097878-.08513153 5.9463331-.22777874 13.03654318-.31830885 7.0904177-.09136066 13.88972714-.17649218 15.11043013-.1931032 1.22028773-.0207638 3.88303567.02076378 5.9172638.06436773 2.2719735.04983308 5.41747946-.17026305 9.53909102-.02491655l4.55578233-.02284016 6.80719967-.31893176c-7.79098786-1.38556744-9.89809688-1.44993518-14.0699568-1.6135538-3.6974074-.24355923-7.33231583-.0290693-15.9910223-.21511284-5.6446353-.02699292-5.6990364-.06229136-12.1065332-.1349646-13.21905684-.15157565-17.88924764-.16195754-25.51869324-.05606223-4.27505594.06021498-14.9885467.0664441-19.87821072.02076378-.45784148-.02076377-3.07906186 0-5.82507258.0207638-2.74601073.0207638-6.36576157.0207638-8.04368314.0207638-1.67833684-.0207638-9.2922096 0-16.9199941.02076377-22.89913397.02699293-26.3525669.0207638-37.67692825-.14119374l-10.86361295-.14949926v2.96942906l5.593764.1349646c3.33528698.08097878 7.64667954.05606223 10.67881524-.06436773 3.56015878-.13911736 10.81502567-.1453465 24.1902262-.02076378 10.50772164.09966617 19.19175994.1266591 19.29765525.06229136.1661103-.10174256 15.70614316-.3181012 20.95543595-.2900701 15.07118658.08097877 23.1449772.17026305 26.7205012.29629923 2.39011942.08513154 4.41105873.08513154 4.4909993 0zM186.48879763 17.71084777l-7.31742406 3.84028066 1.65533887-7.5972582-5.91354858-5.77263106 7.7369008-.77440457 3.6626471-7.40766387 3.1265711 7.11918215 8.17699984 1.1941826-5.80460773 5.1733832 1.39097237 8.14605225z"/>
</svg>
