<?xml version="1.0" encoding="UTF-8" standalone="no"?>
<svg
   xmlns:dc="http://purl.org/dc/elements/1.1/"
   xmlns:cc="http://creativecommons.org/ns#"
   xmlns:rdf="http://www.w3.org/1999/02/22-rdf-syntax-ns#"
   xmlns:svg="http://www.w3.org/2000/svg"
   xmlns="http://www.w3.org/2000/svg"
   width="365.79642"
   height="50.153946"
   version="1.1"
   id="svg3727">
  <metadata
     id="metadata3733">
    <rdf:RDF>
      <cc:Work
         rdf:about="">
        <dc:format>image/svg+xml</dc:format>
        <dc:type
           rdf:resource="http://purl.org/dc/dcmitype/StillImage" />
        <dc:title></dc:title>
      </cc:Work>
    </rdf:RDF>
  </metadata>
  <defs
     id="defs3731" />
  <g
     id="g3720"
     transform="translate(-4.6015581,-4.922632)">
    <title
       id="title3717">background</title>
    <rect
       x="-1"
       y="-1"
       width="377"
       height="62"
       id="canvas_background"
       style="fill:none" />
  </g>
  <path
     d="m 365.44141,0 c -0.60435,0 -0.87773,1.0553474 -0.39844,1.5371094 0.65065,0.653983 0.75391,0.5808895 0.75391,-0.53906252 C 365.79688,0.44953786 365.63713,0 365.44141,0 Z m -6.26563,1.3300781 c -1.25255,0 -1.20211,0.382863 0.14063,1.0625 1.28378,0.649793 1.34048,0.6314149 1.03906,-0.3300781 -0.15596,-0.497506 -0.53544,-0.7324219 -1.17969,-0.7324219 z m -5.2832,2.7011719 c -0.35487,0.035148 -0.44922,0.2438597 -0.44922,0.765625 0,0.695687 0.19143,0.8535156 1.02539,0.8535156 0.83394,0 1.00019,-0.1369227 0.89648,-0.7460937 -0.0818,-0.48068 -0.44917,-0.7872008 -1.02539,-0.8554688 -0.18256,-0.021629 -0.32897,-0.029294 -0.44726,-0.017578 z m 10.53711,0.9550781 c -1.59032,0 -1.70213,0.1813525 -0.78516,1.2734375 0.83247,0.991447 1.91894,0.8033199 2.08008,-0.3613281 0.11662,-0.842807 0.0195,-0.9121094 -1.29492,-0.9121094 z m -20.97852,0.3320313 c -0.34061,0 -0.76386,1.7305649 -0.50781,2.0761718 0.40513,0.5468292 1.65211,0.2182533 1.88086,-0.4960937 0.22023,-0.687749 -0.55534,-1.5800781 -1.37305,-1.5800781 z m -196.50976,0.058594 c -0.24865,0.024989 -0.5645,0.186269 -1.03125,0.4589844 -1.29761,0.75818 -1.08427,1.3669495 0.60937,1.7421875 2.45936,0.544892 2.3341,0.6339805 1.48828,-1.0546875 -0.42484,-0.8481894 -0.652,-1.1881329 -1.0664,-1.1464844 z m 52.02734,1.0625 c -0.27447,0.019096 -0.60111,0.091648 -0.97461,0.2207031 l -1.27344,0.4394532 0.89649,0.6054687 c 1.17737,0.7953 1.88827,0.7665373 2.21484,-0.091797 0.3075,-0.8082028 -0.0399,-1.2311168 -0.86328,-1.1738281 z M 130.4375,6.9804688 c -1.17934,0 -1.35352,0.1075026 -1.35352,0.8378906 0,0.847576 0.4052,0.8941119 2.6836,0.3105468 1.03395,-0.264827 0.0108,-1.1484374 -1.33008,-1.1484374 z m 9.62695,0.078125 c -0.20809,0.042782 -0.43986,0.238818 -0.79101,0.5625 -0.80759,0.7444158 -0.54177,1.8983979 0.49023,2.125 2.29152,0.5031702 2.66836,0.1468856 1.5586,-1.4746094 -0.6337,-0.9259081 -0.911,-1.2841941 -1.25782,-1.2128906 z m 219.0586,0.2597656 c -0.5209,-0.00475 -0.69202,1.0521489 -0.23243,1.4355468 0.34245,0.285651 0.3175,0.2883565 1.50782,-0.1640624 0.55826,-0.212183 1.01562,-0.4947922 1.01562,-0.6269532 0,-0.245218 -1.39177,-0.6363312 -2.29101,-0.6445312 z M 227.10742,7.9785156 c -0.66708,0 -1.58398,0.8740097 -1.58398,1.5097656 0,0.2830312 2.0742,-0.1325486 2.53515,-0.5078124 0.49878,-0.4060691 -0.0672,-1.0019532 -0.95117,-1.0019532 z m 138.68946,3.5605464 -23.41211,0.269532 c -24.40454,0.281156 -31.84639,0.305809 -81.19532,0.255859 -16.43841,-0.01663 -32.84644,-0.02498 -36.46289,-0.01758 -3.61645,0.0075 -11.41811,0.0014 -17.33594,-0.01367 -5.91782,-0.01504 -11.56642,-0.02072 -12.55273,-0.01172 -10.53784,0.09642 -33.62644,0.08519 -42.83984,-0.02148 -16.441,-0.190343 -46.49634,0.04171 -54.992191,0.09961 -8.495839,0.0579 -11.962432,0.05517 -17.751953,0.251953 -5.789521,0.196786 -12.454366,0.07434 -20.886718,0.392579 -8.432356,0.318243 -22.922191,0.07355 -45.023438,3.271484 l 15.017578,0.142578 c 8.16441,0.163191 18.430879,0.222279 22.814453,0.130859 4.383574,-0.09141 10.123761,-0.142051 12.753907,-0.113281 2.630144,0.02875 17.282699,0.184947 32.5625,0.347657 15.279792,0.162707 27.923402,0.420411 28.095702,0.572265 0.17231,0.151854 4.52703,0.15169 9.67773,0 7.70536,-0.22693 25.10506,-0.388215 57.58399,-0.533203 11.31311,-0.0505 44.80073,0.336179 45.16016,0.521484 0.22824,0.117676 18.94298,0.06729 41.58789,-0.111328 28.82473,-0.227353 44.45855,-0.216741 52.13086,0.0332 6.53472,0.212893 15.82548,0.257876 23.01367,0.113282 l 12.05469,-0.242188 z m -20.35547,2.13086 c 0.13844,0.0048 0.25605,0.03657 0.32226,0.0918 0.13241,0.110461 -0.10139,0.188278 -0.52148,0.173828 -0.46424,-0.01595 -0.56009,-0.09505 -0.24219,-0.201172 0.14383,-0.04802 0.30297,-0.06921 0.44141,-0.06445 z m 16.80273,0.789062 c 0.24091,-0.02376 0.46427,0.03167 0.55078,0.148438 0.11535,0.155692 -0.0525,0.366158 -0.37304,0.46875 -0.3205,0.102589 -0.67762,0.05999 -0.79297,-0.0957 -0.11535,-0.155692 0.0525,-0.368111 0.37304,-0.470703 0.0801,-0.02565 0.16189,-0.04286 0.24219,-0.05078 z m -94.52734,4.642578 c -0.24366,0.01274 -0.54138,0.08554 -0.88672,0.216797 -1.29304,0.491459 -1.34977,0.867456 -0.16016,1.058594 0.49316,0.07923 1.03577,0.16259 1.20703,0.1875 0.50815,0.07388 0.82404,-0.968871 0.40039,-1.322265 -0.12769,-0.106527 -0.31688,-0.153367 -0.56054,-0.140626 z m -9.58789,0.306641 c -0.19216,0.01128 -0.41014,0.03609 -0.65039,0.07617 -0.88601,0.147825 -1.26954,0.401173 -1.26954,0.835937 0,0.75256 0.0455,0.755533 1.87696,0.117188 1.52254,-0.530682 1.38801,-1.108268 0.043,-1.029297 z m 3.9082,0.257813 c -0.21921,0.03502 -0.25,0.286432 -0.25,0.779296 0,0.728181 0.17244,0.830079 1.39453,0.830079 1.69806,0 1.77201,-0.336025 0.23828,-1.091797 -0.75531,-0.372198 -1.1636,-0.5526 -1.38281,-0.517578 z m 100.07812,1.296875 c -0.91211,-0.0032 -1.20674,0.161198 -1.61914,0.652343 -0.59164,0.704622 -0.55522,0.825137 0.63086,2.115235 0.69171,0.752381 1.98136,2.011268 2.86524,2.796875 l 1.60547,1.427734 0.11523,-3.216797 c 0.0631,-1.769072 0.0185,-3.296001 -0.0996,-3.394531 -0.11813,-0.09854 -1.17604,-0.246805 -2.35156,-0.328125 -0.46833,-0.0324 -0.84245,-0.05168 -1.14649,-0.05273 z m -13.90625,0.193359 -2.85937,0.482422 c -3.30058,0.557307 -3.84867,1.207428 -2,2.367187 0.62059,0.389328 2.0252,1.486653 3.12109,2.439453 1.0959,0.952806 2.70661,2.050371 3.58008,2.4375 2.24397,0.994548 5.38672,0.865496 5.38672,-0.220703 0,-0.886253 -2.25338,-3.489488 -4.79102,-5.537109 z m 7.40625,0.238281 c -0.43524,-0.0091 -0.93111,0.02656 -1.55664,0.08789 -3.3139,0.324903 -3.08228,1.02065 1.64258,4.923828 l 3.84961,3.179688 h 2.52539 c 2.49354,0 2.52539,-0.01132 2.52539,-0.919922 0,-1.053013 -2.0482,-3.277258 -4.9375,-5.363282 -1.99382,-1.439511 -2.74309,-1.881002 -4.04883,-1.908203 z m -18.66406,0.212891 c -2.38875,0 -2.63476,0.06434 -2.63476,0.679687 0,0.716847 2.43732,3.648502 4.03515,4.853516 0.52004,0.392183 1.57273,1.027922 2.33985,1.412109 1.39344,0.697858 5.71783,1.017677 6.09765,0.451172 0.42056,-0.627273 -1.10412,-2.455916 -4.02148,-4.820312 l -3.17969,-2.576172 z m -34.49609,0.05273 c -0.28004,-0.0077 -0.57209,0.01166 -0.9043,0.04883 -0.88878,0.09945 -1.89032,0.408631 -2.22461,0.6875 -0.54475,0.454418 -0.34816,0.741172 1.90235,2.767578 2.86756,2.582028 5.45582,3.717678 8.52929,3.742188 l 1.94141,0.01563 -0.23828,-0.998047 c -0.13102,-0.548509 -0.13044,-0.996094 0.002,-0.996094 0.13227,0 0.95483,0.539203 1.82813,1.197266 h 0.002 c 1.31746,0.992775 1.79217,1.16209 2.78711,0.996094 0.65959,-0.110038 1.8869,-0.199219 2.72851,-0.199219 1.13744,0 1.64397,-0.176256 1.97071,-0.685547 0.39081,-0.609158 0.0619,-0.996027 -2.96875,-3.490234 l -3.41016,-2.806641 h -2.99414 c -2.73858,0 -2.99414,0.05778 -2.99414,0.671875 0,0.369307 0.47252,1.304707 1.05078,2.078125 l 1.05273,1.40625 -1.42968,-1.212891 c -0.78603,-0.666768 -2.43885,-1.693778 -3.67383,-2.283203 -1.38485,-0.660957 -2.11691,-0.916351 -2.95703,-0.939453 z m 28.44726,0.0332 c -0.21678,-0.0101 -0.44664,0.01647 -0.72265,0.06445 -0.68432,0.118962 -2.09562,0.304584 -3.13672,0.41211 -1.0411,0.107526 -1.89258,0.330885 -1.89258,0.496094 0,0.491841 6.6103,5.892116 7.62891,6.232422 0.51664,0.172601 1.79094,0.322374 2.83203,0.333984 1.86371,0.02074 1.89258,0.0055 1.89258,-1.027344 0,-1.206698 -1.21559,-2.705551 -4.09766,-5.050781 -1.31849,-1.072891 -1.85355,-1.430633 -2.50391,-1.460938 z m -55.15625,0.103516 c -0.39673,0.01687 -0.80539,0.08175 -1.24414,0.191406 -0.85579,0.213886 -1.55681,0.477748 -1.55664,0.585938 1.7e-4,0.10818 -1.65797,0.14818 -3.68554,0.08789 -3.90906,-0.116236 -6.10854,0.294795 -5.75,1.074219 0.35425,0.770089 -1.389,0.213924 -2.79493,-0.890625 -1.09562,-0.860761 -1.47861,-0.970567 -2.76172,-0.796875 -3.07724,0.416565 -3.14884,1.491224 -0.22265,3.34961 0.8919,0.566431 2.40495,1.585461 3.36328,2.265624 1.64726,1.169122 1.82569,1.218236 3.24805,0.890626 0.82749,-0.190602 2.23055,-0.244374 3.11914,-0.119141 1.49582,0.210818 1.59983,0.177207 1.40039,-0.458985 -0.2072,-0.660976 -0.14027,-0.654588 1.75,0.169922 1.67014,0.72849 2.26978,0.823415 3.99219,0.632813 1.83113,-0.202632 3.56635,-0.968752 2.81836,-1.244141 -0.16407,-0.0604 -0.89393,-0.746385 -1.62305,-1.523437 -1.5177,-1.617479 -1.06949,-1.944507 0.51367,-0.375 1.76965,1.754391 3.75993,2.664906 6.54688,2.99414 2.92849,0.345922 3.74877,0.05244 2.92578,-1.046875 -0.71462,-0.954535 -0.12843,-0.795846 1.90625,0.515625 1.6462,1.061077 1.96872,1.143232 3.9414,1.007813 3.57194,-0.245201 3.56169,-0.662558 -0.0918,-4.046875 -2.35564,-2.182105 -5.14094,-3.248733 -7.66016,-2.933594 -0.97366,0.121802 -1.76953,0.362288 -1.76953,0.535156 0,0.172871 -0.17926,0.222374 -0.39844,0.109375 -0.21918,-0.112999 -0.39844,-0.05925 -0.39844,0.119141 0,0.178391 0.13445,0.374007 0.29883,0.435547 0.16438,0.06153 0.74698,0.549791 1.29492,1.083984 l 0.9961,0.970703 -1.59375,-0.787109 c -0.87671,-0.432611 -2.13251,-1.121661 -2.79102,-1.53125 -1.49696,-0.931116 -2.58324,-1.316224 -3.77344,-1.265625 z m 19.19532,0.142578 c -1.90032,0 -4.0625,0.73621 -4.0625,1.382813 0,0.336729 0.15339,0.613281 0.34179,0.613281 0.18839,0 0.95025,0.552678 1.69336,1.228515 0.74312,0.675838 2.11738,1.871356 3.05274,2.658204 1.48299,1.247534 1.92193,1.43164 3.42773,1.43164 0.94976,0 2.28754,-0.163477 2.97461,-0.363281 1.11873,-0.325325 1.20274,-0.437864 0.79883,-1.080078 -1.59546,-2.536776 -6.26649,-5.871094 -8.22656,-5.871094 z m 24.19531,0.337891 c -1.62465,0.0028 -2.76183,0.115676 -2.52734,0.25 0.23451,0.134328 1.18366,1.104203 2.10742,2.15625 0.92375,1.052047 2.58535,2.511577 3.69336,3.242187 1.87541,1.236616 2.1903,1.328125 4.56836,1.328125 1.84257,0 2.55468,-0.120891 2.55468,-0.435547 0,-0.865829 -3.65967,-4.52068 -5.52929,-5.521484 -1.69899,-0.909461 -2.24239,-1.024031 -4.86719,-1.019531 z M 242.28906,22.6875 c -0.4549,0.0141 -1.01798,0.0554 -1.75781,0.111328 -1.82539,0.137985 -3.04711,0.378486 -3.03711,0.59961 0.009,0.203327 1.08899,1.044423 2.39844,1.867187 1.30945,0.822764 3.03031,1.905401 3.82422,2.408203 1.48113,0.938037 3.0831,1.138281 5.66797,0.707031 0.86793,-0.144802 1.24414,-0.397812 1.24414,-0.835937 0,-0.575055 0.1949,-0.545112 2.29101,0.357422 1.26028,0.542645 2.48382,0.995106 2.71875,1.003906 0.9875,0.03697 4.15625,-1.078633 4.15625,-1.462891 0,-0.229736 -0.85149,-0.87607 -1.89258,-1.4375 -1.04111,-0.561429 -2.682,-1.482003 -3.64648,-2.044921 -1.57805,-0.921019 -2.05112,-1.023438 -4.72852,-1.023438 -2.94474,0 -2.97428,0.0082 -2.78906,0.816406 l 0.1875,0.816406 -1.67187,-1 c -1.21582,-0.728357 -1.60015,-0.925096 -2.96485,-0.882812 z m -46.80664,0.242188 c -1.05654,0.0055 -1.83997,0.0861 -1.83984,0.257812 1e-4,0.137127 -1.7925,0.222073 -3.98438,0.189453 -4.63304,-0.06899 -4.92244,0.179736 -2.1914,1.886719 0.9863,0.616471 1.79297,1.180783 1.79297,1.251953 0,0.07117 -1.03074,-0.355099 -2.29102,-0.945313 -5.03992,-2.360306 -5.62651,-2.537723 -7.80078,-2.378906 -1.26213,0.09219 -2.26269,0.361053 -2.57813,0.695313 -0.47357,0.501831 -0.64785,0.486822 -2.13672,-0.19336 -1.20042,-0.548416 -1.80882,-0.656574 -2.34765,-0.416015 -0.40001,0.178581 -1.45654,0.324219 -2.34766,0.324218 -1.85859,2e-6 -2.15389,0.596147 -0.72265,1.455079 0.78519,0.471236 0.71088,0.468879 -0.59961,-0.02148 -1.06897,-0.399997 -1.35343,-0.645332 -0.9961,-0.857422 0.3199,-0.18988 0.11939,-0.227408 -0.55468,-0.105468 -0.57972,0.104871 -1.78483,-0.02431 -2.67774,-0.28711 -1.13983,-0.335474 -2.20235,-0.402789 -3.56836,-0.222656 -1.07011,0.141157 -2.32723,0.139813 -2.79297,-0.0039 -0.46574,-0.143719 -2.33107,-0.119257 -4.14453,0.05469 -1.81346,0.173941 -3.44182,0.31706 -3.61914,0.31836 -0.17737,0.0014 -0.19168,0.178671 -0.0332,0.392578 0.20399,0.275331 0.0654,0.309507 -0.47461,0.11914 -1.26155,-0.444747 -7.73633,-0.640892 -7.73633,-0.234375 0,0.351369 -2.04616,-0.05899 -2.99023,-0.599609 -0.21918,-0.12553 -1.7877,-0.160686 -3.48633,-0.08008 -2.2875,0.108549 -3.08789,0.265006 -3.08789,0.607422 0,0.254273 -0.0448,0.461184 -0.0996,0.458984 -0.0548,-0.002 -0.98071,-0.225769 -2.05664,-0.498047 -2.39294,-0.605557 -4.49127,-0.626101 -5.81446,-0.05664 -0.68526,0.294918 -1.49342,0.343049 -2.58984,0.15625 -0.87672,-0.149372 -2.94014,-0.15614 -4.58398,-0.01563 l -2.98829,0.255859 1.99219,0.558594 c 1.09589,0.307564 1.77326,0.568778 1.50391,0.580078 -0.26936,0.01129 -1.82669,-0.353456 -3.45899,-0.810547 -2.82277,-0.790456 -6.93477,-1.116728 -7.55468,-0.599609 -0.15248,0.127201 -6.14467,0.274885 -13.316409,0.328125 -20.695948,0.153647 -22.888575,0.146962 -24.900391,-0.07813 -2.295494,-0.256818 -7.41231,0.179953 -5.880859,0.501953 0.543664,0.11433 -1.428183,0.151878 -4.382813,0.08398 -4.609091,-0.105902 -30.089858,-0.04836 -41.238281,0.09375 -1.972608,0.02514 -6.618402,0.07378 -10.326172,0.107422 -12.056976,0.109316 -6.65176383,0.453176 9.001953,0.572266 8.399668,0.06391 17.194832,0.221242 19.544922,0.349609 2.984077,0.163139 4.439096,0.119396 4.820312,-0.144531 0.300225,-0.207892 0.641341,-0.296056 0.759766,-0.197266 0.118426,0.09879 2.613057,0.262217 5.542969,0.365235 5.884346,0.206883 5.416237,0.199159 10.707031,0.193359 2.082198,-0.0021 4.862662,-0.0033 6.177734,-0.002 1.315074,0.0018 3.107659,0.0021 3.984376,0.002 0.876714,-1.77e-4 2.221155,-2.2e-5 2.988281,0 0.767125,0 3.726849,-0.01379 6.576172,-0.03125 2.849324,-0.0175 7.499374,0.04158 10.333984,0.130859 3.89145,0.122561 5.231395,0.05924 5.472656,-0.257812 0.196139,-0.257751 0.322472,-0.278025 0.326172,-0.05273 0.0041,0.24579 1.750912,0.387538 5.287109,0.429688 2.904108,0.03461 5.976418,0.217603 6.828128,0.40625 1.64773,0.364968 5.46663,0.08745 5.85742,-0.425781 0.14093,-0.185061 0.92864,-0.173252 1.99219,0.03125 2.10378,0.404516 6.34375,0.463017 6.34375,0.08789 0,-0.14627 -0.2155,-0.444658 -0.47852,-0.664062 -0.37194,-0.310266 -0.34578,-0.398438 0.11914,-0.398438 0.32877,0 0.77029,0.143032 0.98047,0.31836 0.21017,0.175328 1.50482,0.55986 2.87891,0.853515 2.03314,0.434503 2.89564,0.464225 4.6289,0.164063 1.79863,-0.311482 2.3471,-0.282777 3.5293,0.1875 1.56983,0.624476 4.71725,0.432201 5.58398,-0.341797 0.36457,-0.325557 0.74482,-0.351252 1.48633,-0.09766 1.16923,0.399882 7.97034,0.531746 7.97071,0.154297 1.4e-4,-0.14182 0.52912,-0.0309 1.17578,0.248046 0.75392,0.325227 2.27144,0.507813 4.23047,0.507813 3.0027,0 3.05122,-0.01345 2.87304,-0.791016 l -0.17968,-0.791015 2.34374,0.660156 c 2.96829,0.836194 6.09694,0.604197 5.77344,-0.427734 -0.16846,-0.537394 -0.0817,-0.582087 0.57032,-0.291016 0.42297,0.188838 0.69245,0.448218 0.59765,0.576172 -0.0948,0.127954 0.21332,0.257239 0.68555,0.287109 0.47222,0.02986 2.35573,0.164203 4.18554,0.298828 2.39266,0.176033 3.40756,0.135787 3.61524,-0.144531 0.21605,-0.291616 0.65553,-0.26157 1.74219,0.117188 1.83921,0.641045 6.6582,0.6948 6.6582,0.07422 0,-0.237687 -0.22408,-0.623391 -0.49805,-0.857422 -0.27397,-0.23403 0.55425,-0.04008 1.8418,0.431641 1.86706,0.684034 2.9774,0.857422 5.48047,0.857422 1.72616,0 3.13867,-0.1429 3.13867,-0.316406 0,-0.173506 0.66833,-0.08198 1.48633,0.203125 1.03845,0.361948 2.11063,0.457791 3.55273,0.316406 3.17517,-0.311305 3.49377,-0.475063 2.42774,-1.253906 l -0.89258,-0.650391 1.07226,0.542969 c 2.21989,1.125488 7.47739,1.859062 9.25196,1.291015 0.52668,-0.1686 0.48366,-0.296142 -0.26758,-0.814453 -0.8768,-0.604947 -0.85949,-0.608843 1.10156,-0.171875 1.0959,0.24419 2.49823,0.61062 3.11524,0.814453 1.70995,0.564895 4.65625,0.484957 4.65625,-0.126953 0,-0.655316 0.26058,-0.619426 2.39062,0.332031 2.02153,0.902987 2.9166,0.991996 4.72266,0.466797 1.74704,-0.508037 1.62498,-1.416416 -0.33789,-2.5 -0.87672,-0.483982 -1.59375,-0.939908 -1.59375,-1.011718 0,-0.288975 2.71382,1.042649 4.6914,2.300781 l 2.10352,1.33789 2.67969,-0.240234 c 1.47363,-0.131403 2.90376,-0.251138 3.17773,-0.267578 0.83094,-0.04995 0.54835,-0.353674 -1.81641,-1.951172 -3.5944,-2.428183 -5.14174,-2.955078 -8.67578,-2.955078 -3.0173,0 -3.04853,0.0087 -2.86523,0.808594 l 0.18555,0.808594 -1.42774,-0.808594 c -0.92737,-0.525673 -1.98895,-0.808594 -3.03125,-0.808594 -1.87773,0 -4.22356,0.508333 -4.58203,0.992188 -0.16047,0.216584 -1.13925,0.0687 -2.70898,-0.408204 -2.40435,-0.730477 -2.49656,-0.732972 -4.41016,-0.166015 -1.76981,0.524356 -2.09085,0.531068 -3.38477,0.08008 -0.91384,-0.318518 -3.4344,-0.51509 -5.19531,-0.505859 z m 36.23438,0.0078 c -3.15663,0 -3.39823,0.47996 -0.91407,1.826172 0.9315,0.504801 2.05384,1.182861 2.49219,1.505859 0.43836,0.323002 1.51131,0.902178 2.38477,1.28711 2.08548,0.919049 6.31381,1.013774 6.11133,0.136718 -0.14629,-0.633664 -3.73819,-3.089744 -5.99024,-4.095703 C 234.75774,23.131761 233.55534,22.9375 231.7168,22.9375 Z M 203.5,24.599609 c 0.20949,0 0.70485,0.300343 1.10156,0.666016 0.90968,0.838748 0.67417,0.834134 -0.54297,-0.01172 -0.5174,-0.359592 -0.76808,-0.654297 -0.55859,-0.654297 z m -52.49805,0.02148 c 0.32877,-0.0036 1.04776,0.286987 1.59571,0.644531 1.2525,0.817272 0.9907,0.817272 -0.79883,0 -0.76711,-0.350345 -1.12565,-0.641031 -0.79688,-0.644531 z m -23.95898,1.126953 c 0.0627,0.0078 0.13985,0.02631 0.22851,0.05469 0.34015,0.108886 0.61719,0.256265 0.61719,0.328125 0,0.269237 -0.75816,0.11861 -0.99219,-0.197265 -0.1047,-0.14133 -0.0416,-0.208932 0.14649,-0.185547 z m 70.38476,4.169922 c -1.67224,0 -1.80569,0.401729 -0.29882,0.898437 1.57772,0.520067 1.69531,0.504593 1.69531,-0.232422 0,-0.538222 -0.26739,-0.666015 -1.39649,-0.666015 z m 5.7793,0.666015 c -2.16453,0 -2.33157,0.133343 -1.33203,1.054688 0.80306,0.740254 0.74417,0.738712 2.16797,0.03711 1.65247,-0.814285 1.43939,-1.091796 -0.83594,-1.091797 z m 51.81055,3.101563 c -2.88467,0.0028 -6.30145,0.06946 -10.56446,0.201172 -17.01949,0.525864 -22.47551,0.556888 -38.65624,0.224609 -10.64599,-0.218619 -16.78856,-0.181959 -23.81446,0.138672 -7.826,0.357156 -10.88722,0.354008 -17.6543,-0.01172 -6.94129,-0.375119 -9.32115,-0.37022 -15.63867,0.0293 -5.54768,0.350842 -13.30477,0.444826 -30.36523,0.365234 -21.17439,-0.09878 -40.997482,0.213628 -80.298829,1.265626 -19.964354,0.534396 -24.622364,0.751744 -22.316407,1.046874 7.004331,0.896462 66.229084,2.407032 84.484376,2.154297 7.2329,-0.100133 15.84123,-0.0665 19.12891,0.07617 8.1237,0.352535 48.31131,0.135752 62.64062,-0.33789 7.83781,-0.259069 16.74557,-0.294264 27.29883,-0.109375 13.50975,0.236682 54.42443,0.516734 92.17773,0.630859 6.137,0.01855 19.13718,-0.04139 28.89063,-0.132813 9.75345,-0.09142 21.72484,-0.02951 26.60156,0.136719 l 8.86524,0.300781 v -4.65625 l -5.44141,-0.216796 c -2.99356,-0.11976 -10.86512,-0.21875 -17.49219,-0.21875 -6.62708,0 -13.90597,-0.158517 -16.17578,-0.353516 -3.21094,-0.275841 -6.95902,-0.231216 -16.88086,0.205078 -11.0274,0.484908 -14.69184,0.510123 -27.09766,0.179688 -7.89043,-0.210163 -17.03494,-0.540821 -20.32226,-0.734375 -2.13115,-0.125497 -4.48447,-0.186404 -7.36914,-0.183594 z M 78.537109,42.130859 c -0.337183,-0.03904 -0.790704,0.05275 -1.333984,0.28711 -1.409201,0.607903 -1.415404,0.984107 -0.02344,1.408203 1.592517,0.485192 1.653468,0.470059 1.939453,-0.480469 0.217827,-0.723988 -0.02006,-1.149779 -0.582032,-1.214844 z m 195.294921,0.863282 c -0.45412,-0.02111 -0.48828,0.216219 -0.48828,1.046875 0,0.643411 0.0823,1.169921 0.18164,1.169922 0.5711,0 2.19617,-0.823219 2.36914,-1.199219 0.23409,-0.50887 0.0557,-0.62064 -1.45508,-0.921875 -0.25937,-0.05172 -0.45605,-0.08867 -0.60742,-0.0957 z M 67.998047,48.054688 c -0.171029,0.0036 -0.365005,0.01753 -0.582031,0.04492 -2.01552,0.254379 -2.389405,0.607605 -1.503907,1.423829 0.910089,0.838842 1.203689,0.839913 2.201172,0.0078 1.146662,-0.956532 1.081969,-1.501671 -0.115234,-1.476562 z"
     id="svg_1" />
</svg>
