<?xml version="1.0" encoding="UTF-8" standalone="no"?>
<svg
   xmlns:dc="http://purl.org/dc/elements/1.1/"
   xmlns:cc="http://creativecommons.org/ns#"
   xmlns:rdf="http://www.w3.org/1999/02/22-rdf-syntax-ns#"
   xmlns:svg="http://www.w3.org/2000/svg"
   xmlns="http://www.w3.org/2000/svg"
   id="svg49"
   version="1.1"
   height="50.154728"
   width="365.20132">
  <metadata
     id="metadata55">
    <rdf:RDF>
      <cc:Work
         rdf:about="">
        <dc:format>image/svg+xml</dc:format>
        <dc:type
           rdf:resource="http://purl.org/dc/dcmitype/StillImage" />
        <dc:title></dc:title>
      </cc:Work>
    </rdf:RDF>
  </metadata>
  <defs
     id="defs53" />
  <g
     transform="translate(-5.066034,-4.922632)"
     id="g42">
    <title
       id="title39">background</title>
    <rect
       style="fill:none"
       id="canvas_background"
       height="62"
       width="377"
       y="-1"
       x="-1" />
  </g>
  <path
     d="M 0.35546875,0 C 0.16006275,0 0,0.44953787 0,0.99804688 0,2.1179989 0.10432225,2.1910924 0.75390625,1.5371094 1.2324222,1.0553474 0.95882675,0 0.35546875,0 Z M 6.6113281,1.3300781 c -0.643197,0 -1.0220293,0.2349159 -1.1777343,0.7324219 -0.3009231,0.961493 -0.2445797,0.9798711 1.0371093,0.3300781 1.340555,-0.679637 1.391138,-1.0625 0.140625,-1.0625 z M 11.886719,4.03125 c -0.118098,-0.011716 -0.266953,-0.00405 -0.449219,0.017578 -0.575285,0.068268 -0.93978,0.3747888 -1.021484,0.8554688 -0.103544,0.609171 0.06191,0.7460937 0.894531,0.7460937 0.832603,0 1.023437,-0.1578286 1.023437,-0.8535156 0,-0.5217653 -0.09297,-0.7304772 -0.447265,-0.765625 z M 1.3652344,4.9863281 c -1.31222803,0 -1.40939777,0.069302 -1.29296878,0.9121094 0.160877,1.164648 1.24701798,1.3527751 2.07812498,0.3613281 C 3.0658596,5.1676806 2.9529584,4.9863281 1.3652344,4.9863281 Z M 22.310547,5.3183594 c -0.816371,0 -1.590967,0.8923291 -1.371094,1.5800781 0.228375,0.714347 1.472481,1.0429228 1.876953,0.4960937 0.255631,-0.345607 -0.165803,-2.0761718 -0.505859,-2.0761718 z m 196.187503,0.058594 c -0.41373,-0.041648 -0.64031,0.298295 -1.06446,1.1464844 -0.84443,1.688668 -0.96903,1.5995795 1.48633,1.0546875 1.69087,-0.375238 1.90488,-0.9840075 0.60938,-1.7421875 -0.46599,-0.2727154 -0.78302,-0.4339953 -1.03125,-0.4589844 z m -51.94141,1.0625 c -0.82207,-0.057289 -1.16833,0.3656252 -0.86133,1.1738281 0.32603,0.858334 1.03549,0.8870969 2.21094,0.091797 l 0.89453,-0.6054687 -1.26953,-0.4394532 c -0.37289,-0.1290547 -0.70059,-0.2016069 -0.97461,-0.2207031 z m 68.41992,0.5410157 c -1.33873,0 -2.36038,0.8836104 -1.32812,1.1484374 2.27469,0.5835651 2.67773,0.5370292 2.67773,-0.3105468 0,-0.730388 -0.17219,-0.8378906 -1.34961,-0.8378906 z m -9.61133,0.078125 c -0.34625,-0.071303 -0.62319,0.2869825 -1.25585,1.2128906 -1.10795,1.621495 -0.73115,1.9777796 1.55664,1.4746094 1.03031,-0.226602 1.29651,-1.3805841 0.49023,-2.125 -0.35058,-0.323682 -0.58327,-0.519718 -0.79102,-0.5625 z M 6.6640625,7.3183594 c -0.897767,0.0082 -2.2871094,0.3993132 -2.2871094,0.6445312 0,0.132161 0.4563219,0.4147702 1.0136719,0.6269532 1.188378,0.452419 1.1639884,0.4497125 1.5058594,0.1640624 C 7.3553404,8.3705083 7.1841155,7.3136124 6.6640625,7.3183594 Z M 138.46289,7.9785156 c -0.8825,0 -1.44719,0.5958842 -0.94922,1.0019532 0.46019,0.3752639 2.53125,0.7908435 2.53125,0.5078124 0,-0.635756 -0.91604,-1.5097656 -1.58203,-1.5097656 z M 0,11.539062 v 5.337891 l 12.035156,0.242188 c 7.17647,0.144594 16.4525,0.09961 22.976563,-0.113282 7.659792,-0.249947 23.269144,-0.260556 52.046875,-0.0332 22.607996,0.178617 41.291666,0.229004 41.519526,0.111328 0.35884,-0.185305 33.79128,-0.571987 45.08594,-0.521484 32.42597,0.144988 49.79746,0.306273 57.49024,0.533203 5.1423,0.15169 9.49009,0.151854 9.66211,0 0.17202,-0.151854 12.7959,-0.409557 28.05078,-0.572265 15.25488,-0.162709 29.88391,-0.318904 32.50976,-0.347657 2.62586,-0.02877 8.35404,0.02187 12.73047,0.113281 4.37642,0.09142 14.62625,0.03233 22.77735,-0.130859 l 14.99414,-0.142578 c -22.06521,-3.197938 -36.53062,-2.953241 -44.94922,-3.271484 -8.41861,-0.318243 -15.07344,-0.195794 -20.85352,-0.392579 -5.78008,-0.196783 -9.23871,-0.194055 -17.7207,-0.251953 -8.482,-0.0579 -38.49012,-0.289952 -54.9043,-0.09961 -9.19838,0.10667 -32.25081,0.117903 -42.77148,0.02148 -0.98469,-0.009 -6.62308,-0.0033 -12.53125,0.01172 -5.90818,0.01511 -13.69609,0.02116 -17.30664,0.01367 -3.61055,-0.0074 -19.9927,9.48e-4 -36.4043,0.01758 -49.268467,0.04995 -56.697756,0.0253 -81.0625,-0.255859 z m 20.324219,2.13086 c 0.138214,-0.0048 0.295853,0.01644 0.439453,0.06445 0.317384,0.10612 0.223247,0.18522 -0.240234,0.201172 C 20.104033,13.949997 19.867801,13.87218 20,13.761719 c 0.0661,-0.05523 0.186004,-0.08704 0.324219,-0.0918 z M 3.546875,14.458984 c 0.080171,0.0079 0.1641489,0.02513 0.2441406,0.05078 0.319967,0.102592 0.4862598,0.315011 0.3710938,0.470703 -0.115156,0.155692 -0.4710486,0.198292 -0.7910156,0.0957 -0.3199671,-0.102592 -0.4882129,-0.313058 -0.3730469,-0.46875 0.086367,-0.116769 0.308314,-0.1722 0.5488281,-0.148438 z m 94.375,4.642578 c -0.243263,-0.01274 -0.433057,0.0341 -0.560547,0.140626 -0.42295,0.353394 -0.106929,1.396144 0.400391,1.322265 0.17098,-0.02491 0.712728,-0.108267 1.205078,-0.1875 1.187673,-0.191138 1.130773,-0.567135 -0.160156,-1.058594 -0.34478,-0.131261 -0.641503,-0.204055 -0.884766,-0.216797 z m 9.572265,0.306641 c -1.34288,-0.07897 -1.4771,0.498615 0.043,1.029297 1.82847,0.638345 1.87305,0.635371 1.87305,-0.117188 0,-0.434764 -0.38301,-0.688112 -1.26758,-0.835937 -0.23987,-0.04008 -0.4566,-0.06489 -0.64844,-0.07617 z m -3.90234,0.257813 c -0.21886,-0.03502 -0.62678,0.14538 -1.38086,0.517578 -1.53123,0.755772 -1.45896,1.091797 0.23633,1.091797 1.2201,0 1.39257,-0.101898 1.39257,-0.830079 0,-0.492865 -0.0292,-0.744275 -0.24804,-0.779296 z M 3.6757812,20.962891 c -0.3035439,0.0011 -0.6750151,0.02034 -1.1425781,0.05273 -1.173599,0.08132 -2.23167935,0.229588 -2.34960935,0.328125 -0.117925,0.09853 -0.16257637,1.625459 -0.09960938,3.394531 L 0.19921875,27.955078 1.8027344,26.527344 C 2.6851814,25.741737 3.9734785,24.48285 4.6640625,23.730469 5.8482065,22.440371 5.8836428,22.319856 5.2929688,21.615234 4.8812502,21.124089 4.5864131,20.959736 3.6757812,20.962891 Z M 17.560547,21.15625 15.125,23.125 c -2.533505,2.047621 -4.78125,4.650856 -4.78125,5.537109 0,1.086199 3.136647,1.21525 5.376953,0.220703 0.872044,-0.387129 2.482065,-1.484694 3.576172,-2.4375 1.094107,-0.952801 2.495659,-2.050125 3.115234,-2.439453 1.845653,-1.159759 1.29716,-1.80988 -1.998047,-2.367187 z m -7.394531,0.238281 c -1.3036088,0.0272 -2.0523994,0.468692 -4.0429691,1.908203 -2.884585,2.086024 -4.9296875,4.310269 -4.9296875,5.363282 0,0.908606 0.032051,0.919922 2.5214844,0.919922 H 6.2363281 L 10.080078,26.40625 c 4.717157,-3.903178 4.949118,-4.598925 1.640625,-4.923828 -0.624509,-0.06133 -1.120151,-0.09696 -1.554687,-0.08789 z m 16.001953,0.212891 -3.173828,2.576172 c -2.912599,2.364396 -4.437455,4.193039 -4.017579,4.820312 0.379201,0.566505 4.696717,0.246686 6.087891,-0.451172 0.765875,-0.384187 1.818703,-1.019926 2.337891,-1.412109 1.595226,-1.205014 4.029297,-4.136669 4.029297,-4.853516 0,-0.615345 -0.247958,-0.679687 -2.632813,-0.679687 z m 37.072265,0.05273 c -0.838752,0.0231 -1.57054,0.278496 -2.953125,0.939453 -1.232969,0.589425 -2.883219,1.616434 -3.667968,2.283203 l -1.427735,1.212891 1.050782,-1.40625 c 0.577322,-0.773418 1.048828,-1.708818 1.048828,-2.078125 0,-0.614091 -0.254166,-0.671875 -2.988282,-0.671875 H 51.3125 l -3.404297,2.806641 c -3.025697,2.494207 -3.353061,2.881076 -2.962891,3.490234 0.326212,0.509291 0.831213,0.685547 1.966797,0.685547 0.840237,0 2.066098,0.08918 2.72461,0.199219 0.993704,0.16606 1.466731,-0.0023 2.783203,-0.996094 0.872405,-0.658552 1.694047,-1.197266 1.826172,-1.197266 0.132125,0 0.133158,0.447585 0.002,0.996094 l -0.238281,0.998047 1.939453,-0.01563 c 3.068453,-0.02451 5.650783,-1.160161 8.513672,-3.742188 2.246836,-2.026407 2.44425,-2.31316 1.90039,-2.767578 -0.333749,-0.278869 -1.333365,-0.588054 -2.220703,-0.6875 -0.331669,-0.03717 -0.62276,-0.05653 -0.902344,-0.04883 z m -28.402343,0.0332 c -0.649302,0.0303 -1.181717,0.388047 -2.498047,1.460938 -2.877376,2.34523 -4.091797,3.844083 -4.091797,5.050781 0,1.032802 0.02803,1.048088 1.888672,1.027344 1.039398,-0.01161 2.312328,-0.161383 2.828125,-0.333984 1.016954,-0.340306 7.617187,-5.740581 7.617187,-6.232422 0,-0.165209 -0.851227,-0.388568 -1.890625,-0.496094 -1.039399,-0.107526 -2.447659,-0.293148 -3.130859,-0.41211 -0.275568,-0.04798 -0.506223,-0.07455 -0.722656,-0.06445 z m 55.068359,0.103516 c -1.188255,-0.0506 -2.273052,0.334509 -3.767578,1.265625 -0.65743,0.409589 -1.911824,1.098639 -2.78711,1.53125 l -1.591796,0.787109 0.99414,-0.970703 c 0.547053,-0.534193 1.128851,-1.022449 1.292969,-1.083984 0.164113,-0.06154 0.298828,-0.257156 0.298828,-0.435547 0,-0.178391 -0.179616,-0.23214 -0.398437,-0.119141 -0.218821,0.112999 -0.396485,0.0635 -0.396485,-0.109375 0,-0.172868 -0.795501,-0.413354 -1.767578,-0.535156 -2.515114,-0.315139 -5.296635,0.751489 -7.648437,2.933594 -3.64751,3.384317 -3.655956,3.801674 -0.08984,4.046875 1.969466,0.135419 2.292027,0.05326 3.935547,-1.007813 2.031357,-1.311471 2.615792,-1.47016 1.902343,-0.515625 -0.821648,1.099314 -0.0016,1.392797 2.921876,1.046875 2.782399,-0.329234 4.76839,-1.239749 6.535156,-2.99414 1.580574,-1.569507 2.028897,-1.242479 0.513672,0.375 -0.72793,0.777052 -1.459258,1.463032 -1.623047,1.523437 -0.746772,0.275389 0.988259,1.041509 2.816406,1.244141 1.719596,0.190602 2.316952,0.09568 3.984375,-0.632813 1.88719,-0.82451 1.952954,-0.830898 1.746094,-0.169922 -0.19912,0.636192 -0.09499,0.669803 1.398437,0.458985 0.88714,-0.125233 2.289099,-0.07146 3.115239,0.119141 1.42003,0.327611 1.59761,0.278495 3.24218,-0.890626 0.95676,-0.680164 2.46698,-1.699192 3.35742,-2.265624 2.92142,-1.858385 2.85153,-2.933045 -0.2207,-3.34961 -1.281,-0.173692 -1.66397,-0.06389 -2.75781,0.796875 -1.40364,1.104549 -3.14469,1.660714 -2.79102,0.890625 0.35796,-0.779424 -1.83755,-1.190455 -5.740231,-1.074219 -2.024272,0.06029 -3.679856,0.02029 -3.679687,-0.08789 1.7e-4,-0.10819 -0.700287,-0.372052 -1.554688,-0.585938 -0.438032,-0.109656 -0.844149,-0.17454 -1.240234,-0.191406 z m -19.166016,0.142578 c -1.956878,0 -6.620035,3.334318 -8.21289,5.871094 -0.403246,0.642214 -0.320026,0.754753 0.796875,1.080078 0.685953,0.199804 2.022499,0.363281 2.970703,0.363281 1.503347,0 1.941306,-0.184106 3.421875,-1.43164 0.933834,-0.786848 2.304973,-1.982366 3.046875,-2.658204 0.741902,-0.675838 1.50332,-1.228515 1.691406,-1.228515 0.188091,0 0.341797,-0.276552 0.341797,-0.613281 0,-0.646603 -2.159426,-1.382813 -4.056641,-1.382813 z m -24.15625,0.337891 c -2.620519,-0.0045 -3.161204,0.11007 -4.857422,1.019531 -1.86657,1.000804 -5.521484,4.655655 -5.521484,5.521484 0,0.314656 0.711213,0.435547 2.550781,0.435547 2.374182,0 2.6882,-0.09151 4.560547,-1.328125 1.106201,-0.73061 2.767204,-2.19014 3.689453,-3.242187 0.922249,-1.052047 1.867443,-2.021922 2.101563,-2.15625 0.234115,-0.134324 -0.901434,-0.247199 -2.523438,-0.25 z M 122.69922,22.6875 c -0.90542,0.03758 -1.34005,0.275848 -2.35156,0.882812 l -1.66993,1 0.1875,-0.816406 c 0.18492,-0.808256 0.15674,-0.816406 -2.7832,-0.816406 -2.67304,0 -3.14522,0.10242 -4.7207,1.023438 -0.96291,0.562919 -2.60123,1.483492 -3.64063,2.044921 -1.0394,0.56143 -1.89062,1.207764 -1.89062,1.4375 0,0.384258 3.16256,1.499862 4.14844,1.462891 0.23455,-0.0088 1.45662,-0.461261 2.71484,-1.003906 2.09269,-0.902534 2.28711,-0.932477 2.28711,-0.357422 0,0.438125 0.37762,0.691135 1.24414,0.835937 2.58065,0.43125 4.17948,0.231006 5.6582,-0.707031 0.79261,-0.502802 2.51105,-1.585439 3.81836,-2.408203 1.30731,-0.822764 2.38361,-1.66386 2.39258,-1.867187 0.01,-0.221123 -1.20884,-0.461625 -3.03125,-0.59961 -1.10793,-0.08389 -1.82003,-0.133877 -2.36328,-0.111328 z m 47.33789,0.242188 c -1.75803,-0.0092 -4.2732,0.187341 -5.18555,0.505859 -1.29182,0.450992 -1.61197,0.444278 -3.3789,-0.08008 -1.91047,-0.566957 -2.00387,-0.564462 -4.4043,0.166015 -1.56717,0.476904 -2.54293,0.624788 -2.70313,0.408204 -0.35789,-0.483855 -2.7015,-0.992188 -4.57617,-0.992188 -1.0406,0 -2.09954,0.282921 -3.02539,0.808594 l -1.42578,0.808594 0.18555,-0.808594 c 0.18301,-0.799875 0.15105,-0.808594 -2.86133,-0.808594 -3.52828,0 -5.07357,0.526895 -8.66211,2.955078 -2.36091,1.597498 -2.64208,1.901218 -1.8125,1.951172 0.27353,0.01644 1.70065,0.136175 3.17188,0.267578 l 2.67578,0.240234 2.09961,-1.33789 c 1.97436,-1.258132 4.68554,-2.589756 4.68554,-2.300781 0,0.07181 -0.7165,0.527736 -1.59179,1.011718 -1.95967,1.083584 -2.08209,1.991963 -0.3379,2.5 1.80312,0.525199 2.69662,0.43619 4.71485,-0.466797 2.12657,-0.951457 2.38672,-0.987347 2.38672,-0.332031 0,0.61191 2.94126,0.691848 4.64843,0.126953 0.61601,-0.203833 2.01527,-0.570263 3.10938,-0.814453 1.95786,-0.436968 1.97498,-0.433072 1.09961,0.171875 -0.75002,0.518311 -0.79146,0.645853 -0.26563,0.814453 1.77166,0.568047 7.02006,-0.165527 9.23633,-1.291015 L 168.89062,25.890625 168,26.541016 c -1.06429,0.778843 -0.74617,0.942601 2.42383,1.253906 1.43975,0.141385 2.51012,0.04554 3.54687,-0.316406 0.81666,-0.28511 1.48438,-0.376631 1.48438,-0.203125 0,0.173506 1.40947,0.316406 3.13281,0.316406 2.49899,0 3.60669,-0.173388 5.4707,-0.857422 1.28545,-0.471722 2.11337,-0.665671 1.83985,-0.431641 -0.27353,0.234031 -0.49805,0.619735 -0.49805,0.857422 0,0.620584 4.81224,0.566828 6.64844,-0.07422 1.08489,-0.378758 1.52258,-0.408804 1.73828,-0.117188 0.20734,0.280318 1.22063,0.320564 3.60937,0.144531 1.82682,-0.134625 3.70824,-0.268967 4.17969,-0.298828 0.47145,-0.02987 0.7802,-0.159155 0.68555,-0.287109 -0.0946,-0.127954 0.17341,-0.387334 0.5957,-0.576172 0.65091,-0.291071 0.73655,-0.246377 0.56836,0.291016 -0.32297,1.031932 2.80219,1.263928 5.76563,0.427734 l 2.33984,-0.660156 -0.18164,0.791015 c -0.17789,0.777571 -0.12866,0.791016 2.86914,0.791016 1.95584,0 3.47191,-0.182586 4.22461,-0.507813 0.6456,-0.278948 1.17369,-0.389865 1.17383,-0.248046 3.7e-4,0.377449 6.78971,0.245585 7.95703,-0.154297 0.7403,-0.2536 1.12039,-0.227901 1.48437,0.09766 0.86532,0.773998 4.00695,0.966273 5.57422,0.341797 1.18028,-0.470277 1.72775,-0.498982 3.52344,-0.1875 1.73044,0.300162 2.59127,0.27044 4.62109,-0.164063 1.37185,-0.293655 2.66517,-0.678187 2.875,-0.853515 0.20984,-0.175328 0.65029,-0.31836 0.97852,-0.31836 0.46417,0 0.49047,0.08817 0.11914,0.398438 -0.26258,0.219404 -0.47656,0.517792 -0.47656,0.664062 0,0.375127 4.23169,0.316626 6.33203,-0.08789 1.06182,-0.204502 1.84757,-0.216311 1.98828,-0.03125 0.39015,0.513232 4.20456,0.790749 5.84961,0.425781 0.85032,-0.188647 3.91703,-0.371637 6.81641,-0.40625 3.53043,-0.04215 5.27521,-0.183898 5.27929,-0.429688 0.004,-0.225285 0.1284,-0.205016 0.32422,0.05273 0.24087,0.317049 1.57974,0.380373 5.46484,0.257812 2.83,-0.08928 7.47173,-0.148358 10.31641,-0.130859 2.84468,0.01746 5.79857,0.03125 6.56445,0.03125 0.76587,-2.2e-5 2.10909,-1.77e-4 2.98438,0 0.87528,1.82e-4 2.66558,-1.96e-4 3.97852,-0.002 1.31292,-0.0013 4.08916,-1.75e-4 6.16796,0.002 5.28217,0.0058 4.81471,0.01352 10.68946,-0.193359 2.92514,-0.103018 5.41497,-0.266446 5.5332,-0.365235 0.11823,-0.09879 0.46003,-0.01063 0.75977,0.197266 0.38059,0.263927 1.83133,0.30767 4.81054,0.144531 2.34626,-0.128367 11.1277,-0.285703 19.51367,-0.349609 15.62819,-0.11909 21.0256,-0.46295 8.98829,-0.572266 -3.70173,-0.03364 -8.34115,-0.08228 -10.31055,-0.107422 -11.13024,-0.142112 -36.56834,-0.199652 -41.16992,-0.09375 -2.94981,0.06789 -4.91973,0.03035 -4.37696,-0.08398 1.52896,-0.322 -3.57739,-0.758771 -5.86914,-0.501953 -2.00853,0.225082 -4.19913,0.231772 -24.86132,0.07813 -7.16006,-0.05324 -13.1427,-0.200924 -13.29493,-0.328125 -0.6189,-0.517119 -4.7248,-0.190847 -7.54297,0.599609 -1.62964,0.457091 -3.18225,0.821832 -3.45117,0.810547 -0.26892,-0.0113 0.40589,-0.272514 1.5,-0.580078 l 1.98828,-0.558594 -2.98242,-0.255859 c -1.64116,-0.14052 -3.70088,-0.133747 -4.57617,0.01563 -1.09464,0.186799 -1.90179,0.138668 -2.58594,-0.15625 -1.32103,-0.569461 -3.41564,-0.548917 -5.80468,0.05664 -1.07418,0.272278 -1.99804,0.49607 -2.05274,0.498047 -0.0547,0.0022 -0.0996,-0.204711 -0.0996,-0.458984 0,-0.342416 -0.80021,-0.498873 -3.08398,-0.607422 -1.69586,-0.08061 -3.26164,-0.04545 -3.48047,0.08008 -0.94253,0.540619 -2.98438,0.950978 -2.98438,0.599609 0,-0.406517 -6.46513,-0.210372 -7.72461,0.234375 -0.53911,0.190367 -0.6763,0.156191 -0.47265,-0.11914 0.15823,-0.213907 0.14188,-0.39119 -0.0352,-0.392578 -0.17703,-0.0013 -1.80277,-0.144419 -3.61328,-0.31836 -1.81051,-0.173941 -3.67173,-0.198406 -4.13672,-0.05469 -0.46497,0.143725 -1.7207,0.145063 -2.78906,0.0039 -1.36378,-0.180133 -2.42453,-0.112818 -3.5625,0.222656 -0.89145,0.262801 -2.09505,0.391981 -2.67383,0.28711 -0.67297,-0.12194 -0.87212,-0.08441 -0.55273,0.105468 0.35674,0.21209 0.0731,0.457425 -0.99414,0.857422 -1.30836,0.490369 -1.38352,0.492721 -0.59961,0.02148 1.42891,-0.858932 1.1329,-1.455078 -0.72266,-1.455079 -0.88966,0 -1.94439,-0.145637 -2.34375,-0.324218 -0.53795,-0.240559 -1.1453,-0.132401 -2.34375,0.416015 -1.48642,0.680182 -1.65805,0.695191 -2.13086,0.19336 -0.31492,-0.33426 -1.31415,-0.603124 -2.57422,-0.695313 -2.17072,-0.158817 -2.75541,0.0186 -7.78711,2.378906 -1.25823,0.590214 -2.28906,1.016484 -2.28906,0.945313 0,-0.07117 0.80632,-0.635482 1.79102,-1.251953 2.72658,-1.706983 2.43799,-1.955709 -2.1875,-1.886719 -2.18831,0.03262 -3.98057,-0.05233 -3.98047,-0.189453 1.2e-4,-0.171712 -0.78112,-0.252275 -1.83594,-0.257812 z m -36.17383,0.0078 c -1.83554,0 -3.03679,0.194249 -4.07812,0.660156 -2.24838,1.005959 -5.83441,3.462039 -5.98047,4.095703 -0.20215,0.877056 4.01948,0.782331 6.10156,-0.136718 0.87204,-0.384932 1.94321,-0.964108 2.38086,-1.28711 0.43764,-0.322998 1.55634,-1.001058 2.48633,-1.505859 2.48011,-1.346212 2.24133,-1.826172 -0.91016,-1.826172 z m 28.16992,1.662109 c 0.20914,0 -0.042,0.294705 -0.55859,0.654297 -1.21516,0.845852 -1.44921,0.850467 -0.54102,0.01172 0.39606,-0.365673 0.89046,-0.666016 1.09961,-0.666016 z m 52.41211,0.02148 c 0.32823,0.0035 -0.031,0.294186 -0.79687,0.644531 -1.7866,0.817272 -2.04538,0.817272 -0.79492,0 0.54705,-0.357544 1.26356,-0.648126 1.59179,-0.644531 z m 23.91992,1.126953 c 0.18776,-0.02339 0.25102,0.04422 0.14649,0.185547 -0.23365,0.315875 -0.99024,0.466502 -0.99024,0.197265 0,-0.07186 0.27759,-0.219239 0.61719,-0.328125 0.0885,-0.02838 0.16398,-0.04689 0.22656,-0.05469 z m -70.27148,4.169922 c -1.12726,0 -1.39258,0.127793 -1.39258,0.666015 0,0.737015 0.11626,0.752489 1.69141,0.232422 1.50442,-0.496708 1.37068,-0.898437 -0.29883,-0.898437 z m -5.76758,0.666015 c -2.27161,0 -2.48375,0.277512 -0.83398,1.091797 1.42148,0.701604 1.36232,0.703145 2.16406,-0.03711 0.99791,-0.921345 0.83093,-1.054688 -1.33008,-1.054688 z m -51.72656,3.101563 c -2.87996,-0.0028 -5.2278,0.0581 -7.35547,0.183594 -3.281973,0.193554 -12.413447,0.524212 -20.291015,0.734375 -12.385595,0.330435 -16.04527,0.30522 -27.054687,-0.179688 -9.905662,-0.436294 -13.64586,-0.480919 -16.851563,-0.205078 -2.266109,0.194999 -9.532172,0.353516 -16.148437,0.353516 -6.616272,0 -14.4761583,0.09899 -17.4648442,0.21875 L 0,35.007812 v 4.65625 l 8.8515625,-0.300781 c 4.8687715,-0.166224 16.8210445,-0.228137 26.5585935,-0.136719 9.737549,0.09142 22.716753,0.151363 28.84375,0.132813 37.691744,-0.114125 78.539624,-0.394177 92.027344,-0.630859 10.53605,-0.184889 19.42889,-0.149694 27.25391,0.109375 14.30595,0.473642 54.42861,0.690425 62.53906,0.33789 3.28232,-0.14267 11.87654,-0.176305 19.09766,-0.07617 18.22552,0.252735 77.35279,-1.257836 84.3457,-2.154297 2.3022,-0.29513 -2.3475,-0.512478 -22.2793,-1.046874 -39.23726,-1.051998 -59.03005,-1.364406 -80.16992,-1.265626 -17.03264,0.07959 -24.77582,-0.01439 -30.31445,-0.365234 -6.30722,-0.399514 -8.68332,-0.404416 -15.61329,-0.0293 -6.75604,0.365726 -9.81176,0.368875 -17.625,0.01172 -7.01444,-0.320631 -13.14677,-0.357291 -23.77539,-0.138672 -16.15436,0.332279 -21.60199,0.301255 -38.59375,-0.224609 -4.25603,-0.131716 -7.66691,-0.198362 -10.54687,-0.201172 z m 176.19141,8.445312 c -0.56106,0.06506 -0.79756,0.490856 -0.58008,1.214844 0.28552,0.950528 0.34758,0.965661 1.9375,0.480469 1.3897,-0.424096 1.38346,-0.8003 -0.0234,-1.408203 -0.5424,-0.234358 -0.99735,-0.326149 -1.33398,-0.28711 z M 91.816406,42.994141 c -0.151127,0.007 -0.348462,0.04398 -0.607422,0.0957 -1.508345,0.301235 -1.686831,0.413005 -1.453125,0.921875 0.172681,0.376 1.797027,1.199219 2.367188,1.199219 0.09911,0 0.179686,-0.526511 0.179687,-1.169922 0,-0.830656 -0.03295,-1.067987 -0.486328,-1.046875 z m 205.498044,5.060547 c -1.19525,-0.02511 -1.26002,0.52003 -0.11523,1.476562 0.99586,0.832089 1.28866,0.831031 2.19726,-0.0078 0.88405,-0.816223 0.51029,-1.16945 -1.50195,-1.423829 -0.21667,-0.02739 -0.40933,-0.04134 -0.58008,-0.04492 z"
     id="svg_1" />
</svg>
