<?xml version="1.0" encoding="UTF-8" standalone="no"?>
<svg
   xmlns:dc="http://purl.org/dc/elements/1.1/"
   xmlns:cc="http://creativecommons.org/ns#"
   xmlns:rdf="http://www.w3.org/1999/02/22-rdf-syntax-ns#"
   xmlns:svg="http://www.w3.org/2000/svg"
   xmlns="http://www.w3.org/2000/svg"
   viewBox="0 0 365.00001 21.6328"
   id="svg2"
   version="1.1"
   width="365"
   height="21.632799">
  <metadata
     id="metadata10">
    <rdf:RDF>
      <cc:Work
         rdf:about="">
        <dc:format>image/svg+xml</dc:format>
        <dc:type
           rdf:resource="http://purl.org/dc/dcmitype/StillImage" />
        <dc:title></dc:title>
      </cc:Work>
    </rdf:RDF>
  </metadata>
  <defs
     id="defs8" />
  <path
     style="fill:#000000"
     id="path4"
     d="m 182.54873,0.21845519 -3.58815,7.25857781 -7.58008,0.7578162 5.7927,5.6568298 -1.62087,7.444204 7.16862,-3.764202 6.57922,3.842663 -1.36253,-7.981947 5.68745,-5.0693314 -8.01257,-1.1692568 -3.06379,-6.97535361 z M 166.31309,4.26971 155.66922,4.4151494 c -11.09564,0.1586866 -14.48033,0.1661464 -36.91676,0.1396984 -7.47372,-0.020345 -14.93394,-0.041395 -16.57818,-0.02105 -1.64424,0 -5.189971,-7.059e-4 -7.880521,-0.02105 C 91.603211,4.4924031 89.035565,4.4732665 88.587174,4.4936111 83.795861,4.5383676 73.298682,4.5315586 69.109767,4.4725598 61.634618,4.3688031 57.057729,4.3795422 44.10566,4.5280564 30.538377,4.6865394 16.973723,4.1624821 3.5433568,6.6426697 l 9.3540542,0.097598 c 3.712042,0.09155 8.378989,0.1196326 10.372131,0.070806 1.992939,-0.042723 4.602393,-0.081582 5.798442,-0.061238 1.195845,0.016275 7.856997,0.098025 14.804208,0.1875404 6.947007,0.088701 12.694452,0.2285169 12.773795,0.3119293 l 0,0.045928 c 0.07832,0.083412 2.057697,0.083412 4.399545,0 3.503308,-0.1234906 11.414431,-0.2115356 26.181018,-0.290879 5.143475,-0.027465 20.371,0.1854504 20.53375,0.285138 0.10375,0.063068 8.61144,0.036415 18.90714,-0.061238 13.10506,-0.1220665 20.21284,-0.1171716 23.70089,0.019137 2.97109,0.1179976 7.19607,0.1424948 10.46399,0.063151 l 5.48077,-0.1320437 0,-2.9087894 z m 32.37559,0 0,2.9107031 5.48077,0.1320437 c 3.26793,0.079344 7.49309,0.054847 10.46398,-0.063151 3.48826,-0.1363074 10.59585,-0.1431166 23.7009,-0.02105 10.29551,0.097653 18.80528,0.1243057 18.90905,0.061238 0.16276,-0.099688 15.38856,-0.3126029 20.53184,-0.285138 14.76678,0.079344 22.67771,0.1673884 26.18102,0.290879 2.34185,0.083412 4.32122,0.083412 4.39954,0 l 0,-0.045928 c 0.0794,-0.083413 5.82679,-0.2232276 12.7738,-0.3119293 6.94721,-0.089516 13.60815,-0.1731785 14.80421,-0.1894541 1.19563,-0.020345 3.8053,0.020428 5.79843,0.063151 2.2261,0.048826 5.30805,-0.1653746 9.34641,-0.022964 l 4.46269,-0.022964 6.67108,-0.3119295 C 354.57877,5.0956331 352.51386,5.0309186 348.42627,4.8706047 344.80354,4.6319647 341.24281,4.842386 332.75899,4.6601001 327.22836,4.6336523 327.1742,4.5992618 320.89611,4.5280564 307.94405,4.3795421 303.36736,4.3707169 295.892,4.4744734 c -4.18871,0.058999 -14.68459,0.063894 -19.4755,0.019137 -0.44859,-0.020345 -3.01795,7.058e-4 -5.70849,0.02105 -2.69055,0.020345 -6.23649,0.019137 -7.88053,0.019137 -1.64443,-0.020345 -9.10446,7.058e-4 -16.57818,0.02105 -22.43663,0.026448 -25.82111,0.020902 -36.91675,-0.1377848 L 198.68868,4.26971 Z m -34.05006,5.0865541 c -0.4147,-0.00171 -0.54748,0.088161 -0.73486,0.355944 -0.26895,0.3838989 -0.25398,0.4508439 0.28515,1.1539479 0.31451,0.410143 0.90142,1.09524 1.30321,1.523287 l 0.73102,0.778866 0.0498,-1.752929 c 0.0305,-0.964122 0.011,-1.7976294 -0.044,-1.8505251 -0.0537,-0.05493 -0.53509,-0.1332145 -1.06974,-0.1779719 -0.21291,-0.017649 -0.38228,-0.030047 -0.52052,-0.030619 z m 35.72453,0 c -0.13822,5.722e-4 -0.30762,0.01297 -0.52052,0.030619 -0.53465,0.044757 -1.01625,0.123042 -1.06975,0.1779719 -0.055,0.052896 -0.0745,0.886403 -0.044,1.850525 l 0.0498,1.752929 0.73103,-0.778866 c 0.402,-0.428047 0.98869,-1.113144 1.30321,-1.523287 0.53913,-0.703104 0.556,-0.770049 0.28705,-1.1539478 -0.18752,-0.2677834 -0.32211,-0.3576606 -0.73676,-0.355944 z m -42.04732,0.1052523 -1.29938,0.2621738 c -1.50082,0.3039448 -1.74964,0.6577178 -0.90901,1.2898178 0.28218,0.212193 0.9198,0.810817 1.41804,1.330006 0.49823,0.519394 1.23163,1.117121 1.62854,1.328093 1.02028,0.541772 2.44759,0.473374 2.44759,-0.118649 0,-0.48318 -1.02211,-1.901978 -2.17585,-3.017869 l -1.10993,-1.0735726 z m 48.37011,0 -1.10802,1.0735726 c -1.15352,1.115891 -2.17777,2.534689 -2.17777,3.017869 0,0.592023 1.42733,0.660421 2.4476,0.118649 0.39692,-0.210972 1.13031,-0.808699 1.62854,-1.328093 0.49844,-0.519189 1.13584,-1.117813 1.41803,-1.330006 0.84042,-0.6321 0.59182,-0.985873 -0.90899,-1.2898178 L 206.68594,9.4615164 Z M 161.6839,9.5897327 c -0.1979,-0.00491 -0.42364,0.016187 -0.70806,0.049755 -1.50651,0.1772003 -1.40183,0.5557643 0.74634,2.6829763 l 1.75101,1.733792 1.1482,0 c 1.12807,0 1.14821,-0.0081 1.14821,-0.503298 0,-0.573916 -0.9309,-1.785338 -2.24474,-2.922185 -0.90634,-0.784734 -1.24725,-1.0263262 -1.84096,-1.041041 z m 41.63397,0 c -0.59363,0.014715 -0.93447,0.2563063 -1.84096,1.0410403 -1.31364,1.136847 -2.24475,2.348269 -2.24475,2.922185 0,0.495183 0.0204,0.503298 1.14821,0.503298 l 1.1482,0 1.75102,-1.733792 c 2.14817,-2.127212 2.25324,-2.505776 0.74633,-2.6829756 -0.28436,-0.033568 -0.51018,-0.05466 -0.70805,-0.049755 z m -50.11921,0.1186481 c -1.0866,0 -1.19796,0.035773 -1.19796,0.3712532 0,0.390613 1.1068,1.987985 1.8333,2.644702 0.23641,0.213616 0.7153,0.559751 1.06401,0.769298 0.63352,0.380441 2.59998,0.555489 2.77292,0.246864 0.19122,-0.341989 -0.50322,-1.338863 -1.82948,-2.627478 l -1.44483,-1.4046392 -1.19796,0 z m 57.40649,0 -1.44483,1.4046392 c -1.32625,1.288615 -2.02071,2.285489 -1.82947,2.627478 0.17292,0.308625 2.13959,0.133577 2.77292,-0.246864 0.3489,-0.209547 0.82779,-0.555682 1.06399,-0.769298 0.7267,-0.656717 1.83522,-2.254089 1.83522,-2.644702 0,-0.3354792 -0.11328,-0.3712532 -1.19987,-0.3712532 l -1.19796,0 z m -73.09099,0.019137 c -0.12733,-0.00536 -0.26038,0.00262 -0.41144,0.022964 -0.40404,0.054116 -0.85784,0.2224982 -1.01042,0.3750802 -0.24759,0.247592 -0.15814,0.40348 0.86498,1.507978 1.30388,1.407224 2.47985,2.019639 3.87711,2.03998 l 0.8822,0.02105 -0.10716,-0.543484 c -0.061,-0.299063 -0.061,-0.543484 0,-0.543484 0.0603,0 0.43533,0.291775 0.83245,0.65065 l 0,-0.01148 c 0.59955,0.543603 0.81438,0.635037 1.26686,0.543484 0.29988,-0.059 0.85928,-0.10908 1.24197,-0.10908 0.51695,0 0.74709,-0.09546 0.8956,-0.373166 0.17761,-0.332021 0.0266,-0.542782 -1.35106,-1.902195 l -1.55007,-1.529028 -1.36063,0 c -1.24548,0 -1.36254,0.03064 -1.36254,0.365512 0,0.201206 0.21537,0.711158 0.47842,1.132897 l 0.47842,0.767384 -0.65065,-0.662132 c -0.35745,-0.363351 -1.10934,-0.922652 -1.67064,-1.243891 -0.62971,-0.348803 -0.96142,-0.4929587 -1.3434,-0.5090372 z m 89.97153,0 c -0.38194,0.016078 -0.71383,0.1602332 -1.34339,0.5090372 -0.56151,0.321238 -1.3134,0.88054 -1.67065,1.243891 l -0.65064,0.662132 0.47841,-0.767384 c 0.26285,-0.42174 0.47842,-0.931691 0.47842,-1.132897 0,-0.334868 -0.11706,-0.365513 -1.36254,-0.365513 l -1.36062,0 -1.55008,1.529029 c -1.37793,1.359413 -1.52675,1.570174 -1.34914,1.902195 0.14851,0.2777 0.37844,0.373166 0.8956,0.373166 0.38268,0 0.94019,0.05008 1.24007,0.10908 0.45246,0.09155 0.66709,1.19e-4 1.26684,-0.543483 l 0.002,0.01148 c 0.39712,-0.358875 0.77223,-0.65065 0.83245,-0.65065 0.061,0 0.061,0.244421 0,0.543483 l -0.10908,0.543484 0.8822,-0.02105 c 1.39746,-0.02034 2.57323,-0.632757 3.87711,-2.03998 1.02292,-1.104498 1.11277,-1.260387 0.86498,-1.507978 -0.15258,-0.152583 -0.60658,-0.320965 -1.01042,-0.3750802 -0.15101,-0.020345 -0.28412,-0.028323 -0.41144,-0.022964 z m -77.03699,0.026792 c -0.0986,-0.00543 -0.20362,0.01042 -0.32915,0.03636 -0.31107,0.06571 -0.95227,0.164901 -1.42568,0.2239002 -0.47343,0.05859 -0.86116,0.180314 -0.86116,0.269829 0,0.268139 3.00454,3.211642 3.46758,3.396776 0.23497,0.09358 0.81448,0.161459 1.28791,0.1818 0.84018,0.0114 0.86115,0.0041 0.86115,-0.558793 0,-0.657735 -0.55353,-1.475542 -1.86392,-2.753782 -0.59935,-0.5857672 -0.84098,-0.779793 -1.13673,-0.7960907 z m 64.10628,0 c -0.29566,0.016298 -0.53929,0.2103242 -1.13864,0.7960902 -1.31058,1.27824 -1.86392,2.096047 -1.86392,2.753782 0,0.56293 0.0212,0.570186 0.86115,0.558793 0.47341,-0.02034 1.05313,-0.08821 1.28791,-0.1818 0.46324,-0.185134 3.46758,-3.128636 3.46758,-3.396776 0,-0.08951 -0.38604,-0.211237 -0.85924,-0.269829 -0.47341,-0.059 -1.11654,-0.158188 -1.4276,-0.2239 -0.12548,-0.02594 -0.22869,-0.041793 -0.32724,-0.03636 z m -89.1831,0.055497 c -0.18037,0.0092 -0.36698,0.04549 -0.56645,0.105252 -0.38899,0.1157592 -0.70615,0.2605902 -0.70615,0.3195842 2e-4,0.06714 -0.75436,0.07848 -1.67638,0.04592 -1.77728,-0.06328 -2.77684,0.160795 -2.61408,0.585586 0.16113,0.419704 -0.63146,0.11783 -1.27069,-0.484161 -0.49824,-0.4693442 -0.6721,-0.5300232 -1.25537,-0.4344042 -1.3999,0.2270432 -1.43386,0.8127002 -0.10334,1.8256482 0.40546,0.308829 1.09496,0.863645 1.53094,1.234321 0.74868,0.637594 0.8287,0.665105 1.47545,0.486074 0.37616,-0.103751 1.0142,-0.134239 1.41804,-0.06507 0.68156,0.114945 0.72877,0.09618 0.63725,-0.250693 -0.0942,-0.359286 -0.0633,-0.355637 0.79609,0.09377 0.75926,0.3957 1.03111,0.448219 1.81416,0.344462 0.8325,-0.110266 1.62233,-0.528807 1.28217,-0.679355 -0.0747,-0.03296 -0.40686,-0.405052 -0.73868,-0.828622 -0.68988,-0.881524 -0.48631,-1.060247 0.23347,-0.204764 0.80462,0.956187 1.70872,1.451423 2.97577,1.630453 1.33012,0.188593 1.70413,0.02886 1.33,-0.570276 -0.3249,-0.520207 -0.0582,-0.433593 0.8669,0.281311 0.74827,0.578189 0.89634,0.622465 1.79311,0.549225 1.62474,-0.133663 1.61904,-0.360131 -0.0421,-2.204556 -1.07093,-1.189335 -2.33771,-1.7707272 -3.4829,-1.5998342 -0.4429,0.06653 -0.80374,0.1992112 -0.80374,0.2927922 0,0.09358 -0.0821,0.120356 -0.1818,0.05933 -0.0996,-0.06104 -0.17988,-0.03259 -0.17988,0.06507 0,0.09725 0.0606,0.202708 0.13587,0.237295 0.0747,0.03357 0.33848,0.298284 0.5875,0.589413 l 0.45354,0.530088 -0.72529,-0.428664 c -0.39856,-0.235791 -0.96951,-0.610981 -1.26877,-0.834362 -0.68083,-0.5076442 -1.17356,-0.7184742 -1.71465,-0.6908382 z m 114.25801,0 c -0.54118,-0.02764 -1.03398,0.183194 -1.71466,0.6908372 -0.29927,0.223382 -0.87001,0.598572 -1.26876,0.834363 l -0.72528,0.428664 0.45354,-0.530088 c 0.24901,-0.291129 0.51263,-0.555845 0.5875,-0.589413 0.0753,-0.03459 0.13778,-0.140049 0.13778,-0.237296 0,-0.09766 -0.0822,-0.126102 -0.1818,-0.06507 -0.0997,0.06103 -0.1818,0.03425 -0.1818,-0.05933 0,-0.09358 -0.36105,-0.226266 -0.80374,-0.2927922 -1.1454,-0.170893 -2.41196,0.4104992 -3.48289,1.5998342 -1.66133,1.844425 -1.66492,2.070893 -0.0402,2.204556 0.89679,0.07324 1.04274,0.02896 1.79121,-0.549225 0.92526,-0.714904 1.19179,-0.801518 0.86689,-0.281312 -0.37414,0.599143 -1.2e-4,0.758869 1.33,0.570277 1.26706,-0.179031 2.17136,-0.674266 2.97577,-1.630454 0.71979,-0.855482 0.92355,-0.676759 0.23348,0.204764 -0.33161,0.423571 -0.66402,0.795665 -0.73868,0.828623 -0.33995,0.150548 0.44945,0.569089 1.28216,0.679355 0.78305,0.103757 1.05662,0.05123 1.81608,-0.344462 0.85935,-0.449408 0.88837,-0.453056 0.79417,-0.09377 -0.0915,0.346873 -0.0441,0.365638 0.63726,0.250692 0.40405,-0.06917 1.04186,-0.03868 1.41803,0.06507 0.64675,0.179031 0.72848,0.15152 1.47736,-0.486074 0.43578,-0.370676 1.12357,-0.925492 1.52903,-1.234321 1.33052,-1.012948 1.29827,-1.598605 -0.10143,-1.8256482 -0.58347,-0.09562 -0.75925,-0.03494 -1.25728,0.4344042 -0.63922,0.601991 -1.43181,0.903865 -1.27068,0.484161 0.16276,-0.424792 -0.8368,-0.648857 -2.61408,-0.585586 -0.92181,0.03255 -1.67639,0.0212 -1.67639,-0.04592 2.1e-4,-0.05899 -0.31716,-0.203825 -0.70614,-0.3195842 -0.19953,-0.05976 -0.38606,-0.09604 -0.56645,-0.105252 z m -105.53356,0.07846 c -0.86382,0 -1.8467,0.4014192 -1.8467,0.7539882 0,0.182896 0.0715,0.33298 0.15693,0.33298 0.0856,0 0.43137,0.30135 0.7693,0.669787 0.33791,0.368234 0.962,1.019793 1.38741,1.448654 0.67422,0.67991 0.87314,0.78078 1.55773,0.78078 0.43171,0 1.04068,-0.0912 1.35297,-0.199022 0.50739,-0.177403 0.5467,-0.237371 0.3636,-0.587499 -0.72548,-1.382606 -2.85016,-3.1996682 -3.74124,-3.1996682 z m 96.80911,0 c -0.89108,0 -3.01575,1.8170622 -3.74124,3.1996682 -0.1831,0.350128 -0.14399,0.410096 0.3636,0.587499 0.31229,0.107825 0.92125,0.199022 1.35297,0.199022 0.68458,0 0.88372,-0.10087 1.55773,-0.78078 0.4254,-0.428861 1.0497,-1.08042 1.38742,-1.448654 0.33813,-0.368437 0.68384,-0.669787 0.76929,-0.669787 0.0875,0 0.15692,-0.150084 0.15692,-0.33298 0,-0.352569 -0.98266,-0.7539882 -1.84669,-0.7539882 z M 145.09806,10.07198 c -0.73851,0.0021 -1.25399,0.06454 -1.1482,0.137785 0.1066,0.07324 0.53693,0.601488 0.95683,1.174997 0.41992,0.573509 1.17669,1.368184 1.68022,1.766324 0.85284,0.675031 0.99523,0.72337 2.07634,0.72337 0.83778,0 1.16159,-0.0664 1.16159,-0.237296 0,-0.471786 -1.66437,-2.464577 -2.51456,-3.010214 -0.77248,-0.495992 -1.01882,-0.554966 -2.21222,-0.554966 z m 74.80565,0 c -1.19321,0 -1.43993,0.05897 -2.21221,0.554966 -0.8502,0.545637 -2.51458,2.538427 -2.51458,3.010214 0,0.170894 0.32403,0.237296 1.16161,0.237296 1.08131,0 1.2235,-0.04834 2.07634,-0.72337 0.50353,-0.39814 1.2603,-1.192815 1.6802,-1.766324 0.42012,-0.573509 0.85022,-1.101757 0.95685,-1.174997 0.10578,-0.07324 -0.40951,-0.135751 -1.14821,-0.137785 z m -109.74365,0.225813 c -0.20681,0.0077 -0.46358,0.02881 -0.79993,0.05933 -0.82984,0.07528 -1.40013,0.207208 -1.37975,0.327239 0.004,0.110674 0.49361,0.569686 1.08888,1.018076 0.59549,0.448391 1.37883,1.038744 1.73953,1.312783 0.67361,0.511255 1.40051,0.619627 2.57582,0.384649 0.39508,-0.07893 0.56644,-0.216612 0.56644,-0.455455 0,-0.3131 0.09,-0.296734 1.04295,0.195195 0.57311,0.295808 1.1265,0.525058 1.23433,0.545398 0.449,0.02014 1.89071,-0.586542 1.89071,-0.796089 0,-0.124915 -0.38775,-0.476716 -0.86116,-0.782695 -0.47321,-0.30598 -1.21861,-0.809083 -1.65723,-1.115673 -0.71735,-0.502916 -0.93379,-0.556881 -2.15099,-0.556881 -1.33909,0 -1.35229,0.0052 -1.26685,0.445887 l 0.0842,0.443973 -0.75973,-0.545397 c -0.55264,-0.397479 -0.72679,-0.503554 -1.34722,-0.480334 z m 144.68165,0 c -0.62044,-0.02322 -0.79442,0.08285 -1.34723,0.480334 l -0.75973,0.545397 0.0842,-0.443973 c 0.0854,-0.440661 0.072,-0.445887 -1.26685,-0.445887 -1.21742,0 -1.43172,0.05397 -2.14906,0.556881 -0.43863,0.30659 -1.18574,0.809693 -1.65916,1.115673 -0.47321,0.30598 -0.86115,0.65778 -0.86115,0.782695 0,0.209547 1.4417,0.816231 1.89071,0.796089 0.10772,-0.02032 0.66181,-0.25001 1.23432,-0.545398 0.95314,-0.491929 1.04295,-0.508295 1.04295,-0.195195 0,0.238843 0.17137,0.376518 0.56646,0.455455 1.17529,0.234978 1.9024,0.126606 2.5758,-0.384649 0.36091,-0.274039 1.14426,-0.864392 1.73953,-1.312783 0.59549,-0.44839 1.08482,-0.907402 1.08889,-1.018076 0.0204,-0.120031 -0.54991,-0.251965 -1.37976,-0.327239 -0.33635,-0.03052 -0.5931,-0.05159 -0.79992,-0.05933 z M 105.3529,10.433664 c -1.43509,0 -1.5448,0.261289 -0.41527,0.995112 0.42336,0.275056 0.93352,0.643972 1.1329,0.820968 0.19938,0.17598 0.68601,0.490656 1.08314,0.700406 l 0,0.002 c 0.94804,0.499863 2.87017,0.550814 2.77866,0.07272 -0.0665,-0.345244 -1.69923,-1.683065 -2.72317,-2.231347 -0.47422,-0.254102 -1.0203,-0.359772 -1.85626,-0.359772 z m 154.29597,0 c -0.83595,0 -1.38205,0.10567 -1.85627,0.359772 -1.02393,0.548282 -2.65664,1.886103 -2.72317,2.231347 -0.0915,0.478095 1.83062,0.427144 2.77867,-0.07272 l 0,-0.002 c 0.39712,-0.20975 0.88396,-0.524426 1.08314,-0.700406 0.19937,-0.176996 0.70952,-0.545912 1.13289,-0.820968 1.12952,-0.733823 1.01983,-0.995112 -0.41526,-0.995112 z m -161.548803,0.01722 c -0.853647,0 -1.919328,0.277907 -2.082084,0.541571 -0.07303,0.117998 -0.51893,0.03781 -1.232409,-0.221987 -1.093309,-0.39855 -1.135402,-0.400888 -2.005533,-0.09186 -0.804621,0.286449 -0.950237,0.289775 -1.538596,0.04401 -0.664856,-0.278719 -3.197959,-0.385498 -3.197755,-0.135872 0,0.07527 -0.815782,0.12368 -1.812252,0.103339 -2.106461,-0.03743 -2.238849,0.09941 -0.997026,1.029558 0.44839,0.336089 0.815226,0.642617 0.815226,0.68127 0,0.03886 -0.468141,-0.193135 -1.04104,-0.51478 -2.291391,-1.277023 -2.55751,-1.38495 -3.546044,-1.297473 -0.573713,0.05025 -1.028639,0.195808 -1.173085,0.378908 -0.215243,0.273632 -0.293375,0.265627 -0.970234,-0.105252 -0.54584,-0.299674 -0.822682,-0.356017 -1.067832,-0.225814 -0.181675,0.09765 -0.662774,0.176059 -1.067831,0.176059 -0.845108,0 -0.979768,0.325847 -0.329153,0.794176 0.357044,0.248408 0.324145,0.246274 -0.271743,-0.02106 -0.485415,-0.217889 -0.616296,-0.350973 -0.453541,-0.466937 0.145463,-0.103751 0.0559,-0.12646 -0.250692,-0.05933 -0.263663,0.05697 -0.811228,-0.01451 -1.217098,-0.156921 -0.518376,-0.183103 -1.001684,-0.216306 -1.622798,-0.118649 -0.486435,0.07935 -1.058897,0.07731 -1.270682,0 -0.211785,-0.07731 -1.0585,-0.065 -1.883059,0.03062 -0.824558,0.09358 -1.566418,0.172231 -1.645762,0.172231 -0.08544,8.14e-4 -0.09225,0.09645 -0.02105,0.212418 0.09277,0.150547 0.02951,0.168822 -0.216245,0.06507 -0.573306,-0.2421 -3.517339,-0.347855 -3.517339,-0.126304 0,0.191441 -0.929648,-0.03265 -1.358711,-0.327238 -0.09969,-0.06917 -0.812251,-0.08877 -1.584524,-0.04401 -1.040007,0.05899 -1.40464,0.143898 -1.40464,0.331067 0,0.137935 -0.01757,0.248778 -0.04401,0.248778 -0.02482,-8.14e-4 -0.446707,-0.121316 -0.935788,-0.269829 -1.088222,-0.329787 -2.041204,-0.340872 -2.642787,-0.03062 -0.311677,0.160727 -0.678474,0.185924 -1.176912,0.0842 -0.39875,-0.09358 -1.336541,-0.09644 -2.083995,-0.01914 l -1.35871,0.137783 0.905169,0.304275 c 0.498234,0.167435 0.80525,0.295417 0.683183,0.315757 -0.122474,0.0061 -0.828965,-0.19284 -1.571129,-0.442059 -1.283326,-0.430691 -3.153078,-0.607095 -3.435052,-0.325325 -0.06917,0.06917 -2.794275,0.149488 -6.054874,0.177971 -9.409496,0.08342 -10.406629,0.07996 -11.321314,-0.0421 -1.043668,-0.13997 -3.369798,0.09869 -2.673408,0.273656 0.247185,0.06714 -0.648999,0.08254 -1.992138,0.04592 -2.095474,-0.05899 -13.681603,-0.02564 -18.7502098,0.05166 -0.8967818,0.01425 -3.0085119,0.03899 -4.6942502,0.05933 -5.4818026,0.05961 -3.02352765,0.244917 4.0933556,0.310015 3.8190534,0.03459 7.8167154,0.122194 8.8852034,0.191368 1.356565,0.08952 2.018233,0.0679 2.19116,-0.07655 0.136308,-0.128166 0.291449,-0.160065 0.346376,-0.107166 0.05391,0.0529 1.188365,0.142057 2.520314,0.199023 2.675492,0.124098 2.460957,0.123678 4.86648,0.103338 0.946626,-2.04e-4 2.211356,0 2.809279,0 0.597922,0 1.413705,2.02e-4 1.812252,0 0.398547,0 1.010007,0 1.358711,0 0.348907,0 1.693631,-7.1e-4 2.989164,-0.02105 1.295328,-0.01018 3.409259,0.0239 4.698077,0.07272 1.769151,0.06693 2.379834,0.03131 2.489695,-0.141612 0.08952,-0.140378 0.147352,-0.150772 0.147352,-0.02871 0.0017,0.13468 0.795963,0.213004 2.403579,0.235382 1.320352,0.0179 2.71683,0.118351 3.103985,0.220073 0.749284,0.198764 2.486842,0.04818 2.663838,-0.231555 0.06428,-0.09766 0.423293,-0.09085 0.907083,0.02106 0.956391,0.221752 2.881999,0.252303 2.881999,0.04784 0,-0.07975 -0.09622,-0.241653 -0.216245,-0.361686 -0.168659,-0.168658 -0.158,-0.218159 0.05358,-0.218159 0.149532,0 0.350268,0.08044 0.445887,0.176058 0.09562,0.09541 0.686296,0.30239 1.310869,0.463111 0.924451,0.235994 1.315395,0.252697 2.103131,0.08995 0.817845,-0.170692 1.068075,-0.154916 1.605575,0.101424 0.713682,0.339954 2.143465,0.236317 2.537536,-0.185627 0.165604,-0.177 0.338625,-0.191925 0.675528,-0.05358 0.531804,0.217684 3.624302,0.287971 3.624505,0.08229 0,-0.07691 0.239938,-0.01479 0.533916,0.137784 0.342804,0.176589 1.032567,0.27557 1.923245,0.27557 1.363688,0 1.388415,-0.0068 1.307042,-0.430577 l -0.08037,-0.430578 1.065919,0.359771 c 1.349649,0.455715 2.772044,0.329054 2.625565,-0.233468 -0.0767,-0.29296 -0.03807,-0.317521 0.258346,-0.158836 0.19205,0.102943 0.314462,0.244669 0.271743,0.313844 -0.04313,0.06916 0.09729,0.13658 0.311929,0.156921 0.214633,0.01627 1.070313,0.08943 1.902196,0.162663 1.087816,0.09562 1.550267,0.07221 1.643848,-0.08037 0.09826,-0.159499 0.298096,-0.143346 0.792263,0.06315 0.836155,0.349723 3.027436,0.380429 3.027436,0.0421 0,-0.129391 -0.101712,-0.340682 -0.225813,-0.468851 -0.124507,-0.12756 0.250968,-0.02177 0.836277,0.235382 0.848971,0.371895 1.353745,0.468851 2.491608,0.468851 0.784887,0 1.427603,-0.07661 1.427603,-0.172231 0,-0.09521 0.303632,-0.04362 0.675527,0.110993 0.472194,0.199372 0.959647,0.249537 1.615145,0.172231 1.443842,-0.169673 1.588795,-0.258595 1.104191,-0.683182 l -0.405699,-0.354031 0.486073,0.294707 c 1.009083,0.614199 3.399405,1.013874 4.206263,0.704233 0.240675,-0.09196 0.222935,-0.161593 -0.118648,-0.443973 -0.39875,-0.33039 -0.392023,-0.332002 0.49947,-0.09377 0.498235,0.133053 1.135572,0.332079 1.416122,0.443974 0.77736,0.308418 2.118443,0.264552 2.118443,-0.06889 0,-0.357044 0.118576,-0.33678 1.086964,0.181799 l 0,0.01723 c 0.918967,0.492132 1.326057,0.540765 2.147147,0.25452 0.79405,-0.276685 0.73751,-0.772144 -0.155,-1.362539 -0.39856,-0.263866 -0.72529,-0.512485 -0.72529,-0.551139 0,-0.157466 1.23473,0.567649 2.13375,1.253459 l 0.95684,0.729111 1.21709,-0.13013 c 0.67014,-0.0712 1.32073,-0.127013 1.44483,-0.147354 0.3778,-0.02706 0.25041,-0.191349 -0.82479,-1.06209 -1.63427,-1.323405 -2.33728,-1.611317 -3.94409,-1.611317 -1.372025,0 -1.386595,0.0042 -1.30321,0.440146 l 0.0861,0.44206 -0.650647,-0.44206 c -0.421531,-0.286245 -0.904025,-0.440146 -1.377848,-0.440146 z m 165.552213,0 c -1.60681,0 -2.30983,0.287912 -3.94409,1.611317 -1.0752,0.870741 -1.20259,1.035032 -0.8248,1.062091 0.12411,0.02034 0.77489,0.07615 1.44483,0.147353 l 1.2171,0.13013 0.95684,-0.729111 c 0.89903,-0.68581 2.13375,-1.410925 2.13375,-1.253458 0,0.03865 -0.32694,0.287272 -0.72529,0.551139 -0.8927,0.590394 -0.94904,1.085853 -0.155,1.362538 0.8211,0.286245 1.22819,0.237612 2.14715,-0.25452 l 0.004,-0.01723 c 0.9684,-0.518579 1.08697,-0.538843 1.08697,-0.181799 0,0.333445 1.34088,0.377311 2.11844,0.06889 0.28035,-0.111895 0.91788,-0.31092 1.41612,-0.443974 0.8915,-0.238231 0.89802,-0.236619 0.49947,0.09377 -0.34158,0.28238 -0.3592,0.352016 -0.12056,0.443973 0.80686,0.309641 3.19719,-0.09003 4.20627,-0.704233 l 0.48607,-0.294707 -0.40379,0.354031 c -0.48481,0.424587 -0.34116,0.51351 1.10228,0.683182 0.6557,0.07731 1.14295,0.02714 1.61514,-0.172231 0.3719,-0.154617 0.67553,-0.206204 0.67553,-0.110993 0,0.09562 0.64292,0.172231 1.4276,0.172231 1.13807,0 1.64263,-0.09695 2.49161,-0.468851 0.58551,-0.257153 0.9629,-0.362942 0.83819,-0.235382 -0.1241,0.128169 -0.22772,0.33946 -0.22772,0.468851 0,0.338328 2.19127,0.307622 3.02743,-0.0421 0.49416,-0.206496 0.69401,-0.222649 0.79227,-0.06315 0.0936,0.152582 0.55603,0.175992 1.64384,0.08037 0.83188,-0.07324 1.68737,-0.146388 1.9022,-0.162663 0.21443,-0.02034 0.35506,-0.08775 0.31193,-0.156921 -0.0427,-0.06917 0.0797,-0.210901 0.27174,-0.313844 0.29642,-0.158685 0.33695,-0.134124 0.26026,0.158836 -0.14649,0.562522 1.27421,0.689183 2.62365,0.233468 l 1.06592,-0.359771 -0.0823,0.430578 c -0.0813,0.423774 -0.0566,0.430577 1.30704,0.430577 0.89068,0 1.58044,-0.09898 1.92325,-0.27557 0.29417,-0.152583 0.53371,-0.214686 0.53391,-0.137784 2.1e-4,0.205682 3.09291,0.135395 3.62451,-0.08229 0.3371,-0.138342 0.50992,-0.123417 0.67552,0.05359 0.39428,0.421943 1.82387,0.52558 2.53755,0.185626 0.5377,-0.25634 0.78793,-0.272116 1.60557,-0.101424 0.78814,0.162754 1.1808,0.146051 2.10505,-0.08995 0.62478,-0.160721 1.21333,-0.367696 1.30894,-0.463111 0.0956,-0.09562 0.29637,-0.176058 0.44589,-0.176058 0.21118,0 0.22392,0.0495 0.0555,0.218159 -0.12003,0.120033 -0.21815,0.281936 -0.21815,0.361686 0,0.204461 1.92751,0.17391 2.88391,-0.04784 0.48358,-0.111894 0.84107,-0.118708 0.90516,-0.02106 0.17699,0.279737 1.91476,0.43032 2.66384,0.231555 0.38735,-0.101722 1.78343,-0.20217 3.10398,-0.220073 1.60762,-0.02238 2.40177,-0.100702 2.40359,-0.235382 0,-0.122066 0.0598,-0.111672 0.14926,0.02871 0.10986,0.172929 0.71842,0.208545 2.48778,0.141613 1.28881,-0.04882 3.40255,-0.0829 4.69809,-0.07272 1.29512,0.02034 2.64237,0.02105 2.99107,0.02105 0.3487,0 0.96017,0 1.35871,0 0.39855,2.03e-4 1.21262,0 1.81034,0 0.59793,0 1.86244,-2.04e-4 2.80927,0 2.40532,0.02034 2.19331,0.02076 4.8684,-0.103338 1.33215,-0.05697 2.4647,-0.146127 2.51841,-0.199023 0.055,-0.0529 0.20965,-0.021 0.34637,0.107166 0.17293,0.144446 0.83459,0.166065 2.19116,0.07655 1.06848,-0.06917 5.06826,-0.156782 8.88711,-0.191368 7.11709,-0.0651 9.57497,-0.250406 4.09336,-0.310015 -1.68573,-0.02034 -3.79917,-0.04508 -4.69616,-0.05933 -5.06861,-0.07731 -16.65283,-0.110667 -18.7483,-0.05166 -1.34355,0.03661 -2.24123,0.0212 -1.99405,-0.04592 0.69619,-0.174962 -1.62804,-0.413625 -2.6715,-0.273656 -0.91468,0.122066 -1.91373,0.125516 -11.32323,0.0421 -3.26059,-0.02848 -5.98358,-0.1088 -6.05295,-0.177971 -0.28177,-0.28177 -2.15174,-0.105366 -3.43505,0.325325 -0.74218,0.24922 -1.45057,0.448163 -1.57305,0.442059 -0.12207,-0.02034 0.18516,-0.148322 0.68319,-0.315757 l 0.90708,-0.304274 -1.35871,-0.137784 c -0.74725,-0.07731 -1.68544,-0.07445 -2.08399,0.01914 -0.49845,0.101722 -0.86736,0.07652 -1.17883,-0.0842 -0.60179,-0.310252 -1.55498,-0.299168 -2.6428,0.03062 -0.48928,0.148514 -0.90905,0.269016 -0.93387,0.269829 -0.0265,0 -0.046,-0.110843 -0.046,-0.248778 0,-0.187169 -0.36463,-0.272068 -1.40463,-0.331067 -0.77227,-0.04476 -1.48505,-0.02516 -1.58453,0.04401 -0.42948,0.294588 -1.35871,0.518679 -1.35871,0.327239 0,-0.221551 -2.94363,-0.115796 -3.51734,0.126303 -0.24536,0.103756 -0.30901,0.08548 -0.21624,-0.06507 0.0712,-0.115962 0.0644,-0.211604 -0.0211,-0.212418 -0.0794,0 -0.8212,-0.07865 -1.64575,-0.172231 -0.82456,-0.09562 -1.67128,-0.107923 -1.88306,-0.03062 -0.21179,0.07731 -0.78404,0.07934 -1.27068,0 -0.62112,-0.09766 -1.10463,-0.06445 -1.6228,0.118648 -0.40587,0.14241 -0.95363,0.213886 -1.2171,0.156921 -0.30659,-0.06714 -0.39595,-0.04442 -0.25069,0.05933 0.16275,0.115964 0.0316,0.249048 -0.45354,0.466937 -0.5961,0.267325 -0.62879,0.269459 -0.27175,0.02106 0.65082,-0.468329 0.51576,-0.794176 -0.32915,-0.794176 -0.40505,0 -0.88616,-0.0784 -1.06784,-0.176059 -0.24515,-0.130203 -0.52219,-0.07386 -1.06782,0.225814 -0.67707,0.370879 -0.755,0.378884 -0.97024,0.105252 -0.14445,-0.1831 -0.59937,-0.328657 -1.17308,-0.378908 -0.98853,-0.08748 -1.25466,0.02045 -3.54605,1.297473 -0.5729,0.321645 -1.04104,0.553638 -1.04104,0.51478 0,-0.03865 0.36683,-0.345181 0.81523,-0.68127 1.24162,-0.930147 1.10943,-1.066991 -0.99703,-1.029558 -0.99647,0.02034 -1.81246,-0.02806 -1.81225,-0.103339 0,-0.249626 -2.5329,-0.142847 -3.19775,0.135872 -0.58816,0.245761 -0.73378,0.242434 -1.5386,-0.04401 -0.87013,-0.309032 -0.91243,-0.306694 -2.00554,0.09186 -0.71368,0.259798 -1.15916,0.339985 -1.2324,0.221988 -0.16276,-0.263664 -1.22822,-0.541572 -2.08208,-0.541572 -0.47383,0 -0.95631,0.153901 -1.37785,0.440146 l -0.64874,0.44206 0.0842,-0.44206 c 0.0834,-0.435981 0.0667,-0.440146 -1.30322,-0.440146 z M 92.523609,11.338835 c 0.09521,0 0.320317,0.164224 0.501382,0.363599 l 0,0.01339 c 0.41462,0.443716 0.306911,0.440361 -0.246864,-0.02105 -0.234168,-0.19551 -0.350137,-0.355945 -0.254518,-0.355945 z m 179.954551,0 c 0.0956,0 -0.0202,0.160435 -0.25452,0.355945 -0.55377,0.461411 -0.66128,0.464766 -0.24687,0.02105 l 0,-0.01339 c 0.18107,-0.199375 0.40618,-0.363599 0.50139,-0.363599 z m -203.821934,0.01148 c 0.149328,-0.0019 0.476268,0.156809 0.725283,0.352116 0.569644,0.445339 0.450178,0.445339 -0.363599,0 -0.341789,-0.190017 -0.512233,-0.352116 -0.361684,-0.352116 z m 227.689314,0 c 0.15055,0 -0.0197,0.162099 -0.36168,0.352116 -0.81337,0.445339 -0.93304,0.445339 -0.3636,0 0.24922,-0.195307 0.57576,-0.353948 0.72528,-0.352116 z M 57.696596,11.968437 c 0.03054,-0.01297 0.08996,-0.0047 0.170317,0.02679 0.154821,0.05899 0.28131,0.139319 0.28131,0.177972 0,0.146683 -0.345836,0.06577 -0.451627,-0.107166 -0.03164,-0.05086 -0.03054,-0.08463 0,-0.0976 z m 249.608574,0 c 0.0306,0.01297 0.0335,0.04674 0.002,0.0976 -0.10579,0.172927 -0.45163,0.253849 -0.45163,0.107166 0,-0.03865 0.12458,-0.118973 0.2794,-0.177972 0.0803,-0.03154 0.13977,-0.03976 0.17031,-0.02679 z m -191.35815,4.328737 c -1.31148,0.0028 -2.86522,0.03877 -4.80333,0.110994 -7.7382,0.286857 -10.21868,0.303541 -17.575214,0.122476 -4.840139,-0.117994 -7.633105,-0.100329 -10.827586,0.07463 -3.558035,0.179035 -4.949073,0.180239 -8.025963,-0.01913 -3.155826,-0.199789 -4.236882,-0.198552 -7.10931,0.01913 -2.522302,0.179035 -6.050466,0.241742 -13.807182,0.199023 -9.626773,-0.05391 -18.638721,0.117531 -36.50722,0.690837 -9.0768647,0.291332 -11.1946653,0.409556 -10.1463176,0.570277 3.1845116,0.488672 30.1116226,1.313336 38.4113306,1.174997 3.288471,-0.0529 7.201044,-0.0352 8.695749,0.0421 l 0,-0.002 c 3.693325,0.191238 21.966367,0.07466 28.481258,-0.183713 3.563325,-0.142414 7.612374,-0.160925 12.410198,-0.06124 6.142377,0.128985 24.745157,0.279478 41.909537,0.342549 2.79043,0.01221 8.70101,-0.02199 13.13548,-0.07081 4.43448,-0.05086 9.87518,-0.01692 12.09252,0.07463 l 4.03212,0.164575 0,-2.539449 -2.47438,-0.116734 c -1.36105,-0.0651 -4.94025,-0.118649 -7.95325,-0.118649 -3.01301,0 -6.32239,-0.08749 -7.35426,-0.193281 -1.45992,-0.150955 -3.16288,-0.124919 -7.67385,0.112907 -5.01368,0.264481 -6.67976,0.276629 -12.32025,0.0976 -3.58733,-0.114539 -7.74644,-0.294168 -9.24115,-0.399958 -0.969,-0.06307 -2.03746,-0.09465 -3.34893,-0.09186 z m 133.10773,0 c -1.31151,-0.0028 -2.38003,0.02879 -3.34894,0.09186 -1.4947,0.10579 -5.65362,0.285419 -9.24115,0.399958 -5.64028,0.179032 -7.30677,0.166884 -12.32025,-0.0976 -4.51118,-0.237827 -6.21393,-0.263862 -7.67385,-0.112907 -1.03207,0.105792 -4.34125,0.193281 -7.35426,0.193281 -3.01301,0 -6.59219,0.05355 -7.95323,0.118648 l -2.47439,0.116735 0,2.539449 4.03212,-0.164576 c 2.21713,-0.09155 7.65806,-0.125494 12.09253,-0.07463 4.43427,0.04882 10.34544,0.08302 13.13548,0.07081 17.16458,-0.06307 35.76734,-0.213564 41.90953,-0.342549 4.79802,-0.09969 8.84687,-0.08118 12.41019,0.06124 6.5149,0.258374 24.78773,0.374951 28.48126,0.183713 l 0,0.002 c 1.4947,-0.07731 5.4092,-0.095 8.69766,-0.0421 8.29992,0.138342 35.2247,-0.686325 38.40943,-1.174998 1.04834,-0.160721 -1.06946,-0.278944 -10.14632,-0.570276 -17.8685,-0.573306 -26.88005,-0.74475 -36.50723,-0.690837 -7.75651,0.04272 -11.28316,-0.01999 -13.80526,-0.199023 -2.87243,-0.217685 -3.95541,-0.218922 -7.11123,-0.01913 -3.07668,0.199375 -4.46792,0.198171 -8.02596,0.01913 -3.19448,-0.174961 -5.98745,-0.192626 -10.82758,-0.07463 -7.35675,0.181065 -9.83721,0.164381 -17.57522,-0.122476 -1.9381,-0.07222 -3.49183,-0.108197 -4.80333,-0.110994 z" />
</svg>
