<?xml version="1.0" standalone="no"?>
<!DOCTYPE svg PUBLIC "-//W3C//DTD SVG 20010904//EN"
 "http://www.w3.org/TR/2001/REC-SVG-20010904/DTD/svg10.dtd">
<svg version="1.0" xmlns="http://www.w3.org/2000/svg"
 width="512.000000pt" height="512.000000pt" viewBox="0 0 512.000000 512.000000"
 preserveAspectRatio="xMidYMid meet">
<metadata>
Created by potrace 1.11, written by Peter Selinger 2001-2013
</metadata>
<g transform="translate(0.000000,512.000000) scale(0.100000,-0.100000)"
fill="#000000" stroke="none">
<path d="M88 4479 c-8 -5 -13 -258 -9 -442 l1 -28 68 1 c37 1 72 1 79 1 9 -1
11 -201 8 -883 -1 -486 -5 -892 -8 -903 -2 -11 -8 -38 -12 -60 -27 -133 -96
-196 -180 -161 l-35 15 0 -215 0 -215 37 -16 c78 -32 231 -5 327 58 54 36 116
109 152 180 27 54 70 194 79 260 3 24 8 51 10 59 14 57 18 266 19 1022 1 471
5 860 9 865 8 8 20 9 107 12 l40 1 0 225 c0 173 -3 225 -12 226 -58 5 -672 3
-680 -2z"/>
<path d="M844 4481 c-2 -2 -4 -105 -4 -228 l0 -225 45 3 c24 2 47 0 51 -4 6
-6 6 -192 -1 -1061 -3 -415 1 -390 -67 -401 l-38 -7 0 -219 c0 -120 1 -219 3
-219 1 0 36 9 77 21 41 11 82 22 90 24 8 2 161 41 340 88 179 47 358 93 398
103 l72 18 0 369 c0 346 -1 368 -17 363 -10 -3 -34 -7 -53 -10 -72 -9 -145
-20 -152 -22 -5 -1 -19 -2 -33 -3 l-25 -1 -2 -177 -3 -177 -128 -32 -128 -32
5 247 c3 135 5 260 5 276 1 22 6 31 19 31 21 1 113 12 202 24 36 5 71 10 78
10 9 0 12 47 12 204 l0 203 -37 -3 c-21 -2 -59 -5 -84 -8 -25 -3 -78 -8 -118
-12 l-71 -6 0 211 c0 116 3 211 8 212 4 0 62 3 130 5 l122 5 0 -125 c0 -94 3
-126 13 -127 14 -1 90 2 127 6 14 1 51 3 83 3 l57 2 0 335 c0 184 -3 335 -7
336 -31 3 -966 3 -969 0z"/>
<path d="M2652 4475 c-6 -10 -8 -25 -16 -140 -2 -33 -5 -67 -6 -75 -1 -8 -11
8 -24 36 -53 115 -138 173 -268 181 -126 8 -208 -24 -290 -115 -100 -111 -147
-269 -142 -482 3 -135 25 -236 70 -329 67 -136 146 -203 364 -309 116 -56 149
-76 163 -101 40 -68 1 -173 -77 -210 -70 -34 -135 -22 -187 35 -30 33 -59 112
-59 161 0 18 -3 33 -7 33 -5 0 -48 -7 -98 -15 -49 -8 -110 -17 -134 -20 -23
-3 -46 -7 -51 -10 -4 -2 -7 -167 -8 -365 l0 -360 26 6 c15 3 52 12 82 19 30 7
81 18 114 26 32 7 60 17 61 23 4 12 14 145 15 190 l0 29 34 -44 c39 -51 111
-94 176 -104 272 -43 458 78 535 351 24 84 30 327 10 413 -33 140 -111 251
-228 326 -32 20 -106 59 -165 87 -170 80 -218 123 -229 204 -10 76 45 165 104
169 35 3 91 -19 121 -48 48 -44 92 -161 92 -243 l0 -41 148 1 147 1 1 358 c0
235 -3 360 -10 365 -17 10 -257 8 -264 -3z"/>
<path d="M3363 4479 c-169 -31 -290 -173 -328 -384 -11 -60 -6 -223 9 -294 24
-114 75 -210 156 -291 42 -42 130 -95 262 -159 153 -74 188 -102 188 -153 0
-129 -207 -165 -289 -49 -27 38 -51 105 -51 143 l0 30 -67 -7 c-37 -4 -70 -8
-73 -10 -3 -1 -30 -6 -60 -9 -81 -10 -89 -11 -97 -20 -4 -4 -8 -156 -8 -337
l0 -330 30 5 c17 3 48 8 70 11 22 4 51 8 65 11 14 2 45 7 70 10 25 3 46 7 47
8 3 2 16 152 17 184 0 30 13 28 31 -7 41 -81 160 -134 287 -130 233 7 407 146
458 366 15 66 19 193 8 258 -35 204 -137 323 -367 431 -185 86 -238 119 -265
165 -38 64 -11 170 49 197 110 50 233 -70 247 -243 l4 -40 147 -3 147 -3 0
326 c0 179 -3 325 -7 326 -5 0 -68 1 -141 2 -126 2 -132 1 -133 -18 0 -11 -2
-31 -4 -45 -2 -14 -5 -53 -6 -87 -2 -35 -5 -63 -6 -63 -1 0 -9 13 -18 30 -50
96 -153 165 -265 176 -25 3 -49 6 -55 8 -5 1 -29 -1 -52 -5z"/>
<path d="M4163 4482 c-23 -3 -23 -4 -23 -183 l0 -179 50 4 c45 2 50 1 51 -18
0 -26 0 -954 0 -978 -1 -15 -10 -18 -51 -18 l-50 0 0 -166 0 -165 98 6 c53 3
129 8 167 10 183 11 264 16 310 20 28 2 100 7 160 11 61 4 126 8 145 9 19 2
50 3 68 4 l32 1 0 276 0 275 -136 -3 c-75 -2 -138 -6 -141 -11 -2 -4 -4 -58
-4 -120 l1 -114 -58 -2 c-31 -1 -89 -4 -129 -7 l-72 -4 -3 57 c-2 32 -2 124 0
204 l3 147 152 -1 152 -1 2 157 3 157 -154 0 c-134 0 -155 2 -158 16 -2 9 -1
73 2 142 l5 126 127 4 127 3 0 -81 c0 -45 2 -85 6 -88 4 -4 67 -7 141 -8 l134
0 0 258 c0 142 -3 258 -7 259 -25 3 -932 3 -950 1z"/>
<path d="M1140 2080 l0 -106 45 1 c24 1 46 -3 48 -9 2 -6 3 -207 2 -446 -1
-472 -5 -513 -55 -552 -18 -14 -34 -18 -58 -14 l-32 5 1 -105 1 -104 31 -8
c36 -10 85 -6 137 10 92 28 159 114 187 239 13 62 16 149 17 529 l1 455 35 1
c19 1 40 2 47 3 8 1 11 32 10 104 l-2 102 -207 1 -208 1 0 -107z"/>
<path d="M1720 2083 c0 -96 1 -103 20 -103 11 0 20 -6 20 -12 0 -17 -142 -682
-147 -688 -2 -2 -19 -3 -39 -2 l-35 3 3 -113 3 -112 65 -2 c36 -2 113 -5 173
-7 l107 -5 1 36 c1 53 1 164 0 183 -1 12 -9 16 -30 14 -48 -4 -54 5 -39 65
l13 53 75 -2 c146 -5 142 -5 152 -30 5 -14 11 -40 14 -59 l6 -34 -51 3 c-28 2
-52 2 -52 -1 -5 -21 -3 -222 2 -226 6 -4 36 -7 154 -19 133 -13 153 -14 217
-20 l67 -6 3 53 c2 29 2 83 0 120 l-4 66 -34 6 c-28 6 -35 12 -43 44 -8 31
-44 197 -57 265 -2 10 -5 26 -8 35 -3 9 -7 28 -10 42 -3 14 -7 34 -9 45 -3 11
-15 67 -27 125 -12 58 -30 142 -41 187 -10 44 -21 96 -25 115 -3 18 -7 40 -9
48 -2 8 -4 20 -4 26 -1 7 -70 11 -216 11 l-215 0 0 -104z m268 -374 c25 -118
27 -136 13 -134 -9 2 -41 4 -73 4 -48 1 -56 4 -52 19 2 9 15 73 29 142 14 69
28 136 32 150 7 29 5 38 51 -181z"/>
<path d="M2464 2175 c-3 -6 -3 -56 -2 -111 2 -70 7 -99 16 -100 6 -1 19 -2 27
-3 13 -1 15 -49 15 -365 l0 -364 -30 2 c-30 2 -30 1 -31 -48 -1 -64 2 -190 4
-192 1 -1 31 -5 67 -8 36 -4 79 -9 95 -11 17 -2 54 -6 83 -9 l52 -6 0 125 0
125 -24 0 c-14 0 -28 5 -32 12 -9 15 -12 620 -3 610 4 -4 9 -36 13 -72 3 -36
15 -110 25 -165 11 -55 23 -116 26 -135 3 -19 8 -42 10 -50 2 -8 6 -32 10 -53
3 -22 9 -58 14 -80 13 -61 35 -174 51 -266 5 -30 13 -58 17 -62 5 -5 42 -13
83 -19 41 -6 92 -13 113 -16 20 -3 37 -1 37 3 0 4 4 35 9 68 6 33 13 85 16
115 3 30 8 66 10 80 2 14 9 63 15 110 11 84 18 131 25 180 2 14 9 63 15 110 6
47 13 96 15 110 2 14 6 47 10 73 8 60 13 89 17 93 2 1 3 -153 3 -344 l0 -347
-31 3 -30 3 2 -123 c1 -68 2 -130 3 -139 1 -15 21 -20 161 -45 14 -3 60 -11
104 -19 43 -8 79 -15 80 -15 1 0 1 66 1 148 l0 147 -27 3 c-16 2 -29 9 -29 15
-1 7 -2 191 -3 410 -1 391 -1 397 19 398 11 1 25 1 31 0 7 -1 10 39 10 116
l-1 118 -208 1 c-114 1 -210 -3 -213 -7 -4 -8 -21 -109 -39 -239 -3 -25 -10
-70 -15 -100 -5 -30 -12 -73 -15 -95 -9 -60 -12 -83 -26 -165 l-13 -75 -12 70
c-6 39 -14 86 -17 105 -3 19 -15 89 -26 155 -11 66 -28 167 -37 225 -9 58 -21
110 -25 116 -13 16 -409 15 -415 -1z"/>
<path d="M3579 2186 c-1 -1 -3 -54 -3 -118 -1 -76 2 -118 9 -119 5 -1 20 -1
33 -2 22 0 22 -1 22 -146 2 -462 2 -658 1 -674 -1 -15 -7 -17 -34 -12 l-33 6
1 -144 c0 -142 3 -159 28 -163 17 -2 412 -91 532 -119 55 -13 102 -21 105 -19
2 3 5 104 5 225 l0 220 -66 19 c-36 11 -80 23 -97 26 l-32 6 0 -71 c0 -81 7
-78 -100 -53 l-75 18 0 167 -1 167 31 -5 c16 -2 50 -7 75 -10 25 -3 59 -8 75
-11 l31 -5 -1 134 c0 75 -2 137 -5 140 -4 4 -132 15 -195 17 -7 0 -10 51 -10
138 l0 137 45 0 c25 0 65 -2 89 -5 l43 -5 1 -83 c0 -45 3 -84 6 -86 3 -2 47
-7 96 -11 l90 -7 0 224 0 223 -333 1 c-182 0 -333 0 -333 0z"/>
<path d="M4505 2177 c-86 -33 -156 -109 -190 -207 -71 -199 -45 -412 76 -627
35 -62 78 -112 214 -248 192 -192 217 -230 223 -335 5 -106 -40 -164 -114
-146 -79 20 -179 219 -188 375 -2 34 -3 35 -105 73 -57 21 -109 38 -116 38 -8
0 -11 -26 -8 -92 3 -88 10 -442 12 -573 1 -56 3 -61 29 -72 137 -58 175 -72
182 -68 5 3 8 39 7 80 -1 41 0 75 3 75 3 0 14 -20 24 -43 27 -59 143 -172 202
-198 37 -16 63 -20 104 -16 124 10 194 82 236 242 25 99 26 372 0 464 -45 164
-116 273 -291 446 -184 182 -222 238 -229 336 -4 55 16 130 39 149 20 17 67
19 95 5 42 -22 86 -84 119 -165 l22 -56 102 -19 c56 -11 106 -20 112 -20 9 0
17 574 7 601 -2 8 -41 12 -113 12 l-109 0 -1 -26 c-1 -15 -1 -65 -1 -111 l1
-85 -35 72 c-36 74 -71 109 -137 137 -42 18 -129 19 -172 2z"/>
</g>
</svg>
