<svg xmlns="http://www.w3.org/2000/svg" viewBox="0 0 284.17871 38.268311" preserveAspectRatio="none">
  <path fill="#301c09" d="M34.13531 12.96271c-.92263 1.8866-1.7697 2.8328-1.49999 5.7025H10.49246zm230.85715 5.8146L283.94121 0H69.64816c-5.68249 0-8.60118 4.9986-11.87126 8.21227-4.16288 4.01824-8.0254 7.81424-9.22674 8.43554-2.55436 1.4748-5.13963 1.1295-8 1.1295h-5.5577c0-2.401 2.79565-5.0496 2.79565-7.55871-.14733-.14363-8.73331 1.61051-19.04581 3.89811S-.00423 18.50131 0 18.77661c.004.2754 8.44174 2.3684 18.75 4.651 10.30827 2.2827 19.03811 3.843 19.03811 3.843 0-2.6411-2.79565-5.1932-2.79565-7.4933h5.5577c2.87906 0 5.4217-.1641 8 1.4241 1.48519.7833 5.92674 4.9961 9.22674 8.3795 3.28698 3.2381 6.27806 8.6874 11.87126 8.6874H284.1787z"/>
</svg>
