<?xml version="1.0" encoding="UTF-8" standalone="no"?>
<svg
   xmlns:dc="http://purl.org/dc/elements/1.1/"
   xmlns:cc="http://creativecommons.org/ns#"
   xmlns:rdf="http://www.w3.org/1999/02/22-rdf-syntax-ns#"
   xmlns:svg="http://www.w3.org/2000/svg"
   xmlns="http://www.w3.org/2000/svg"
   version="1.1"
   id="svg2"
   viewBox="0 0 300.00021 59.502983"
   height="16.793064mm"
   width="84.666725mm"
   preserveAspectRatio="none">
  <defs
     id="defs4" />
  <metadata
     id="metadata7">
    <rdf:RDF>
      <cc:Work
         rdf:about="">
        <dc:format>image/svg+xml</dc:format>
        <dc:type
           rdf:resource="http://purl.org/dc/dcmitype/StillImage" />
        <dc:title></dc:title>
      </cc:Work>
    </rdf:RDF>
  </metadata>
  <g
     transform="translate(-157.57184,-790.73997)"
     id="layer1">
    <path
       id="path4201"
       d="m 158.10661,849.90146 c -0.21037,-0.14002 -0.14472,-0.32386 0.21937,-0.61448 0.50501,-0.40318 0.49987,-0.41132 -0.18308,-0.29312 -0.68063,0.11777 -0.69168,0.10062 -0.35247,-0.54676 0.28708,-0.54789 0.53074,-0.66531 1.35212,-0.65128 0.86816,0.0147 0.8892,0 0.15763,-0.0884 -0.46437,-0.058 -0.84431,-0.17232 -0.84431,-0.25398 0,-0.49143 1.15957,-1.89843 1.56457,-1.89843 0.26568,0 0.5553,-0.1169 0.64361,-0.25979 0.0883,-0.14288 -0.0217,-0.25978 -0.24445,-0.25978 -0.22276,0 -0.40501,-0.058 -0.40501,-0.12946 0,-0.071 3.3371,-5.58998 7.41578,-12.26388 l 7.41577,-12.1343 -0.4665,-0.91634 c -0.25659,-0.50399 -0.60376,-1.06372 -0.77151,-1.24385 -0.58469,-0.62786 -1.91669,-3.14798 -1.84526,-3.4912 0.0396,-0.19019 0.18887,-0.4445 0.33175,-0.56513 0.14977,-0.12646 0.0591,-0.15428 -0.21414,-0.0657 -0.58109,0.1884 -1.21468,-0.39854 -1.21468,-1.12523 0,-0.29597 -0.15015,-0.53813 -0.33367,-0.53813 -0.18351,0 -0.54084,-0.35071 -0.79404,-0.77935 -0.25321,-0.42865 -0.37298,-0.77936 -0.26614,-0.77936 0.10682,0 0.0145,-0.14613 -0.20526,-0.32473 -0.21971,-0.1786 -0.65413,-0.75241 -0.96537,-1.27513 -0.42337,-0.71102 -0.48248,-0.98392 -0.23469,-1.08357 0.21455,-0.0863 0.17892,-0.14042 -0.10114,-0.15371 -0.23779,-0.0113 -0.78598,-0.59523 -1.2182,-1.2977 -0.65084,-1.05776 -0.71797,-1.30323 -0.39071,-1.42882 0.59526,-0.22842 0.68218,-0.18851 0.51849,0.23805 -0.13368,0.34836 -0.007,0.43796 0.51953,0.3675 0.0912,-0.0122 0.25996,0.13017 0.37505,0.31639 0.16062,0.2599 0.3254,0.20468 0.70898,-0.23759 0.33417,-0.38531 0.79085,-0.57487 1.3785,-0.57221 0.80874,0.003 1.99283,0.46291 1.39835,0.54235 -0.14288,0.019 0.0721,0.10856 0.47786,0.19881 l 0.73763,0.16411 -0.52312,0.60158 c -0.28772,0.33087 -0.58069,0.56468 -0.65105,0.51957 -0.0703,-0.0451 -0.22534,0.0171 -0.3444,0.13823 -0.11907,0.12114 0.0173,0.19535 0.30308,0.16493 0.28576,-0.0304 0.81183,-0.0381 1.16903,-0.0172 0.628,0.0369 0.6328,0.0507 0.14519,0.4196 -0.74189,0.56113 0.0392,0.49929 1.27293,-0.10077 0.66674,-0.32431 0.8855,-0.54758 0.66812,-0.68194 -0.25336,-0.15658 -0.24704,-0.24801 0.0293,-0.42308 0.23327,-0.1478 0.023,-0.22468 -0.62173,-0.22732 -0.64671,-0.003 -0.9742,-0.12286 -0.9742,-0.35763 0,-0.2403 0.22899,-0.31705 0.71442,-0.23944 0.56244,0.0899 0.63152,0.0546 0.32473,-0.16592 -0.34638,-0.249 -0.34638,-0.30854 0,-0.53593 0.49256,-0.32335 1.03914,-0.33682 1.03914,-0.0256 0,0.13098 -0.14613,0.2971 -0.32473,0.36917 -0.1786,0.072 -0.0617,0.14026 0.25978,0.15154 0.32149,0.0113 0.81833,-0.21329 1.10409,-0.49906 0.28577,-0.28576 0.82434,-0.51957 1.19684,-0.51957 0.4741,0 0.63534,-0.1092 0.53754,-0.36408 -0.086,-0.22411 0.0781,-0.4225 0.42683,-0.51602 0.98578,-0.26438 1.46797,-0.17411 1.92575,0.36053 0.26938,0.31462 0.75514,0.51495 1.23144,0.50785 l 0.78657,-0.0117 -0.77936,-0.35686 c -0.42865,-0.19627 -0.66245,-0.36815 -0.51957,-0.38194 0.54745,-0.0528 -0.55536,-0.52893 -1.23398,-0.53272 -0.53262,-0.003 -0.71441,-0.13229 -0.71441,-0.50822 0,-0.56622 -0.48926,-0.98289 -0.74346,-0.63313 -0.0912,0.12547 -0.59464,0.22813 -1.11878,0.22813 -0.52415,0 -0.9051,-0.0477 -0.84656,-0.10599 0.14859,-0.14798 -0.42265,-0.80326 -0.70022,-0.80326 -0.12539,0 -0.22798,0.19873 -0.22798,0.44163 0,0.3435 -0.0693,0.37236 -0.31175,0.1299 -0.17146,-0.17146 -0.49294,-0.30353 -0.71441,-0.29349 -0.28539,0.0129 -0.25134,0.0833 0.11691,0.24153 0.41679,0.17911 0.32686,0.22688 -0.45463,0.24152 -0.53581,0.01 -0.9742,-0.0986 -0.9742,-0.24152 0,-0.14288 0.17536,-0.25979 0.38968,-0.25979 0.47195,0 0.51691,-0.42329 0.065,-0.61149 -0.2355,-0.0981 -0.19816,-0.23801 0.13595,-0.50934 0.44104,-0.35818 0.44104,-0.37925 0,-0.49458 -0.61563,-0.16099 -0.99409,-0.11471 -0.91842,0.11229 0.034,0.10202 -0.12392,0.11422 -0.35096,0.0271 -0.22702,-0.0871 -0.48865,-0.0424 -0.5814,0.0992 -0.0927,0.1417 -0.48698,0.33554 -0.87611,0.43075 -0.89636,0.21932 -0.74938,-0.37084 0.22182,-0.89061 0.36068,-0.19303 0.76268,-0.5507 0.89333,-0.79481 0.20184,-0.37715 0.0525,-0.48332 -0.99431,-0.70659 -0.71571,-0.15266 -1.61281,-0.17263 -2.1411,-0.0476 -0.8068,0.19085 -0.66046,0.39966 0.20067,0.28633 0.18181,-0.0239 0.51165,0.13757 0.73297,0.35889 0.3424,0.3424 0.34582,0.40241 0.0229,0.40241 -0.2087,0 -0.65544,0.23703 -0.99275,0.52673 -0.53079,0.45586 -0.54738,0.51703 -0.12324,0.45463 0.30856,-0.0454 0.51763,0.10372 0.56449,0.40262 0.0554,0.35369 -0.0364,0.42898 -0.36018,0.29526 -0.23902,-0.0987 -0.66839,-0.23199 -0.95416,-0.29618 -0.40451,-0.0909 -0.3758,-0.0315 0.12964,0.26808 l 0.64921,0.38477 -0.75883,0.19045 -0.75881,0.19046 0.60104,0.48669 c 0.33057,0.26768 0.54113,0.5466 0.46792,0.61981 -0.21287,0.21287 -1.49724,-0.45867 -1.34583,-0.70367 0.0754,-0.12199 -0.22053,-0.2218 -0.65761,-0.2218 -1.07878,0 -1.00006,0.32091 0.17951,0.73176 1.74427,0.60754 2.129,0.63625 2.78307,0.20769 0.71222,-0.46667 3.1427,-0.56969 3.77651,-0.16009 0.34639,0.22385 0.34639,0.25271 0,0.25979 -0.34638,0.007 -0.34638,0.0359 0,0.25978 0.31873,0.20598 0.28904,0.25256 -0.16303,0.25581 -0.72149,0.005 -1.2275,0.58781 -0.84377,0.97154 0.19981,0.19981 0.10854,0.3341 -0.31943,0.46993 -0.37238,0.11818 -0.63631,0.0788 -0.69726,-0.10409 -0.0539,-0.16185 -0.27526,-0.29426 -0.4918,-0.29426 -0.21655,0 -0.79443,-0.19014 -1.28417,-0.42255 -0.56372,-0.2675 -1.22158,-0.36882 -1.79282,-0.27612 -0.49629,0.0805 -0.90236,0.0369 -0.90236,-0.097 0,-0.1339 -0.2338,-0.24345 -0.51957,-0.24345 -0.28576,0 -0.51957,0.1169 -0.51957,0.25978 0,0.14289 0.1169,0.25979 0.25979,0.25979 0.14288,0 0.25978,0.1169 0.25978,0.25979 0,0.50394 -0.44001,0.25136 -0.75095,-0.43108 -0.25154,-0.55208 -0.24688,-0.73393 0.0233,-0.90527 0.23892,-0.15155 0.17533,-0.21558 -0.21689,-0.21839 -0.37627,-0.003 -0.6931,-0.29518 -0.98414,-0.90851 -0.23608,-0.49749 -0.41477,-0.98126 -0.39709,-1.07504 0.0177,-0.0938 -0.12398,-0.27126 -0.31479,-0.3944 -0.28445,-0.18357 -0.27675,-0.27472 0.0428,-0.5062 0.31811,-0.23048 0.28735,-0.26012 -0.16749,-0.16137 -0.39904,0.0866 -0.63484,-0.0495 -0.8309,-0.47986 -0.24092,-0.52877 -0.18969,-0.63215 0.42726,-0.86218 0.69147,-0.25781 0.68902,-0.2607 -0.17996,-0.21202 -0.49116,0.0275 -0.92985,-0.0885 -0.99142,-0.26209 -0.0759,-0.21414 0.21306,-0.29336 0.92497,-0.25356 0.56947,0.0319 0.97949,-0.0326 0.91114,-0.14318 -0.0683,-0.11059 0.0543,-0.20107 0.27259,-0.20107 0.49149,0 0.26595,-0.72577 -0.41311,-1.3294 -0.66172,-0.58821 -0.58843,-1.22949 0.16204,-1.41786 1.01254,-0.25413 1.35714,0.14046 0.63463,0.72666 l -0.61986,0.50291 0.71441,-0.15535 c 0.82016,-0.17835 2.01334,0.06 2.01334,0.40228 0,0.12739 -0.22691,0.23162 -0.50424,0.23162 -0.27734,0 -0.57649,0.1169 -0.6648,0.25979 -0.19698,0.31872 0.70953,0.34761 1.05213,0.0335 0.39886,-0.36564 1.67562,-0.59292 1.67562,-0.29828 0,0.14561 -0.1169,0.26474 -0.25978,0.26474 -0.14289,0 -0.25979,0.1169 -0.25979,0.25979 0,0.61638 0.82397,0.18385 1.21605,-0.63834 0.23555,-0.49398 0.53899,-0.8297 0.67431,-0.74608 0.1353,0.0836 0.32481,0.0246 0.4211,-0.13125 0.0963,-0.15581 0.43263,-0.21595 0.7474,-0.13364 0.31476,0.0824 0.50826,0.25328 0.42999,0.37991 -0.0783,0.12664 0.12764,0.22846 0.45755,0.22628 0.44109,-0.003 0.50541,-0.0638 0.24303,-0.23001 -0.26095,-0.16529 0.0182,-0.41439 1.03915,-0.92716 0.76778,-0.38564 1.45441,-0.70104 1.52585,-0.70091 0.0714,1.4e-4 0.1786,-0.0485 0.23814,-0.10799 0.0595,-0.0596 -0.095,-0.10824 -0.34329,-0.10824 -0.24834,0 -0.63361,-0.18208 -0.85615,-0.40462 -0.22255,-0.22254 -0.56491,-0.34312 -0.7608,-0.26794 -0.19591,0.0752 -0.35619,0.0235 -0.35619,-0.11496 0,-0.13839 0.18324,-0.25163 0.40719,-0.25163 0.28046,0 0.35889,-0.15216 0.252,-0.48894 -0.12413,-0.39109 3.7e-4,-0.51177 0.62199,-0.603 0.50723,-0.0745 0.82514,0.0109 0.91526,0.24578 0.0759,0.19792 0.34347,0.32606 0.59448,0.28476 0.25103,-0.0413 0.60358,0.0172 0.78346,0.13003 0.41101,0.25779 1.42037,-0.0427 1.22193,-0.36371 -0.081,-0.13096 0.0343,-0.16849 0.25602,-0.0834 0.22175,0.0851 0.40317,0.0253 0.40317,-0.13286 0,-0.44222 2.25248,-0.36577 2.42442,0.0823 0.10203,0.26592 0.48984,0.34641 1.37981,0.28641 0.68085,-0.0459 1.52171,0.0244 1.86857,0.15633 0.70711,0.26884 1.68897,0.0591 1.45975,-0.31173 -0.14343,-0.23207 0.55681,-0.36479 1.50533,-0.2853 0.25004,0.021 0.45462,-0.0572 0.45462,-0.17363 0,-0.11646 0.36732,-0.15782 0.81626,-0.0919 0.60184,0.0883 0.76421,0.0356 0.61811,-0.20081 -0.15395,-0.24911 -0.0765,-0.25547 0.34757,-0.0286 0.55611,0.29762 3.07294,0.19947 3.37695,-0.13169 0.0917,-0.0999 -0.16456,-0.10204 -0.56946,-0.005 -0.45338,0.10892 -0.67623,0.0798 -0.58011,-0.0757 0.0858,-0.13888 -0.16741,-0.30141 -0.56276,-0.36116 -0.39534,-0.0598 0.3041,-0.12617 1.55432,-0.14758 1.36817,-0.0235 2.27312,0.0645 2.27312,0.22086 0,0.14288 -0.11279,0.25979 -0.25065,0.25979 -0.41076,0 -0.92115,1.12482 -0.56434,1.24375 0.16426,0.0547 0.22896,0.21233 0.14376,0.35017 -0.0958,0.15494 0.6477,0.22683 1.94727,0.18829 1.16364,-0.0345 1.95696,-0.15452 1.77694,-0.26883 -0.22634,-0.1437 -0.17383,-0.20771 0.17269,-0.21048 0.27386,-0.003 0.41973,-0.0822 0.32416,-0.17773 -0.26985,-0.26985 0.6286,-1.12517 1.18191,-1.12517 0.27205,0 0.42239,-0.11691 0.33408,-0.25979 -0.0883,-0.14288 0.0704,-0.25978 0.35269,-0.25978 0.2823,0 0.55876,0.1365 0.61437,0.30332 0.077,0.23093 0.3921,0.23006 1.3202,-0.003 0.9994,-0.25166 1.383,-0.23848 2.12872,0.0731 0.50029,0.20904 0.90963,0.28291 0.90963,0.16416 0,-0.11875 0.46942,-0.22238 1.04317,-0.23031 0.57374,-0.008 1.27573,-0.0882 1.55999,-0.17843 0.34184,-0.10848 0.56978,-0.0261 0.67323,0.24356 0.086,0.22418 0.27331,0.4076 0.41619,0.4076 0.14288,0 0.1925,-0.17536 0.11026,-0.38968 -0.11263,-0.29351 0.0446,-0.38968 0.637,-0.38968 0.4582,0 0.71951,0.10844 0.62598,0.25979 -0.0883,0.14288 -0.0437,0.25978 0.0992,0.25978 0.14288,0 0.32007,-0.0975 0.39375,-0.21675 0.24053,-0.38921 2.1567,-0.32023 2.49706,0.0899 0.43278,0.52147 2.19027,0.49384 3.01634,-0.0475 0.49852,-0.32665 0.71037,-0.35662 0.85593,-0.1211 0.1064,0.17214 0.38868,0.23808 0.62729,0.1465 0.23862,-0.0916 0.43386,-0.0495 0.43386,0.0933 0,0.52946 0.74094,0.51968 1.31742,-0.0174 0.39724,-0.37009 0.6298,-0.4501 0.69961,-0.24069 0.12569,0.37711 0.84061,0.42293 0.84061,0.0539 0,-0.38134 2.01297,-0.3206 2.15259,0.0649 0.0941,0.25979 0.2276,0.25979 0.66759,0 0.70657,-0.41718 2.17794,-0.41842 2.59418,-0.003 0.22793,0.22793 0.37655,0.2394 0.50658,0.0391 0.12101,-0.1864 1.78522,-0.28911 4.86017,-0.29995 3.04108,-0.0107 4.44905,0.0648 4.02668,0.21586 -0.59306,0.21218 -0.58178,0.22072 0.12989,0.0984 2.19961,-0.37798 3.07553,-0.37689 3.4968,0.004 0.23804,0.21543 0.86357,0.42256 1.39007,0.46029 0.68664,0.0492 0.95742,0.18928 0.95779,0.49544 2.6e-4,0.23476 0.2051,0.50805 0.45514,0.60733 0.36354,0.14433 0.25944,0.25956 -0.51957,0.57515 -0.95542,0.38705 -1.29149,0.84082 -0.64946,0.87692 0.1786,0.01 0.0909,0.11872 -0.19484,0.24152 -0.46691,0.20064 -0.44999,0.22512 0.16704,0.24152 0.58223,0.0155 1.00199,0.42656 1.00199,0.98124 0,0.0776 -0.37993,0.0654 -0.8443,-0.0271 -0.80166,-0.15975 -0.81674,-0.1489 -0.29855,0.21489 0.44002,0.3089 0.72889,0.32693 1.49103,0.093 0.81094,-0.24889 1.02036,-0.22216 1.47372,0.18813 0.40512,0.36663 0.59977,0.40692 0.83406,0.17264 0.37153,-0.37153 1.07588,-0.40945 0.85115,-0.0458 -0.24818,0.40156 0.4665,0.30696 1.11558,-0.14767 0.31994,-0.2241 0.51441,-0.51636 0.43215,-0.64947 -0.21858,-0.35365 0.19817,-0.28053 0.73916,0.1297 0.35051,0.26578 0.3832,0.38931 0.1299,0.4908 -0.18618,0.0746 0.0999,0.14485 0.63569,0.15613 0.99651,0.021 1.33741,0.41872 0.51957,0.60619 -0.75331,0.17268 1.55184,0.7135 3.68699,0.86501 1.52588,0.10828 2.08933,0.0493 2.53953,-0.26609 0.47507,-0.33275 0.49852,-0.40525 0.13109,-0.40525 -0.24611,0 -0.44748,-0.0966 -0.44748,-0.21479 0,-0.20424 1.00351,-0.15836 2.27312,0.10393 0.32149,0.0664 0.58452,0.298 0.58452,0.51463 0,0.32122 0.10193,0.33932 0.55261,0.0981 0.42214,-0.22592 0.59947,-0.21992 0.75108,0.0254 0.15275,0.24714 0.33803,0.22339 0.80412,-0.10307 0.33311,-0.23331 0.8719,-0.42421 1.19731,-0.42421 0.32542,0 0.59167,-0.11691 0.59167,-0.25979 0,-0.33825 1.21977,-0.33825 1.42882,0 0.0883,0.14288 0.35823,0.25238 0.59985,0.24332 0.31543,-0.0118 0.27286,-0.0833 -0.15099,-0.25354 -0.32465,-0.1304 -0.66122,-0.42197 -0.74793,-0.64793 -0.0867,-0.22597 -0.31895,-0.34896 -0.51607,-0.27332 -0.19713,0.0757 -0.67888,0.008 -1.07056,-0.15141 l -0.71216,-0.28895 0.64946,-0.17504 0.64947,-0.17505 -0.73352,-0.39029 c -0.56782,-0.30213 -0.65585,-0.44752 -0.38968,-0.64358 0.66686,-0.4912 2.26115,-0.89891 2.89398,-0.74007 0.72764,0.18262 1.22041,-0.31614 0.56197,-0.56881 -0.34205,-0.13125 -0.35838,-0.20828 -0.0814,-0.38386 0.26537,-0.16821 0.24005,-0.22059 -0.1081,-0.22364 -0.25005,-0.003 -0.45463,-0.1345 -0.45463,-0.29404 0,-0.16933 -0.27035,-0.23839 -0.64946,-0.16591 -0.75007,0.14338 -0.82732,-0.006 -0.22912,-0.44357 0.32536,-0.23791 0.7197,-0.2297 1.74522,0.0363 0.72868,0.18902 1.59953,0.34367 1.93524,0.34367 0.50012,0 0.57935,0.0977 0.4387,0.54082 -0.14486,0.4564 -0.0766,0.5264 0.43712,0.44845 0.33482,-0.0508 0.5766,-0.24451 0.53729,-0.43049 -0.0498,-0.23552 0.0981,-0.28433 0.48716,-0.16085 0.34934,0.11088 0.4979,0.0791 0.39652,-0.085 -0.18071,-0.29238 1.09065,-0.8135 1.57622,-0.64607 0.51802,0.17861 0.0863,0.80586 -0.4568,0.66382 -0.29865,-0.0781 -0.5028,2e-5 -0.5028,0.19239 0,0.22973 0.33669,0.28592 1.15842,0.1933 0.72758,-0.082 1.20305,-0.0221 1.27842,0.16105 0.0797,0.19374 0.12688,0.18263 0.1405,-0.0331 0.0129,-0.2042 0.41974,-0.32474 1.09597,-0.32474 0.69332,0 1.18523,-0.15014 1.38444,-0.42256 0.25272,-0.34562 0.41267,-0.36709 0.87831,-0.11789 0.31312,0.16758 0.6838,0.23394 0.82373,0.14746 0.13993,-0.0865 0.25442,-0.0443 0.25442,0.0936 0,0.13793 0.22061,0.1931 0.49025,0.12259 0.26964,-0.0705 0.5688,-8.7e-4 0.6648,0.15421 0.096,0.15533 0.37222,0.28063 0.61384,0.27844 0.33011,-0.003 0.35553,-0.0571 0.10226,-0.21777 -0.27141,-0.17216 -0.26327,-0.27501 0.0418,-0.52821 0.20836,-0.17293 0.43997,-0.21552 0.51467,-0.0947 0.11839,0.19157 0.6975,0.22105 1.93911,0.0987 0.1904,-0.0188 0.25739,-0.16725 0.15221,-0.33743 -0.13311,-0.21539 -0.0429,-0.24229 0.30941,-0.0923 0.27347,0.11637 0.69324,0.21975 0.93278,0.22971 0.23956,0.01 0.38399,0.10155 0.32097,0.20353 -0.063,0.10197 0.12091,0.26016 0.40875,0.35152 0.62656,0.19885 0.67779,0.5358 0.11436,0.75201 -0.37088,0.14232 -0.37025,0.19567 0.007,0.5726 0.42155,0.42154 1.33846,0.30948 1.06661,-0.13036 -0.0814,-0.13169 -8.7e-4,-0.29864 0.17838,-0.371 0.21481,-0.0866 0.18576,-0.13859 -0.0849,-0.15209 -0.22623,-0.0113 -0.41133,-0.17021 -0.41133,-0.35318 0,-0.20757 0.31608,-0.32218 0.84054,-0.30478 0.63131,0.021 0.80481,-0.0652 0.69705,-0.346 -0.11501,-0.29971 0.0253,-0.33681 0.70738,-0.18701 0.59398,0.13046 0.79735,0.1003 0.67363,-0.0999 -0.12795,-0.20702 0.0196,-0.21195 0.53045,-0.0177 0.53298,0.20264 0.75874,0.18642 0.91439,-0.0657 0.15886,-0.25734 1.89736,-0.35258 7.51304,-0.41158 4.51843,-0.0475 7.24872,0.0165 7.15531,0.16762 -0.083,0.13441 0.0332,0.31509 0.25839,0.4015 0.55507,0.21301 0.68246,0.19768 0.52149,-0.0628 -0.0747,-0.12094 0.32752,-0.17355 0.89392,-0.11691 0.58862,0.0589 1.02981,-0.01 1.02981,-0.15961 0,-0.17084 2.65505,-0.26426 7.59873,-0.26736 4.97036,-0.003 7.46395,0.0818 7.20906,0.24563 -0.33281,0.21384 -0.32332,0.25097 0.0649,0.25437 0.25005,0.003 0.45463,-0.11239 0.45463,-0.25462 0,-0.16671 2.90731,-0.24909 8.18128,-0.2318 5.57749,0.0183 8.12828,0.11256 8.01474,0.29627 -0.1117,0.18074 0.0814,0.19718 0.58649,0.05 0.41417,-0.12073 22.9647,-0.23124 50.1123,-0.24558 27.1476,-0.0144 48.83321,0.0228 48.19024,0.0824 -1.05553,0.0979 -0.91265,0.15272 1.47164,0.56415 1.69146,0.29188 2.91986,0.65446 3.41732,1.0087 0.42714,0.30415 0.95344,0.55301 1.16951,0.55301 0.21609,0 0.43963,0.14028 0.49678,0.31174 0.0578,0.17348 0.55714,0.30914 1.12576,0.30587 0.56199,-0.003 1.10058,0.112 1.19686,0.25607 0.11397,0.17057 0.30919,0.15059 0.55965,-0.0572 0.45567,-0.37817 1.80616,-0.11771 1.6524,0.31868 -0.057,0.16155 -0.4146,0.25978 -0.79482,0.2183 -0.42602,-0.0465 -0.74802,0.0725 -0.83916,0.3099 -0.11191,0.29164 -0.30039,0.32733 -0.77522,0.14681 -0.42408,-0.16124 -0.62736,-0.14731 -0.62736,0.043 0,0.17639 -0.26677,0.2161 -0.71441,0.10633 -0.69407,-0.1702 -0.69963,-0.16305 -0.19484,0.25089 0.28576,0.23434 0.36786,0.3486 0.18242,0.25391 -0.19211,-0.0981 -0.62645,0.11712 -1.00963,0.50031 -0.36986,0.36985 -0.54651,0.67247 -0.39259,0.67247 0.15395,0 0.35705,-0.12487 0.45138,-0.2775 0.0943,-0.15262 0.36427,-0.19314 0.59987,-0.0901 0.23557,0.1031 0.94505,0.2572 1.57659,0.34245 0.63156,0.0852 1.19353,0.29192 1.24884,0.45928 0.0647,0.19571 -0.11334,0.25886 -0.49881,0.17696 -0.45268,-0.0962 -0.50399,-0.0667 -0.20968,0.12053 0.67378,0.42854 2.07829,0.63992 2.07829,0.31278 0,-0.16747 0.14085,-0.21113 0.32473,-0.10067 0.25828,0.15518 0.25919,0.11409 0.004,-0.20082 -0.25662,-0.31719 -0.24371,-0.49498 0.065,-0.89417 0.3651,-0.47214 0.40381,-0.47442 0.73864,-0.0436 0.36885,0.47452 1.09586,0.64818 0.81568,0.19484 -0.26415,-0.42743 0.81778,-0.29334 1.18291,0.1466 0.21406,0.25794 0.55778,0.35102 0.94105,0.25483 0.336,-0.0843 0.60379,-0.0341 0.60379,0.11319 0,0.14561 0.16933,0.26474 0.3763,0.26474 0.20694,0 0.69165,0.29226 1.07707,0.64946 0.70418,0.65262 2.18363,0.90624 2.18363,0.37434 0,-0.1513 -0.14613,-0.19261 -0.32473,-0.0918 -0.2489,0.14052 -0.25418,0.10691 -0.0226,-0.14389 0.16613,-0.17997 0.43129,-0.24736 0.58922,-0.14976 0.41495,0.25645 -0.67477,1.69969 -1.28337,1.69969 -0.66461,0 -0.87743,0.42503 -0.32089,0.64079 0.42979,0.16662 0.42992,0.19277 0.003,0.50754 -0.24781,0.18252 -0.37446,0.40798 -0.28143,0.50101 0.093,0.093 0.0457,0.16916 -0.10505,0.16916 -0.15084,0 -0.258,0.14613 -0.23815,0.32473 0.0197,0.1786 -2.45809,4.38807 -5.50655,9.35436 l -5.54265,9.02963 6.04292,9.93473 c 3.3236,5.46411 6.78641,11.14285 7.69514,12.61939 1.60314,2.60496 1.63457,2.68956 1.05844,2.84768 -0.55843,0.15328 -0.54736,0.17337 0.18557,0.33703 0.76735,0.17146 0.7646,0.17458 -0.17951,0.2048 -0.52737,0.0164 -1.03112,0.14765 -1.11942,0.29053 -0.0883,0.14288 -0.0242,0.25978 0.14236,0.25978 0.1666,0 0.23563,0.17536 0.15338,0.38968 -0.1885,0.49126 -0.12924,0.48771 1.01904,-0.0598 0.90124,-0.42977 0.95798,-0.42865 1.28988,0.0251 0.41774,0.57136 0.23002,1.2022 -0.35933,1.20766 -0.37048,0 -0.37539,0.0372 -0.0371,0.2558 0.33302,0.21528 0.32356,0.25243 -0.065,0.2558 -0.27545,0 -0.45462,0.20272 -0.45462,0.50823 0,0.58487 -0.40828,0.92519 -0.64684,0.53914 -0.21045,-0.34049 -1.61127,-0.34378 -1.82113,0 -0.0981,0.15882 -2.12938,0.25979 -5.22636,0.25979 -3.77066,0 -5.01831,-0.0771 -4.87997,-0.30066 0.13324,-0.21562 0.009,-0.24143 -0.4393,-0.0911 -1.05824,0.35496 -10.9157,0.41557 -11.77881,0.0727 -0.58637,-0.23302 -0.78617,-0.23129 -0.86582,0.009 -0.0802,0.24048 -27.13385,0.31053 -119.68259,0.30993 -103.59743,-7.8e-4 -119.62039,-0.0511 -119.88858,-0.37383 -0.17025,-0.20515 -0.48816,-0.30447 -0.70646,-0.22074 -0.21829,0.084 -0.47278,0.045 -0.56552,-0.0857 -0.23453,-0.33096 -1.63542,-0.92544 -1.79793,-0.76299 -0.0733,0.0736 -0.002,0.29209 0.15935,0.48606 0.22734,0.2739 0.19212,0.35288 -0.15782,0.35374 -0.24778,5.2e-4 -0.58829,-0.18453 -0.75668,-0.41132 -0.27354,-0.36847 -0.32692,-0.35703 -0.50063,0.10712 -0.10694,0.28576 -0.31987,0.60547 -0.47318,0.71042 -0.41282,0.28265 -1.44787,0.23909 -1.44787,-0.0606 0,-0.14289 -0.37994,-0.25797 -0.8443,-0.25581 -0.6407,0 -0.75033,0.0649 -0.45463,0.25581 0.30257,0.19553 0.22656,0.25277 -0.34007,0.2558 -0.40135,0 -0.66337,-0.1034 -0.58225,-0.23467 0.28479,-0.46078 -1.41981,-0.61752 -1.90828,-0.17545 -0.57294,0.51845 -1.05495,0.52711 -1.42723,0.0251 -0.25602,-0.345 -0.372,-0.345 -1.03252,0 -1.00922,0.52701 -1.64362,0.52823 -1.20709,0 0.18519,-0.22316 0.25076,-0.66462 0.15525,-1.04512 -0.13188,-0.52546 -0.0457,-0.70861 0.42561,-0.90466 0.45435,-0.18895 0.22527,-0.23814 -0.99096,-0.21268 -0.87005,0.0182 -1.70417,-0.0424 -1.85359,-0.13474 -0.14943,-0.0924 -0.63957,-0.0398 -1.0892,0.11707 -0.60483,0.21078 -0.74835,0.36829 -0.55166,0.60531 0.14621,0.17613 0.17918,0.40864 0.0733,0.51662 -0.10593,0.10799 0.0412,0.16696 0.32698,0.13102 0.28577,-0.0364 0.75338,0.0372 1.03914,0.16228 0.46934,0.20566 0.44422,0.24333 -0.25978,0.38942 l -0.77936,0.16185 0.64947,0.28351 c 0.50625,0.22099 -0.20981,0.28308 -3.24732,0.28169 -2.40439,-8.6e-4 -3.6978,-0.0873 -3.37722,-0.22506 0.50093,-0.21527 0.49914,-0.22393 -0.0496,-0.24151 -0.31306,-0.0104 -0.64143,-0.13526 -0.72974,-0.27815 -0.0883,-0.14288 -0.44592,-0.25978 -0.7947,-0.25978 -0.34877,0 -0.63413,0.1169 -0.63413,0.25978 0,0.14289 0.29226,0.25979 0.64947,0.25979 0.3572,0 0.64946,0.1169 0.64946,0.25979 0,0.15154 -0.86595,0.25978 -2.07828,0.25978 -1.48732,0 -2.07942,-0.0923 -2.08226,-0.32473 -0.003,-0.22705 -0.0614,-0.23796 -0.19484,-0.0364 -0.21511,0.32516 -3.82606,0.3514 -4.30702,0.0312 z m 289.74848,-0.77442 c 0.003,-0.28741 -0.73316,-0.23675 -1.34906,0.0928 -0.38438,0.20575 -0.44696,0.34379 -0.21963,0.48424 0.33565,0.20749 1.56524,-0.24489 1.56869,-0.57707 z m -276.69835,0.22931 c 0.23795,-0.28672 0.10662,-0.3857 -0.68138,-0.51351 -0.76625,-0.12435 -1.08658,-0.0476 -1.48972,0.35513 -0.51159,0.5116 -0.50894,0.51359 0.68137,0.51359 0.69366,0 1.31861,-0.14903 1.48973,-0.35521 z m 1.84713,0.0954 c 0,-0.14289 -0.20458,-0.25797 -0.45462,-0.25581 -0.38852,0 -0.39797,0.0407 -0.065,0.25581 0.49027,0.31685 0.51957,0.31685 0.51957,0 z m 22.08931,0.0104 c -0.67161,-0.42475 -0.14257,-0.52512 0.63672,-0.1208 0.41273,0.21406 0.9269,0.32152 1.14262,0.23874 0.74372,-0.28533 -1.11487,-1.02009 -2.37138,-0.93739 -0.95151,0.0623 -0.42602,1.00173 0.58451,1.04459 0.34085,0.0147 0.3418,-0.0138 0.008,-0.22514 z m 7.00669,-0.0104 c 0.47488,-0.3069 0.0647,-0.3069 -0.64947,0 -0.34258,0.14721 -0.38683,0.22809 -0.12989,0.23753 0.21432,0.009 0.56503,-0.0991 0.77936,-0.23753 z m -40.85671,-0.157 c -0.0863,-0.0866 -0.31039,-0.0955 -0.49792,-0.0208 -0.20724,0.0831 -0.14568,0.14452 0.15695,0.15699 0.27386,0.0113 0.42729,-0.0502 0.34097,-0.13647 z m 43.38421,0 c -0.0863,-0.0866 -0.3104,-0.0955 -0.49793,-0.0208 -0.20724,0.0831 -0.14568,0.14452 0.15696,0.15699 0.27385,0.0113 0.42729,-0.0502 0.34097,-0.13647 z m -36.37,-0.25979 c -0.0863,-0.0866 -0.31039,-0.0955 -0.49792,-0.0208 -0.20724,0.0831 -0.14568,0.14453 0.15695,0.157 0.27386,0.0112 0.4273,-0.0502 0.34097,-0.13648 z m 11.24114,0.0424 c 0,-0.0632 -0.1169,-0.18678 -0.25978,-0.27511 -0.14288,-0.0882 -0.25979,-0.0364 -0.25979,0.11457 0,0.15137 0.11691,0.27511 0.25979,0.27511 0.14288,0 0.25978,-0.0511 0.25978,-0.11457 z m 11.87979,-0.30213 c -0.0863,-0.0866 -0.3104,-0.0956 -0.49793,-0.0208 -0.20724,0.0831 -0.14568,0.14444 0.15696,0.15691 0.27386,0.0113 0.42729,-0.0502 0.34097,-0.13639 z m 251.28311,-0.10287 c 0,-0.32543 -0.27569,-0.32543 -0.77936,0 -0.31512,0.20367 -0.27781,0.2526 0.19484,0.2558 0.32148,0 0.58452,-0.11292 0.58452,-0.2558 z m 3.11743,0 c 0.3168,-0.20471 0.28324,-0.25251 -0.17952,-0.2558 -0.31304,0 -0.64143,0.11292 -0.72973,0.2558 -0.20443,0.33079 0.39744,0.33079 0.90925,0 z m -151.45506,-0.11457 c 0,-0.0632 -0.1169,-0.18678 -0.25978,-0.27511 -0.14288,-0.0882 -0.25979,-0.0372 -0.25979,0.11457 0,0.15136 0.11691,0.27511 0.25979,0.27511 0.14288,0 0.25978,-0.0511 0.25978,-0.11457 z m 74.68839,-0.14522 c 0.0883,-0.14288 -0.0802,-0.25978 -0.37435,-0.25978 -0.29419,0 -0.5349,0.1169 -0.5349,0.25978 0,0.14289 0.16845,0.25979 0.37434,0.25979 0.2059,0 0.4466,-0.1169 0.53491,-0.25979 z m -189.38376,-0.25978 c -0.0883,-0.14288 -0.32212,-0.25979 -0.51957,-0.25979 -0.19746,0 -0.43127,0.11691 -0.51958,0.25979 -0.0914,0.14799 0.13231,0.25978 0.51958,0.25978 0.38726,0 0.61099,-0.11179 0.51957,-0.25978 z m 273.05558,-0.0823 c -0.44283,-0.32378 -0.44397,-0.36647 -0.021,-0.7894 0.42296,-0.42293 0.39292,-0.44389 -0.55571,-0.3876 -1.11731,0.0667 -1.91207,0.44596 -1.91207,0.91332 0,0.16947 -0.20459,0.36162 -0.45463,0.42691 -0.25004,0.0658 0.41527,0.13241 1.47847,0.14895 1.65875,0.026 1.86666,-0.0182 1.46495,-0.31218 z m -248.5855,-0.20627 c -0.65978,-0.38379 -4.5482,-0.64236 -4.2068,-0.2797 0.25045,0.26602 1.45362,0.43644 3.637,0.51524 0.8409,0.0303 0.9496,-0.0147 0.5698,-0.23554 z m 231.61859,0.11846 c -0.17588,-0.071 -0.52659,-0.0753 -0.77936,-0.01 -0.25275,0.0658 -0.10885,0.12409 0.3198,0.12937 0.42864,0.009 0.63546,-0.0485 0.45956,-0.11976 z m 4.15002,-0.26203 c -0.17951,-0.0727 -0.26028,-0.23849 -0.17951,-0.36916 0.0808,-0.13067 -0.0285,-0.23762 -0.24285,-0.23762 -0.4467,0 -0.74595,0.36717 -0.49985,0.61327 0.0914,0.0914 0.40965,0.15691 0.70734,0.14565 0.29766,-0.0113 0.39436,-0.0797 0.21487,-0.15214 z m -271.27958,-0.74576 c 0,-0.0667 -0.52607,-0.1208 -1.16904,-0.1208 -0.68754,0 -1.16904,0.1195 -1.16904,0.29009 0,0.16938 0.27035,0.2384 0.64947,0.16592 0.3572,-0.0684 0.64946,-0.019 0.64946,0.10876 0,0.12808 0.23381,0.10781 0.51957,-0.045 0.28577,-0.15292 0.51958,-0.33244 0.51958,-0.39885 z m 15.51678,0.50165 c -0.0863,-0.0866 -0.31039,-0.0956 -0.49793,-0.0208 -0.20723,0.0831 -0.14567,0.14444 0.15696,0.15691 0.27386,0.0113 0.42729,-0.0502 0.34097,-0.13638 z m 2.14864,0.0303 c 0,-0.26732 -1.92081,-0.91236 -2.69453,-0.90483 -0.69515,0.009 -0.7446,0.0476 -0.34217,0.28152 0.25872,0.1505 0.64815,0.2054 0.86541,0.12201 0.21725,-0.0831 0.64533,0.0234 0.95128,0.23805 0.53691,0.37609 1.22001,0.52347 1.22001,0.26325 z m -25.62253,-0.78888 c 0.12762,-0.33252 0.0595,-0.34768 -0.42683,-0.0947 -0.82828,0.43081 -0.85988,0.49039 -0.26009,0.49039 0.2943,0 0.60341,-0.17813 0.68692,-0.39574 z m 47.11438,-0.28083 c -0.0863,-0.0866 -0.31039,-0.0955 -0.49792,-0.0208 -0.20724,0.0831 -0.14568,0.14453 0.15696,0.157 0.27385,0.0113 0.42729,-0.0502 0.34096,-0.13648 z m 21.50268,-0.10279 c 0.19735,-0.31936 -1.85475,-0.31936 -2.59786,0 -0.37466,0.16098 -0.10724,0.22836 0.95886,0.24152 0.81315,0.0104 1.55069,-0.0986 1.639,-0.24152 z m 215.68166,-0.41678 c -0.0863,-0.0866 -0.31039,-0.0955 -0.49793,-0.0208 -0.20723,0.0831 -0.14569,0.14453 0.15696,0.157 0.27384,0.0113 0.4273,-0.0502 0.34097,-0.13648 z M 172.4843,845.54321 c 0.28459,-0.19258 0.17949,-0.21674 -0.38968,-0.0894 -0.95521,0.21363 -1.16256,0.36231 -0.49792,0.35703 0.27386,0 0.67328,-0.12262 0.8876,-0.26767 z m 177.08106,-0.11803 c 0.21432,-0.21432 0.27873,-0.38967 0.14314,-0.38967 -0.13559,0 -0.39206,0.17535 -0.56994,0.38967 -0.17787,0.21433 -0.24229,0.38968 -0.14315,0.38968 0.0991,0 0.35562,-0.17535 0.56995,-0.38968 z M 204.7783,845.06547 c 0.9991,-0.39522 0.64184,-0.80932 -0.69822,-0.80932 -1.45763,0 -3.86767,0.71735 -3.64118,1.08382 0.21036,0.34041 3.2751,0.14652 4.3394,-0.2745 z m -35.18885,-0.26126 c 0.46931,-0.29737 0.12717,-0.47454 -1.13183,-0.58599 -1.13494,-0.10045 -1.56303,0.32525 -0.59985,0.59655 0.86997,0.24498 1.33278,0.24221 1.73168,-0.0104 z m 11.05536,-0.18566 c 0.66683,-0.25589 0.19359,-0.62219 -0.80376,-0.62219 -0.79341,0 -0.8795,0.0554 -0.60232,0.38968 0.34628,0.41722 0.75054,0.48407 1.40608,0.23251 z m 204.08439,-0.0945 c 0,-0.13837 -0.17535,-0.18436 -0.38968,-0.10209 -0.21432,0.0823 -0.38968,0.19544 -0.38968,0.25164 0,0.0563 0.17536,0.1021 0.38968,0.1021 0.21433,0 0.38968,-0.11327 0.38968,-0.25165 z m 60.01049,-0.52771 c 0,-0.14288 -0.0515,-0.25978 -0.11456,-0.25978 -0.063,0 -0.18681,0.1169 -0.27512,0.25978 -0.0883,0.14289 -0.0367,0.25979 0.11457,0.25979 0.1513,0 0.27511,-0.1169 0.27511,-0.25979 z m -96.97041,-1.19614 c -0.0863,-0.0866 -0.3104,-0.0955 -0.49793,-0.0208 -0.20724,0.0831 -0.14568,0.14453 0.15696,0.157 0.27385,0.0113 0.42729,-0.0502 0.34097,-0.13648 z m 77.74627,0.0424 c 0,-0.0632 -0.1169,-0.18678 -0.25978,-0.27511 -0.14289,-0.0883 -0.25979,-0.0372 -0.25979,0.11457 0,0.15137 0.1169,0.27511 0.25979,0.27511 0.14288,0 0.25978,-0.0511 0.25978,-0.11457 z m -61.63956,-1.34127 c -0.0863,-0.0866 -0.31039,-0.0956 -0.49792,-0.0208 -0.20724,0.0831 -0.14568,0.14444 0.15695,0.15691 0.27386,0.0113 0.42729,-0.0502 0.34097,-0.13639 z m -102.93467,-0.62245 c 0.208,-0.3365 -1.42761,-0.3365 -1.94839,0 -0.28585,0.18471 -0.0996,0.25295 0.69908,0.25581 0.59882,0 1.161,-0.11292 1.24931,-0.25581 z m -49.48917,-3.23199 c 0,-0.0632 -0.1169,-0.18678 -0.25978,-0.27511 -0.14289,-0.0883 -0.25979,-0.0372 -0.25979,0.11456 0,0.15137 0.1169,0.27512 0.25979,0.27512 0.14288,0 0.25978,-0.0511 0.25978,-0.11457 z m 0.55576,-2.71519 c -0.32239,-0.20428 -1.33511,-0.10392 -1.33511,0.13232 0,0.0546 0.37993,0.0978 0.8443,0.0956 0.57403,0 0.73115,-0.0753 0.49081,-0.22792 z m -4.58244,-0.80724 c 0.097,-0.15683 -0.2315,-0.25251 -0.82896,-0.24152 -0.7902,0.0147 -0.88487,0.0632 -0.46996,0.24152 0.71401,0.3068 1.1093,0.3068 1.29892,0 z m -32.01364,-4.84652 c -0.17588,-0.0712 -0.52659,-0.0755 -0.77935,-0.01 -0.25277,0.0659 -0.10886,0.12408 0.31978,0.12938 0.42865,0.005 0.63546,-0.0486 0.45957,-0.11976 z m 244.57787,-1.28548 c -0.0863,-0.0863 -0.31039,-0.0956 -0.49793,-0.0205 -0.20723,0.0829 -0.14569,0.14448 0.15696,0.15695 0.27384,0.0113 0.4273,-0.0501 0.34097,-0.13645 z M 273.93061,826.5907 c -0.0883,-0.14288 -0.27746,-0.25979 -0.42034,-0.25979 -0.14289,0 -0.18754,0.11691 -0.0992,0.25979 0.0883,0.14288 0.27746,0.25978 0.42034,0.25978 0.14288,0 0.18754,-0.1169 0.0992,-0.25978 z m 26.75792,-0.90925 c 0,-0.30168 -1.29309,-0.49735 -1.85691,-0.28099 -0.21131,0.0811 -0.30747,0.27156 -0.2137,0.42329 0.21157,0.34233 2.07061,0.21457 2.07061,-0.1423 z m 5.84518,-0.64947 c 0,-0.14288 -0.1169,-0.25978 -0.25978,-0.25978 -0.14289,0 -0.25979,0.1169 -0.25979,0.25978 0,0.14289 0.1169,0.25979 0.25979,0.25979 0.14288,0 0.25978,-0.1169 0.25978,-0.25979 z m -50.20358,-0.57569 c 0.7317,-0.60225 0.28982,-0.78932 -1.5809,-0.66927 -2.3435,0.1504 -2.87577,0.40661 -1.83197,0.88183 0.81232,0.36984 2.86026,0.24228 3.41287,-0.21256 z m -45.28591,-1.73284 c 0.0783,-0.12664 -0.0902,-0.29105 -0.37435,-0.36536 -0.50819,-0.13289 -0.68334,0.0825 -0.34346,0.42242 0.24069,0.24068 0.54894,0.21617 0.71781,-0.0571 z M 250.42,822.05978 c 0,-0.2742 -0.49855,-0.3894 -0.64684,-0.14946 -0.0897,0.14521 0.0191,0.26402 0.24183,0.26402 0.22276,0 0.40501,-0.0515 0.40501,-0.11456 z m 166.45228,-1.08153 c -0.0863,-0.0863 -0.3104,-0.0956 -0.49794,-0.0205 -0.20724,0.083 -0.14568,0.14449 0.15697,0.15696 0.27384,0.0113 0.42729,-0.0501 0.34097,-0.13645 z m -159.69785,-0.85208 c 0,-0.26043 -1.32022,-0.56736 -1.62641,-0.37812 -0.11032,0.0682 -0.13331,0.23277 -0.0511,0.36578 0.19026,0.30786 1.67751,0.3188 1.67751,0.0124 z m -14.61835,-0.70681 c -0.0863,-0.0863 -0.3104,-0.0956 -0.49793,-0.0205 -0.20724,0.083 -0.14568,0.14449 0.15696,0.15696 0.27385,0.0113 0.42729,-0.0501 0.34097,-0.13645 z m -4.02127,-0.53468 c -0.1786,-0.072 -0.47086,-0.072 -0.64946,0 -0.17861,0.0721 -0.0325,0.13104 0.32473,0.13104 0.3572,0 0.50333,-0.059 0.32473,-0.13104 z m 143.07696,-0.0877 c 0,-0.14288 -0.11,-0.25978 -0.24445,-0.25978 -0.13445,0 -0.3167,0.1169 -0.40501,0.25978 -0.0883,0.14289 0.0217,0.25979 0.24445,0.25979 0.22276,0 0.40501,-0.1169 0.40501,-0.25979 z m -199.70529,-0.68997 c -0.17589,-0.0712 -0.5266,-0.0755 -0.77936,-0.01 -0.25276,0.0659 -0.10886,0.12408 0.31979,0.12938 0.42864,0.005 0.63545,-0.0486 0.45957,-0.11976 z m 72.08017,-0.50612 c -0.0863,-0.0863 -0.3104,-0.0956 -0.49793,-0.0205 -0.20724,0.0829 -0.14568,0.14448 0.15696,0.15695 0.27385,0.0113 0.42729,-0.0501 0.34097,-0.13645 z m -77.99524,-0.36262 c 0.0883,-0.14288 0.0436,-0.25978 -0.0992,-0.25978 -0.14288,0 -0.33203,0.1169 -0.42034,0.25978 -0.0883,0.14288 -0.0436,0.25979 0.0992,0.25979 0.14288,0 0.33203,-0.11691 0.42034,-0.25979 z m 146.64901,-0.51957 c 0,-0.14288 -0.1238,-0.25979 -0.27512,-0.25979 -0.15131,0 -0.20287,0.11691 -0.11456,0.25979 0.0883,0.14288 0.21211,0.25979 0.27513,0.25979 0.063,0 0.11455,-0.11691 0.11455,-0.25979 z m -21.6921,-1.03914 c 0.0883,-0.14289 0.0367,-0.25979 -0.11456,-0.25979 -0.15131,0 -0.27512,0.1169 -0.27512,0.25979 0,0.14288 0.0515,0.25978 0.11456,0.25978 0.063,0 0.18681,-0.1169 0.27512,-0.25978 z M 174.75201,815.5226 c -0.0863,-0.0863 -0.31039,-0.0956 -0.49792,-0.0205 -0.20724,0.083 -0.14568,0.14449 0.15695,0.15695 0.27386,0.0113 0.4273,-0.0501 0.34097,-0.13644 z m 52.42419,-0.35127 c -0.0844,-0.13664 -0.32516,-0.18259 -0.53491,-0.1021 -0.537,0.20607 -0.47372,0.35054 0.15355,0.35054 0.29419,0 0.46581,-0.1118 0.38136,-0.24844 z m -30.53183,-0.2553 c -0.21432,-0.12549 -0.85729,-0.31563 -1.42882,-0.42253 -0.94812,-0.17734 -1.00791,-0.15666 -0.68261,0.23606 0.2292,0.27669 0.73953,0.4276 1.42882,0.42253 0.74104,-0.005 0.95191,-0.0784 0.68261,-0.23606 z m 1.22857,-0.17278 c -0.0863,-0.0863 -0.31039,-0.0956 -0.49792,-0.0205 -0.20724,0.083 -0.14568,0.1445 0.15695,0.15696 0.27386,0.0113 0.4273,-0.0501 0.34097,-0.13644 z m 10.67858,-0.0707 c 0.44167,-0.27997 -0.47516,-0.5521 -1.77551,-0.527 l -0.90925,0.0176 0.77936,0.35686 c 0.90955,0.41648 1.42408,0.45768 1.9054,0.15258 z m 9.0056,-0.032 c -0.0883,-0.14288 -0.27746,-0.25979 -0.42035,-0.25979 -0.14288,0 -0.18754,0.11691 -0.0992,0.25979 0.0883,0.14288 0.27746,0.25978 0.42035,0.25978 0.14288,0 0.18754,-0.1169 0.0992,-0.25978 z m 174.57597,-0.51957 c 0.0883,-0.14289 0.0367,-0.25979 -0.11455,-0.25979 -0.15132,0 -0.27513,0.1169 -0.27513,0.25979 0,0.14288 0.0515,0.25978 0.11456,0.25978 0.063,0 0.18681,-0.1169 0.27512,-0.25978 z m -209.19404,-0.1726 c -0.17949,-0.0724 -0.26027,-0.23849 -0.1795,-0.36916 0.16887,-0.27324 -0.17519,-0.30887 -0.77182,-0.0799 -0.70452,0.27034 -0.45057,0.62263 0.43337,0.60115 0.46437,-0.0112 0.69745,-0.0797 0.51795,-0.15207 z m 40.98282,-0.0872 c 0,-0.14288 -0.11691,-0.25979 -0.25979,-0.25979 -0.14288,0 -0.25979,0.11691 -0.25979,0.25979 0,0.14288 0.11691,0.25979 0.25979,0.25979 0.14288,0 0.25979,-0.11691 0.25979,-0.25979 z m -39.81757,-0.15695 c -0.0863,-0.0863 -0.31039,-0.0956 -0.49793,-0.0205 -0.20723,0.083 -0.14567,0.1445 0.15696,0.15696 0.27386,0.0113 0.42729,-0.0501 0.34097,-0.13644 z m -12.20993,-0.51958 c -0.0863,-0.0863 -0.31039,-0.0956 -0.49792,-0.0205 -0.20724,0.083 -0.14568,0.14449 0.15695,0.15696 0.27386,0.0113 0.4273,-0.0501 0.34097,-0.13644 z m 6.77155,-0.65223 c -0.13161,-0.39481 -2.26319,-1.17563 -3.06419,-1.12242 -0.35721,0.0237 -0.9651,0.12853 -1.35086,0.2329 -0.55874,0.15119 -0.638,0.25843 -0.38968,0.5273 0.17144,0.18563 0.38292,0.29461 0.46994,0.24219 0.087,-0.0525 0.67154,0.005 1.29893,0.12869 1.70515,0.33488 3.14899,0.33077 3.03586,-0.009 z m 1.93668,0.11756 c -0.1786,-0.072 -0.47086,-0.072 -0.64946,0 -0.1786,0.072 -0.0325,0.13104 0.32473,0.13104 0.35721,0 0.50334,-0.059 0.32473,-0.13104 z m -9.35228,-1.03383 c 0.53581,-0.0886 0.97419,-0.26263 0.97419,-0.38682 0,-0.35402 -1.35988,-0.24679 -2.07828,0.16389 -0.71888,0.41094 -0.41031,0.47325 1.10409,0.22293 z m 260.94931,-0.24999 c -0.0863,-0.0863 -0.31039,-0.0956 -0.49793,-0.0205 -0.20723,0.083 -0.14569,0.14449 0.15696,0.15696 0.27384,0.0112 0.4273,-0.0501 0.34097,-0.13644 z m -253.54542,-0.80149 c -0.25004,-0.0654 -0.65921,-0.0654 -0.90925,0 -0.25004,0.0654 -0.0455,0.11881 0.45463,0.11881 0.50008,0 0.70466,-0.0534 0.45462,-0.11881 z m 4.28646,0.007 c -0.1786,-0.072 -0.47086,-0.072 -0.64946,0 -0.1786,0.072 -0.0325,0.13103 0.32473,0.13103 0.35721,0 0.50334,-0.059 0.32473,-0.13103 z m -8.96801,-0.76426 c -0.0863,-0.0863 -0.3104,-0.0956 -0.49793,-0.0205 -0.20724,0.083 -0.14568,0.1445 0.15696,0.15696 0.27385,0.0113 0.42729,-0.0501 0.34097,-0.13644 z m 6.51629,-0.86596 c 0.0649,-0.19483 -0.0325,-0.29225 -0.22732,-0.22731 -0.18753,0.0625 -0.39211,0.2671 -0.45462,0.45463 -0.0649,0.19484 0.0325,0.29226 0.22731,0.22731 0.18753,-0.0625 0.39211,-0.26709 0.45463,-0.45463 z m 15.76574,-0.27602 c -0.0883,-0.14288 -0.27056,-0.25978 -0.40501,-0.25978 -0.13445,0 -0.24445,0.1169 -0.24445,0.25978 0,0.14288 0.18225,0.25979 0.40501,0.25979 0.22275,0 0.33276,-0.11691 0.24445,-0.25979 z m -25.91903,-0.15695 c -0.0863,-0.0863 -0.3104,-0.0956 -0.49793,-0.0205 -0.20724,0.0829 -0.14568,0.14449 0.15696,0.15695 0.27386,0.0113 0.42729,-0.0501 0.34097,-0.13644 z m 7.14951,-0.0151 c -0.1786,-0.072 -0.47086,-0.072 -0.64946,0 -0.1786,0.072 -0.0325,0.13104 0.32473,0.13104 0.35721,0 0.50334,-0.059 0.32473,-0.13104 z m 79.68926,-0.34751 c 0.34638,-0.22385 0.34638,-0.25183 0,-0.25183 -0.21432,0 -0.56503,0.11332 -0.77936,0.25183 -0.34638,0.22384 -0.34638,0.25182 0,0.25182 0.21433,0 0.56504,-0.11331 0.77936,-0.25182 z m -88.0024,-0.43185 c -0.1786,-0.072 -0.47086,-0.072 -0.64946,0 -0.1786,0.072 -0.0325,0.13104 0.32473,0.13104 0.35721,0 0.50334,-0.059 0.32473,-0.13104 z m 23.55037,-0.18728 c 0.23076,-0.27804 0.2042,-0.39542 -0.11738,-0.51882 -0.43387,-0.1665 -1.25092,0.43723 -0.9708,0.71734 0.27122,0.27123 0.77453,0.17941 1.08818,-0.19852 z m 113.55153,0.0996 c 0,-0.14288 -0.22691,-0.25978 -0.50424,-0.25978 -0.27734,0 -0.57649,0.1169 -0.6648,0.25978 -0.0911,0.14735 0.1272,0.25979 0.50424,0.25979 0.36563,0 0.6648,-0.1169 0.6648,-0.25979 z m 11.30067,0 c 0.0883,-0.14288 -0.0286,-0.25978 -0.25978,-0.25978 -0.2312,0 -0.3481,0.1169 -0.25979,0.25978 0.0883,0.14289 0.20521,0.25979 0.25979,0.25979 0.0546,0 0.17147,-0.1169 0.25978,-0.25979 z m -127.55477,-0.25978 c -0.0883,-0.14288 -0.32901,-0.25979 -0.5349,-0.25979 -0.20589,0 -0.37435,0.11691 -0.37435,0.25979 0,0.14288 0.24071,0.25978 0.53491,0.25978 0.29419,0 0.46265,-0.1169 0.37434,-0.25978 z m 122.81743,0.10449 c 0.30848,-0.30847 -0.13677,-0.88376 -0.68101,-0.87987 -0.45642,0.003 -0.48652,0.05 -0.16704,0.25978 0.34638,0.22739 0.34638,0.28423 0,0.51162 -0.32129,0.21091 -0.29468,0.25651 0.15154,0.25979 0.29767,0.003 0.6111,-0.0659 0.69651,-0.15132 z m 2.52916,-0.10449 c 0,-0.14288 -0.1169,-0.25979 -0.25978,-0.25979 -0.14288,0 -0.25979,0.11691 -0.25979,0.25979 0,0.14288 0.11691,0.25978 0.25979,0.25978 0.14288,0 0.25978,-0.1169 0.25978,-0.25978 z m -147.36883,-0.1571 c -0.0863,-0.0863 -0.3104,-0.0956 -0.49793,-0.0205 -0.20724,0.083 -0.14568,0.14449 0.15696,0.15696 0.27385,0.0113 0.42729,-0.0501 0.34097,-0.13644 z m 28.51689,-0.10284 c -0.28577,-0.1228 -0.69493,-0.22969 -0.90925,-0.23754 -0.34638,-0.0127 -0.34638,0.0137 0,0.23754 0.21432,0.13851 0.62348,0.24541 0.90925,0.23755 0.51957,-0.0143 0.51957,-0.0143 0,-0.23755 z m 113.13666,0 c 0.31127,-0.20116 0.259,-0.25859 -0.25979,-0.28542 -0.3572,-0.0185 -0.96886,-0.0715 -1.35924,-0.11795 -0.59067,-0.0702 -0.65607,-0.0233 -0.38968,0.27952 0.37148,0.42227 1.44456,0.48844 2.00871,0.12385 z m -127.16509,-0.25978 c 0.0927,-0.14992 -0.14805,-0.25811 -0.56918,-0.25581 -0.56663,0.003 -0.64264,0.0603 -0.34007,0.25581 0.49913,0.32256 0.7099,0.32256 0.90925,0 z m 121.067,-0.20961 c -0.08,-0.08 -0.28961,-1.7e-4 -0.46583,0.17737 -0.25466,0.25657 -0.22482,0.28641 0.14543,0.14543 0.2562,-0.0976 0.40038,-0.24283 0.3204,-0.3228 z m -108.53775,0.0526 c -0.0863,-0.0863 -0.3104,-0.0956 -0.49793,-0.0205 -0.20724,0.083 -0.14568,0.14449 0.15696,0.15696 0.27385,0.0113 0.42729,-0.0501 0.34097,-0.13644 z m 39.81756,-0.36262 c 0,-0.14288 -0.20458,-0.258 -0.45462,-0.25581 -0.38853,0.003 -0.39797,0.0406 -0.065,0.25581 0.49027,0.31683 0.51957,0.31683 0.51957,0 z m 70.72665,0.0877 c -0.1786,-0.072 -0.47086,-0.072 -0.64946,0 -0.1786,0.072 -0.0325,0.13103 0.32473,0.13103 0.35721,0 0.50334,-0.059 0.32473,-0.13103 z m -125.02185,-0.34752 c 0,-0.14288 -0.17536,-0.25978 -0.38968,-0.25978 -0.21433,0 -0.38968,0.1169 -0.38968,0.25978 0,0.14288 0.17535,0.25979 0.38968,0.25979 0.21432,0 0.38968,-0.11691 0.38968,-0.25979 z m 47.34594,0.0877 c -0.17861,-0.072 -0.47086,-0.072 -0.64947,0 -0.1786,0.072 -0.0325,0.13104 0.32473,0.13104 0.35721,0 0.50334,-0.059 0.32474,-0.13104 z m -57.54794,-0.24468 c -0.0863,-0.0863 -0.3104,-0.0956 -0.49793,-0.0205 -0.20724,0.083 -0.14568,0.1445 0.15696,0.15696 0.27386,0.0113 0.42729,-0.0501 0.34097,-0.13644 z m 12.14988,-0.0822 c 0.44323,-0.17298 0.39578,-0.22067 -0.32473,-0.32642 -0.59012,-0.0866 -0.8438,-0.0202 -0.8438,0.22084 0,0.38022 0.37747,0.41433 1.16853,0.10558 z m 9.09301,-0.0207 c -0.0883,-0.14288 -0.33591,-0.25978 -0.55024,-0.25978 -0.21432,0 -0.31743,0.1169 -0.22912,0.25978 0.0883,0.14289 0.33591,0.25979 0.55024,0.25979 0.21432,0 0.31743,-0.1169 0.22912,-0.25979 z m 10.26153,0 c 0.31511,-0.20363 0.27783,-0.25259 -0.19484,-0.25581 -0.32148,-0.003 -0.58451,0.11293 -0.58451,0.25581 0,0.3255 0.27569,0.3255 0.77935,0 z m 196.06783,0.10283 c -0.0863,-0.0863 -0.31039,-0.0956 -0.49792,-0.0205 -0.20724,0.083 -0.14568,0.14449 0.15695,0.15696 0.27386,0.0113 0.4273,-0.0501 0.34097,-0.13644 z m -218.43397,-1.07702 c -0.19139,-0.25005 -0.37328,-0.49556 -0.4042,-0.54559 -0.0309,-0.05 -0.17581,-0.0171 -0.32195,0.0733 -0.42161,0.26057 -0.0258,0.92694 0.55054,0.92694 0.45803,0 0.48002,-0.0569 0.17561,-0.45462 z m 4.58151,0.17755 c 0.0942,-0.15239 0.11781,-0.3305 0.0525,-0.39579 -0.1812,-0.18119 -0.97245,0.17753 -0.97245,0.44087 0,0.32519 0.71267,0.29027 0.91993,-0.0451 z m 56.26843,-0.18736 c -0.18742,-0.0624 -0.46428,0.01 -0.61525,0.16088 -0.19277,0.19278 -0.0914,0.22659 0.34077,0.1136 0.35129,-0.0919 0.46905,-0.20963 0.27448,-0.27448 z m -50.88362,0.0343 c -0.17588,-0.0712 -0.52659,-0.0755 -0.77936,-0.01 -0.25276,0.0659 -0.10886,0.12409 0.31979,0.12939 0.42865,0.005 0.63545,-0.0486 0.45957,-0.11977 z m 14.66753,0.0134 c -0.0863,-0.0863 -0.31039,-0.0956 -0.49792,-0.0205 -0.20724,0.0829 -0.14568,0.14449 0.15696,0.15695 0.27385,0.0113 0.42729,-0.0501 0.34096,-0.13644 z m 4.31447,-0.36647 c 0.23898,-0.25497 0.063,-0.28629 -0.84192,-0.14979 -1.71466,0.25864 -2.29321,0.73319 -0.71679,0.58793 0.69112,-0.0636 1.39254,-0.26084 1.55871,-0.43814 z m 29.71746,0.36647 c -0.0863,-0.0863 -0.31039,-0.0956 -0.49792,-0.0205 -0.20724,0.0829 -0.14568,0.14449 0.15695,0.15695 0.27386,0.0113 0.4273,-0.0501 0.34097,-0.13644 z m -46.43128,-0.77058 c 0,-0.0714 -0.23381,-0.004 -0.51957,0.14818 -0.28576,0.15293 -0.51957,0.33651 -0.51957,0.40795 0,0.0715 0.23381,0.004 0.51957,-0.14817 0.28576,-0.15293 0.51957,-0.33652 0.51957,-0.40796 z m -20.52307,0.14818 c 0.33302,-0.21522 0.32357,-0.25241 -0.0649,-0.25581 -0.25005,-0.003 -0.45463,-0.12088 -0.45463,-0.26377 0,-0.14288 -0.23479,-0.25978 -0.52177,-0.25978 -0.45675,0 -0.48133,0.0648 -0.1973,0.51957 0.35897,0.5748 0.65509,0.63691 1.23864,0.25979 z m 12.20993,0 c 0,-0.14289 -0.34381,-0.25979 -0.76402,-0.25979 -0.42022,0 -0.83628,0.1169 -0.92459,0.25979 -0.0956,0.15459 0.21379,0.25978 0.76402,0.25978 0.50852,0 0.92459,-0.1169 0.92459,-0.25978 z m 27.38582,-0.0349 c -0.12616,-0.20413 0.0687,-0.25787 0.63413,-0.17488 0.64273,0.0943 0.81626,0.0256 0.81626,-0.32298 0,-0.69478 -0.69488,-1.15968 -1.15839,-0.775 -0.4002,0.33214 -1.83385,0.15396 -2.39555,-0.29772 -0.20987,-0.16876 -0.40059,-0.071 -0.60444,0.30993 -0.19806,0.37009 -0.44344,0.50108 -0.73253,0.39106 -0.31105,-0.11838 -0.35535,-0.0854 -0.15573,0.11593 0.15343,0.15476 0.73795,0.29614 1.29893,0.31418 0.56098,0.018 1.25055,0.19062 1.53239,0.38349 0.62475,0.42754 1.01208,0.45589 0.76493,0.0559 z m -23.55939,-0.12205 c -0.0863,-0.0863 -0.3104,-0.0956 -0.49793,-0.0205 -0.20724,0.083 -0.14568,0.14449 0.15696,0.15695 0.27385,0.0113 0.42729,-0.0501 0.34097,-0.13644 z m -2.26772,-0.34406 c 0,-0.13268 -0.16978,-0.41101 -0.3773,-0.61854 -0.20753,-0.20752 -0.30495,-0.44967 -0.21649,-0.53813 0.0884,-0.0884 -0.2386,-0.16261 -0.72678,-0.16479 -0.66868,-0.003 -0.79149,-0.0661 -0.49793,-0.25581 0.33302,-0.21522 0.32358,-0.25241 -0.0649,-0.25581 -0.25005,-0.003 -0.45463,0.0843 -0.45463,0.1924 0,0.108 -0.35071,0.3516 -0.77936,0.54134 -0.83396,0.36915 -1.03999,0.821 -0.37434,0.821 0.22275,0 0.33276,-0.11691 0.24445,-0.25979 -0.0933,-0.15097 0.16342,-0.25978 0.61289,-0.25978 0.42539,0 0.97865,-0.0787 1.22947,-0.175 0.35159,-0.13492 0.41781,-0.0754 0.28918,0.25979 -0.12219,0.31842 -0.0259,0.43478 0.35991,0.43478 0.28971,0 0.4545,0.1169 0.36619,0.25978 -0.0883,0.14289 -0.0367,0.25979 0.11456,0.25979 0.15132,0 0.27512,-0.10856 0.27512,-0.24123 z m 14.02843,-0.0185 c 0,-0.14288 -0.20458,-0.25799 -0.45463,-0.25581 -0.38852,0.003 -0.39796,0.0406 -0.0649,0.25581 0.49027,0.31683 0.51957,0.31683 0.51957,0 z m 15.96587,-0.0177 c -0.0943,-0.15262 -0.32747,-0.21764 -0.51811,-0.14448 -0.19064,0.0732 -0.40373,-0.007 -0.47352,-0.17713 -0.0937,-0.22907 -0.183,-0.23312 -0.34152,-0.0155 -0.11804,0.16208 -0.44842,0.3531 -0.73419,0.42449 -0.28576,0.0714 0.10108,0.14337 0.85964,0.15995 0.91837,0.0201 1.3219,-0.0626 1.2077,-0.24736 z m 1.31041,0.11145 c 0.34517,-0.13245 0.36261,-0.21048 0.0862,-0.38569 -0.49386,-0.31307 -0.66028,-0.28058 -0.83014,0.16206 -0.1612,0.42007 0.0593,0.48636 0.74395,0.22363 z M 189.396,803.06276 c -0.48598,-0.20931 -0.94385,-0.32032 -1.01748,-0.24669 -0.0736,0.0736 0.009,0.13389 0.18452,0.13389 0.17513,0 0.26446,0.0877 0.1985,0.19483 -0.066,0.10717 0.24865,0.21818 0.69909,0.2467 l 0.81899,0.0519 -0.88362,-0.38058 z m 11.0748,0.24981 c -0.0863,-0.0863 -0.3104,-0.0956 -0.49793,-0.0205 -0.20724,0.083 -0.14568,0.14449 0.15696,0.15695 0.27385,0.0113 0.42729,-0.0501 0.34097,-0.13644 z m 5.33101,-0.0151 c -0.1786,-0.0721 -0.47086,-0.0721 -0.64946,0 -0.1786,0.072 -0.0325,0.13102 0.32473,0.13102 0.35721,0 0.50334,-0.059 0.32473,-0.13102 z m -11.82566,-0.2447 c -0.0863,-0.0863 -0.31039,-0.0956 -0.49792,-0.0205 -0.20724,0.083 -0.14568,0.14449 0.15695,0.15695 0.27386,0.0113 0.4273,-0.0501 0.34097,-0.13644 z m 213.61419,-0.10283 c -0.50366,-0.32549 -0.77936,-0.32549 -0.77936,0 0,0.14288 0.26304,0.25799 0.58452,0.25581 0.47266,-0.003 0.50995,-0.0521 0.19484,-0.25581 z m -226.7929,-0.28611 c 0.21433,-0.0184 -0.0779,-0.12456 -0.64946,-0.23594 -1.14336,-0.22283 -1.31202,-0.17926 -1.03584,0.26762 0.10187,0.16483 0.43507,0.23265 0.74043,0.15072 0.30536,-0.0819 0.73055,-0.16402 0.94487,-0.1824 z m 6.94268,-0.14485 c 0.14519,-0.44129 -1.46846,-0.73673 -1.83759,-0.33645 -0.23237,0.25201 -0.19769,0.28864 0.15557,0.16434 0.30527,-0.10742 0.45463,-0.0287 0.45463,0.23961 0,0.4679 1.07061,0.40902 1.22739,-0.0675 z m 7.79475,0.27401 c -0.0863,-0.0863 -0.31039,-0.0956 -0.49793,-0.0205 -0.20723,0.083 -0.14567,0.1445 0.15696,0.15696 0.27386,0.0113 0.42729,-0.0501 0.34097,-0.13644 z m -1.87804,-0.36262 c 0.0883,-0.14288 -0.0217,-0.25979 -0.24445,-0.25979 -0.22275,0 -0.40501,0.11691 -0.40501,0.25979 0,0.14288 0.11,0.25979 0.24445,0.25979 0.13446,0 0.3167,-0.11691 0.40501,-0.25979 z m -3.79674,-0.49563 c 0.28375,-0.1797 0.22883,-0.2977 -0.25978,-0.55812 -0.55415,-0.29535 -0.58385,-0.28687 -0.28109,0.0803 0.28511,0.34574 0.26462,0.42967 -0.12989,0.53197 -0.31636,0.082 -0.34193,0.12995 -0.0787,0.14762 0.21432,0.0144 0.5516,-0.0764 0.74951,-0.20173 z m 3.14728,-0.18413 c 0,-0.0548 -0.23381,-0.0996 -0.51957,-0.0996 -0.28577,0 -0.51957,0.10596 -0.51957,0.23546 0,0.12952 0.2338,0.17433 0.51957,0.0996 0.28576,-0.0747 0.51957,-0.18068 0.51957,-0.23546 z m 4.60578,0.26302 c -0.0863,-0.0863 -0.31039,-0.0956 -0.49792,-0.0205 -0.20724,0.083 -0.14568,0.14449 0.15695,0.15695 0.27386,0.0113 0.4273,-0.0501 0.34097,-0.13644 z m 11.11125,-0.10283 c -0.0883,-0.14288 -0.32901,-0.25979 -0.5349,-0.25979 -0.20589,0 -0.37435,0.11691 -0.37435,0.25979 0,0.14288 0.24071,0.25978 0.53491,0.25978 0.29419,0 0.46265,-0.1169 0.37434,-0.25978 z m -42.99453,-0.25979 c 0,-0.14288 -0.37993,-0.24813 -0.8443,-0.23389 -0.79995,0.0245 -0.81019,0.0368 -0.19484,0.23389 0.91673,0.2936 1.03914,0.2936 1.03914,0 z m 12.85939,0 c -0.42864,-0.10907 -0.66245,-0.21955 -0.51957,-0.24551 0.14288,-0.026 -0.0296,-0.16271 -0.38342,-0.30386 -0.48006,-0.19156 -0.55539,-0.31094 -0.297,-0.47064 0.51768,-0.31994 -0.0771,-0.5867 -0.86634,-0.3886 -0.41072,0.10309 -0.66142,0.0569 -0.66142,-0.12194 0,-0.15837 0.12526,-0.28795 0.27835,-0.28795 0.15308,0 0.0891,-0.18927 -0.14227,-0.4206 -0.49167,-0.49168 -0.47849,-0.50284 -0.82926,0.70252 -0.25942,0.89145 -0.23842,0.94369 0.48979,1.21856 0.41846,0.15795 0.92767,0.22317 1.13158,0.14492 0.20391,-0.0783 0.37074,-0.0128 0.37074,0.14531 0,0.16996 0.45157,0.27501 1.10409,0.25684 1.03618,-0.0288 1.05616,-0.043 0.32473,-0.22905 z m 3.25689,0.0465 c -0.25557,-0.0852 -0.24983,-0.15899 0.026,-0.33373 0.23733,-0.15037 0.0471,-0.22568 -0.57677,-0.22835 -0.59266,-0.003 -0.93089,0.11873 -0.93089,0.33375 0,0.21247 0.3356,0.33772 0.90492,0.33772 0.4977,0 0.75725,-0.0492 0.57676,-0.10939 z m 3.49754,-0.0465 c -0.30686,-0.13186 -0.3689,-0.23074 -0.15154,-0.24153 0.20242,-0.01 0.30682,-0.0795 0.23202,-0.15426 -0.19407,-0.19408 -0.98973,0.14644 -0.98973,0.42359 0,0.12759 0.32149,0.22377 0.71441,0.21373 0.63306,-0.0162 0.65524,-0.0436 0.19484,-0.24153 z m 73.05931,0.10284 c -0.0863,-0.0863 -0.31039,-0.0956 -0.49792,-0.0205 -0.20724,0.083 -0.14568,0.14449 0.15695,0.15696 0.27386,0.0113 0.4273,-0.0501 0.34097,-0.13644 z m 1.9938,-0.40299 c -0.0957,-0.15493 0.0906,-0.24308 0.4504,-0.21308 0.97592,0.0814 1.26316,0.0139 1.26316,-0.29642 0,-0.16664 -0.23178,-0.22948 -0.54463,-0.14767 -0.76133,0.1991 -1.44165,-0.0712 -0.97093,-0.38565 0.2163,-0.14452 0.0536,-0.16471 -0.43283,-0.0538 -1.06031,0.24187 -1.27489,0.65675 -0.62091,1.20048 0.5507,0.45786 1.15741,0.38418 0.85574,-0.10393 z m 1.78345,0.38954 c -0.17588,-0.0712 -0.52659,-0.0755 -0.77936,-0.01 -0.25276,0.0659 -0.10885,0.1241 0.31979,0.1294 0.42865,0.005 0.63545,-0.0486 0.45957,-0.11977 z m -6.56453,-0.51576 c 0.7064,-0.26629 -2.14608,-0.8409 -4.41636,-0.88962 -1.2145,-0.0261 -2.50044,0.0766 -2.85764,0.22815 -0.68299,0.28977 -0.61474,0.31703 1.16641,0.46589 0.57008,0.0476 1.06662,0.17785 1.10341,0.28935 0.0735,0.22266 4.37878,0.142 5.00418,-0.0938 z m -62.15914,-0.25015 c -0.0863,-0.0863 -0.31039,-0.0956 -0.49792,-0.0205 -0.20724,0.083 -0.14568,0.1445 0.15695,0.15696 0.27386,0.0113 0.4273,-0.0501 0.34097,-0.13644 z m 221.34281,-0.25345 c 0.32149,-0.0934 0.58452,-0.2445 0.58452,-0.33584 0,-0.24412 1.28459,-0.75442 2.40588,-0.95574 1.35914,-0.24401 1.43077,-0.55575 0.11451,-0.4983 -2.15562,0.0941 -3.7507,0.58321 -5.87792,1.80246 -0.58489,0.33524 -0.52933,0.35371 0.77936,0.25909 0.77502,-0.056 1.67217,-0.17829 1.99365,-0.27167 z m 24.36179,-0.059 c -0.08,-0.08 -0.2896,-1.6e-4 -0.46584,0.17737 -0.25464,0.25658 -0.22482,0.28642 0.14543,0.14543 0.2562,-0.0976 0.40038,-0.24282 0.32041,-0.3228 z m -253.29792,-0.0501 c 0.0883,-0.14288 -0.0286,-0.25978 -0.25978,-0.25978 -0.23119,0 -0.3481,0.1169 -0.25979,0.25978 0.0883,0.14288 0.20521,0.25979 0.25979,0.25979 0.0546,0 0.17147,-0.11691 0.25978,-0.25979 z m 1.9484,-0.10209 c 0,-0.0561 -0.17536,-0.16939 -0.38968,-0.25164 -0.21433,-0.0823 -0.38968,-0.0363 -0.38968,0.1021 0,0.1384 0.17535,0.25163 0.38968,0.25163 0.21432,0 0.38968,-0.046 0.38968,-0.10209 z m 253.55082,-0.15769 c 0,-0.14289 -0.1169,-0.25979 -0.25979,-0.25979 -0.14288,0 -0.25978,0.1169 -0.25978,0.25979 0,0.14288 0.1169,0.25978 0.25978,0.25978 0.14289,0 0.25979,-0.1169 0.25979,-0.25978 z m -275.37282,-0.25979 c 0,-0.14288 -0.11,-0.25979 -0.24445,-0.25979 -0.13446,0 -0.31671,0.11691 -0.40502,0.25979 -0.0883,0.14288 0.0217,0.25979 0.24445,0.25979 0.22276,0 0.40502,-0.11691 0.40502,-0.25979 z m 15.10308,-0.20465 c -0.18742,-0.0624 -0.46427,0.01 -0.61524,0.16088 -0.19278,0.19278 -0.0914,0.2266 0.34077,0.1136 0.35128,-0.0919 0.46904,-0.20962 0.27447,-0.27448 z m 27.17163,0.30748 c -0.0863,-0.0863 -0.3104,-0.0956 -0.49793,-0.0205 -0.20724,0.083 -0.14568,0.14449 0.15696,0.15695 0.27385,0.0113 0.42729,-0.0501 0.34097,-0.13644 z m 54.55499,0 c -0.0863,-0.0863 -0.31039,-0.0956 -0.49792,-0.0205 -0.20724,0.083 -0.14568,0.14449 0.15695,0.15695 0.27386,0.0113 0.4273,-0.0501 0.34097,-0.13644 z m 173.60719,-0.10283 c 0,-0.14288 -0.1169,-0.25979 -0.25978,-0.25979 -0.14289,0 -0.25979,0.11691 -0.25979,0.25979 0,0.14288 0.1169,0.25979 0.25979,0.25979 0.14288,0 0.25978,-0.11691 0.25978,-0.25979 z m 3.83454,-0.14946 c 0.69981,-0.0785 1.37188,-0.3224 1.55698,-0.56492 0.23333,-0.3057 0.40534,-0.34711 0.60644,-0.14601 0.46748,0.46748 1.27604,0.0881 1.27604,-0.59873 0,-0.34055 -0.11324,-0.61917 -0.25163,-0.61917 -0.13841,0 -0.18473,0.17437 -0.10295,0.38749 0.18725,0.48792 -0.65996,0.85201 -0.93754,0.4029 -0.15813,-0.25586 -0.32476,-0.25796 -0.78822,-0.01 -0.47221,0.25272 -0.517,0.36284 -0.22788,0.56035 0.27441,0.18748 0.23651,0.22628 -0.15974,0.16344 -0.69402,-0.11005 -0.77323,-1.26075 -0.0989,-1.43707 0.26553,-0.0694 0.41872,-0.22987 0.34045,-0.3565 -0.24446,-0.39554 -1.02026,-0.25219 -1.38671,0.25624 -0.2131,0.29564 -0.54566,0.43549 -0.84779,0.35648 -0.27342,-0.0715 -0.47829,-0.0274 -0.4553,0.098 0.10285,0.5606 -0.0506,0.8775 -0.42469,0.8775 -0.22277,0 -0.33276,0.1169 -0.24446,0.25978 0.0891,0.14423 -0.10628,0.26155 -0.4393,0.26376 -0.48621,0.003 -0.52601,0.0529 -0.21017,0.26238 0.21433,0.14211 0.65394,0.19624 0.9769,0.12028 0.32299,-0.076 1.14132,-0.2003 1.8185,-0.27631 z M 178.423,799.03854 c -0.0508,-0.70343 0.0506,-1.14104 0.30487,-1.31569 0.27015,-0.18557 0.0787,-0.21474 -0.65818,-0.10029 -0.57153,0.0888 -1.35175,0.17199 -1.73382,0.18494 -0.6232,0.0211 -0.65383,0.0644 -0.29769,0.42053 0.32749,0.3275 0.48858,0.3398 0.92015,0.0703 0.28774,-0.1797 0.62245,-0.22743 0.7438,-0.10607 0.27206,0.27205 0.009,1.38072 -0.32753,1.38072 -0.13465,0 -0.17257,0.11691 -0.0843,0.25979 0.0883,0.14288 0.39641,0.25978 0.68467,0.25978 0.452,0 0.51363,-0.145 0.448,-1.054 z m 272.22141,0.89705 c -0.0863,-0.0863 -0.31039,-0.0956 -0.49793,-0.0205 -0.20723,0.083 -0.14569,0.1445 0.15696,0.15696 0.27384,0.0113 0.4273,-0.0501 0.34097,-0.13644 z m -277.64054,-0.35446 c 0,-0.13841 -0.17535,-0.18435 -0.38968,-0.10211 -0.21432,0.0823 -0.38968,0.19548 -0.38968,0.25164 0,0.0561 0.17536,0.10209 0.38968,0.10209 0.21433,0 0.38968,-0.11323 0.38968,-0.25162 z m 15.84693,-0.008 c -0.51523,-0.33296 -1.63461,-0.33296 -1.42882,0 0.0883,0.14288 0.53359,0.258 0.98953,0.25581 0.63078,-0.003 0.7358,-0.0642 0.43929,-0.25581 z m -23.38071,-0.25978 c 0,-0.3255 -0.2757,-0.3255 -0.77936,0 -0.31511,0.20363 -0.27782,0.25259 0.19484,0.25581 0.32148,0.003 0.58452,-0.11293 0.58452,-0.25581 z m 14.22017,-0.17938 c -0.24154,-0.24154 -0.52624,-0.35208 -0.63266,-0.24566 -0.10643,0.10643 -0.0216,0.30226 0.18865,0.43519 0.63247,0.39998 0.91354,0.28 0.44401,-0.18953 z m 97.15753,0.28221 c -0.0863,-0.0863 -0.3104,-0.0956 -0.49793,-0.0205 -0.20724,0.0829 -0.14568,0.14449 0.15696,0.15695 0.27385,0.0113 0.42729,-0.0501 0.34097,-0.13644 z m 159.69065,-0.8569 c -0.0683,-0.0683 -0.32606,0.0864 -0.5727,0.34393 -0.42846,0.44734 -0.42293,0.45288 0.12426,0.12427 0.31499,-0.18916 0.51679,-0.39985 0.44844,-0.4682 z m 8.83245,0.52382 c 0.0783,-0.12664 -0.0901,-0.29102 -0.37409,-0.36529 -0.57472,-0.1503 -0.96736,0.21581 -0.45356,0.42294 0.50477,0.2035 0.67352,0.19174 0.82765,-0.0577 z M 167.0288,798.95417 c 0,-0.0548 -0.23381,-0.16074 -0.51957,-0.23547 -0.28576,-0.0747 -0.51957,-0.0299 -0.51957,0.0996 0,0.1295 0.23381,0.23546 0.51957,0.23546 0.28576,0 0.51957,-0.0449 0.51957,-0.0996 z m 7.66435,-0.15911 c -0.0659,-0.10658 -0.50212,-0.27081 -0.96946,-0.36498 -0.66661,-0.13433 -0.76574,-0.22468 -0.46003,-0.41925 0.21432,-0.13643 0.26589,-0.24983 0.1146,-0.25202 -0.15129,-0.003 -0.502,0.16766 -0.77936,0.37744 -0.49293,0.37284 -0.49148,0.3816 0.065,0.38968 0.31306,0.004 0.63241,0.11055 0.70967,0.23557 0.0772,0.12502 0.43275,0.22731 0.78996,0.22731 0.3572,0 0.59557,-0.0872 0.52971,-0.19375 z m 6.49397,0.0599 c 0.29508,-0.2168 0.42262,-1.10011 0.15883,-1.10011 -0.0952,0 -0.44484,0.19032 -0.77695,0.42294 -0.47312,0.33138 -0.52781,0.47112 -0.25264,0.64549 0.42867,0.27164 0.5387,0.27564 0.87076,0.0317 z m 7.53379,-0.061 c -0.0883,-0.14288 -0.32901,-0.25979 -0.53491,-0.25979 -0.20589,0 -0.37434,0.11691 -0.37434,0.25979 0,0.14288 0.2407,0.25978 0.5349,0.25978 0.29419,0 0.46266,-0.1169 0.37435,-0.25978 z m 234.97614,0 c 0,-0.14288 -0.0515,-0.25979 -0.11456,-0.25979 -0.063,0 -0.18681,0.11691 -0.27512,0.25979 -0.0883,0.14288 -0.0368,0.25978 0.11457,0.25978 0.1513,0 0.27511,-0.1169 0.27511,-0.25978 z m 4.67614,0 c 0,-0.14288 -0.10999,-0.25979 -0.24445,-0.25979 -0.13444,0 -0.31671,0.11691 -0.40501,0.25979 -0.0883,0.14288 0.0216,0.25978 0.24446,0.25978 0.22274,0 0.405,-0.1169 0.405,-0.25978 z m -256.93994,-0.54182 c -0.15948,-0.29801 -0.35561,-0.47619 -0.43584,-0.39596 -0.0802,0.0802 0.002,0.32404 0.18275,0.54182 0.46705,0.56276 0.59337,0.48996 0.25309,-0.14586 z m 11.83216,0.28203 c -0.0883,-0.14288 -0.29979,-0.25799 -0.46996,-0.25581 -0.18591,0.003 -0.15387,0.1045 0.0803,0.25581 0.49908,0.32254 0.58901,0.32254 0.38968,0 z m 4.02667,0 c 0,-0.14288 -0.49684,-0.25157 -1.10408,-0.24152 -0.8551,0.0141 -0.98692,0.0686 -0.58452,0.24152 0.72448,0.31132 1.6886,0.31132 1.6886,0 z m 7.53379,0.1602 c 0,-0.0548 -0.23381,-0.16074 -0.51957,-0.23547 -0.28577,-0.0747 -0.51957,-0.0299 -0.51957,0.0996 0,0.1295 0.2338,0.23546 0.51957,0.23546 0.28576,0 0.51957,-0.0449 0.51957,-0.0996 z m 243.34883,-0.0573 c -0.0863,-0.0863 -0.31039,-0.0956 -0.49793,-0.0205 -0.20723,0.083 -0.14569,0.14449 0.15696,0.15695 0.27384,0.0113 0.4273,-0.0501 0.34097,-0.13644 z m 10.911,0 c -0.0863,-0.0863 -0.31039,-0.0956 -0.49793,-0.0205 -0.20723,0.083 -0.14569,0.14449 0.15696,0.15695 0.27384,0.0113 0.4273,-0.0501 0.34097,-0.13644 z M 251.90836,798.1175 c -0.0863,-0.0863 -0.31039,-0.0956 -0.49792,-0.0205 -0.20724,0.083 -0.14568,0.1445 0.15695,0.15696 0.27386,0.0113 0.4273,-0.0501 0.34097,-0.13644 z m 42.99994,-0.0151 c -0.1786,-0.072 -0.47086,-0.072 -0.64946,0 -0.1786,0.072 -0.0325,0.13103 0.32473,0.13103 0.35721,0 0.50333,-0.059 0.32473,-0.13103 z m -96.51579,-0.24469 c -0.0863,-0.0863 -0.31039,-0.0956 -0.49792,-0.0205 -0.20724,0.0829 -0.14568,0.14449 0.15695,0.15695 0.27386,0.0113 0.4273,-0.0501 0.34097,-0.13644 z m 205.88556,-0.0151 c -0.1786,-0.072 -0.47086,-0.072 -0.64946,0 -0.1786,0.072 -0.0325,0.13103 0.32473,0.13103 0.35721,0 0.50334,-0.059 0.32473,-0.13103 z m -235.17098,-0.34752 c 0.47488,-0.3069 0.0647,-0.3069 -0.64947,0 -0.34259,0.14721 -0.38684,0.22813 -0.12989,0.23754 0.21432,0.008 0.56503,-0.099 0.77936,-0.23754 z m 6.23485,0 c 0,-0.14289 -0.24071,-0.25979 -0.5349,-0.25979 -0.29419,0 -0.46266,0.1169 -0.37435,0.25979 0.0883,0.14288 0.32901,0.25978 0.53491,0.25978 0.20589,0 0.37434,-0.1169 0.37434,-0.25978 z m 9.02214,0.10283 c -0.0863,-0.0863 -0.31039,-0.0956 -0.49792,-0.0205 -0.20724,0.0829 -0.14568,0.14449 0.15695,0.15695 0.27386,0.0113 0.4273,-0.0501 0.34097,-0.13644 z m 85.40996,-0.10283 c -0.0883,-0.14289 -0.29979,-0.258 -0.46996,-0.25581 -0.18591,0.003 -0.15387,0.10449 0.0803,0.25581 0.49908,0.32253 0.58901,0.32253 0.38968,0 z m -103.07538,-0.15696 c -0.0863,-0.0863 -0.3104,-0.0956 -0.49793,-0.0205 -0.20724,0.083 -0.14567,0.14449 0.15696,0.15695 0.27386,0.0113 0.42729,-0.0501 0.34097,-0.13644 z m 11.4934,-0.2772 c 0.18438,-0.17127 -0.58058,-0.59647 -1.08123,-0.60101 -0.59894,-0.005 -0.87988,0.51095 -0.29046,0.53386 0.42179,0.0164 0.4167,0.043 -0.0496,0.25912 -0.38137,0.17679 -0.27771,0.19841 0.38967,0.0813 0.50009,-0.0878 0.96432,-0.21073 1.03162,-0.27325 z m -4.47919,0.0174 c -0.0863,-0.0863 -0.31039,-0.0956 -0.49792,-0.0205 -0.20724,0.083 -0.14568,0.14449 0.15695,0.15695 0.27386,0.0113 0.4273,-0.0501 0.34097,-0.13644 z m 95.4117,-0.26303 c 0,-0.0548 -0.37993,-0.0978 -0.8443,-0.0956 -0.57403,0.003 -0.73115,0.0757 -0.49081,0.22794 0.32239,0.20427 1.33511,0.1039 1.33511,-0.13233 z m -44.42335,0.0456 c 0,-0.063 -0.1169,-0.1868 -0.25978,-0.27511 -0.14289,-0.0883 -0.25979,-0.0367 -0.25979,0.11455 0,0.15132 0.1169,0.27513 0.25979,0.27513 0.14288,0 0.25978,-0.0515 0.25978,-0.11457 z m 40.45621,-0.30217 c -0.0863,-0.0863 -0.31039,-0.0956 -0.49792,-0.0205 -0.20724,0.083 -0.14568,0.1445 0.15695,0.15696 0.27386,0.0112 0.4273,-0.0501 0.34097,-0.13644 z m -83.65099,-0.25979 c -0.0863,-0.0863 -0.31039,-0.0956 -0.49792,-0.0205 -0.20724,0.083 -0.14568,0.14449 0.15695,0.15695 0.27386,0.0113 0.4273,-0.0501 0.34097,-0.13644 z m 253.49129,-0.22481 c 0.42865,-0.0538 1.15929,-0.10682 1.62366,-0.11781 0.46437,-0.011 0.8443,-0.14958 0.8443,-0.30794 0,-0.17409 -0.24612,-0.22618 -0.62236,-0.13175 -0.42138,0.10576 -0.67046,0.0309 -0.77123,-0.23162 -0.0818,-0.21331 -0.3863,-0.38783 -0.67653,-0.38783 -0.29026,0 -0.52773,-0.1169 -0.52773,-0.25979 0,-0.44415 -0.54168,-0.28736 -1.34632,0.38968 -0.77387,0.65117 -1.42253,0.87653 -1.12165,0.38968 0.0883,-0.14288 -0.003,-0.25978 -0.20115,-0.25978 -0.4214,0 -0.49894,0.77045 -0.0803,0.79762 0.15478,0.01 0.0476,0.1134 -0.23815,0.22971 -0.4858,0.1977 1.11516,0.14113 3.11743,-0.11017 z m -261.60418,-0.13767 c -0.0883,-0.14288 -0.35824,-0.25799 -0.59985,-0.25581 -0.37858,0.003 -0.38544,0.0388 -0.0496,0.25581 0.50875,0.32879 0.85266,0.32879 0.64946,0 z m 1.94839,0 c 0.5221,-0.1672 0.54758,-0.20949 0.1299,-0.21563 -0.28577,-0.004 -0.75338,0.0928 -1.03915,0.21563 -0.66199,0.28447 0.021,0.28447 0.90925,0 z m 3.11743,0 c 0,-0.14288 -0.11,-0.25978 -0.24445,-0.25978 -0.13445,0 -0.3167,0.1169 -0.40501,0.25978 -0.0883,0.14288 0.0217,0.25979 0.24445,0.25979 0.22275,0 0.40501,-0.11691 0.40501,-0.25979 z m 19.61436,0.0937 c 0.34517,-0.13245 0.36261,-0.21048 0.0862,-0.3857 -0.46489,-0.29469 -1.51555,-0.28739 -1.51555,0.0106 0,0.21846 0.39847,0.47055 0.82306,0.52072 0.0955,0.0113 0.36831,-0.0542 0.6063,-0.14554 z m 37.77663,-0.26017 c 0.26069,-0.22482 -0.92648,-0.0591 -1.27728,0.1783 -0.28459,0.19258 -0.1795,0.21668 0.38968,0.0894 0.42864,-0.0959 0.82806,-0.21633 0.8876,-0.26767 z m -40.11524,-0.0933 c 0.0883,-0.14289 0.0367,-0.25979 -0.11456,-0.25979 -0.15131,0 -0.27512,0.1169 -0.27512,0.25979 0,0.14288 0.0515,0.25978 0.11456,0.25978 0.063,0 0.18681,-0.1169 0.27512,-0.25978 z m 4.93593,0 c 0.34258,-0.14722 0.38683,-0.22814 0.12989,-0.23755 -0.21432,-0.008 -0.56503,0.099 -0.77936,0.23755 -0.47488,0.30689 -0.0647,0.30689 0.64947,0 z m 64.22659,0.10283 c -0.0863,-0.0863 -0.31039,-0.0956 -0.49792,-0.0205 -0.20724,0.0829 -0.14568,0.14449 0.15696,0.15695 0.27385,0.0113 0.42729,-0.0501 0.34096,-0.13644 z m 109.10999,0 c -0.0863,-0.0863 -0.31039,-0.0956 -0.49792,-0.0205 -0.20724,0.0829 -0.14568,0.14449 0.15695,0.15695 0.27386,0.0113 0.4273,-0.0501 0.34097,-0.13644 z m 57.09331,-0.10283 c -0.0883,-0.14289 -0.35824,-0.258 -0.59984,-0.25581 -0.37859,0.003 -0.38544,0.0388 -0.0496,0.25581 0.50876,0.32878 0.85267,0.32878 0.64946,0 z M 182.57497,795.1165 c 0.5011,-0.40656 0.54795,-0.50426 0.17086,-0.35627 -0.28576,0.11215 -0.7826,0.26096 -1.10408,0.33068 -0.32149,0.0697 -0.58452,0.23005 -0.58452,0.35627 0,0.41663 0.81571,0.23891 1.51774,-0.33068 z m 246.24745,0.40323 c -0.0863,-0.0863 -0.3104,-0.0956 -0.49793,-0.0205 -0.20724,0.083 -0.14569,0.14449 0.15696,0.15695 0.27384,0.0113 0.42729,-0.0501 0.34097,-0.13644 z m 10.87873,-0.14698 c 0.12841,-0.20775 0.043,-0.24834 -0.26997,-0.12825 -0.25178,0.0966 -0.99087,-0.005 -1.64242,-0.22651 -0.82144,-0.27889 -1.26757,-0.31921 -1.45526,-0.13153 -0.18767,0.18768 0.004,0.27188 0.62561,0.27463 0.49294,0.003 1.07162,0.1173 1.28594,0.25581 0.53269,0.34425 1.22912,0.32314 1.4561,-0.0442 z m -218.63693,-0.20749 c 0,-0.1384 -0.17535,-0.18434 -0.38968,-0.1021 -0.21432,0.0823 -0.38967,0.19548 -0.38967,0.25164 0,0.0561 0.17535,0.10209 0.38967,0.10209 0.21433,0 0.38968,-0.11323 0.38968,-0.25163 z m 13.63875,-0.011 c -0.66766,-0.28321 -1.16917,-0.30983 -1.16852,-0.0621 2.6e-4,0.10716 0.38022,0.21454 0.84431,0.23864 0.6766,0.0352 0.74084,1.3e-4 0.32421,-0.17658 z m 31.69385,0.003 c 0.2032,-0.32878 -0.1407,-0.32878 -0.64946,0 -0.33583,0.21703 -0.32897,0.25238 0.0496,0.25581 0.24162,0.003 0.51154,-0.11292 0.59985,-0.25581 z m -92.94374,-0.15695 c -0.0863,-0.0863 -0.31039,-0.0956 -0.49792,-0.0205 -0.20724,0.0829 -0.14568,0.14449 0.15696,0.15695 0.27385,0.0113 0.42729,-0.0501 0.34096,-0.13644 z m 5.91554,-0.10283 c 0.0883,-0.14288 -0.0148,-0.25979 -0.22912,-0.25979 -0.21432,0 -0.46193,0.11691 -0.55024,0.25979 -0.0883,0.14288 0.0148,0.25978 0.22913,0.25978 0.21432,0 0.46192,-0.1169 0.55023,-0.25978 z m 7.44399,-0.32361 c -0.14573,-0.14572 -0.47739,-0.17843 -0.73704,-0.0726 -0.44441,0.18099 -0.44162,0.20396 0.0474,0.39166 0.63097,0.24215 1.05469,0.0461 0.68956,-0.31898 z m 2.68765,0.32361 c -0.0883,-0.14288 -0.35823,-0.25157 -0.59985,-0.24153 -0.35811,0.0149 -0.34327,0.0595 0.0803,0.24153 0.69516,0.29872 0.70419,0.29872 0.51957,0 z m 26.26947,-0.16092 c 0.50356,-0.12638 0.57152,-0.23196 0.33374,-0.51847 -0.22811,-0.27484 -0.21954,-0.35976 0.0363,-0.35976 0.18419,0 0.26306,-0.0718 0.17526,-0.15963 -0.0878,-0.0878 -0.7026,0.10322 -1.36622,0.42447 -0.87177,0.42202 -1.10981,0.64577 -0.85786,0.80636 0.1918,0.12225 0.50571,0.16455 0.69759,0.094 0.19188,-0.0706 0.63341,-0.19968 0.98118,-0.28697 z m 7.1745,0.16092 c 0.15334,0 0.0853,-0.21379 -0.15113,-0.47508 -0.55433,-0.61252 -0.54577,-0.84356 0.0247,-0.66619 0.36994,0.11503 0.38204,0.0959 0.0649,-0.10277 -0.58662,-0.3675 -2.30761,-0.57412 -2.47853,-0.29757 -0.0825,0.13347 -0.32534,0.24268 -0.53967,0.24268 -0.2284,0 -0.31296,-0.12414 -0.20431,-0.29992 0.11501,-0.1861 0.0713,-0.2294 -0.11531,-0.1141 -0.16537,0.1022 -0.62182,0.36174 -1.01433,0.57676 -0.70807,0.38787 -0.70502,0.3896 0.39042,0.22115 0.90666,-0.13942 1.10409,-0.096 1.10409,0.24274 0,0.42551 0.22932,0.50406 1.23398,0.42268 0.32149,-0.0261 0.58452,0.0904 0.58452,0.25882 0,0.17246 0.17946,0.23731 0.41093,0.14849 0.226,-0.0867 0.53638,-0.15769 0.68972,-0.15769 z m 8.70085,0.10283 c -0.0863,-0.0863 -0.3104,-0.0956 -0.49793,-0.0205 -0.20724,0.0829 -0.14567,0.14449 0.15696,0.15695 0.27386,0.0113 0.42729,-0.0501 0.34097,-0.13644 z m -39.87169,-0.34472 c 0.37662,-0.0346 0.19024,-0.79726 -0.19484,-0.79726 -0.21433,0 -0.38968,0.11913 -0.38968,0.26474 0,0.14868 -0.31319,0.20494 -0.71441,0.12834 -0.39293,-0.075 -0.56755,-0.0673 -0.38806,0.0172 0.17949,0.0845 0.26506,0.25281 0.19015,0.374 -0.0749,0.12121 0.1874,0.17773 0.5829,0.12561 0.3955,-0.0521 0.80678,-0.10282 0.91394,-0.11267 z m 3.45022,-0.26463 c -0.0956,-0.15472 -0.29517,-0.20634 -0.44343,-0.11471 -0.17454,0.10787 -0.14797,0.24176 0.0753,0.37979 0.41689,0.25766 0.60666,0.12098 0.36805,-0.26508 z m 29.85232,0.27096 c 0.0801,-0.12955 -0.0884,-0.17438 -0.37435,-0.0996 -0.60659,0.15862 -0.68327,0.33515 -0.14559,0.33515 0.2059,0 0.43986,-0.106 0.51994,-0.23556 z m 12.28443,0.0786 c -0.0863,-0.0863 -0.31039,-0.0956 -0.49792,-0.0205 -0.20724,0.0829 -0.14568,0.14449 0.15695,0.15695 0.27386,0.0113 0.4273,-0.0501 0.34097,-0.13644 z m 1.36929,-0.26052 c 0,-0.0561 -0.24071,-0.1021 -0.53491,-0.1021 -0.29419,0 -0.4658,0.1118 -0.38136,0.24844 0.13863,0.2243 0.91627,0.1001 0.91627,-0.14634 z m -61.17953,-0.1021 c -0.0883,-0.14288 -0.33591,-0.25978 -0.55023,-0.25978 -0.21433,0 -0.31744,0.1169 -0.22913,0.25978 0.0883,0.14288 0.33592,0.25979 0.55024,0.25979 0.21432,0 0.31743,-0.11691 0.22912,-0.25979 z m 3.24732,-0.12989 c -0.34898,-0.42049 -1.68994,-0.5524 -1.43583,-0.14124 0.0844,0.13664 0.31333,0.18713 0.50862,0.11219 0.1953,-0.0749 0.43226,-0.0113 0.52659,0.14123 0.0943,0.15263 0.29582,0.2775 0.44776,0.2775 0.17421,0 0.15679,-0.14395 -0.0471,-0.38968 z m 12.33982,0.12989 c 0.0883,-0.14288 -0.0286,-0.25978 -0.25978,-0.25978 -0.2312,0 -0.3481,0.1169 -0.25979,0.25978 0.0883,0.14288 0.20521,0.25979 0.25979,0.25979 0.0546,0 0.17147,-0.11691 0.25978,-0.25979 z m 24.99896,0.10283 c -0.0863,-0.0863 -0.31039,-0.0956 -0.49792,-0.0205 -0.20724,0.083 -0.14568,0.14449 0.15695,0.15695 0.27386,0.0113 0.4273,-0.0501 0.34097,-0.13643 z m 45.01328,-0.12034 c 0,-0.15251 0.20458,-0.21236 0.45463,-0.13299 0.34982,0.11102 0.45462,-0.004 0.45462,-0.50207 0,-0.35549 -0.0877,-0.64636 -0.19484,-0.64636 -0.10716,0 -0.19484,0.18786 -0.19484,0.41748 0,0.25131 -0.1449,0.36186 -0.36408,0.27776 -0.21648,-0.083 -0.41726,0.0636 -0.49524,0.36188 -0.0721,0.27588 -0.0252,0.5016 0.10429,0.5016 0.1295,0 0.23546,-0.12479 0.23546,-0.2773 z m 167.67659,-0.37806 c 0.97516,-0.0749 1.8529,-0.18557 1.95055,-0.24591 0.0976,-0.0604 0.96859,-0.18547 1.93543,-0.27806 0.96684,-0.0926 2.10554,-0.26802 2.53044,-0.38988 0.42488,-0.12186 0.94118,-0.15684 1.14732,-0.0778 0.20614,0.0791 0.37479,0.0107 0.37479,-0.15192 0,-0.5593 -0.80037,-0.59957 -3.44964,-0.17358 -1.46044,0.23484 -3.58361,0.54085 -4.71823,0.68004 -1.96281,0.2408 -2.81478,0.66722 -2.15175,1.077 0.16728,0.10338 0.37253,0.0773 0.45611,-0.0579 0.0836,-0.13523 0.94982,-0.30716 1.92498,-0.38206 z m 10.14671,0.39557 c -0.0883,-0.14288 -0.29979,-0.25799 -0.46995,-0.25581 -0.1859,0.003 -0.15387,0.1045 0.0803,0.25581 0.49908,0.32253 0.58901,0.32253 0.38968,0 z m -244.32843,-0.21809 c 0,-0.11994 -0.29776,-0.35375 -0.66169,-0.51957 -0.80723,-0.3678 -0.89703,-0.37197 -0.89703,-0.0417 0,0.14288 0.23381,0.25979 0.51958,0.25979 0.28576,0 0.51957,0.1169 0.51957,0.25978 0,0.14289 0.1169,0.25979 0.25978,0.25979 0.14289,0 0.25979,-0.0981 0.25979,-0.21809 z m 8.9626,-0.0417 c 0.0883,-0.14288 -0.0286,-0.25979 -0.25978,-0.25979 -0.23119,0 -0.3481,0.11691 -0.25979,0.25979 0.0883,0.14288 0.20522,0.25979 0.25979,0.25979 0.0545,0 0.17147,-0.11691 0.25978,-0.25979 z m 2.27313,0.0877 c -0.1786,-0.072 -0.47086,-0.072 -0.64946,0 -0.17861,0.072 -0.0325,0.13103 0.32473,0.13103 0.3572,0 0.50333,-0.059 0.32473,-0.13103 z m 53.57896,-0.0848 c 0.091,-0.14726 -0.0133,-0.19082 -0.24446,-0.1021 -0.45005,0.1727 -0.5324,0.35891 -0.15872,0.35891 0.13446,0 0.31588,-0.11556 0.40318,-0.25681 z m 20.71974,0.0848 c -0.1786,-0.072 -0.47086,-0.072 -0.64946,0 -0.1786,0.072 -0.0325,0.13103 0.32473,0.13103 0.35721,0 0.50334,-0.059 0.32473,-0.13103 z m 2.59786,0 c -0.1786,-0.072 -0.47086,-0.072 -0.64946,0 -0.17861,0.072 -0.0325,0.13103 0.32473,0.13103 0.3572,0 0.50333,-0.059 0.32473,-0.13103 z m 152.13335,-0.0599 c 0.24599,-0.15585 0.072,-0.25689 -0.57179,-0.33205 -0.73477,-0.0858 -0.86794,-0.0388 -0.6465,0.22799 0.32227,0.38831 0.71652,0.42198 1.21829,0.10406 z m -209.48104,-0.2876 c 0.20709,-0.33506 -1.17012,-0.33506 -1.68861,0 -0.29046,0.18772 -0.14554,0.25284 0.56919,0.25581 0.52738,0.003 1.03111,-0.11292 1.11942,-0.25581 z m 3.37722,0 c -0.28577,-0.1228 -0.69493,-0.22326 -0.90925,-0.22326 -0.24562,0 -0.19761,0.0825 0.12989,0.22326 0.28576,0.1228 0.69493,0.22327 0.90925,0.22327 0.24562,0 0.1976,-0.0825 -0.12989,-0.22327 z m 146.7789,0 c 0.0883,-0.14288 0.0367,-0.25978 -0.11455,-0.25978 -0.15132,0 -0.27512,0.1169 -0.27512,0.25978 0,0.14289 0.0515,0.25979 0.11455,0.25979 0.063,0 0.18681,-0.1169 0.27512,-0.25979 z m -199.45586,-0.15695 c -0.0863,-0.0863 -0.3104,-0.0956 -0.49793,-0.0205 -0.20724,0.083 -0.14567,0.14449 0.15696,0.15695 0.27386,0.0113 0.42729,-0.0501 0.34097,-0.13644 z m 8.25177,-0.0998 c 0.091,-0.14727 -0.0132,-0.19082 -0.24446,-0.10211 -0.45005,0.17271 -0.5324,0.35891 -0.15872,0.35891 0.13446,0 0.31588,-0.11556 0.40318,-0.2568 z m 46.24369,-0.003 c 0.20441,-0.33076 -0.39744,-0.33076 -0.90925,0 -0.3168,0.20474 -0.28324,0.25257 0.1795,0.25581 0.31306,0.003 0.64144,-0.11293 0.72975,-0.25581 z m 2.04957,-0.14876 c 0.10933,-0.28491 0.026,-0.38319 -0.2754,-0.32473 -0.23771,0.0461 -0.48085,0.22994 -0.54031,0.40854 -0.15904,0.47766 0.63142,0.39644 0.81571,-0.0838 z m 2.52891,-0.1803 c -0.25657,-0.25466 -0.28641,-0.22482 -0.14542,0.14543 0.0976,0.2562 0.24281,0.40038 0.3228,0.3204 0.08,-0.08 1.6e-4,-0.28961 -0.17738,-0.46583 z m 1.91616,0.0693 c -0.0883,-0.14288 -0.29979,-0.25799 -0.46996,-0.25581 -0.18591,0.003 -0.15387,0.1045 0.0803,0.25581 0.49908,0.32254 0.58901,0.32254 0.38968,0 z m 27.1476,0 c 0,-0.14288 -0.18226,-0.25978 -0.40501,-0.25978 -0.22275,0 -0.33276,0.1169 -0.24445,0.25978 0.0883,0.14289 0.27055,0.25979 0.40501,0.25979 0.13445,0 0.24445,-0.1169 0.24445,-0.25979 z m 3.05248,0.096 c 0.32149,-0.0862 0.58452,-0.25991 0.58452,-0.38613 0,-0.36856 -1.38236,-0.2481 -1.9331,0.16845 -0.48767,0.36885 -0.48339,0.3813 0.12989,0.37787 0.3488,-0.002 0.89721,-0.074 1.21869,-0.16019 z m 61.56921,0 c 0.66702,-0.17875 0.7911,-0.61562 0.17485,-0.61562 -0.22531,0 -0.76579,-0.35614 -1.20107,-0.79141 -0.7825,-0.78249 -0.79562,-0.78542 -1.16378,-0.25978 -0.20481,0.29238 -0.5411,0.53162 -0.74732,0.53162 -0.81723,0 -0.30687,0.52479 0.85903,0.8833 1.49342,0.45921 1.36345,0.44346 2.07829,0.25189 z m -106.96675,-0.19814 c 0,-0.0562 -0.17536,-0.16939 -0.38968,-0.25164 -0.21433,-0.0823 -0.38968,-0.0363 -0.38968,0.10211 0,0.13839 0.17535,0.25162 0.38968,0.25162 0.21432,0 0.38968,-0.046 0.38968,-0.10209 z m 54.68488,-0.15769 c 0.0883,-0.14288 0.0367,-0.25979 -0.11456,-0.25979 -0.15131,0 -0.27512,0.11691 -0.27512,0.25979 0,0.14288 0.0515,0.25978 0.11456,0.25978 0.063,0 0.18681,-0.1169 0.27512,-0.25978 z m 6.29439,0.10283 c -0.0863,-0.0863 -0.31039,-0.0956 -0.49792,-0.0205 -0.20724,0.083 -0.14568,0.14448 0.15695,0.15695 0.27386,0.0113 0.4273,-0.0501 0.34097,-0.13645 z m 98.52913,-0.10283 c 0,-0.14288 -0.0515,-0.25979 -0.11455,-0.25979 -0.063,0 -0.18682,0.11691 -0.27513,0.25979 -0.0883,0.14288 -0.0367,0.25978 0.11456,0.25978 0.15132,0 0.27512,-0.1169 0.27512,-0.25978 z m -204.38035,-0.15832 c 0.27724,-0.27724 -0.42827,-0.80743 -0.90761,-0.68208 -0.68091,0.17807 -0.56754,0.83965 0.14387,0.83965 0.33339,0 0.67708,-0.0709 0.76374,-0.15757 z m 9.11547,-0.23211 c -0.0823,-0.21432 -0.40006,-0.37611 -0.70626,-0.35954 -0.44387,0.024 -0.46392,0.0544 -0.0989,0.14955 0.25179,0.0657 0.39103,0.22748 0.3094,0.35954 -0.0817,0.13208 0.0302,0.24013 0.24845,0.24013 0.24603,0 0.34003,-0.14809 0.24733,-0.38968 z m 2.50391,0.1299 c 0,-0.14288 -0.11691,-0.25979 -0.25979,-0.25979 -0.14288,0 -0.25978,0.11691 -0.25978,0.25979 0,0.14288 0.1169,0.25978 0.25978,0.25978 0.14288,0 0.25979,-0.1169 0.25979,-0.25978 z m 36.2401,0 c 0.0883,-0.14288 -0.0217,-0.25979 -0.24445,-0.25979 -0.22276,0 -0.40501,0.11691 -0.40501,0.25979 0,0.14288 0.11,0.25978 0.24445,0.25978 0.13445,0 0.3167,-0.1169 0.40501,-0.25978 z m 53.38596,0 c 0,-0.14288 -0.0515,-0.25979 -0.11456,-0.25979 -0.063,0 -0.18681,0.11691 -0.27512,0.25979 -0.0883,0.14288 -0.0367,0.25978 0.11456,0.25978 0.15131,0 0.27512,-0.1169 0.27512,-0.25978 z m 9.0925,0 c 0,-0.14288 -0.17536,-0.25979 -0.38968,-0.25979 -0.21433,0 -0.38968,0.11691 -0.38968,0.25979 0,0.14288 0.17535,0.25978 0.38968,0.25978 0.21432,0 0.38968,-0.1169 0.38968,-0.25978 z m 5.58539,0 c -0.0883,-0.14288 -0.27056,-0.25979 -0.40502,-0.25979 -0.13444,0 -0.24445,0.11691 -0.24445,0.25979 0,0.14288 0.18226,0.25978 0.40502,0.25978 0.22275,0 0.33276,-0.1169 0.24445,-0.25978 z m -87.74803,-0.41674 c -0.0863,-0.0863 -0.31039,-0.0956 -0.49792,-0.0205 -0.20724,0.083 -0.14568,0.14449 0.15695,0.15696 0.27386,0.0113 0.4273,-0.0501 0.34097,-0.13645 z m 23.90029,0 c -0.0863,-0.0863 -0.3104,-0.0956 -0.49793,-0.0205 -0.20724,0.083 -0.14568,0.14449 0.15696,0.15696 0.27385,0.0113 0.42729,-0.0501 0.34097,-0.13645 z m 3.57746,-0.10283 c 0.0883,-0.14289 -0.0217,-0.25979 -0.24445,-0.25979 -0.22276,0 -0.40501,0.1169 -0.40501,0.25979 0,0.14288 0.11,0.25978 0.24445,0.25978 0.13445,0 0.3167,-0.1169 0.40501,-0.25978 z m 2.13424,-0.22655 c 0.0317,-0.42093 -0.0452,-0.4477 -0.572,-0.1991 -0.66748,0.315 -0.62078,0.68543 0.0864,0.68543 0.2525,0 0.46499,-0.21281 0.48559,-0.48633 z m 48.39408,0.22655 c 0,-0.14289 -0.11691,-0.25979 -0.25979,-0.25979 -0.14288,0 -0.25979,0.1169 -0.25979,0.25979 0,0.14288 0.11691,0.25978 0.25979,0.25978 0.14288,0 0.25979,-0.1169 0.25979,-0.25978 z m 1.55871,0.14522 c 0,-0.063 -0.1169,-0.18681 -0.25979,-0.27512 -0.14288,-0.0883 -0.25978,-0.0367 -0.25978,0.11456 0,0.15132 0.1169,0.27512 0.25978,0.27512 0.14289,0 0.25979,-0.0515 0.25979,-0.11456 z m 1.4357,-0.61462 c -0.08,-0.08 -0.28961,-1.7e-4 -0.46583,0.17737 -0.25466,0.25657 -0.22482,0.28641 0.14542,0.14543 0.2562,-0.0976 0.40039,-0.24282 0.32041,-0.3228 z m -63.71932,0.0376 c -0.1786,-0.072 -0.47086,-0.072 -0.64946,0 -0.1786,0.072 -0.0325,0.13103 0.32473,0.13103 0.35721,0 0.50334,-0.059 0.32473,-0.13103 z m 13.44391,-0.0877 c 0,-0.14288 -0.1169,-0.25978 -0.25978,-0.25978 -0.14289,0 -0.25979,0.1169 -0.25979,0.25978 0,0.14288 0.1169,0.25979 0.25979,0.25979 0.14288,0 0.25978,-0.11691 0.25978,-0.25979 z m 57.41264,-0.0996 c 0,-0.0548 -0.23397,-0.16078 -0.51993,-0.23556 -0.28596,-0.0748 -0.45442,-0.03 -0.37435,0.0996 0.13983,0.22624 0.89428,0.34095 0.89428,0.13596 z m 97.67941,-0.16019 c -0.21432,-0.13851 -0.62348,-0.24541 -0.90925,-0.23755 -0.51957,0.0143 -0.51957,0.0143 0,0.23755 0.28577,0.1228 0.69493,0.22969 0.90925,0.23754 0.34638,0.0127 0.34638,-0.0137 0,-0.23754 z m -20.39317,-0.25979 c 0.20319,-0.32878 -0.14071,-0.32878 -0.64947,0 -0.33582,0.21703 -0.32896,0.25238 0.0496,0.25581 0.24162,0.003 0.51155,-0.11293 0.59986,-0.25581 z m 2.13782,-0.15695 c -0.0863,-0.0863 -0.3104,-0.0956 -0.49793,-0.0205 -0.20724,0.083 -0.14568,0.14449 0.15696,0.15696 0.27385,0.0113 0.42729,-0.0501 0.34097,-0.13645 z"
       style="fill:#000000;stroke-width:0.86595225" />
  </g>
</svg>
