<svg xmlns="http://www.w3.org/2000/svg" xmlns:xlink="http://www.w3.org/1999/xlink" viewBox="0 0 1278.4168 604.13602" version="1.1">
  <defs>
    <linearGradient id="c">
      <stop offset="0" stop-color="#fff" stop-opacity="1"/>
      <stop offset="1" stop-color="#000" stop-opacity="1"/>
    </linearGradient>
    <linearGradient id="a">
      <stop offset="0" stop-color="#000" stop-opacity="1"/>
      <stop offset="1" stop-color="#fff" stop-opacity="1"/>
    </linearGradient>
    <linearGradient id="b" x1="3721.1494" x2="3796.2793" y1="-406.04547" y2="-397.20667" gradientUnits="userSpaceOnUse" xlink:href="#a"/>
    <linearGradient id="d" x1="3124.5281" x2="3246.062" y1="-293.35034" y2="-282.30179" gradientUnits="userSpaceOnUse" xlink:href="#c"/>
    <linearGradient id="e">
      <stop offset="0" stop-color="#000" stop-opacity="1"/>
      <stop offset="1" stop-color="#000" stop-opacity="0"/>
    </linearGradient>
  </defs>
  <text x="778.59375" y="-107.80928" fill="#000" fill-opacity="1" stroke="none" stroke-opacity="1" stroke-width="1" style="line-height:125%;text-align:center" xml:space="preserve" font-style="normal" font-weight="normal" font-size="40" font-family="sans-serif" letter-spacing="0" word-spacing="0" text-anchor="middle" stroke-linecap="butt" stroke-linejoin="miter"/>
  <flowRoot fill="#502d16" fill-opacity="1" stroke="none" stroke-opacity="1" stroke-width="1" transform="translate(2536.044 -187.513)" style="line-height:125%;text-align:center" xml:space="preserve" font-style="normal" font-weight="normal" font-size="29.9265213" font-family="sans-serif" letter-spacing="0" word-spacing="0" text-anchor="middle" stroke-linecap="butt" stroke-linejoin="miter">
    <flowRegion>
      <path fill="#502d16" fill-opacity="1" d="M-1117.8109-137.5394h477.63953v104.29471h-477.63953z"/>
    </flowRegion>
    <flowPara/>
  </flowRoot>
  <flowRoot fill="#502d16" fill-opacity="1" stroke="none" stroke-opacity="1" stroke-width="1" transform="translate(2536.044 -187.513)" xml:space="preserve" style="line-height:125%;text-align:center" font-style="normal" font-weight="normal" font-size="29.9265213" font-family="sans-serif" letter-spacing="0" word-spacing="0" text-anchor="middle" stroke-linecap="butt" stroke-linejoin="miter">
    <flowRegion>
      <path fill="#502d16" fill-opacity="1" d="M-1907.8108 652.46063h477.63953v104.29471h-477.63953z"/>
    </flowRegion>
    <flowPara/>
  </flowRoot>
  <flowRoot fill="#502d16" fill-opacity="1" stroke="none" stroke-opacity="1" stroke-width="1" transform="translate(-1551.406 -2144.17)" style="line-height:125%;text-align:center" xml:space="preserve" font-style="normal" font-weight="normal" font-size="29.9265213" font-family="sans-serif" letter-spacing="0" word-spacing="0" text-anchor="middle" stroke-linecap="butt" stroke-linejoin="miter">
    <flowRegion>
      <path fill="#502d16" fill-opacity="1" d="M2179.6399 3399.1187h477.63953v104.29471H2179.6399z"/>
    </flowRegion>
    <flowPara/>
  </flowRoot>
  <text x="9967.6035" y="1790.5339" fill="#000" fill-opacity="1" stroke="none" stroke-opacity="1" stroke-width="1" style="line-height:125%;text-align:center" xml:space="preserve" font-style="normal" font-weight="normal" font-size="40" font-family="sans-serif" letter-spacing="0" word-spacing="0" text-anchor="middle" stroke-linecap="butt" stroke-linejoin="miter"/>
  <flowRoot fill="#502d16" fill-opacity="1" stroke="none" stroke-opacity="1" stroke-width="1" transform="translate(11725.054 1710.83)" style="line-height:125%;text-align:center" xml:space="preserve" font-style="normal" font-weight="normal" font-size="29.9265213" font-family="sans-serif" letter-spacing="0" word-spacing="0" text-anchor="middle" stroke-linecap="butt" stroke-linejoin="miter">
    <flowRegion>
      <path fill="#502d16" fill-opacity="1" d="M-1117.8109-137.5394h477.63953v104.29471h-477.63953z"/>
    </flowRegion>
    <flowPara/>
  </flowRoot>
  <flowRoot fill="#502d16" fill-opacity="1" stroke="none" stroke-opacity="1" stroke-width="1" transform="translate(11725.054 1710.83)" xml:space="preserve" style="line-height:125%;text-align:center" font-style="normal" font-weight="normal" font-size="29.9265213" font-family="sans-serif" letter-spacing="0" word-spacing="0" text-anchor="middle" stroke-linecap="butt" stroke-linejoin="miter">
    <flowRegion>
      <path fill="#502d16" fill-opacity="1" d="M-1907.8108 652.46063h477.63953v104.29471h-477.63953z"/>
    </flowRegion>
    <flowPara/>
  </flowRoot>
  <flowRoot fill="#502d16" fill-opacity="1" stroke="none" stroke-opacity="1" stroke-width="1" transform="translate(7637.602 -245.828)" style="line-height:125%;text-align:center" xml:space="preserve" font-style="normal" font-weight="normal" font-size="29.9265213" font-family="sans-serif" letter-spacing="0" word-spacing="0" text-anchor="middle" stroke-linecap="butt" stroke-linejoin="miter">
    <flowRegion>
      <path fill="#502d16" fill-opacity="1" d="M2179.6399 3399.1187h477.63953v104.29471H2179.6399z"/>
    </flowRegion>
    <flowPara/>
  </flowRoot>
  <text x="4644.0693" y="333.21869" fill="#000" fill-opacity="1" stroke="none" stroke-opacity="1" stroke-width="1" style="line-height:125%;text-align:center" xml:space="preserve" font-style="normal" font-weight="normal" font-size="40" font-family="sans-serif" letter-spacing="0" word-spacing="0" text-anchor="middle" stroke-linecap="butt" stroke-linejoin="miter"/>
  <flowRoot fill="#502d16" fill-opacity="1" stroke="none" stroke-opacity="1" stroke-width="1" transform="translate(6401.52 253.515)" style="line-height:125%;text-align:center" xml:space="preserve" font-style="normal" font-weight="normal" font-size="29.9265213" font-family="sans-serif" letter-spacing="0" word-spacing="0" text-anchor="middle" stroke-linecap="butt" stroke-linejoin="miter">
    <flowRegion>
      <path fill="#502d16" fill-opacity="1" d="M-1117.8109-137.5394h477.63953v104.29471h-477.63953z"/>
    </flowRegion>
    <flowPara/>
  </flowRoot>
  <flowRoot fill="#502d16" fill-opacity="1" stroke="none" stroke-opacity="1" stroke-width="1" transform="translate(6401.52 253.515)" xml:space="preserve" style="line-height:125%;text-align:center" font-style="normal" font-weight="normal" font-size="29.9265213" font-family="sans-serif" letter-spacing="0" word-spacing="0" text-anchor="middle" stroke-linecap="butt" stroke-linejoin="miter">
    <flowRegion>
      <path fill="#502d16" fill-opacity="1" d="M-1907.8108 652.46063h477.63953v104.29471h-477.63953z"/>
    </flowRegion>
    <flowPara/>
  </flowRoot>
  <flowRoot fill="#502d16" fill-opacity="1" stroke="none" stroke-opacity="1" stroke-width="1" transform="translate(2314.07 -1703.143)" style="line-height:125%;text-align:center" xml:space="preserve" font-style="normal" font-weight="normal" font-size="29.9265213" font-family="sans-serif" letter-spacing="0" word-spacing="0" text-anchor="middle" stroke-linecap="butt" stroke-linejoin="miter">
    <flowRegion>
      <path fill="#502d16" fill-opacity="1" d="M2179.6399 3399.1187h477.63953v104.29471H2179.6399z"/>
    </flowRegion>
    <flowPara/>
  </flowRoot>
  <text x="-1941.5698" y="1167.3057" fill="#000" fill-opacity="1" stroke="none" stroke-opacity="1" stroke-width="1" style="line-height:125%;text-align:center" xml:space="preserve" font-style="normal" font-weight="normal" font-size="40" font-family="sans-serif" letter-spacing="0" word-spacing="0" text-anchor="middle" stroke-linecap="butt" stroke-linejoin="miter"/>
  <flowRoot fill="#502d16" fill-opacity="1" stroke="none" stroke-opacity="1" stroke-width="1" transform="translate(-4271.57 -869.056)" style="line-height:125%;text-align:center" xml:space="preserve" font-style="normal" font-weight="normal" font-size="29.9265213" font-family="sans-serif" letter-spacing="0" word-spacing="0" text-anchor="middle" stroke-linecap="butt" stroke-linejoin="miter">
    <flowRegion>
      <path fill="#502d16" fill-opacity="1" d="M2179.6399 3399.1187h477.63953v104.29471H2179.6399z"/>
    </flowRegion>
    <flowPara/>
  </flowRoot>
  <flowRoot fill="#000" fill-opacity="1" stroke="none" stroke-opacity="1" stroke-width="1" transform="translate(11725.054 1710.83)" style="line-height:125%;text-align:center" xml:space="preserve" font-style="normal" font-weight="normal" font-size="40" font-family="sans-serif" letter-spacing="0" word-spacing="0" text-anchor="middle" stroke-linecap="butt" stroke-linejoin="miter">
    <flowRegion>
      <path d="M-13838-2563.6377h688v452h-688z"/>
    </flowRegion>
    <flowPara/>
  </flowRoot>
  <text x="429.44092" y="-385.75732" fill="#000" fill-opacity="1" stroke="none" stroke-opacity="1" stroke-width="1" style="line-height:125%;text-align:center" xml:space="preserve" font-style="normal" font-weight="normal" font-size="40" font-family="sans-serif" letter-spacing="0" word-spacing="0" text-anchor="middle" stroke-linecap="butt" stroke-linejoin="miter"/>
  <flowRoot fill="#502d16" fill-opacity="1" stroke="none" stroke-opacity="1" stroke-width="1" transform="translate(2186.892 -465.46)" style="line-height:125%;text-align:center" xml:space="preserve" font-style="normal" font-weight="normal" font-size="29.9265213" font-family="sans-serif" letter-spacing="0" word-spacing="0" text-anchor="middle" stroke-linecap="butt" stroke-linejoin="miter">
    <flowRegion>
      <path fill="#502d16" fill-opacity="1" d="M-1117.8109-137.5394h477.63953v104.29471h-477.63953z"/>
    </flowRegion>
    <flowPara/>
  </flowRoot>
  <flowRoot fill="#502d16" fill-opacity="1" stroke="none" stroke-opacity="1" stroke-width="1" transform="translate(2186.892 -465.46)" xml:space="preserve" style="line-height:125%;text-align:center" font-style="normal" font-weight="normal" font-size="29.9265213" font-family="sans-serif" letter-spacing="0" word-spacing="0" text-anchor="middle" stroke-linecap="butt" stroke-linejoin="miter">
    <flowRegion>
      <path fill="#502d16" fill-opacity="1" d="M-1907.8108 652.46063h477.63953v104.29471h-477.63953z"/>
    </flowRegion>
    <flowPara/>
  </flowRoot>
  <flowRoot fill="#502d16" fill-opacity="1" stroke="none" stroke-opacity="1" stroke-width="1" transform="translate(-1900.56 -2422.12)" style="line-height:125%;text-align:center" xml:space="preserve" font-style="normal" font-weight="normal" font-size="29.9265213" font-family="sans-serif" letter-spacing="0" word-spacing="0" text-anchor="middle" stroke-linecap="butt" stroke-linejoin="miter">
    <flowRegion>
      <path fill="#502d16" fill-opacity="1" d="M2179.6399 3399.1187h477.63953v104.29471H2179.6399z"/>
    </flowRegion>
    <flowPara/>
  </flowRoot>
  <g fill="#47321e" fill-opacity="1">
    <g stroke="none" stroke-opacity="1" stroke-width="1" style="line-height:125%;text-align:center" font-style="normal" font-weight="bold" font-size="27.5" font-family="Roboto Slab" letter-spacing="0" word-spacing="0" text-anchor="middle" stroke-linecap="butt" stroke-linejoin="miter" font-variant="normal" font-stretch="normal">
      <path d="M1225.6733 313.52295l-1.6113.20142-3.9612 16.98608h-3.6389l-3.5852-12.90405h-.081l-3.5852 12.90405h-3.6389l-3.988-16.98608-1.5979-.20142v-2.36328h7.1972v2.36328l-1.7858.30884 2.2424 10.71533.081.0134 3.6657-13.40088h2.887l3.6926 13.40088.081-.0134 2.229-10.71533-1.7859-.30884v-2.36328h7.1838v2.36328zM1242.8474 317.75269h-2.9138l-.4028-2.60498q-.5774-.5774-1.4637-.91309-.8728-.33569-2.0678-.33569-2.5513 0-3.9344 1.85302-1.3696 1.85303-1.3696 4.83399v.68481q0 2.98096 1.3696 4.84741 1.3697 1.86646 3.8672 1.86646 1.1548 0 2.1082-.33569.9668-.3357 1.4905-.91309l.4028-2.60498h2.9138v3.86719q-1.1816 1.36963-3.0212 2.18872-1.8262.80566-4.0955.80566-3.9343 0-6.4453-2.72583-2.511-2.72583-2.511-6.99585v-.65796q0-4.25659 2.4976-6.99585 2.4975-2.73925 6.4587-2.73925 2.2693 0 4.0955.83252 1.8261.81909 3.0212 2.17529v3.86719z" style="-inkscape-font-specification:'Roboto Slab Bold'"/>
    </g>
    <g stroke="none" stroke-opacity="1" stroke-width="1" style="line-height:125%;text-align:center" font-style="normal" font-weight="bold" font-size="27.5" font-family="Roboto Slab" letter-spacing="0" word-spacing="0" text-anchor="middle" stroke-linecap="butt" stroke-linejoin="miter" font-variant="normal" font-stretch="normal">
      <path d="M23.587616 219.26788h-6.619873v5.58594h6.311035l.174561-2.33642h2.980957v5.34423h-15.46875v-2.34985l2.081298-.40283v-14.03198l-2.081298-.40284v-2.36328H26.40744v5.35767h-3.007812l-.174561-2.33643h-6.257324v4.91455h6.619873v3.02124zM48.509491 208.31085v2.36328l-2.094727.40284v16.78466h-3.90747l-7.895508-13.15918-.08057.0134v10.39307l2.094727.40283v2.34985h-8.096924v-2.34985l2.081299-.40283v-14.03198l-2.081299-.40284v-2.36328H34.531216L42.426724 221.47l.08057-.0134v-10.37963l-2.094727-.40284v-2.36328h8.096924zM67.012909 208.31085v5.20996h-3.007813l-.161132-2.18872h-3.598633v13.77686l2.094726.40283v2.34985h-8.110351v-2.34985l2.094726-.40283v-13.77686h-3.585205l-.161133 2.18872H49.58371v-5.20996h17.429199zM77.056854 208.31085q3.330078 0 5.223389 1.53076 1.89331 1.51734 1.89331 4.20288 0 1.47706-.792236 2.5647-.792236 1.08765-2.322998 1.75904 1.732178.51025 2.484131 1.70532.765381 1.18164.765381 2.94067v.99365q0 .64453.255127 1.00708.255127.34912.845947.41626l.483398.0671v2.36328h-2.027587q-1.920166 0-2.698975-1.03393-.778809-1.03394-.778809-2.67212v-1.1145q0-1.42334-.76538-2.22901-.751954-.81909-2.13501-.85937h-3.209229v5.15625l2.094727.40283v2.34985h-8.096924v-2.34985l2.081299-.40283v-14.03198l-2.081299-.40284v-2.36328h8.781738zm-2.779541 8.62061h2.712403q1.638183 0 2.457275-.69824.819092-.69825.819092-2.01416 0-1.31592-.819092-2.09473-.805664-.79224-2.390137-.79224h-2.779541v5.59937zM86.97995 225.51178l1.396484-.20142 5.948487-16.99951h4.014892l5.908207 16.99951 1.39648.20142v2.34985h-6.660156v-2.34985l1.356206-.2417-.859379-2.68555H93.14328l-.859375 2.68555 1.356201.2417v2.34985H86.97995v-2.34985zm7.089844-5.81421h4.484863l-2.202148-6.88843h-.08057l-2.202148 6.88843zM115.74216 208.31085q3.5852 0 5.9082 2.29614 2.323 2.28272 2.323 5.86792v3.23609q0 3.59863-2.323 5.88135-2.323 2.26928-5.9082 2.26928h-8.79517v-2.34985l2.0813-.40283v-14.03198l-2.0813-.40284v-2.36328h8.79517zm-2.79297 3.02124v13.52173h2.59155q2.10816 0 3.30322-1.42334 1.19507-1.42334 1.19507-3.71948v-3.26294q0-2.26929-1.19507-3.69263-1.19506-1.42334-3.30322-1.42334h-2.59155zM124.89987 225.51178l1.39649-.20142 5.94848-16.99951h4.0149l5.9082 16.99951 1.39648.20142v2.34985h-6.66015v-2.34985l1.3562-.2417-.85938-2.68555h-6.33789l-.85937 2.68555 1.3562.2417v2.34985h-6.66016v-2.34985zm7.08985-5.81421h4.48486l-2.20215-6.88843h-.0806l-2.20214 6.88843z" style="-inkscape-font-specification:'Roboto Slab Bold'"/>
    </g>
    <path d="M437.4448 10.58233c-.4328.0171-.8646.055-1.2949.11524-5.3028.10498-10.6282-.13896-15.9258.0508-1.7408.006-3.4819.006-5.2227.0137-5.4334.49877-8.8989 7.9316-8.1816 14.81641.077 5.18352-.096 10.38678.027 15.5664-.01 16.45846-.045 32.91569.066 49.3711.4987 7.30548 7.9316 11.96649 14.8164 11.00195 6.5021-.12872 13.0388.27992 19.5157-.24805 5.5849-1.04735 9.8865-6.32668 9.7832-12.00976-.021-11.45888.0003-22.91931.01-34.37891 23.1064.014 46.2121.0293 69.3164-.0684 5.4335-.49877 8.901-7.93159 8.1836-14.8164-.096-6.50205.207-13.03865-.1856-19.51563-.861-6.75767-6.084-10.6151-10.8808-9.7832-25.911.0319-51.8234-.0311-77.7344 0-.7583-.0991-1.5245-.14546-2.291-.11524zm-2.3711 14.14844h6.6191v1.93164l-1.7129.32813v11.26367h4.5118l.1543-2.00781h2.4472v4.46679h-12.0195v-1.91992l1.7012-.33008V26.99054l-1.7012-.32813v-1.93164zm13.1621 0h6.6191v1.93164l-1.7128.32813v11.47265l1.7128.33008v1.91992h-6.6191v-1.91992l1.7129-.33008V26.99054l-1.7129-.32813v-1.93164zm7.6289 0h5.8418v1.93164l-1.2187.21875 2.832 9.58399.1973.8789h.066l.1855-.85742 2.8438-9.60547-1.2071-.21875v-1.93164h5.8399v1.93164l-1.3399.17578-4.709 13.875h-3.2929l-4.7207-13.875-1.3184-.17578v-1.93164zm16.3145 0h7.1797c1.815 0 3.2375.41567 4.2695 1.25 1.0319.82702 1.5488 1.97376 1.5488 3.4375 0 .80506-.2166 1.50289-.6484 2.0957-.4318.59282-1.0641 1.07352-1.8985 1.43946.9442.27811 1.6214.74121 2.0313 1.39258.4172.64404.625 1.44554.625 2.40429v.8125c0 .3513.07.62662.209.82422.139.19029.3694.30325.6914.33984l.3945.0547v1.93164h-1.6582c-1.0466 0-1.7806-.28021-2.2051-.84375-.4245-.56354-.6367-1.29266-.6367-2.18554v-.91016c0-.77579-.2098-1.38314-.6269-1.82227-.4099-.44644-.9904-.68117-1.7442-.70312h-2.625v4.21484l1.7129.33008v1.91992h-6.6191v-1.91992l1.7011-.33008V26.99055l-1.7011-.32813v-1.93164zm15.457 0h12.625v4.37891h-2.459l-.1426-1.91016h-5.1172v4.01758h5.4122v2.4707h-5.4122v4.56641h5.1602l.1426-1.91016h2.4375v4.36914h-12.6465v-1.91992l1.7012-.33008V26.99054l-1.7012-.32813v-1.93164zm-10.5508 2.46875v4.57813h2.2188c.8928 0 1.5613-.18974 2.0078-.57032.4464-.38057.6699-.92925.6699-1.64648 0-.71724-.2235-1.28841-.6699-1.71289-.4391-.43181-1.0895-.64844-1.9531-.64844h-2.2735zM931.1753 532.36749v65.19531h65v-65.19531h-65zm24.4961 21.94922c2.1421 0 3.8428.7152 5.1035 2.14648 1.2701 1.4218 1.9062 3.49671 1.9062 6.22656v4.56446c0 2.73933-.6299 4.82038-1.8906 6.24219-1.2512 1.41232-2.9477 2.11914-5.0899 2.11914-2.1611 0-3.8721-.70682-5.1328-2.11914-1.2606-1.42181-1.8925-3.50286-1.8925-6.24219v-4.56446c0-2.72985.6257-4.80476 1.8769-6.22656 1.2607-1.43128 2.9675-2.14648 5.1192-2.14648zm10.7343.29883h11.9141v4.71875h-2.5586l-.3691-1.39258h-5.5743l-.582 4.77734c.3886-.28436.8523-.51717 1.3926-.69726.5403-.18958 1.137-.28935 1.791-.29883 1.9905-.0284 3.531.57441 4.6211 1.80664 1.09 1.23223 1.6348 2.94743 1.6348 5.14648 0 1.99052-.6009 3.64536-1.8047 4.96289-1.1943 1.31754-2.9199 1.97657-5.1758 1.97657-1.8957 0-3.5215-.51761-4.877-1.55079-1.3554-1.04265-2.0083-2.47306-1.9609-4.29296l.027-.0723 3.9805-.19922c0 .91943.2619 1.64078.7832 2.16211.5213.51185 1.2033.76758 2.0469.76758.9668 0 1.682-.34712 2.1465-1.03906.4644-.69195.6972-1.58602.6972-2.68555 0-1.19431-.2473-2.15267-.7402-2.87305s-1.2268-1.08007-2.2031-1.08008c-.7867 0-1.3938.14757-1.8203.44141-.4171.29384-.7145.69099-.8946 1.19336l-3.6679-.24219 1.1933-11.52929zm-10.7343 2.90039c-.9384 0-1.6494.37842-2.1329 1.13672-.4834.75829-.7246 1.96203-.7246 3.61132v5.38868c0 1.66824.2412 2.88233.7246 3.64062.4929.75829 1.2143 1.13672 2.1621 1.13672.929 0 1.6338-.37843 2.1172-1.13672.4834-.75829.7246-1.97238.7246-3.64062v-5.38868c0-1.63981-.2453-2.83936-.7382-3.59765-.4929-.76777-1.2039-1.15039-2.1328-1.15039zM1012.4936 532.36749v65.19531h65v-65.19531h-65zm24.0469 21.94922c2.1422 0 3.8428.7152 5.1035 2.14648 1.2702 1.4218 1.9063 3.49671 1.9063 6.22656v4.56446c0 2.73933-.63 4.82038-1.8907 6.24219-1.2512 1.41232-2.9476 2.11914-5.0898 2.11914-2.1611 0-3.8722-.70682-5.1328-2.11914-1.2607-1.42181-1.8906-3.50286-1.8906-6.24219v-4.56446c0-2.72985.6238-4.80476 1.875-6.22656 1.2606-1.43128 2.9674-2.14648 5.1191-2.14648zm17.8301 0c.7772 0 1.4924.0749 2.1465.22656.6635.14218 1.3267.35627 1.9902.64063l-.7246 3.02734c-.5972-.20853-1.148-.36449-1.6504-.46875-.5024-.11374-1.0804-.16992-1.7344-.16992-1.2322 0-2.2219.44913-2.9707 1.34961-.7393.90047-1.1136 2.22886-1.123 3.98242l.043.0703c.4645-.48341 1.0509-.86184 1.7618-1.13672.7203-.27488 1.5227-.41406 2.4043-.41406 1.8483 0 3.2974.65903 4.3496 1.97656 1.0521 1.30806 1.5781 2.98162 1.5781 5.01953 0 2.08531-.6487 3.80666-1.9473 5.16211-1.2986 1.35545-2.9763 2.03321-5.0332 2.03321-2.1801 0-3.9576-.74008-5.332-2.21875-1.3744-1.48816-2.0625-3.54433-2.0625-6.16993v-3.64062c0-2.92891.7733-5.20337 2.3183-6.82422 1.5545-1.63033 3.5504-2.44531 5.9864-2.44531zm-17.8301 3.19922c-.9384 0-1.6494.37842-2.1328 1.13672-.4834.75829-.7246 1.96203-.7246 3.61132v5.38868c0 1.66824.2412 2.88233.7246 3.64062.4929.75829 1.2142 1.13672 2.1621 1.13672.9289 0 1.6338-.37843 2.1172-1.13672.4834-.75829.7265-1.97238.7265-3.64062v-5.38868c0-1.63981-.2473-2.83936-.7402-3.59765-.4929-.76777-1.2039-1.15039-2.1328-1.15039zm16.8769 7.05078c-.7677 0-1.4226.12465-1.9628.37109-.5403.24645-.9562.58127-1.25 1.00781v1.38086c0 1.63981.2931 2.89974.8808 3.78125.5972.88152 1.3892 1.32227 2.375 1.32227.8531 0 1.535-.38877 2.0469-1.16602.5213-.78673.7812-1.73474.7812-2.84375 0-1.14692-.2599-2.07621-.7812-2.78711-.5213-.7109-1.2178-1.0664-2.0899-1.0664zM1093.81 532.36749v65.19531h65v-65.19531h-65zm24.2188 21.94922c2.1422 0 3.8428.7152 5.1035 2.14648 1.2701 1.4218 1.9062 3.49671 1.9062 6.22656v4.56446c0 2.73933-.6299 4.82038-1.8906 6.24219-1.2512 1.41232-2.9496 2.11914-5.0918 2.11914-2.1611 0-3.8721-.70682-5.1328-2.11914-1.2607-1.42181-1.8906-3.50286-1.8906-6.24219v-4.56446c0-2.72985.6257-4.80476 1.8769-6.22656 1.2607-1.43128 2.9675-2.14648 5.1192-2.14648zm8.9277.29883h14.6309v3.19726c-2.218 2.59716-3.7337 5.01918-4.5489 7.26563-.8056 2.24644-1.3836 4.95745-1.7343 8.13281l-.1993 2.10547h-4.1523l.1992-2.10547c.3223-3.04265 1.0146-5.83276 2.0762-8.37305 1.0616-2.54976 2.5169-4.89269 4.3652-7.02539h-7.2949l-.1562 2.04883h-3.1856v-5.24609zm-8.9277 2.90039c-.9384 0-1.6494.37842-2.1328 1.13672-.4834.75829-.7246 1.96203-.7246 3.61132v5.38868c0 1.66824.2412 2.88233.7246 3.64062.4929.75829 1.2123 1.13672 2.1601 1.13672.9289 0 1.6357-.37843 2.1192-1.13672.4834-.75829.7246-1.97238.7246-3.64062v-5.38868c0-1.63981-.2454-2.83936-.7383-3.59765-.4929-.76777-1.2039-1.15039-2.1328-1.15039z" opacity="1"/>
    <path d="M1278.4169 10.572507V2.0000067H.00012207v8.5725003z" opacity="1"/>
    <path d="M1269.8444 606.13605h8.5725V2h-8.5725z" opacity="1"/>
    <path d="M800.49921 597.56354v8.5725h477.91749v-8.5725z" opacity="1"/>
    <path d="M809.07172 411.7124h-8.5725v194.42357h8.5725z" opacity="1"/>
    <path d="M807.54181 420.28491v-8.5725H.00006104v8.5725z" opacity="1"/>
    <path d="M-.0000336 270.28491h8.5725002v150H-.0000336zM-.0000336 2.0000577h8.5725002V152.00006H-.0000336zM415.29807 419.6911h-8.57251V307.59264h8.57251zM593.48907 420.28491h-8.5725V308.18645h8.5725z" opacity="1"/>
    <path d="M588.91656 316.75894v-8.5725h321.40207v8.5725z" opacity="1"/>
    <path d="M904.02521 308.18744h8.5725v297.94855h-8.5725zM1175.7679 377.48395h8.5725v228.65208h-8.5725zM1175.7679 2.0000119h8.5725V243.1521h-8.5725zM1110.7671 431.36749v65.19531h65v-65.19531h-65zm24.0625 21.94922c2.1421 0 3.8428.7152 5.1035 2.14648 1.2701 1.4218 1.9062 3.49671 1.9062 6.22656v4.56446c0 2.73933-.6299 4.82038-1.8906 6.24219-1.2512 1.41232-2.9477 2.11914-5.0898 2.11914-2.1612 0-3.8722-.70682-5.1329-2.11914-1.2606-1.42181-1.8925-3.50286-1.8925-6.24219v-4.56446c0-2.72985.6257-4.80476 1.8769-6.22656 1.2607-1.43128 2.9675-2.14648 5.1192-2.14648zm17.3457.29883h4.1796v12.99414h2.3457v2.75781h-2.3457v2.0332l2.2051.42774v2.48828h-8.5605v-2.48828l2.2187-.42774v-2.0332h-8.4453l-.1992-2.0332 8.6016-13.71875zm-17.3457 2.90039c-.9384 0-1.6494.37842-2.1329 1.13672-.4834.75829-.7246 1.96203-.7246 3.61132v5.38868c0 1.66824.2412 2.88233.7246 3.64062.4929.75829 1.2143 1.13672 2.1622 1.13672.9289 0 1.6337-.37843 2.1171-1.13672.4835-.75829.7246-1.97238.7246-3.64062v-5.38868c0-1.63981-.2453-2.83936-.7382-3.59765-.4929-.76777-1.2039-1.15039-2.1328-1.15039zm17.3027 2.60156l-.3399.5957-4.3378 6.89649h4.7636v-7.46485l-.086-.0273zM977.5444 307.84796a32.5 32.5 0 0 0-32.5 32.5 32.5 32.5 0 0 0 32.5 32.5 32.5 32.5 0 0 0 32.5-32.5 32.5 32.5 0 0 0-32.5-32.5zm-6.6465 21.85156c2.1422 0 3.8429.71521 5.1035 2.14649 1.2702 1.4218 1.9063 3.49865 1.9063 6.22851v4.5625c0 2.73934-.6319 4.82039-1.8926 6.24219-1.2512 1.41232-2.9477 2.11914-5.0898 2.11914-2.1612 0-3.8722-.70682-5.1329-2.11914-1.2606-1.4218-1.8906-3.50285-1.8906-6.24219v-4.5625c0-2.72986.6258-4.80671 1.877-6.22851 1.2606-1.43128 2.9675-2.14649 5.1191-2.14649zm16.791.29883v17.78711l3.4981.42578v2.48828h-11.1328v-2.48828l3.498-.42578v-14.01953h-3.541v-2.375l7.6777-1.39258zm-16.791 2.90039c-.9384 0-1.6494.37842-2.1328 1.13672-.4834.75829-.7246 1.96204-.7246 3.61133v5.38867c0 1.66824.2412 2.88233.7246 3.64062.4929.7583 1.2123 1.13672 2.1602 1.13672.9289 0 1.6357-.37842 2.1191-1.13672.4834-.75829.7246-1.97238.7246-3.64062v-5.38867c0-1.63981-.2454-2.83741-.7383-3.59571-.4929-.76777-1.2039-1.15234-2.1328-1.15234zM1112.5444 307.84796a32.5 32.5 0 0 0-32.5 32.5 32.5 32.5 0 0 0 32.5 32.5 32.5 32.5 0 0 0 32.5-32.5 32.5 32.5 0 0 0-32.5-32.5zm-8.2031 21.85156c2.1422 0 3.8428.71521 5.1035 2.14649 1.2701 1.4218 1.9043 3.49865 1.9043 6.22851v4.5625c0 2.73934-.63 4.82039-1.8906 6.24219-1.2512 1.41232-2.9477 2.11914-5.0899 2.11914-2.1611 0-3.8721-.70682-5.1328-2.11914-1.2607-1.4218-1.8906-3.50285-1.8906-6.24219v-4.5625c0-2.72986.6257-4.80671 1.8769-6.22851 1.2607-1.43128 2.9675-2.14649 5.1192-2.14649zm15.9375 0c2.1327 0 3.8104.55506 5.0332 1.66406 1.2227 1.10901 1.834 2.58721 1.834 4.43555 0 1.25118-.3452 2.40714-1.0371 3.46875-.6825 1.06161-1.8197 2.44618-3.4122 4.15234l-3.6835 4.02344.029.0703h5.3731l.1719-2.04687h3.1562v5.23242h-14.1328v-2.71484l6.6973-7.18164c.9668-1.10901 1.6529-2.04249 2.0605-2.80079.4076-.76777.6113-1.47878.6113-2.13281 0-.87204-.237-1.58305-.7109-2.13281-.4644-.55924-1.1277-.83789-1.9902-.83789-.9574 0-1.6871.32644-2.1895.98047-.4929.64455-.7402 1.50732-.7402 2.58789h-4.0371l-.027-.0859c-.047-1.8673.5639-3.44527 1.834-4.73437 1.2796-1.29858 2.999-1.94727 5.1602-1.94727zm-15.9375 3.19922c-.9384 0-1.6494.37842-2.1328 1.13672-.4834.75829-.7266 1.96204-.7266 3.61133v5.38867c0 1.66824.2432 2.88233.7266 3.64062.4929.7583 1.2123 1.13672 2.1601 1.13672.9289 0 1.6357-.37842 2.1192-1.13672.4834-.75829.7246-1.97238.7246-3.64062v-5.38867c0-1.63981-.2454-2.83741-.7383-3.59571-.4929-.76777-1.2039-1.15234-2.1328-1.15234zM1045.0444 410.84796a32.5 32.5 0 0 0-32.5 32.5 32.5 32.5 0 0 0 32.5 32.5 32.5 32.5 0 0 0 32.5-32.5 32.5 32.5 0 0 0-32.5-32.5zm-8.1816 21.85156c2.1421 0 3.8428.71521 5.1035 2.14649 1.2701 1.4218 1.9043 3.49865 1.9043 6.22851v4.5625c0 2.73934-.63 4.82039-1.8907 6.24219-1.2511 1.41232-2.9476 2.11914-5.0898 2.11914-2.1611 0-3.8721-.70682-5.1328-2.11914-1.2607-1.4218-1.8906-3.50285-1.8906-6.24219v-4.5625c0-2.72986.6257-4.80671 1.8769-6.22851 1.2607-1.43128 2.9675-2.14649 5.1192-2.14649zm15.9941 0c2.1422 0 3.849.51146 5.1191 1.53516 1.2797 1.02369 1.92 2.48317 1.92 4.3789 0 .90048-.2848 1.75906-.8536 2.57422-.5687.80569-1.3504 1.43565-2.3457 1.89063 1.147.40758 2.0181 1.03335 2.6153 1.87695.6066.8436.9101 1.82488.9101 2.94336 0 1.89573-.6923 3.38847-2.0761 4.47851-1.3744 1.08057-3.1374 1.6211-5.2891 1.6211-1.9242 0-3.5771-.50727-4.9609-1.52149-1.3744-1.02369-2.0396-2.46444-1.9922-4.32226l.029-.0859h4.0234c0 .79621.2848 1.45524.8535 1.97656.5687.51185 1.2881.76758 2.1602.76758.9573 0 1.7119-.26411 2.2617-.79492.5592-.53081.8379-1.25216.8379-2.16211 0-1.09005-.2745-1.8863-.8242-2.38867-.5403-.51185-1.3408-.76758-2.4024-.76758h-2.332v-3.11328h2.332c.9858 0 1.7155-.25573 2.1895-.76758.4739-.52133.7109-1.24268.7109-2.16211 0-.83412-.237-1.50153-.7109-2.0039-.474-.50237-1.162-.75391-2.0625-.75391-.7773 0-1.4302.22666-1.961.68164-.5308.45498-.7968 1.05363-.7968 1.79297h-4.0235l-.029-.0859c-.057-1.62085.5647-2.95763 1.8633-4.00976 1.2986-1.05214 2.9098-1.57813 4.834-1.57813zm-15.9941 3.19922c-.9384 0-1.6494.37842-2.1329 1.13672-.4834.75829-.7265 1.96204-.7265 3.61133v5.38867c0 1.66824.2431 2.88233.7265 3.64062.4929.7583 1.2123 1.13672 2.1602 1.13672.9289 0 1.6357-.37842 2.1191-1.13672.4835-.75829.7247-1.97238.7247-3.64062v-5.38867c0-1.63981-.2474-2.83741-.7403-3.59571-.4929-.76777-1.2019-1.15234-2.1308-1.15234zM919.5756 10.57257c.0001 20.00392-.2988 34.37871-.2988 54.03906 0 61.13692 58.9887 110.35547 137.3965 110.35547h101.4121c5.9936 0 11.8948-.30632 17.6817-.89844V10.57257H919.5756zm159.5352 62.40039c1.9479 0 3.7059.35764 5.2734 1.07226 1.5676.7031 2.8648 1.63664 3.8907 2.80079v4.97851h-3.752l-.5195-3.35351c-.4956-.49563-1.1241-.88763-1.8848-1.17579-.7492-.28815-1.6363-.43164-2.6621-.43164-2.19 0-3.8772.79415-5.0644 2.38477-1.1757 1.59062-1.7637 3.66579-1.7637 6.22461v.88281c0 2.55882.588 4.63809 1.7637 6.24024 1.1756 1.60214 2.8346 2.40429 4.9785 2.40429.9912 0 1.8965-.14544 2.7148-.43359.8299-.28816 1.4685-.68016 1.918-1.17578l.5195-3.35352h3.752v4.97852c-1.0143 1.17567-2.3116 2.11526-3.8907 2.81836-1.5675.69157-3.3255 1.03711-5.2734 1.03711-3.3772 0-6.1434-1.16995-8.2988-3.50977s-3.2324-5.34052-3.2324-9.00586v-.84766c0-3.65381 1.0709-6.65646 3.2148-9.00781 2.1439-2.35135 4.9162-3.52734 8.3164-3.52734zm23.0469 0c3.4117 0 6.1719 1.21035 8.2812 3.63086 2.1209 2.4205 3.1817 5.46357 3.1817 9.1289v.38086c0 3.68839-1.0548 6.73555-3.1641 9.14453-2.1093 2.40898-4.8695 3.61329-8.2812 3.61329-3.4003 0-6.1503-1.20431-8.2481-3.61329-2.0862-2.40898-3.1289-5.45614-3.1289-9.14453v-.38086c0-3.66533 1.0427-6.7084 3.1289-9.1289 2.0863-2.42051 4.8302-3.63086 8.2305-3.63086zm-99.1016.36328H1015.0366c2.8815 0 5.1527.74359 6.8125 2.23047 1.6713 1.47535 2.5058 3.41114 2.5058 5.80859 0 2.40898-.8345 4.34477-2.5058 5.8086-1.6598 1.46383-3.931 2.19726-6.8125 2.19726h-4.252v5.58399l2.6953.51757v3.02735h-10.4238v-3.02735l2.6797-.51757V76.89679l-2.6797-.51758v-3.04297zm28.0078 0h5.17l7.6074 21.88867 1.7969.25781v3.02735h-8.5743v-3.02735l1.7461-.31054-1.1074-3.45703h-8.1602l-1.1054 3.45703 1.7461.31054v3.02735h-8.5762v-3.02735l1.7988-.25781 7.6582-21.88867zm16.252 0h10.4258v3.04297l-2.6973.51758v17.74023h7.1055l.2422-3.16406h3.8554v7.03711h-18.9316v-3.02735l2.6797-.51757V76.89679l-2.6797-.51758v-3.04297zm54.8418 3.57812c-2.1208 0-3.705.80821-4.7539 2.42188-1.0374 1.61367-1.5567 3.73335-1.5567 6.36133v.41601c0 2.65103.5254 4.78887 1.5743 6.41407 1.0604 1.61367 2.6446 2.41992 4.7539 2.41992 2.1323 0 3.7347-.80625 4.8066-2.41992 1.0719-1.6252 1.6074-3.76304 1.6074-6.41407v-.41601c0-2.60493-.5415-4.72051-1.625-6.34571-1.0834-1.62519-2.6858-2.4375-4.8066-2.4375zm-91.3731.3125v8.26368h4.252c1.4062 0 2.467-.3799 3.1816-1.14063.7262-.77226 1.0899-1.75225 1.0899-2.93945 0-1.21026-.3637-2.20841-1.0899-2.99219-.7146-.79531-1.7754-1.19141-3.1816-1.19141h-4.252zm22.7871 1.90039l-2.8359 8.86915h5.7754l-2.8359-8.86915h-.1036zM660.61383 43.072506a32.5 32.5 0 0 1-32.5 32.5 32.5 32.5 0 0 1-32.5-32.5 32.5 32.5 0 0 1 32.5-32.5 32.5 32.5 0 0 1 32.5 32.5zM761.73016 43.072506a32.5 32.5 0 0 1-32.5 32.5 32.5 32.5 0 0 1-32.5-32.5 32.5 32.5 0 0 1 32.5-32.5 32.5 32.5 0 0 1 32.5 32.5zM862.84637 43.072506a32.5 32.5 0 0 1-32.5 32.5 32.5 32.5 0 0 1-32.5-32.5 32.5 32.5 0 0 1 32.5-32.5 32.5 32.5 0 0 1 32.5 32.5zM229.1948 10.58233c-1.5689-.0618-3.1388.16885-4.6289.63086-.048.0146-.097.0279-.1445.043-.2575.0828-.5099.17614-.7618.27344-.1924.0729-.3835.14743-.5722.22851-.1263.0553-.2506.11299-.375.17188-.3023.14057-.5984.29158-.8887.45312-.038.0214-.076.0427-.1133.0645-1.8168 1.03394-3.3696 2.47305-4.4433 4.26367-.016.0265-.035.0514-.051.0781-.1383.23515-.2616.47975-.3828.72657-.089.17663-.18.35112-.2598.5332-.022.0517-.039.10605-.061.1582-.4531 1.07934-.7546 2.24342-.8399 3.49219 0 .75711-.01 1.51436-.01 2.27149-.1275 3.45921-.072 6.92919-.041 10.39843-.01 1.89128-.013 3.7825-.016 5.67383-.1581 1.15967-.1482 2.33228 0 3.48633-.011 15.24292.034 30.48802.01 45.73047-.1033 5.6831 4.1965 10.96246 9.7813 12.00976 6.477.528 13.0135.11935 19.5156.24805 6.8848.9646 14.3176-3.69645 14.8164-11.00195.081-11.88006.081-23.76025.07-35.64258 25.0937.0228 50.1888.0121 75.2832.006.01 11.46026.031 22.92135.01 34.38086-.1033 5.6831 4.1963 10.96246 9.7812 12.00976 6.4769.528 13.0135.11935 19.5156.24805 6.8848.9646 14.3177-3.69645 14.8164-11.00195.1171-17.23263.073-34.46744.066-51.70313.024-2.01224.019-4.02595 0-6.04101 0-2.39774-.01-4.79571 0-7.19336.2768-1.97605.077-3.99342-.502-5.88282-.021-.0691-.041-.13828-.062-.20703-.079-.24479-.1675-.4849-.2598-.72461-.075-.1992-.1524-.39656-.2363-.59179-.056-.12754-.1143-.25324-.1738-.37891-.1416-.30403-.2943-.6007-.4571-.89258-.016-.0287-.032-.0573-.049-.0859-1.0355-1.82518-2.4793-3.38596-4.2773-4.46289-.024-.0148-.048-.0303-.072-.0449-.2431-.14307-.4963-.27169-.7519-.39648-.1634-.0819-.3242-.1663-.4922-.24024-.07-.0298-.1422-.0555-.2129-.084-1.0692-.44422-2.2205-.73994-3.4551-.82422-.7012-.002-1.4024-.002-2.1035-.004-5.3858-.20832-10.7994.0462-16.1914-.0605-1.2609-.17664-2.5413-.16094-3.793.0215-33.9819-.0524-67.9663-.0119-101.9492-.0215-2.2755-.0357-4.5548-.0234-6.834 0-2.1432-.001-4.2865.004-6.4297.002-.1568-.002-.3139.001-.4707-.002-.4303-.0603-.8622-.0982-1.2949-.11524zm72.6973 12.14063h3.3457l.023.0644-2.9902 2.81445h-2.5332l2.1543-2.8789zm-26.4864 3.77734c2.1368 0 3.8665.75942 5.1875 2.27539 1.3283 1.51597 1.9922 3.42118 1.9922 5.7168v.23828c0 2.31005-.6594 4.21976-1.9805 5.72852-1.321 1.50875-3.0507 2.26367-5.1875 2.26367-2.1295 0-3.8521-.75492-5.166-2.26367-1.3066-1.50876-1.959-3.41847-1.959-5.72852v-.23828c0-2.29562.6524-4.20083 1.959-5.7168 1.3067-1.51597 3.0247-2.27539 5.1543-2.27539zm46.0977 0c1.6315 0 2.9266.54666 3.8867 1.63672.9673 1.08284 1.4512 2.66314 1.4512 4.74219v3.47656c0 2.08627-.4794 3.66912-1.4395 4.75195-.9529 1.07562-2.2455 1.61524-3.8769 1.61524-1.6459 0-2.9501-.53962-3.9102-1.61524-.9601-1.08283-1.4394-2.66568-1.4394-4.75195v-3.47656c0-2.07905.4768-3.65935 1.4296-4.74219.9602-1.09006 2.2598-1.63672 3.8985-1.63672zm-60.6074.0117c1.2127 0 2.3182.18457 3.3144.55273.9962.36817 1.8332.85905 2.5117 1.47266v3.22656h-2.3711l-.4121-2.16601c-.2743-.17326-.6742-.32514-1.2011-.45508-.527-.12994-1.0878-.19531-1.6797-.19531-.8663 0-1.5373.18457-2.0137.55273-.4692.36095-.7031.83069-.7031 1.40821 0 .53419.2454.9738.7363 1.32031.4981.33929 1.3536.70138 2.5664 1.08398 1.7398.48367 3.056 1.12194 3.9512 1.91602.9023.79408 1.3535 1.83672 1.3535 3.1289 0 1.34994-.5332 2.41567-1.6016 3.19532-1.0684.77964-2.4756 1.16992-4.2226 1.16992-1.2489 0-2.38-.19866-3.3906-.59571-1.0035-.39704-1.8404-.94624-2.5118-1.64648v-3.29297h2.4473l.3359 2.24219c.3177.25988.7477.47714 1.2891.65039.5486.16604 1.1587.24805 1.8301.24805.8662 0 1.5231-.17557 1.9707-.5293.4548-.35373.6816-.82797.6816-1.41992 0-.60639-.2172-1.09277-.6504-1.46094-.4259-.36816-1.1763-.71421-2.2519-1.03906-1.8697-.54142-3.284-1.18419-4.2442-1.92774-.9601-.74354-1.4414-1.7625-1.4414-3.05468 0-1.27775.5422-2.32039 1.625-3.12891 1.0829-.81574 2.4434-1.2342 4.0821-1.25586zm22.957.2168h12.5488v4.32031h-2.4238l-.1426-1.88477h-5.1426v4.3418h5.5235v2.4375h-5.5235v4.33203l1.6895.32422v1.89453h-6.5293v-1.89453l1.6777-.32422v-11.3164l-1.6777-.32422V26.7288zm16.2422 0h3.2383l4.7636 13.70898 1.127.16211v1.89453h-5.3711v-1.89453l1.0937-.19531-.6933-2.16602h-5.1113l-.6934 2.16602 1.0937.19531v1.89453h-5.371v-1.89453l1.1269-.16211 4.7969-13.70898zm34.6191 0h3.1836v9.89648h1.7852v2.10156h-1.7852v1.54883l1.6777.32422v1.89453h-6.5195v-1.89453l1.6895-.32422v-1.54883h-6.4317l-.1523-1.54882 6.5527-10.44922zm-13.2109 2.20898c-.7147 0-1.2569.28772-1.625.86524-.3682.57751-.5528 1.49586-.5528 2.75195v4.10352c0 1.27052.1846 2.19397.5528 2.77148.3754.57751.9246.86719 1.6465.86719.7074 0 1.2451-.28968 1.6133-.86719.3681-.57751.5527-1.50096.5527-2.77148v-4.10352c0-1.24887-.1891-2.16272-.5645-2.74024-.3754-.58473-.9156-.87695-1.623-.87695zm-46.0977.0312c-1.3283 0-2.3196.50693-2.9765 1.51758-.6497 1.01065-.9746 2.33846-.9746 3.98438v.25976c0 1.66035.3274 2.99971.9843 4.01758.6642 1.01065 1.6575 1.51562 2.9785 1.51562 1.3355 0 2.3385-.50497 3.0098-1.51562.6714-1.01787 1.0078-2.35723 1.0078-4.01758v-.25976c0-1.63148-.339-2.95675-1.0176-3.97461-.6785-1.01787-1.6834-1.52735-3.0117-1.52735zm26.2598 1.38672l-1.7754 5.55469h3.6152l-1.7754-5.55469h-.064zm33.0156.5625l-.2597.45508-3.3028 5.25195h3.627v-5.68359l-.064-.0234z" opacity="1"/>
    <g stroke="none" stroke-opacity="1" stroke-width="1" style="line-height:125%;text-align:center" font-style="normal" font-weight="bold" font-size="27.5" font-family="Roboto Slab" letter-spacing="0" word-spacing="0" text-anchor="middle" stroke-linecap="butt" stroke-linejoin="miter" font-variant="normal" font-stretch="normal">
      <path d="M856.9809 435.01129q3.45092 0 5.38452 1.34277 1.93359 1.34278 1.93359 4.0149 0 1.3562-.7251 2.43042-.71167 1.06079-2.0813 1.5979 1.75904.37597 2.63184 1.61133.88623 1.23535.88623 2.8601 0 2.8064-1.85303 4.2566-1.85302 1.43676-5.25024 1.43676h-9.61426v-2.34985l2.0813-.40283V437.7774l-2.0813-.40283v-2.36328h8.68775zm-2.68555 10.90332v5.63965h3.61206q1.55762 0 2.37671-.67139.81909-.68481.81909-2.01416 0-1.43676-.69824-2.18872-.69824-.76538-2.20215-.76538h-3.90747zm0-2.7124h2.81982q1.57105 0 2.417-.64453.84594-.64453.84594-1.87988 0-1.35621-.85937-2.00074-.84595-.64453-2.53784-.64453h-2.68555v5.16968zM847.31293 486.58722l1.39648-.20142 5.94849-16.99951h4.01489l5.9082 16.99951 1.39649.20142v2.34985h-6.66016v-2.34985l1.3562-.2417-.85937-2.68555h-6.33789l-.85938 2.68555 1.3562.2417v2.34985h-6.66015v-2.34985zm7.08984-5.81421h4.48486l-2.20214-6.88843h-.0806l-2.20215 6.88843zM856.72577 503.76129q3.33008 0 5.22339 1.53076 1.89331 1.51734 1.89331 4.20288 0 1.47705-.79224 2.5647-.79223 1.08765-2.323 1.75903 1.73218.51026 2.48413 1.70533.76539 1.18164.76539 2.94067v.99365q0 .64453.25512 1.00708.25513.34912.84595.41626l.4834.0671v2.36328h-2.02759q-1.92017 0-2.69897-1.03393-.77881-1.03394-.77881-2.67212v-1.1145q0-1.42334-.76538-2.22901-.75196-.81909-2.13501-.85937h-3.20923v5.15625l2.09472.40283v2.34985h-8.09692v-2.34985l2.0813-.40283v-14.03199l-2.0813-.40283v-2.36328H856.72577zm-2.77954 8.62061h2.7124q1.63818 0 2.45728-.69825.81909-.69824.81909-2.01416 0-1.31591-.81909-2.09472-.80567-.79224-2.39014-.79224h-2.77954v5.59937z" style="-inkscape-font-specification:'Roboto Slab Bold'"/>
    </g>
    <g stroke="none" stroke-opacity="1" stroke-width="1" style="line-height:125%;text-align:center" font-style="normal" font-weight="bold" font-size="27.5" font-family="Roboto Slab" letter-spacing="0" word-spacing="0" text-anchor="middle" stroke-linecap="butt" stroke-linejoin="miter" font-variant="normal" font-stretch="normal">
      <path d="M730.50995 354.46027q3.45093 0 5.38452 1.34277 1.93359 1.34277 1.93359 4.01489 0 1.3562-.72509 2.43042-.71167 1.06079-2.0813 1.5979 1.75903.37598 2.63183 1.61133.88623 1.23535.88623 2.86011 0 2.80639-1.85302 4.25659-1.85303 1.43677-5.25025 1.43677h-9.61426v-2.34986l2.0813-.40283v-14.03198l-2.0813-.40283v-2.36328h8.68775zm-2.68555 10.90332v5.63964h3.61206q1.55762 0 2.37671-.67138.81909-.68482.81909-2.01416 0-1.43677-.69824-2.18872-.69824-.76538-2.20215-.76538h-3.90747zm0-2.71241h2.81983q1.57104 0 2.41699-.64453.84595-.64453.84595-1.87988 0-1.3562-.85938-2.00073-.84595-.64453-2.53784-.64453h-2.68555v5.16967zM739.8288 371.66119l1.39648-.20141 5.94849-16.99951h4.01489l5.9082 16.99951 1.39649.20141v2.34986h-6.66016v-2.34986l1.3562-.2417-.85937-2.68554h-6.33789l-.85938 2.68554 1.3562.2417v2.34986h-6.66015v-2.34986zm7.08984-5.81421h4.48486l-2.20215-6.88842h-.0806l-2.20215 6.88842zM768.57758 354.46027q3.33007 0 5.22338 1.53076 1.89331 1.51733 1.89331 4.20288 0 1.47705-.79223 2.5647-.79224 1.08764-2.323 1.75903 1.73218.51025 2.48413 1.70532.76538 1.18164.76538 2.94068v.99365q0 .64453.25513 1.00708.25513.34912.84595.41626l.48339.0671v2.36328h-2.02758q-1.92017 0-2.69898-1.03394-.77881-1.03393-.77881-2.67212v-1.1145q0-1.42334-.76538-2.229-.75195-.81909-2.13501-.85938h-3.20923v5.15625l2.09473.40283v2.34986h-8.09692v-2.34986l2.0813-.40283v-14.03198l-2.0813-.40283v-2.36328H768.57758zm-2.77955 8.6206h2.71241q1.63818 0 2.45727-.69824.81909-.69824.81909-2.01416t-.81909-2.09473q-.80566-.79223-2.39013-.79223h-2.77955v5.59936z" style="-inkscape-font-specification:'Roboto Slab Bold'"/>
    </g>
    <g stroke="none" stroke-opacity="1" stroke-width="1" style="line-height:125%;text-align:center" font-style="normal" font-weight="bold" font-size="27.5" font-family="Roboto Slab" letter-spacing="0" word-spacing="0" text-anchor="middle" stroke-linecap="butt" stroke-linejoin="miter" font-variant="normal" font-stretch="normal">
      <path d="M474.09409 360.45947h-2.91382l-.40283-2.60498q-.5774-.57739-1.46363-.91308-.8728-.3357-2.06787-.3357-2.55127 0-3.93433 1.85303-1.36962 1.85303-1.36962 4.83398v.68482q0 2.98096 1.36962 4.84741 1.36963 1.86646 3.86719 1.86646 1.15479 0 2.10816-.3357.96679-.33569 1.49048-.91308l.40283-2.60498h2.91382v3.86718q-1.18164 1.36963-3.02124 2.18872-1.82618.80567-4.09546.80567-3.93433 0-6.44532-2.72583-2.51098-2.72583-2.51098-6.99585v-.65796q0-4.25659 2.49756-6.99585 2.49755-2.73926 6.45874-2.73926 2.26928 0 4.09546.83252 1.82617.81909 3.02124 2.1753v3.86718zM475.70541 371.06738l1.39649-.20141 5.94848-16.99951h4.0149l5.9082 16.99951 1.39648.20141v2.34986h-6.66015v-2.34986l1.3562-.2417-.85938-2.68554h-6.33789l-.85937 2.68554 1.3562.2417v2.34986h-6.66016v-2.34986zm7.08985-5.81421h4.48486l-2.20215-6.88842h-.0806l-2.20215 6.88842zM495.65903 356.22974v-2.36328h8.09692v2.36328l-2.09473.40283v14.03198l2.09473.40283v2.34986h-8.09692v-2.34986l2.09472-.40283v-14.03198l-2.09472-.40283zM504.92416 371.06738l1.65162-.32226 5.16967-7.18384-5.0354-6.99585-1.63818-.33569v-2.36328h7.5061v2.36328l-1.5979.17456 3.02124 4.7937 3.03467-4.7937-1.57104-.17456v-2.36328h7.53295v2.36328l-1.63818.33569-5.0354 6.99585 5.2771 7.17041 1.73218.33569v2.34986h-7.69409v-2.34986l1.55761-.16113-3.14209-4.94141-3.15551 4.94141 1.57104.16113v2.34986h-7.54639v-2.34986zM524.36752 371.06738l1.39649-.20141 5.94848-16.99951h4.0149l5.9082 16.99951 1.39648.20141v2.34986h-6.66015v-2.34986l1.3562-.2417-.85938-2.68554h-6.33789l-.85937 2.68554 1.3562.2417v2.34986h-6.66016v-2.34986zm7.08985-5.81421h4.48486l-2.20215-6.88842h-.0806l-2.20215 6.88842z" style="-inkscape-font-specification:'Roboto Slab Bold'"/>
    </g>
    <path d="M43.6186 320.65069c-6.4913-.25593-13.0539 4.2683-13.5215 11.11719-.117 17.23196-.073 34.46807-.066 51.70313-.024 2.01256-.019 4.02759 0 6.04296 0 2.39774.01 4.79571 0 7.19336-.2759 1.96959-.077 3.97921.4981 5.86328.024.0802.047.16048.072.24024.076.23514.1597.46682.2481.69726.076.20185.1553.40183.2402.59961.058.13216.1179.26243.1797.39258.1405.30106.2919.59564.4531.88477.016.0287.032.0573.049.0859 1.0422 1.83704 2.4981 3.40683 4.3125 4.48437.01.004.013.01.019.0137.2458.14529.5011.27578.7598.40235.172.0864.3423.17435.5195.25195.052.022.106.0393.1582.0606 1.0793.45309 2.2434.75458 3.4922.83984.7129.002 1.4258.002 2.1387.004 5.3742.2058 10.7778-.0479 16.1582.0586 1.255.17582 2.5273.16045 3.7734-.0195 33.9865.0525 67.9754.012 101.9629.0215 2.2124.0347 4.4284.0209 6.6445-.002 2.3646.001 4.7292-.002 7.0938 0 1.9816.27762 4.0045.0756 5.8984-.50781.06-.0181.1201-.0339.1797-.0527.2541-.082.5033-.17347.752-.26953.1899-.072.3781-.14664.5644-.22656.134-.0586.2665-.11899.3984-.18164.3011-.14044.5957-.29187.8848-.45313.029-.0163.057-.0324.086-.0488 1.8178-1.03132 3.3728-2.46792 4.4493-4.25586.021-.0343.044-.0671.064-.10157.1423-.24221.2704-.49346.3945-.74804.079-.15805.1608-.31417.2325-.47657.037-.0862.067-.1762.1015-.26367.4351-1.05851.7273-2.19617.8106-3.41601 0-.74474 0-1.48962.01-2.23438.1308-3.51383.074-7.04044.043-10.56445 0-1.84766.013-3.69526.016-5.54297.1581-1.15949.1481-2.33245 0-3.48633.011-15.24356-.034-30.48733-.01-45.73047.1033-5.68308-4.1965-10.96437-9.7813-12.01172-6.477-.52797-13.0135-.11932-19.5156-.24804-6.8848-.96454-14.3176 3.69647-14.8164 11.00195-.081 11.87939-.081 23.76089-.07 35.64258-25.094-.0229-50.1885-.0101-75.2832-.004-.01-11.4609-.029-22.92067-.01-34.38086.1033-5.68308-4.1983-10.96437-9.7832-12.01172-6.4769-.52797-13.0136-.11932-19.5157-.24804-.4303-.0603-.8621-.0982-1.2949-.11524zm74.0625 58.91211h3.3457l.022.0644-2.9883 2.81641h-2.5332l2.1543-2.88086zm-26.4863 3.7793c2.1368 0 3.8664.75746 5.1875 2.27344 1.3283 1.51597 1.9922 3.42118 1.9922 5.71679v.23828c0 2.31006-.6614 4.21977-1.9824 5.72852-1.3211 1.50875-3.0488 2.26367-5.1856 2.26367-2.1296 0-3.8522-.75492-5.166-2.26367-1.3066-1.50875-1.959-3.41846-1.959-5.72852v-.23828c0-2.29561.6524-4.20082 1.959-5.71679 1.3066-1.51598 3.0247-2.27344 5.1543-2.27344zm46.0976 0c1.6315 0 2.9267.54471 3.8868 1.63476.9673 1.08284 1.4511 2.66314 1.4511 4.74219v3.47656c0 2.08627-.4793 3.67107-1.4394 4.75391-.9529 1.07562-2.2455 1.61328-3.877 1.61328-1.6459 0-2.95-.53766-3.9101-1.61328-.9601-1.08284-1.4395-2.66764-1.4395-4.75391v-3.47656c0-2.07905.4768-3.65935 1.4297-4.74219.9601-1.09005 2.2598-1.63476 3.8984-1.63476zm-60.6074.01c1.2128 0 2.3183.18457 3.3145.55274.9962.36816 1.8331.85905 2.5117 1.47265v3.22657h-2.3711l-.4121-2.16407c-.2743-.17325-.6742-.32513-1.2012-.45507s-1.0877-.19532-1.6797-.19532c-.8662 0-1.5372.18457-2.0136.55274-.4693.36094-.7032.82874-.7032 1.40625 0 .5342.2455.97576.7364 1.32226.4981.33929 1.3536.69943 2.5664 1.08204 1.7397.48366 3.056 1.12193 3.9511 1.91601.9024.79408 1.3536 1.83868 1.3536 3.13086 0 1.34994-.5332 2.41372-1.6016 3.19336-1.0684.77964-2.4757 1.16992-4.2227 1.16992-1.2488 0-2.3799-.19866-3.3906-.5957-1.0034-.39704-1.8403-.94625-2.5117-1.64649v-3.29101h2.4473l.3359 2.24219c.3176.25988.7476.47518 1.2891.64843.5486.16604 1.1587.25 1.83.25.8663 0 1.5232-.17752 1.9707-.53125.4548-.35372.6817-.82601.6817-1.41796 0-.60639-.2173-1.09473-.6504-1.4629-.4259-.36816-1.1763-.71421-2.252-1.03906-1.8697-.54142-3.284-1.18418-4.2441-1.92773-.9601-.74355-1.4414-1.76055-1.4414-3.05274 0-1.27774.5422-2.32038 1.625-3.1289 1.0828-.81574 2.4433-1.23616 4.082-1.25782zm22.9571.2168h12.5488v4.32031h-2.4258l-.1406-1.88281h-5.1426v4.3418h5.5215v2.43555h-5.5215v4.33203l1.6895.32421v1.89649h-6.5293v-1.89649l1.6777-.32421v-11.31641l-1.6777-.32422v-1.90625zm16.2421 0h3.2383l4.7637 13.70899 1.127.1621v1.89649h-5.3711v-1.89649l1.0937-.19335-.6934-2.16602h-5.1113l-.6933 2.16602 1.0937.19335v1.89649h-5.3711v-1.89649l1.127-.1621 4.7968-13.70899zm34.1954 0v13.54688l2.664.32421v1.89649h-8.4785v-1.89649l2.6641-.32421v-10.67579h-2.6973v-1.80859l5.8477-1.0625zm-12.7872 2.20899c-.7146 0-1.2568.28967-1.625.86718-.3681.57752-.5527 1.49391-.5527 2.75v4.10352c0 1.27053.1846 2.19592.5527 2.77344.3754.57751.9246.86523 1.6465.86523.7075 0 1.2451-.28772 1.6133-.86523.3682-.57752.5527-1.50291.5527-2.77344v-4.10352c0-1.24887-.189-2.16272-.5644-2.74023-.3754-.58473-.9156-.87695-1.6231-.87695zm-46.0976.0332c-1.3283 0-2.3197.50498-2.9766 1.51562-.6497 1.01065-.9746 2.33847-.9746 3.98438v.25976c0 1.66035.3275 2.99972.9844 4.01758.6641 1.01065 1.6574 1.51758 2.9785 1.51758 1.3355 0 2.3384-.50693 3.0098-1.51758.6713-1.01786 1.0078-2.35723 1.0078-4.01758v-.25976c0-1.63148-.339-2.95479-1.0176-3.97266-.6786-1.01786-1.6834-1.52734-3.0117-1.52734zm26.2598 1.38672l-1.7754 5.55468h3.6152l-1.7754-5.55468h-.064z" opacity="1"/>
    <path d="M95.941132 320.63995h31.835318v31.93156H95.941132zM229.1948 320.65069c-6.4913-.25593-13.054 4.2683-13.5215 11.11719-.1165 17.15775-.073 34.31962-.066 51.48047-.028 2.08654-.02 4.17596 0 6.26562 0 2.39774.01 4.79571 0 7.19336-.2773 1.97917-.076 3.99867.5059 5.89063.019.063.035.12676.055.18945.082.25333.1737.50211.2695.75.072.18992.1466.37815.2265.56445.059.13403.119.26647.1817.39844.1404.30106.2919.59564.4531.88477.016.0287.032.0573.049.0859 1.0383 1.83006 2.4863 3.39546 4.2911 4.47265.016.01.033.0195.049.0293.2448.14443.4983.27451.7558.40039.1675.084.3336.1704.5059.24609.063.0267.1281.0487.1914.0742 1.0729.44746 2.229.74544 3.4688.83008.7122.002 1.4245.002 2.1367.004 5.3742.2058 10.7779-.0479 16.1582.0586 1.255.17582 2.5274.16043 3.7734-.0195 33.9871.0525 67.9767.012 101.9649.0215 2.2128.0347 4.4281.0209 6.6445-.002 2.3645.001 4.7292-.002 7.0937 0 1.9792.27727 3.9987.0758 5.8907-.50586.063-.019.1267-.0349.1894-.0547.2534-.0818.5021-.17375.75-.26953.1899-.072.3782-.14664.5645-.22656.134-.0586.2664-.11899.3984-.18164.2986-.1393.5901-.28944.877-.44922.034-.0193.068-.039.1015-.0586 1.8166-1.03252 3.3705-2.46913 4.4453-4.25782.019-.0307.038-.0609.057-.0918.1362-.2318.2593-.47172.3789-.71485.089-.1758.1802-.35004.2598-.53125.026-.06.046-.12295.07-.18359.4494-1.07511.7491-2.2337.8339-3.47656.01-.76297 0-1.52608.01-2.28907.1279-3.48989.072-6.9923.041-10.49218 0-1.84701.013-3.69396.016-5.54102.1614-1.17041.1507-2.35478 0-3.51953.011-15.23901-.032-30.47822 0-45.7168.1033-5.68308-4.1985-10.96437-9.7833-12.01172-6.477-.52797-13.0115-.11932-19.5136-.24804-6.8848-.96454-14.3176 3.69647-14.8164 11.00195-.081 11.87939-.083 23.76089-.072 35.64258-25.0939-.0229-50.1885-.0101-75.2832-.004-.01-11.4609-.029-22.92067-.01-34.38086.1033-5.68308-4.1964-10.96437-9.7813-12.01172-6.4769-.52797-13.0135-.11932-19.5156-.24804-.4303-.0603-.8622-.0982-1.2949-.11524zm72.8769 58.91211h3.3457l.021.0644-2.9883 2.81641h-2.5351l2.1562-2.88086zm-26.4863 3.7793c2.1368 0 3.8645.75746 5.1856 2.27344 1.3282 1.51597 1.9941 3.42118 1.9941 5.71679v.23828c0 2.31006-.6614 4.21977-1.9824 5.72852-1.3211 1.50875-3.0507 2.26367-5.1875 2.26367-2.1296 0-3.8502-.75492-5.1641-2.26367-1.3066-1.50875-1.9609-3.41846-1.9609-5.72852v-.23828c0-2.29561.6543-4.20082 1.9609-5.71679 1.3066-1.51598 3.0247-2.27344 5.1543-2.27344zm46.0957 0c1.6315 0 2.9266.54471 3.8867 1.63476.9674 1.08284 1.4512 2.66314 1.4512 4.74219v3.47656c0 2.08627-.4793 3.67107-1.4394 4.75391-.9529 1.07562-2.2455 1.61328-3.877 1.61328-1.6459 0-2.9481-.53766-3.9082-1.61328-.9601-1.08284-1.4414-2.66764-1.4414-4.75391v-3.47656c0-2.07905.4768-3.65935 1.4297-4.74219.9601-1.09005 2.2597-1.63476 3.8984-1.63476zm12.1387 0c1.6242 0 2.9027.42296 3.834 1.26758.9312.84461 1.3965 1.96926 1.3965 3.37695 0 .9529-.2641 1.83406-.7911 2.64258-.5197.80852-1.3848 1.8627-2.5976 3.16211l-2.8047 3.06445.021.0547h4.0918l.1308-1.56055h2.4043v3.98633h-10.7636v-2.06836l5.0996-5.46875c.7363-.84461 1.2599-1.5553 1.5703-2.13281.3104-.58473.4648-1.1269.4648-1.625 0-.66414-.18-1.20631-.541-1.625-.3537-.42592-.8587-.63867-1.5156-.63867-.7291 0-1.2854.24994-1.668.74804-.3754.49089-.5625 1.14775-.5625 1.97071h-3.0761l-.022-.0645c-.036-1.42212.4311-2.62565 1.3984-3.60742.9746-.98899 2.2838-1.48242 3.9297-1.48242zm-72.7442.01c1.2128 0 2.3163.18457 3.3126.55274.9962.36816 1.8331.85905 2.5117 1.47265v3.22657h-2.3711l-.4102-2.16407c-.2743-.17325-.6761-.32513-1.2031-.45507s-1.0858-.19532-1.6777-.19532c-.8663 0-1.5373.18457-2.0137.55274-.4692.36094-.7051.82874-.7051 1.40625 0 .5342.2455.97576.7363 1.32226.4981.33929 1.3537.69943 2.5664 1.08204 1.7398.48366 3.058 1.12193 3.9532 1.91601.9023.79408 1.3535 1.83868 1.3535 3.13086 0 1.34994-.5351 2.41372-1.6035 3.19336-1.0684.77964-2.4757 1.16992-4.2227 1.16992-1.2489 0-2.378-.19866-3.3887-.5957-1.0034-.39704-1.8403-.94625-2.5117-1.64649v-3.29101h2.4473l.334 2.24219c.3176.25988.7476.47518 1.289.64843.5487.16604 1.1588.25 1.8301.25.8663 0 1.5231-.17752 1.9707-.53125.4548-.35372.6817-.82601.6817-1.41796 0-.60639-.2153-1.09473-.6485-1.4629-.4259-.36816-1.1763-.71421-2.2519-1.03906-1.8697-.54142-3.286-1.18418-4.2461-1.92773-.9601-.74355-1.4395-1.76055-1.4395-3.05274 0-1.27774.5422-2.32038 1.625-3.1289 1.0829-.81574 2.4434-1.23616 4.082-1.25782zm22.9551.2168h12.5508v4.32031h-2.4258l-.1406-1.88281h-5.1445v4.3418h5.5234v2.43555h-5.5234v4.33203l1.6894.32421v1.89649h-6.5293v-1.89649l1.6797-.32421v-11.31641l-1.6797-.32422v-1.90625zm16.2422 0h3.2383l4.7656 13.70899 1.125.1621v1.89649h-5.3711v-1.89649l1.0938-.19335-.6934-2.16602h-5.1094l-.6933 2.16602 1.0937.19335v1.89649h-5.3711v-1.89649l1.125-.1621 4.7969-13.70899zm21.4082 2.20899c-.7147 0-1.2549.28967-1.623.86718-.3682.57752-.5528 1.49391-.5528 2.75v4.10352c0 1.27053.1846 2.19592.5528 2.77344.3754.57751.9226.86523 1.6445.86523.7075 0 1.2451-.28772 1.6133-.86523.3681-.57752.5527-1.50291.5527-2.77344v-4.10352c0-1.24887-.1871-2.16272-.5625-2.74023-.3754-.58473-.9175-.87695-1.625-.87695zm-46.0957.0332c-1.3283 0-2.3216.50498-2.9785 1.51562-.6497 1.01065-.9746 2.33847-.9746 3.98438v.25976c0 1.66035.3294 2.99972.9863 4.01758.6642 1.01065 1.6555 1.51758 2.9766 1.51758 1.3355 0 2.3403-.50693 3.0117-1.51758.6714-1.01786 1.0059-2.35723 1.0059-4.01758v-.25976c0-1.63148-.339-2.95479-1.0176-3.97266-.6786-1.01786-1.6815-1.52734-3.0098-1.52734zm26.2578 1.38672l-1.7754 5.55468h3.6172l-1.7754-5.55468h-.066z" opacity="1"/>
    <path d="M281.51755 320.63995h31.83532v31.93156h-31.83532zM43.6186 10.58233c-1.5665-.0617-3.133.16839-4.6211.62891-.052.0158-.1043.0305-.1562.0469-.2559.0824-.5075.17477-.7578.27149-.1915.0725-.3806.14788-.5684.22851-.1309.0572-.2598.11661-.3887.17774-.2928.13649-.5797.28131-.8613.4375-.049.0277-.098.0557-.1465.084-1.8123 1.03499-3.3631 2.47267-4.4336 4.26172-.014.0222-.028.0441-.041.0664-.1373.23329-.2603.47591-.3808.7207-.091.17983-.1844.35749-.2657.54297-.021.0498-.038.10209-.059.15234-.4544 1.08091-.7564 2.2471-.8418 3.49805-.01.76362 0 1.52738-.01 2.29102-.1279 3.48978-.072 6.99042-.041 10.49023 0 1.84766-.013 3.69525-.016 5.54297-.1615 1.17058-.1508 2.35462 0 3.51953-.011 15.23836.032 30.4789 0 45.7168-.1033 5.6831 4.1984 10.96246 9.7832 12.00976 6.477.528 13.0136.11935 19.5157.24805 6.8848.9646 14.3156-3.69645 14.8144-11.00195.081-11.88006.083-23.76025.072-35.64258 25.0939.0228 50.1885.0121 75.2832.006.01 11.46026.029 22.92135.01 34.38086-.1033 5.6831 4.1963 10.96246 9.7812 12.00976 6.4769.528 13.0136.11935 19.5157.24805 6.8848.9646 14.3177-3.69645 14.8164-11.00195.1165-17.15842.073-34.31899.066-51.48047.029-2.12653.02-4.25503 0-6.38477 0-2.35737-.01-4.71498 0-7.07226.2768-1.97605.078-3.99342-.502-5.88282-.021-.0691-.041-.13828-.062-.20703-.079-.24479-.1675-.4849-.2597-.72461-.076-.20199-.155-.40169-.2403-.59961-.052-.11763-.1054-.23356-.1601-.34961-.1475-.31808-.3059-.62878-.4766-.93359-.01-.0175-.019-.0353-.029-.0527-1.0307-1.82178-2.47-3.37984-4.2598-4.45899-.036-.0223-.071-.0465-.1074-.0684-.2422-.14224-.4934-.27042-.748-.39453-.1593-.0797-.3168-.16217-.4805-.23437-.079-.0336-.1605-.0619-.2402-.0937-1.0638-.43959-2.2085-.73264-3.4356-.81641-.7005-.002-1.401-.002-2.1015-.004-5.3859-.20832-10.8013.0462-16.1934-.0605-1.2608-.17664-2.5394-.16092-3.791.0215-33.9826-.0524-67.9676-.0119-101.9512-.0215-2.2759-.0357-4.5544-.0234-6.834 0-2.1432-.001-4.2865.004-6.4297.002-.1567-.002-.314.001-.4707-.002-.4303-.0603-.8621-.0982-1.2949-.11524zm72.8926 12.14063h3.3477l.021.0644-2.9902 2.81445h-2.5332l2.1543-2.8789zM90.0249 26.5003c2.1368 0 3.8664.75942 5.1875 2.27539 1.3282 1.51597 1.9922 3.42118 1.9922 5.7168v.23828c0 2.31005-.6595 4.21976-1.9805 5.72852-1.3211 1.50875-3.0507 2.26367-5.1875 2.26367-2.1296 0-3.8522-.75492-5.166-2.26367-1.3067-1.50876-1.959-3.41847-1.959-5.72852v-.23828c0-2.29562.6523-4.20083 1.959-5.7168 1.3066-1.51597 3.0247-2.27539 5.1543-2.27539zm46.0976 0c1.6315 0 2.9266.54666 3.8867 1.63672.9674 1.08284 1.4512 2.66314 1.4512 4.74219v3.47656c0 2.08627-.4793 3.66912-1.4394 4.75195-.9529 1.07562-2.2455 1.61524-3.877 1.61524-1.6459 0-2.95-.53962-3.9101-1.61524-.9602-1.08283-1.4395-2.66568-1.4395-4.75195v-3.47656c0-2.07905.4768-3.65935 1.4297-4.74219.9601-1.09006 2.2597-1.63672 3.8984-1.63672zm12.1817 0c1.6314 0 2.9311.39028 3.8984 1.16992.9746.77965 1.4609 1.89216 1.4609 3.33594 0 .6858-.2153 1.33816-.6484 1.95899-.4331.6136-1.0291 1.09489-1.7871 1.4414.8735.31042 1.5374.78525 1.9922 1.42774.462.64248.6933 1.39035.6933 2.24218 0 1.44379-.528 2.58194-1.582 3.41211-1.0467.82296-2.3886 1.23438-4.0273 1.23438-1.4655 0-2.7254-.38773-3.7793-1.16016-1.0468-.77964-1.5518-1.87611-1.5157-3.29101l.021-.0645h3.0645c0 .60639.2172 1.10687.6504 1.50391.4331.38982.9804.58594 1.6445.58594.7291 0 1.304-.20317 1.7227-.60743.4259-.40425.6386-.95346.6386-1.64648 0-.83017-.2102-1.43576-.6289-1.81836-.4115-.38982-1.0215-.58398-1.8301-.58398h-1.7753v-2.3711h1.7753c.7508 0 1.3071-.19611 1.668-.58593.361-.39704.541-.94625.541-1.64649 0-.63526-.18-1.14279-.541-1.52539-.3609-.3826-.8845-.57422-1.5703-.57422-.5919 0-1.0899.17303-1.4941.51953-.4043.34651-.6055.80216-.6055 1.36524h-3.0645l-.021-.0664c-.043-1.23443.4289-2.25143 1.4179-3.05273.989-.8013 2.2162-1.20313 3.6817-1.20313zm-72.7891.0117c1.2128 0 2.3182.18457 3.3145.55273.9962.36817 1.8331.85905 2.5117 1.47266v3.22656h-2.3711l-.4121-2.16601c-.2743-.17326-.6742-.32514-1.2012-.45508s-1.0858-.19531-1.6777-.19531c-.8663 0-1.5392.18457-2.0157.55273-.4692.36095-.7031.83069-.7031 1.40821 0 .53419.2455.9738.7363 1.32031.4981.33929 1.3537.70138 2.5665 1.08398 1.7397.48367 3.056 1.12194 3.9511 1.91602.9024.79408 1.3555 1.83672 1.3555 3.1289 0 1.34994-.5351 2.41567-1.6035 3.19532-1.0684.77964-2.4757 1.16992-4.2227 1.16992-1.2489 0-2.38-.19866-3.3906-.59571-1.0034-.39704-1.8404-.94624-2.5117-1.64648v-3.29297h2.4472l.336 2.24219c.3176.25988.7476.47714 1.289.65039.5487.16604 1.1588.24805 1.8301.24805.8663 0 1.5231-.17557 1.9707-.5293.4548-.35373.6817-.82797.6817-1.41992 0-.60639-.2173-1.09277-.6504-1.46094-.4259-.36816-1.1764-.71421-2.252-1.03906-1.8697-.54142-3.284-1.18419-4.2441-1.92774-.9601-.74354-1.4395-1.7625-1.4395-3.05468 0-1.27775.5402-2.32039 1.6231-3.12891 1.0828-.81574 2.4433-1.2342 4.082-1.25586zm22.957.2168h12.5508v4.32031h-2.4258l-.1406-1.88477h-5.1445v4.3418h5.5234v2.4375h-5.5234v4.33203l1.6894.32422v1.89453h-6.5293v-1.89453l1.6778-.32422v-11.3164l-1.6778-.32422V26.7288zm16.2422 0h3.2383l4.7637 13.70898 1.1269.16211v1.89453h-5.3711v-1.89453l1.0938-.19531-.6934-2.16602h-5.1113l-.6934 2.16602 1.0938.19531v1.89453h-5.3711v-1.89453l1.1269-.16211 4.7969-13.70898zm21.4082 2.20898c-.7146 0-1.2568.28772-1.625.86524-.3681.57751-.5527 1.49586-.5527 2.75195v4.10352c0 1.27052.1846 2.19397.5527 2.77148.3754.57751.9246.86719 1.6465.86719.7075 0 1.2451-.28968 1.6133-.86719.3682-.57751.5527-1.50096.5527-2.77148v-4.10352c0-1.24887-.189-2.16272-.5644-2.74024-.3754-.58473-.9156-.87695-1.6231-.87695zm-46.0976.0312c-1.3283 0-2.3197.50693-2.9766 1.51758-.6497 1.01065-.9746 2.33846-.9746 3.98438v.25976c0 1.66035.3275 2.99971.9844 4.01758.6641 1.01065 1.6574 1.51562 2.9785 1.51562 1.3355 0 2.3384-.50497 3.0098-1.51562.6713-1.01787 1.0078-2.35723 1.0078-4.01758v-.25976c0-1.63148-.339-2.95675-1.0176-3.97461-.6786-1.01787-1.6835-1.52735-3.0117-1.52735zm26.2597 1.38672l-1.7754 5.55469h3.6153l-1.7754-5.55469h-.064z" opacity="1"/>
    <path d="M95.945038 69.712311h31.835322v31.931559H95.945038zM229.1948 10.58233c-1.5689-.0618-3.1388.16885-4.6289.63086-.048.0146-.097.0279-.1445.043-.2575.0828-.5099.17614-.7618.27344-.1924.0729-.3835.14743-.5722.22851-.1263.0553-.2506.11299-.375.17188-.3023.14057-.5984.29158-.8887.45312-.038.0214-.076.0427-.1133.0645-1.8168 1.03394-3.3696 2.47305-4.4433 4.26367-.016.0265-.035.0514-.051.0781-.1383.23515-.2616.47975-.3828.72657-.089.17663-.18.35112-.2598.5332-.022.0517-.039.10605-.061.1582-.4531 1.07934-.7546 2.24342-.8399 3.49219 0 .75711-.01 1.51436-.01 2.27149-.1275 3.45921-.072 6.92919-.041 10.39843-.01 1.89128-.013 3.7825-.016 5.67383-.1581 1.15967-.1482 2.33228 0 3.48633-.011 15.24292.034 30.48802.01 45.73047-.1033 5.6831 4.1965 10.96246 9.7813 12.00976 6.477.528 13.0135.11935 19.5156.24805 6.8848.9646 14.3176-3.69645 14.8164-11.00195.081-11.88006.081-23.76025.07-35.64258 25.0937.0228 50.1888.0121 75.2832.006.01 11.46026.031 22.92135.01 34.38086-.1033 5.6831 4.1963 10.96246 9.7812 12.00976 6.4769.528 13.0135.11935 19.5156.24805 6.8848.9646 14.3177-3.69645 14.8164-11.00195.1171-17.23263.073-34.46744.066-51.70313.024-2.01224.019-4.02595 0-6.04101 0-2.39774-.01-4.79571 0-7.19336.2768-1.97605.077-3.99342-.502-5.88282-.021-.0691-.041-.13828-.062-.20703-.079-.24479-.1675-.4849-.2598-.72461-.075-.1992-.1524-.39656-.2363-.59179-.056-.12754-.1143-.25324-.1738-.37891-.1416-.30403-.2943-.6007-.4571-.89258-.016-.0287-.032-.0573-.049-.0859-1.0355-1.82518-2.4793-3.38596-4.2773-4.46289-.024-.0148-.048-.0303-.072-.0449-.2431-.14307-.4963-.27169-.7519-.39648-.1634-.0819-.3242-.1663-.4922-.24024-.07-.0298-.1422-.0555-.2129-.084-1.0692-.44422-2.2205-.73994-3.4551-.82422-.7012-.002-1.4024-.002-2.1035-.004-5.3858-.20832-10.7994.0462-16.1914-.0605-1.2609-.17664-2.5413-.16094-3.793.0215-33.9819-.0524-67.9663-.0119-101.9492-.0215-2.2755-.0357-4.5548-.0234-6.834 0-2.1432-.001-4.2865.004-6.4297.002-.1568-.002-.3139.001-.4707-.002-.4303-.0603-.8622-.0982-1.2949-.11524zm72.6973 12.14063h3.3457l.023.0644-2.9902 2.81445h-2.5332l2.1543-2.8789zm-26.4864 3.77734c2.1368 0 3.8665.75942 5.1875 2.27539 1.3283 1.51597 1.9922 3.42118 1.9922 5.7168v.23828c0 2.31005-.6594 4.21976-1.9805 5.72852-1.321 1.50875-3.0507 2.26367-5.1875 2.26367-2.1295 0-3.8521-.75492-5.166-2.26367-1.3066-1.50876-1.959-3.41847-1.959-5.72852v-.23828c0-2.29562.6524-4.20083 1.959-5.7168 1.3067-1.51597 3.0247-2.27539 5.1543-2.27539zm46.0977 0c1.6315 0 2.9266.54666 3.8867 1.63672.9673 1.08284 1.4512 2.66314 1.4512 4.74219v3.47656c0 2.08627-.4794 3.66912-1.4395 4.75195-.9529 1.07562-2.2455 1.61524-3.8769 1.61524-1.6459 0-2.9501-.53962-3.9102-1.61524-.9601-1.08283-1.4394-2.66568-1.4394-4.75195v-3.47656c0-2.07905.4768-3.65935 1.4296-4.74219.9602-1.09006 2.2598-1.63672 3.8985-1.63672zm-60.6074.0117c1.2127 0 2.3182.18457 3.3144.55273.9962.36817 1.8332.85905 2.5117 1.47266v3.22656h-2.3711l-.4121-2.16601c-.2743-.17326-.6742-.32514-1.2011-.45508-.527-.12994-1.0878-.19531-1.6797-.19531-.8663 0-1.5373.18457-2.0137.55273-.4692.36095-.7031.83069-.7031 1.40821 0 .53419.2454.9738.7363 1.32031.4981.33929 1.3536.70138 2.5664 1.08398 1.7398.48367 3.056 1.12194 3.9512 1.91602.9023.79408 1.3535 1.83672 1.3535 3.1289 0 1.34994-.5332 2.41567-1.6016 3.19532-1.0684.77964-2.4756 1.16992-4.2226 1.16992-1.2489 0-2.38-.19866-3.3906-.59571-1.0035-.39704-1.8404-.94624-2.5118-1.64648v-3.29297h2.4473l.3359 2.24219c.3177.25988.7477.47714 1.2891.65039.5486.16604 1.1587.24805 1.8301.24805.8662 0 1.5231-.17557 1.9707-.5293.4548-.35373.6816-.82797.6816-1.41992 0-.60639-.2172-1.09277-.6504-1.46094-.4259-.36816-1.1763-.71421-2.2519-1.03906-1.8697-.54142-3.284-1.18419-4.2442-1.92774-.9601-.74354-1.4414-1.7625-1.4414-3.05468 0-1.27775.5422-2.32039 1.625-3.12891 1.0829-.81574 2.4434-1.2342 4.0821-1.25586zm22.957.2168h12.5488v4.32031h-2.4238l-.1426-1.88477h-5.1426v4.3418h5.5235v2.4375h-5.5235v4.33203l1.6895.32422v1.89453h-6.5293v-1.89453l1.6777-.32422v-11.3164l-1.6777-.32422V26.7288zm16.2422 0h3.2383l4.7636 13.70898 1.127.16211v1.89453h-5.3711v-1.89453l1.0937-.19531-.6933-2.16602h-5.1113l-.6934 2.16602 1.0937.19531v1.89453h-5.371v-1.89453l1.1269-.16211 4.7969-13.70898zm34.6191 0h3.1836v9.89648h1.7852v2.10156h-1.7852v1.54883l1.6777.32422v1.89453h-6.5195v-1.89453l1.6895-.32422v-1.54883h-6.4317l-.1523-1.54882 6.5527-10.44922zm-13.2109 2.20898c-.7147 0-1.2569.28772-1.625.86524-.3682.57751-.5528 1.49586-.5528 2.75195v4.10352c0 1.27052.1846 2.19397.5528 2.77148.3754.57751.9246.86719 1.6465.86719.7074 0 1.2451-.28968 1.6133-.86719.3681-.57751.5527-1.50096.5527-2.77148v-4.10352c0-1.24887-.1891-2.16272-.5645-2.74024-.3754-.58473-.9156-.87695-1.623-.87695zm-46.0977.0312c-1.3283 0-2.3196.50693-2.9765 1.51758-.6497 1.01065-.9746 2.33846-.9746 3.98438v.25976c0 1.66035.3274 2.99971.9843 4.01758.6642 1.01065 1.6575 1.51562 2.9785 1.51562 1.3355 0 2.3385-.50497 3.0098-1.51562.6714-1.01787 1.0078-2.35723 1.0078-4.01758v-.25976c0-1.63148-.339-2.95675-1.0176-3.97461-.6785-1.01787-1.6834-1.52735-3.0117-1.52735zm26.2598 1.38672l-1.7754 5.55469h3.6152l-1.7754-5.55469h-.064zm33.0156.5625l-.2597.45508-3.3028 5.25195h3.627v-5.68359l-.064-.0234z" opacity="1"/>
    <path d="M281.52145 69.712311h31.83532v31.931559h-31.83532z" opacity="1"/>
  </g>
</svg>
