<svg xmlns="http://www.w3.org/2000/svg" xmlns:xlink="http://www.w3.org/1999/xlink" viewBox="0 0 1019.05 733.81271" version="1.1">
  <defs>
    <linearGradient id="e">
      <stop offset="0" stop-color="#000" stop-opacity="1"/>
      <stop offset="1" stop-color="#000" stop-opacity="0"/>
    </linearGradient>
    <linearGradient id="c">
      <stop offset="0" stop-color="#fff" stop-opacity="1"/>
      <stop offset="1" stop-color="#000" stop-opacity="1"/>
    </linearGradient>
    <linearGradient id="a">
      <stop offset="0" stop-color="#000" stop-opacity="1"/>
      <stop offset="1" stop-color="#fff" stop-opacity="1"/>
    </linearGradient>
    <linearGradient id="b" x1="3721.1494" x2="3796.2793" y1="-406.04547" y2="-397.20667" gradientUnits="userSpaceOnUse" xlink:href="#a"/>
    <linearGradient id="d" x1="3124.5281" x2="3246.062" y1="-293.35034" y2="-282.30179" gradientUnits="userSpaceOnUse" xlink:href="#c"/>
  </defs>
  <g fill-opacity="1">
    <path fill="#47321f" d="M0 733.81268v-8.5725h1018.962v8.5725zM0 8.6888428V.11634254h1018.962V8.6888428z" opacity="1"/>
    <path fill="#47321f" d="M0 0h8.5725002v730.09479H0zM1010.4775 2h8.5725v211.94864h-8.5725zM1010.4775 377.95865h8.5725v354.13614h-8.5725z" opacity="1"/>
    <path fill="#47321f" d="M1019.05 375.93576v8.5725H793.97118v-8.5725zM1019.05 205.65005v8.57251H793.97118v-8.57251zM826.82794 142.82016h-8.5725V2.1163483h8.5725zM760.82794 142.82016h-8.5725V2.1163483h8.5725zM476.82788 142.82016h-8.5725V2.1163483h8.5725zM202.82788 142.82016h-8.5725V2.1163483h8.5725zM140.95605 141.87442h-8.5725V56.41333h8.5725z" opacity="1"/>
    <path fill="#47321f" d="M0 141.87442v-8.5725h140.15138v8.5725zM802.52112 731.81268h-8.5725V450.38629h8.5725z" opacity="1"/>
    <path fill="#47321e" d="M66.949936 414.31886c-24.3579 0-42.1658.37109-66.94929987.37109v317.4043H202.56124c.7336-7.1696 1.1133-14.48065 1.1133-21.90625V584.54347c0-97.1422-60.98-170.22461-136.724604-170.22461zm47.019504 160.83008c1.5128 0 2.8782.27701 4.0957.83203 1.2174.54606 2.2248 1.27164 3.0215 2.17578v3.86719h-2.9141l-.4023-2.60547c-.385-.38493-.8721-.68832-1.4629-.91211-.5819-.2238-1.2717-.33594-2.0684-.33594-1.7008 0-3.0115.61816-3.9336 1.85352-.9131 1.23535-1.3711 2.84668-1.3711 4.83398v.68359c0 1.98731.458 3.60336 1.3711 4.84766.9131 1.2443 2.2022 1.86719 3.8672 1.86719.7699 0 1.4719-.11214 2.1074-.33594.6446-.2238 1.1412-.52718 1.4903-.91211l.4023-2.60547h2.9141v3.86719c-.7878.91309-1.7951 1.64144-3.0215 2.1875-1.2175.53711-2.5829.80664-4.0957.80664-2.6229 0-4.7713-.90934-6.4453-2.72656-1.674-1.81722-2.5098-4.14942-2.5098-6.9961v-.65625c0-2.83772.833-5.16992 2.4981-6.99609 1.665-1.82617 3.8162-2.74023 6.457-2.74023zm17.9004 0c2.6497 0 4.7934.94043 6.4316 2.82031 1.6472 1.87988 2.4707 4.24316 2.4707 7.08984v.29492c0 2.86459-.8188 5.23259-2.457 7.10352-1.6382 1.87093-3.7819 2.80664-6.4316 2.80664-2.6408 0-4.7771-.93571-6.4063-2.80664-1.6203-1.87093-2.4297-4.23893-2.4297-7.10352v-.29492c0-2.84668.8094-5.20996 2.4297-7.08984 1.6203-1.87988 3.7518-2.82031 6.3926-2.82031zm-76.968804.2832h9.3067c2.2379 0 4 .57568 5.289 1.73047 1.298 1.14583 1.9473 2.64974 1.9473 4.51172 0 1.87093-.6493 3.37483-1.9473 4.51172-1.289 1.13688-3.0511 1.70703-5.289 1.70703h-3.3047v4.33593l2.0957.40235v2.35156h-8.0977v-2.35156l2.0821-.40235v-14.03125l-2.0821-.40234v-2.36328zm21.7539 0h4.0137l5.9082 16.99805 1.3965.20117v2.35156h-6.6602v-2.35156l1.3575-.24024-.8594-2.68554h-6.3379l-.8594 2.68554 1.3555.24024v2.35156h-6.6602v-2.35156l1.3965-.20117 5.9492-16.99805zm12.6211 0h8.0977v2.36328l-2.0957.40234v13.77735h5.519504l.1875-2.45899h2.9942v5.4668H89.276036v-2.35156l2.0821-.40235v-14.03125l-2.0821-.40234v-2.36328zm42.593804 2.7793c-1.6472 0-2.8788.62565-3.6934 1.8789-.8056 1.25326-1.209 2.90039-1.209 4.94141v.32226c0 2.05892.4081 3.72022 1.2227 4.98243.8236 1.25325 2.0552 1.8789 3.6934 1.8789 1.656 0 2.8999-.62565 3.7324-1.8789.8325-1.26221 1.248-2.92351 1.248-4.98243v-.32226c0-2.02311-.4202-3.66553-1.2617-4.92774-.8415-1.2622-2.0853-1.89257-3.7324-1.89257zm-70.966804.24023v6.41992h3.3047c1.0921 0 1.9157-.2959 2.4707-.88672.5639-.59977.8457-1.36116.8457-2.2832 0-.93994-.2818-1.71354-.8457-2.32227-.555-.61767-1.3786-.92773-2.4707-.92773h-3.3047zm17.6992 1.47852l-2.2031 6.88867h4.4844l-2.2012-6.88867h-.08z" opacity="1"/>
    <g fill="#47321e" stroke="none" stroke-opacity="1" stroke-width="1" style="line-height:125%;text-align:center" font-style="normal" font-weight="bold" font-size="27.5" font-family="Roboto Slab" letter-spacing="0" word-spacing="0" text-anchor="middle" stroke-linecap="butt" stroke-linejoin="miter" font-variant="normal" font-stretch="normal">
      <path d="M77.354439 65.582672l-1.611328.201416-3.961182 16.986084h-3.638916l-3.585205-12.904053h-.08057l-3.585206 12.904053h-3.638916l-3.988037-16.986084-1.5979-.201416v-2.363281h7.197266v2.363281l-1.785889.308838 2.242432 10.715332.08057.01343 3.665771-13.400879h2.886963l3.692627 13.400879.08057-.01343 2.229004-10.715332-1.785889-.308838v-2.363281h7.183838v2.363281zM94.528511 69.812408h-2.913818l-.402832-2.60498q-.577393-.577393-1.463623-.913086-.872803-.335693-2.067871-.335693-2.55127 0-3.934327 1.853027-1.369629 1.853027-1.369629 4.833984v.684815q0 2.980957 1.369629 4.847412 1.369629 1.866455 3.867188 1.866455 1.154785 0 2.108154-.335693.966797-.335694 1.490479-.913086l.402832-2.604981h2.913818v3.867188q-1.181641 1.369629-3.02124 2.18872-1.826172.805665-4.095459.805665-3.934326 0-6.445313-2.725831-2.510986-2.72583-2.510986-6.995849v-.657959q0-4.256592 2.497559-6.99585 2.497558-2.739258 6.45874-2.739258 2.269287 0 4.095459.83252 1.826172.819092 3.02124 2.175293v3.867187z" style="-inkscape-font-specification:'Roboto Slab Bold'"/>
    </g>
    <g fill="#47321e" stroke="none" stroke-opacity="1" stroke-width="1" style="line-height:125%;text-align:center" font-style="normal" font-weight="bold" font-size="27.5" font-family="Roboto Slab" letter-spacing="0" word-spacing="0" text-anchor="middle" stroke-linecap="butt" stroke-linejoin="miter" font-variant="normal" font-stretch="normal">
      <path d="M595.05853 61.656891q3.45093 0 5.38452 1.342773 1.9336 1.342774 1.9336 4.014893 0 1.356201-.7251 2.43042-.71167 1.060791-2.0813 1.5979 1.75903.375977 2.63184 1.611328.88623 1.235352.88623 2.860108 0 2.806396-1.85303 4.256592-1.85303 1.436767-5.25024 1.436767h-9.61426v-2.349853l2.0813-.402832V64.423004l-2.0813-.402832v-2.363281h8.68774zm-2.68554 10.90332v5.639649h3.61206q1.55761 0 2.37671-.671387.81909-.684815.81909-2.01416 0-1.436768-.69825-2.188721-.69824-.765381-2.20214-.765381h-3.90747zm0-2.712402h2.81982q1.57104 0 2.41699-.644531.84595-.644532.84595-1.879883 0-1.356201-.85938-2.000733-.84594-.644531-2.53784-.644531h-2.68554v5.169678zM604.37738 78.857819l1.39648-.201416 5.94849-16.999512h4.01489l5.90821 16.999512 1.39648.201416v2.349853h-6.66016v-2.349853l1.35621-.2417-.85938-2.685546h-6.33789l-.85937 2.685546 1.3562.2417v2.349853h-6.66016v-2.349853zm7.08984-5.814209h4.48487l-2.20215-6.888428h-.0806l-2.20215 6.888428zM633.12616 61.656891q3.33008 0 5.22339 1.530762 1.89331 1.517334 1.89331 4.20288 0 1.477051-.79224 2.564698-.79223 1.087646-2.323 1.759033 1.73218.510254 2.48414 1.705322.76538 1.181641.76538 2.940674v.993652q0 .644532.25512 1.00708.25513.349122.84595.41626l.4834.06714v2.363281h-2.02759q-1.92017 0-2.69897-1.033935-.77881-1.033936-.77881-2.67212v-1.114502q0-1.423339-.76538-2.229003-.75196-.819092-2.13501-.859375h-3.20923v5.15625l2.09473.402832v2.349853h-8.09693V78.85782l2.0813-.402832V64.423005l-2.0813-.402832v-2.363281H633.12616zm-2.77954 8.620605h2.7124q1.63818 0 2.45728-.698242.81909-.698242.81909-2.01416t-.81909-2.094727q-.80567-.792236-2.39014-.792236h-2.77954v5.599365z" style="-inkscape-font-specification:'Roboto Slab Bold'"/>
    </g>
    <g fill="#47321e" stroke="none" stroke-opacity="1" stroke-width="1" style="line-height:125%;text-align:center" font-style="normal" font-weight="bold" font-size="27.5" font-family="Roboto Slab" letter-spacing="0" word-spacing="0" text-anchor="middle" stroke-linecap="butt" stroke-linejoin="miter" font-variant="normal" font-stretch="normal">
      <path d="M888.48114 69.031158h-2.91382l-.40283-2.60498q-.57739-.577393-1.46362-.913086-.87281-.335693-2.06787-.335693-2.55127 0-3.93433 1.853027-1.36963 1.853027-1.36963 4.833984v.684815q0 2.980957 1.36963 4.847412 1.36963 1.866455 3.86719 1.866455 1.15478 0 2.10815-.335693.9668-.335694 1.49048-.913086l.40283-2.604981h2.91382v3.867188q-1.18164 1.369629-3.02124 2.18872-1.82617.805665-4.09546.805665-3.93433 0-6.44531-2.725831-2.51099-2.72583-2.51099-6.995849v-.657959q0-4.256592 2.49756-6.99585 2.49756-2.739258 6.45874-2.739258 2.26929 0 4.09546.83252 1.82617.819092 3.02124 2.175293v3.867187zM890.09247 79.639069l1.39648-.201416 5.94849-16.999512h4.01489l5.9082 16.999512 1.39649.201416v2.349853h-6.66016v-2.349853l1.3562-.2417-.85937-2.685546h-6.33789l-.85938 2.685546 1.3562.2417v2.349853h-6.66015v-2.349853zm7.08984-5.814209h4.48487l-2.20215-6.888428h-.0806l-2.20215 6.888428zM910.04608 64.801422v-2.363281h8.09693v2.363281l-2.09473.402832v14.031983l2.09473.402832v2.349853h-8.09693v-2.349853l2.09473-.402832V65.204254l-2.09473-.402832zM919.31122 79.639069l1.65161-.322266 5.16968-7.183838-5.0354-6.99585-1.63819-.335693v-2.363281h7.50611v2.363281l-1.5979.174561 3.02124 4.793701 3.03466-4.793701-1.57104-.174561v-2.363281h7.53296v2.363281l-1.63818.335693-5.03541 6.99585 5.2771 7.17041 1.73218.335694v2.349853h-7.69409v-2.349853l1.55762-.161133-3.14209-4.941406-3.15552 4.941406 1.57104.161133v2.349853h-7.54638v-2.349853zM938.75458 79.639069l1.39648-.201416 5.94849-16.999512h4.01489l5.9082 16.999512 1.39649.201416v2.349853h-6.66016v-2.349853l1.3562-.2417-.85937-2.685546h-6.33789l-.85938 2.685546 1.3562.2417v2.349853h-6.66015v-2.349853zm7.08984-5.814209h4.48486l-2.20214-6.888428h-.0806l-2.20215 6.888428z" style="-inkscape-font-specification:'Roboto Slab Bold'"/>
    </g>
    <g fill="#47321e" stroke="none" stroke-opacity="1" stroke-width="1" style="line-height:125%;text-align:center" font-style="normal" font-weight="bold" font-size="27.5" font-family="Roboto Slab" letter-spacing="0" word-spacing="0" text-anchor="middle" stroke-linecap="butt" stroke-linejoin="miter" font-variant="normal" font-stretch="normal">
      <path d="M836.26312 293.70767h-6.61987v5.58594h6.31103l.17457-2.33643h2.98095v5.34424h-15.46875v-2.34985l2.0813-.40283v-14.03199l-2.0813-.40283v-2.36328h15.4419v5.35767h-3.00782l-.17456-2.33643h-6.25732v4.91455h6.61987v3.02124zM861.185 282.75064v2.36328l-2.09473.40283v16.78467h-3.90747l-7.89551-13.15918-.0806.0134v10.39307l2.09472.40283v2.34985h-8.09692v-2.34985l2.0813-.40283v-14.03199l-2.0813-.40283v-2.36328h6.0022l7.8955 13.15918.0806-.0134v-10.37964l-2.09473-.40283v-2.36328h8.09693zM879.68842 282.75064v5.20996h-3.00782l-.16113-2.18872h-3.59863v13.77686l2.09472.40283v2.34985h-8.11035v-2.34985l2.09473-.40283v-13.77686h-3.58521l-.16113 2.18872h-2.99438v-5.20996h17.4292zM889.73236 282.75064q3.33008 0 5.22339 1.53076 1.89331 1.51734 1.89331 4.20288 0 1.47705-.79224 2.5647-.79223 1.08765-2.32299 1.75903 1.73217.51026 2.48413 1.70533.76538 1.18164.76538 2.94067v.99365q0 .64453.25512 1.00708.25513.34912.84595.41626l.4834.0671v2.36328h-2.02759q-1.92016 0-2.69897-1.03393-.77881-1.03394-.77881-2.67212v-1.1145q0-1.42334-.76538-2.22901-.75196-.81909-2.13501-.85937h-3.20923v5.15625l2.09473.40283v2.34985h-8.09693v-2.34985l2.0813-.40283v-14.03199l-2.0813-.40283v-2.36328H889.73236zm-2.77954 8.62061h2.7124q1.63819 0 2.45728-.69825.81909-.69824.81909-2.01416 0-1.31591-.81909-2.09472-.80567-.79224-2.39014-.79224h-2.77954v5.59937zM899.65546 299.95157l1.39648-.20142 5.94849-16.99951h4.01489l5.9082 16.99951 1.39649.20142v2.34985h-6.66016v-2.34985l1.3562-.2417-.85937-2.68555h-6.33789l-.85938 2.68555 1.3562.2417v2.34985h-6.66015v-2.34985zm7.08984-5.81421h4.48486l-2.20214-6.88843h-.0806l-2.20215 6.88843zM928.41766 282.75064q3.58521 0 5.90821 2.29614 2.32299 2.28272 2.32299 5.86792v3.23609q0 3.59863-2.32299 5.88135-2.323 2.26928-5.90821 2.26928h-8.79516v-2.34985l2.0813-.40283v-14.03199l-2.0813-.40283v-2.36328H928.41766zm-2.79297 3.02124v13.52173h2.59156q2.10815 0 3.30322-1.42334 1.19507-1.42334 1.19507-3.71948v-3.26294q0-2.26929-1.19507-3.69263t-3.30322-1.42334h-2.59156zM937.57538 299.95157l1.39648-.20142 5.94849-16.99951h4.01489l5.9082 16.99951 1.39649.20142v2.34985h-6.66016v-2.34985l1.3562-.2417-.85937-2.68555h-6.33789l-.85938 2.68555 1.3562.2417v2.34985h-6.66015v-2.34985zm7.08984-5.81421h4.48487l-2.20215-6.88843h-.0806l-2.20215 6.88843z" style="-inkscape-font-specification:'Roboto Slab Bold'"/>
    </g>
    <g fill="#47321e" stroke="none" stroke-opacity="1" stroke-width="1" style="line-height:125%;text-align:center" font-style="normal" font-weight="bold" font-size="27.5" font-family="Roboto Slab" letter-spacing="0" word-spacing="0" text-anchor="middle" stroke-linecap="butt" stroke-linejoin="miter" font-variant="normal" font-stretch="normal">
      <path d="M871.17255 546.47418zm0-2.34985l1.39648-.20142 5.94849-16.99951h4.01489l5.9082 16.99951 1.39649.20142v2.34985h-6.66016v-2.34985l1.3562-.2417-.85937-2.68555h-6.33789l-.85938 2.68555 1.3562.2417v2.34985h-6.66015v-2.34985zm7.08984-5.81421h4.48486l-2.20215-6.88843h-.0806l-2.20215 6.88843zm2.48413-16.35498h4.14917l.0269.0806-3.70606 3.49121h-3.14209l2.67212-3.57178zM899.92133 526.9234q3.33007 0 5.22338 1.53076 1.89331 1.51734 1.89331 4.20288 0 1.47705-.79223 2.5647-.79224 1.08765-2.323 1.75903 1.73218.51026 2.48413 1.70533.76538 1.18164.76538 2.94067v.99365q0 .64453.25513 1.00708.25513.34912.84595.41626l.48339.0671v2.36328h-2.02758q-1.92017 0-2.69898-1.03393-.77881-1.03394-.77881-2.67212v-1.1145q0-1.42334-.76538-2.22901-.75195-.81909-2.13501-.85937h-3.20923v5.15625l2.09473.40283v2.34985h-8.09692v-2.34985l2.0813-.40283v-14.03199l-2.0813-.40283v-2.36328H899.92133zm-2.77955 8.62061h2.71241q1.63818 0 2.45727-.69825.81909-.69824.81909-2.01416 0-1.31591-.81909-2.09472-.80566-.79224-2.39013-.79224h-2.77955v5.59937zM922.66791 537.88043h-6.61988v5.58594h6.31104l.17456-2.33643h2.98096v5.34424h-15.46875v-2.34985l2.0813-.40283v-14.03199l-2.0813-.40283v-2.36328h15.44189v5.35767h-3.00781l-.17456-2.33643h-6.25733v4.91455h6.61988v3.02124zM927.4079 544.12433l1.39648-.20142 5.94849-16.99951h4.01489l5.9082 16.99951 1.39649.20142v2.34985h-6.66016v-2.34985l1.3562-.2417-.85937-2.68555h-6.33789l-.85938 2.68555 1.3562.2417v2.34985h-6.66015v-2.34985zm7.08984-5.81421h4.48486l-2.20214-6.88843h-.0806l-2.20215 6.88843z" style="-inkscape-font-specification:'Roboto Slab Bold'"/>
    </g>
    <g fill="#47321e" stroke="none" stroke-opacity="1" stroke-width="1" style="line-height:125%;text-align:center" font-style="normal" font-weight="bold" font-size="27.5" font-family="Roboto Slab" letter-spacing="0" word-spacing="0" text-anchor="middle" stroke-linecap="butt" stroke-linejoin="miter" font-variant="normal" font-stretch="normal">
      <path d="M856.31476 569.9212h-6.61987v5.58594h6.31103l.17456-2.33642h2.98096v5.34423h-15.46875v-2.34985l2.0813-.40283v-14.03198l-2.0813-.40284v-2.36328h15.44189v5.35767h-3.00781l-.17456-2.33643h-6.25732v4.91455h6.61987v3.02124zM860.94733 576.1651l1.65161-.32227 5.16968-7.18383-5.0354-6.99585-1.63819-.3357v-2.36328h7.50611v2.36328l-1.59791.17456 3.02125 4.79371 3.03466-4.79371-1.57104-.17456v-2.36328h7.53296v2.36328l-1.63819.3357-5.0354 6.99585 5.2771 7.17041 1.73218.33569v2.34985h-7.69409v-2.34985l1.55762-.16113-3.14209-4.94141-3.15552 4.94141 1.57104.16113v2.34985h-7.54638v-2.34985zM897.80646 558.96417v5.20996h-3.00781l-.16114-2.18872h-3.59863v13.77686l2.09473.40283v2.34985h-8.11036v-2.34985l2.09473-.40283v-13.77686h-3.5852l-.16114 2.18872h-2.99438v-5.20996h17.4292zM911.69073 569.9212h-6.61987v5.58594h6.31104l.17456-2.33642h2.98095v5.34423h-15.46875v-2.34985l2.0813-.40283v-14.03198l-2.0813-.40284v-2.36328h15.4419v5.35767h-3.00781l-.17456-2.33643h-6.25733v4.91455h6.61987v3.02124zM925.41388 558.96417q3.33008 0 5.22339 1.53076 1.89331 1.51734 1.89331 4.20288 0 1.47706-.79224 2.5647-.79223 1.08765-2.323 1.75904 1.73218.51025 2.48414 1.70532.76538 1.18164.76538 2.94067v.99365q0 .64454.25512 1.00708.25513.34913.84595.41626l.4834.0671v2.36328h-2.02759q-1.92017 0-2.69897-1.03393-.77881-1.03394-.77881-2.67212v-1.1145q0-1.42334-.76538-2.22901-.75196-.81909-2.13501-.85937h-3.20923v5.15625l2.09472.40283v2.34985h-8.09692v-2.34985l2.0813-.40283v-14.03198l-2.0813-.40284v-2.36328H925.41388zm-2.77954 8.62061h2.7124q1.63818 0 2.45728-.69824.81909-.69825.81909-2.01416 0-1.31592-.81909-2.09473-.80567-.79224-2.39014-.79224h-2.77954v5.59937zM955.51886 558.96417v2.36328l-2.09473.40284v16.78466h-3.90747l-7.89551-13.15918-.0806.0134v10.39307l2.09472.40283v2.34985h-8.09692v-2.34985l2.0813-.40283v-14.03198l-2.0813-.40284v-2.36328h6.0022l7.89551 13.15918.0806-.0134v-10.37963l-2.09472-.40284v-2.36328h8.09692zM954.88776 576.1651l1.39648-.20142 5.94849-16.99951h4.01489l5.9082 16.99951 1.39649.20142v2.34985h-6.66016v-2.34985l1.3562-.2417-.85937-2.68555h-6.33789l-.85938 2.68555 1.3562.2417v2.34985h-6.66015v-2.34985zm7.08984-5.81421h4.48486l-2.20215-6.88843h-.0806l-2.20215 6.88843z" style="-inkscape-font-specification:'Roboto Slab Bold'"/>
    </g>
    <path fill="#47321e" d="M262.40744 640.03647v73.875h73.6523v-73.875h-73.6523zm28.7695 24.1367c2.5749 0 4.6194.8597 6.1348 2.5801 1.5266 1.709 2.289 4.2051 2.289 7.4863v5.4844c0 3.2926-.7562 5.7949-2.2715 7.5039-1.5039 1.6976-3.5442 2.5449-6.1191 2.5449-2.5977 0-4.6546-.8473-6.1699-2.5449-1.5153-1.709-2.2735-4.2113-2.2735-7.5039v-5.4844c0-3.2812.7539-5.7773 2.2578-7.4863 1.5153-1.7204 3.5661-2.5801 6.1524-2.5801zm20.1816.3594v21.3789l4.2051.5117v2.9922h-13.3828v-2.9922l4.2051-.5117v-16.8516h-4.2559v-2.8535l9.2285-1.6738zm-20.1816 3.4863c-1.1279 0-1.9834.4557-2.5645 1.3672-.581.9114-.8711 2.3574-.8711 4.3398v6.4766c0 2.0052.2901 3.4635.8711 4.375.5925.9115 1.4584 1.3672 2.5977 1.3672 1.1165 0 1.9658-.4557 2.5469-1.3672.581-.9115.8711-2.3698.8711-4.375v-6.4766c0-1.971-.2963-3.4127-.8887-4.3242-.5925-.9228-1.446-1.3828-2.5625-1.3828zM364.88204 640.03647v73.875h73.6523v-73.875h-73.6523zm26.8203 24.1367c2.5748 0 4.6214.8597 6.1367 2.5801 1.5267 1.709 2.2891 4.2051 2.2891 7.4863v5.4844c0 3.2926-.7582 5.7949-2.2735 7.5039-1.5039 1.6976-3.5423 2.5449-6.1172 2.5449-2.5976 0-4.6546-.8473-6.1699-2.5449-1.5153-1.709-2.2734-4.2113-2.2734-7.5039v-5.4844c0-3.2812.7519-5.7773 2.2558-7.4863 1.5153-1.7204 3.5661-2.5801 6.1524-2.5801zm19.1582 0c2.5635 0 4.581.667 6.0508 2 1.4697 1.333 2.2031 3.1103 2.2031 5.332 0 1.5039-.4144 2.8939-1.2461 4.1699-.8203 1.2761-2.1875 2.9395-4.1016 4.9903l-4.4277 4.8359.035.086h6.459l.2051-2.461h3.7949v6.2891h-16.9883v-3.2656l8.0508-8.6289c1.1621-1.3331 1.9866-2.4558 2.4765-3.3672.49-.9229.7364-1.7784.7364-2.5645 0-1.0482-.2858-1.9017-.8555-2.5625-.5583-.6722-1.3558-1.0078-2.3926-1.0078-1.1507 0-2.027.3916-2.6308 1.1777-.5925.7748-.8887 1.8125-.8887 3.1114h-4.8535l-.035-.1036c-.057-2.2444.6784-4.1399 2.2051-5.6894 1.538-1.5609 3.6054-2.3418 6.2031-2.3418zm-19.1582 3.8457c-1.128 0-1.9815.4557-2.5625 1.3672-.5811.9114-.8711 2.3574-.8711 4.3398v6.4766c0 2.0052.29 3.4635.8711 4.375.5924.9115 1.4583 1.3672 2.5976 1.3672 1.1166 0 1.9659-.4557 2.5469-1.3672.5811-.9115.8711-2.3698.8711-4.375v-6.4766c0-1.971-.2962-3.4127-.8887-4.3242-.5924-.9228-1.4479-1.3828-2.5644-1.3828zM467.35854 640.03647v73.875h73.6524v-73.875h-73.6524zm26.9903 24.1367c2.5748 0 4.6194.8597 6.1347 2.5801 1.5267 1.709 2.291 4.2051 2.291 7.4863v5.4844c0 3.2926-.7581 5.7949-2.2734 7.5039-1.5039 1.6976-3.5423 2.5449-6.1172 2.5449-2.5976 0-4.6546-.8473-6.1699-2.5449-1.5153-1.709-2.2734-4.2113-2.2734-7.5039v-5.4844c0-3.2812.7519-5.7773 2.2558-7.4863 1.5153-1.7204 3.5661-2.5801 6.1524-2.5801zm19.2265 0c2.5749 0 4.6257.6152 6.1524 1.8457 1.5381 1.2305 2.3066 2.985 2.3066 5.2637 0 1.0823-.3418 2.1139-1.0254 3.0937-.6836.9684-1.624 1.7246-2.8203 2.2715 1.3786.4899 2.4268 1.2419 3.1445 2.2559.7292 1.014 1.0938 2.1946 1.0938 3.539 0 2.2787-.8308 4.0726-2.4942 5.3828-1.652 1.2989-3.7711 1.9473-6.3574 1.9473-2.3128 0-4.3014-.609-5.9648-1.8281-1.652-1.2305-2.4496-2.9623-2.3926-5.1953l.035-.1016h4.8359c0 .957.3418 1.7484 1.0254 2.375.6836.6152 1.5495.9219 2.5977.9219 1.1507 0 2.056-.319 2.7168-.9571.6722-.638 1.0078-1.5039 1.0078-2.5976 0-1.3102-.3294-2.2673-.9902-2.8711-.6495-.6152-1.6127-.9219-2.8887-.9219h-2.8028v-3.7422h2.8028c1.1849 0 2.0631-.3086 2.6328-.9238.5697-.6266.8535-1.4925.8535-2.5976 0-1.0027-.2838-1.8064-.8535-2.4102-.5697-.6038-1.3962-.9043-2.4785-.9043-.9343 0-1.7214.2734-2.3594.8203-.638.5469-.957 1.2637-.957 2.1524h-4.836l-.033-.1016c-.068-1.9482.6775-3.5557 2.2383-4.8203 1.5609-1.2647 3.4978-1.8965 5.8106-1.8965zm-19.2265 3.8457c-1.128 0-1.9815.4557-2.5625 1.3672-.5811.9114-.8731 2.3574-.8731 4.3398v6.4766c0 2.0052.292 3.4635.8731 4.375.5924.9115 1.4583 1.3672 2.5976 1.3672 1.1166 0 1.9639-.4557 2.5449-1.3672.5811-.9115.8731-2.3698.8731-4.375v-6.4766c0-1.971-.2962-3.4127-.8887-4.3242-.5924-.9228-1.4479-1.3828-2.5644-1.3828zM569.83314 640.03647v73.875h73.6524v-73.875h-73.6524zm26.6153 24.1367c2.5748 0 4.6194.8597 6.1347 2.5801 1.5267 1.709 2.2911 4.2051 2.2911 7.4863v5.4844c0 3.2926-.7582 5.7949-2.2735 7.5039-1.5039 1.6976-3.5443 2.5449-6.1191 2.5449-2.5977 0-4.6527-.8473-6.168-2.5449-1.5153-1.709-2.2734-4.2113-2.2734-7.5039v-5.4844c0-3.2812.7519-5.7773 2.2558-7.4863 1.5153-1.7204 3.5661-2.5801 6.1524-2.5801zm20.8496.3594h5.0234v15.6191h2.8203v3.3164h-2.8203v2.4434l2.6504.5117v2.9922h-10.2891v-2.9922l2.6661-.5117v-2.4434h-10.1504l-.2403-2.4453 10.3399-16.4902zm-20.8496 3.4863c-1.128 0-1.9834.4557-2.5645 1.3672-.581.9114-.8711 2.3574-.8711 4.3398v6.4766c0 2.0052.2901 3.4635.8711 4.375.5925.9115 1.4584 1.3672 2.5977 1.3672 1.1165 0 1.9658-.4557 2.5468-1.3672.5811-.9115.8711-2.3698.8711-4.375v-6.4766c0-1.971-.2962-3.4127-.8886-4.3242-.5925-.9228-1.446-1.3828-2.5625-1.3828zm20.7988 3.127l-.4102.7167-5.2128 8.2891h5.7246v-8.9726l-.1016-.033zM672.30774 640.03647v73.875h73.6524v-73.875h-73.6524zm27.2051 24.1367c2.5749 0 4.6195.8597 6.1348 2.5801 1.5267 1.709 2.291 4.2051 2.291 7.4863v5.4844c0 3.2926-.7581 5.7949-2.2734 7.5039-1.5039 1.6976-3.5423 2.5449-6.1172 2.5449-2.5977 0-4.6546-.8473-6.1699-2.5449-1.5153-1.709-2.2735-4.2113-2.2735-7.5039v-5.4844c0-3.2812.752-5.7773 2.2559-7.4863 1.5153-1.7204 3.5661-2.5801 6.1523-2.5801zm12.9024.3594h14.3222v5.6738h-3.0761l-.4453-1.6758h-6.6993l-.6992 5.7422c.4671-.3418 1.0244-.6214 1.6738-.8379.6495-.2279 1.3682-.346 2.1543-.3574 2.3926-.034 4.2426.6888 5.5528 2.1699s1.9668 3.5423 1.9668 6.1856c0 2.3925-.725 4.3811-2.1719 5.9648-1.4356 1.5837-3.5091 2.375-6.2207 2.375-2.2787 0-4.2321-.6195-5.8613-1.8613-1.6293-1.2533-2.4144-2.9746-2.3575-5.1621l.033-.086 4.7852-.2383c0 1.1052.3128 1.9711.9395 2.5977.6266.6152 1.4469.9219 2.4609.9219 1.1621 0 2.0238-.4144 2.582-1.2461.5583-.8317.836-1.9089.836-3.2305 0-1.4355-.2963-2.5872-.8887-3.4531-.5925-.8659-1.4749-1.2988-2.6484-1.2988-.9457 0-1.6749.178-2.1875.5312-.5014.3532-.8597.8317-1.0762 1.4356l-4.4102-.2911 1.4356-13.8593zm-12.9024 3.4863c-1.1279 0-1.9814.4557-2.5625 1.3672-.581.9114-.873 2.3574-.873 4.3398v6.4766c0 2.0052.292 3.4635.873 4.375.5925.9115 1.4584 1.3672 2.5977 1.3672 1.1165 0 1.9638-.4557 2.5449-1.3672.5811-.9115.8731-2.3698.8731-4.375v-6.4766c0-1.971-.2963-3.4127-.8887-4.3242-.5925-.9228-1.4479-1.3828-2.5645-1.3828zM275.66524 506.34897v73.875h73.6523v-73.875h-73.6523zm26.666 24.1367c2.5748 0 4.6214.8597 6.1367 2.5801 1.5267 1.709 2.2891 4.2051 2.2891 7.4863v5.4844c0 3.2926-.7582 5.7949-2.2735 7.5039-1.5039 1.6976-3.5423 2.5449-6.1172 2.5449-2.5976 0-4.6546-.8473-6.1699-2.5449-1.5153-1.709-2.2734-4.2113-2.2734-7.5039v-5.4844c0-3.2812.7519-5.7773 2.2558-7.4863 1.5153-1.7204 3.5661-2.5801 6.1524-2.5801zm21.4316 0c.9343 0 1.794.091 2.5801.2734.7975.1709 1.5951.4278 2.3926.7696l-.8711 3.6386c-.7178-.2506-1.3786-.4371-1.9824-.5625-.6039-.1367-1.2998-.205-2.086-.205-1.4811 0-2.6702.5407-3.5703 1.623-.8887 1.0824-1.3402 2.6774-1.3515 4.7852l.053.086c.5583-.5811 1.2647-1.0368 2.1192-1.3672.8659-.3304 1.8271-.4961 2.8867-.4961 2.2217 0 3.9658.7914 5.2305 2.375 1.2646 1.5723 1.8965 3.5837 1.8965 6.0332 0 2.5065-.781 4.5739-2.3418 6.2031-1.5609 1.6293-3.5765 2.4434-6.0489 2.4434-2.6204 0-4.7561-.8887-6.4082-2.666-1.652-1.7887-2.4785-4.2601-2.4785-7.416v-4.375c0-3.5205.9281-6.2549 2.7852-8.2031 1.8685-1.9597 4.2672-2.9395 7.1953-2.9395zm-21.4316 3.8457c-1.1279 0-1.9815.4557-2.5625 1.3672-.5811.9114-.8711 2.3574-.8711 4.3398v6.4766c0 2.0052.29 3.4635.8711 4.375.5924.9115 1.4583 1.3672 2.5976 1.3672 1.1166 0 1.9659-.4557 2.5469-1.3672.5811-.9115.8711-2.3698.8711-4.375v-6.4766c0-1.971-.2962-3.4127-.8887-4.3242-.5924-.9228-1.4479-1.3828-2.5644-1.3828zm20.2871 8.4766c-.9229 0-1.71.1471-2.3594.4433s-1.1507.7002-1.5039 1.2129v1.6582c0 1.971.3542 3.4873 1.0606 4.5469.7177 1.0596 1.6686 1.5879 2.8535 1.5879 1.0254 0 1.8457-.4662 2.4609-1.4004.6266-.9456.9395-2.085.9395-3.418 0-1.3786-.3129-2.4951-.9395-3.3496-.6266-.8545-1.4635-1.2812-2.5117-1.2812zM378.78634 506.34897v73.875h73.6523v-73.875h-73.6523zm44.8398 24.1367c2.5749 0 4.6214.8597 6.1367 2.5801 1.5267 1.709 2.2891 4.2051 2.2891 7.4863v5.4844c0 3.2926-.7582 5.7949-2.2735 7.5039-1.5039 1.6976-3.5423 2.5449-6.1171 2.5449-2.5977 0-4.6547-.8473-6.17-2.5449-1.5153-1.709-2.2734-4.2113-2.2734-7.5039v-5.4844c0-3.2812.752-5.7773 2.2559-7.4863 1.5153-1.7204 3.566-2.5801 6.1523-2.5801zm-15.2266.3594v21.3789l4.2051.5117v2.9922h-13.3828v-2.9922l4.2051-.5117v-16.8516h-4.2559v-2.8535l9.2285-1.6738zm15.2266 3.4863c-1.1279 0-1.9814.4557-2.5625 1.3672-.581.9114-.8711 2.3574-.8711 4.3398v6.4766c0 2.0052.2901 3.4635.8711 4.375.5924.9115 1.4583 1.3672 2.5977 1.3672 1.1165 0 1.9658-.4557 2.5468-1.3672.5811-.9115.8711-2.3698.8711-4.375v-6.4766c0-1.971-.2962-3.4127-.8886-4.3242-.5925-.9228-1.448-1.3828-2.5645-1.3828zM481.90544 506.34897v73.875h73.6523v-73.875h-73.6523zm29.4609 24.4961v21.3789l4.2032.5117v2.9922h-13.3809v-2.9922l4.2031-.5117v-16.8516h-4.2539v-2.8535l9.2285-1.6738zm16.1153 0h5.0234v15.6191h2.8203v3.3164h-2.8203v2.4434l2.6504.5117v2.9922h-10.2891v-2.9922l2.6661-.5117v-2.4434h-10.1504l-.2403-2.4453 10.3399-16.4902zm-.051 6.6133l-.4102.7168-5.2129 8.289h5.7246v-8.9726l-.1015-.033zM585.02454 506.34897v73.875h73.6524v-73.875h-73.6524zm44.5762 24.1367c2.3698 0 4.2839.609 5.7422 1.8281 1.4583 1.2077 2.1875 2.9167 2.1875 5.127 0 1.2418-.3294 2.3418-.9902 3.2988-.6608.957-1.5661 1.7028-2.7168 2.2383 1.3216.5583 2.3636 1.3558 3.1269 2.3926.7634 1.0367 1.1446 2.2216 1.1446 3.5547 0 2.3014-.781 4.0725-2.3418 5.3144-1.5609 1.2305-3.5993 1.8457-6.1172 1.8457-2.5293 0-4.5801-.6152-6.1524-1.8457-1.5608-1.2419-2.3418-3.013-2.3418-5.3144 0-1.3444.377-2.5293 1.1289-3.5547.7634-1.0368 1.8054-1.8343 3.127-2.3926-1.1621-.5355-2.0674-1.2813-2.7168-2.2383-.6494-.957-.9746-2.057-.9746-3.2988 0-2.2103.723-3.9193 2.1699-5.127 1.4469-1.2191 3.3548-1.8281 5.7246-1.8281zm-14.7656.3594v21.3789l4.2051.5117v2.9922h-13.3809v-2.9922l4.2031-.5117v-16.8516h-4.2558v-2.8535l9.2285-1.6738zm14.7656 3.4863c-.9114 0-1.6221.3005-2.1347.9043-.5014.5924-.752 1.4023-.752 2.4277 0 1.0368.2549 1.8633.7676 2.4785.5127.6039 1.2314.9043 2.1543.9043.9 0 1.6064-.3004 2.1191-.9043.5241-.6152.7852-1.4417.7852-2.4785 0-1.0026-.2673-1.8063-.8028-2.4101-.5241-.6153-1.2366-.9219-2.1367-.9219zm0 10.5605c-1.0368 0-1.8737.3357-2.5117 1.0079-.638.6722-.957 1.567-.957 2.6836 0 1.1393.319 2.0403.957 2.7011.638.6494 1.4873.9727 2.5469.9727 1.0368 0 1.8737-.3294 2.5117-.9903.6494-.6608.9746-1.5556.9746-2.6835 0-1.1166-.3314-2.0114-.9922-2.6836-.6494-.6722-1.4925-1.0079-2.5293-1.0079zM275.66524 408.34897v73.875h73.6523v-73.875h-73.6523zm26.8711 24.1367c2.5748 0 4.6214.8597 6.1367 2.5801 1.5267 1.709 2.289 4.2051 2.289 7.4863v5.4844c0 3.2926-.7581 5.7949-2.2734 7.5039-1.5039 1.6976-3.5423 2.5449-6.1172 2.5449-2.5976 0-4.6546-.8473-6.1699-2.5449-1.5153-1.709-2.2734-4.2113-2.2734-7.5039v-5.4844c0-3.2812.7519-5.7773 2.2558-7.4863 1.5153-1.7204 3.5661-2.5801 6.1524-2.5801zm10.7324.3594h17.5859v3.8437c-2.666 3.1218-4.4889 6.0342-5.4687 8.7344-.9685 2.7002-1.6625 5.9587-2.084 9.7754l-.2402 2.5293h-4.9903l.2403-2.5293c.3873-3.6572 1.2181-7.013 2.4941-10.0664 1.276-3.0648 3.0244-5.8799 5.2461-8.4434h-8.7656l-.1895 2.461h-3.8281v-6.3047zm-10.7324 3.4863c-1.128 0-1.9815.4557-2.5625 1.3672-.5811.9114-.8711 2.3574-.8711 4.3398v6.4766c0 2.0052.29 3.4635.8711 4.375.5924.9115 1.4583 1.3672 2.5976 1.3672 1.1166 0 1.9658-.4557 2.5469-1.3672.581-.9115.8711-2.3698.8711-4.375v-6.4766c0-1.971-.2962-3.4127-.8887-4.3242-.5924-.9228-1.4479-1.3828-2.5644-1.3828zM378.78634 408.34897v73.875h73.6523v-73.875h-73.6523zm31.6132 24.4961v21.3789l4.2032.5117v2.9922h-13.3809v-2.9922l4.2051-.5117v-16.8516h-4.2559v-2.8535l9.2285-1.6738zm15.4493 0v21.3789l4.2031.5117v2.9922h-13.3809v-2.9922l4.2051-.5117v-16.8516h-4.2559v-2.8535l9.2286-1.6738zM481.90544 408.34897v73.875h73.6523v-73.875h-73.6523zm29.9824 24.3164v21.3789l4.2031.5137v2.9902h-13.3808v-2.9902l4.2031-.5137v-16.8496h-4.2539v-2.8555l9.2285-1.6738zm8.168 0h14.3223v5.6738h-3.0762l-.4453-1.6758h-6.6992l-.7012 5.7422c.4671-.3418 1.0264-.6194 1.6758-.8359.6494-.2279 1.3662-.348 2.1523-.3594 2.3926-.034 4.2445.6888 5.5547 2.1699 1.3102 1.4812 1.9648 3.5443 1.9648 6.1875 0 2.3926-.7229 4.3793-2.1699 5.9629-1.4355 1.5837-3.5091 2.377-6.2207 2.377-2.2786 0-4.2321-.6214-5.8613-1.8633-1.6292-1.2533-2.4164-2.9746-2.3594-5.1621l.035-.084 4.7852-.2402c0 1.1051.3128 1.971.9394 2.5976.6267.6153 1.447.9238 2.461.9238 1.1621 0 2.0218-.4163 2.58-1.248.5583-.8317.8379-1.9089.8379-3.2305 0-1.4355-.2962-2.5853-.8886-3.4511-.5925-.8659-1.475-1.2989-2.6485-1.2989-.9456 0-1.6748.1761-2.1875.5293-.5013.3532-.8597.8317-1.0762 1.4356l-4.4101-.291 1.4355-13.8594zM585.02454 408.34897v73.875h73.6524v-73.875h-73.6524zm44.4571 24.1367c2.5407 0 4.6038.8763 6.1875 2.6309 1.5836 1.7431 2.375 4.1998 2.375 7.3671v5.4004c0 3.2243-.8825 5.7308-2.6485 7.5196-1.7545 1.7887-4.0166 2.6816-6.7851 2.6816-.8659 0-1.7608-.091-2.6836-.2734-.9115-.1709-1.7546-.4258-2.5293-.7676l.5644-3.6074c.7634.2848 1.503.4961 2.2207.6328.7178.1253 1.5277.1875 2.4278.1875 1.333 0 2.4101-.5056 3.2305-1.5195.8203-1.0254 1.2304-2.5583 1.2304-4.5977v-.377c-.5582.7178-1.2252 1.2647-2 1.6407-.7747.3646-1.6074.5468-2.4961.5468-2.3242 0-4.1471-.7561-5.4687-2.2714-1.3216-1.5267-1.9824-3.6293-1.9824-6.3067 0-2.5179.7871-4.6266 2.3593-6.3242 1.5837-1.709 3.5827-2.5625 5.9981-2.5625zm-14.5938.3594v21.3789l4.2032.5117v2.9922h-13.3809v-2.9922l4.2031-.5117v-16.8516h-4.2539v-2.8535l9.2285-1.6738zm14.6289 3.4863c-1.0026 0-1.8229.4951-2.4609 1.4863-.6266.9798-.9414 2.1647-.9414 3.5547 0 1.5039.2796 2.6992.8379 3.5879.5696.8887 1.39 1.334 2.4609 1.334.8317 0 1.5547-.1533 2.1699-.4609.6267-.3191 1.1237-.7416 1.4883-1.2657v-2.666c0-1.8229-.319-3.2067-.957-4.1523-.638-.9457-1.5039-1.418-2.5977-1.418zM275.66524 312.34897v73.875h73.6523v-73.875h-73.6523zm27.0351 24.1367c2.5749 0 4.6195.8597 6.1348 2.5801 1.5267 1.709 2.2891 4.2051 2.2891 7.4863v5.4844c0 3.2926-.7562 5.7949-2.2715 7.5039-1.5039 1.6976-3.5443 2.5449-6.1192 2.5449-2.5976 0-4.6546-.8473-6.1699-2.5449-1.5153-1.709-2.2715-4.2113-2.2715-7.5039v-5.4844c0-3.2812.752-5.7773 2.2559-7.4863 1.5153-1.7204 3.5661-2.5801 6.1523-2.5801zm19.4981 0c2.3698 0 4.2838.609 5.7422 1.8281 1.4583 1.2077 2.1875 2.9167 2.1875 5.127 0 1.2418-.3295 2.3418-.9903 3.2988-.6608.957-1.5661 1.7028-2.7168 2.2383 1.3216.5583 2.3636 1.3558 3.127 2.3926.7633 1.0367 1.1445 2.2216 1.1445 3.5546 0 2.3015-.7809 4.0726-2.3418 5.3145-1.5609 1.2305-3.5993 1.8457-6.1172 1.8457-2.5293 0-4.58-.6152-6.1523-1.8457-1.5609-1.2419-2.3418-3.013-2.3418-5.3145 0-1.3444.3769-2.5292 1.1289-3.5546.7633-1.0368 1.8053-1.8343 3.1269-2.3926-1.1621-.5355-2.0673-1.2813-2.7167-2.2383-.6495-.957-.9747-2.057-.9747-3.2988 0-2.2103.723-3.9193 2.17-5.127 1.4469-1.2191 3.3548-1.8281 5.7246-1.8281zm-19.4981 3.8457c-1.1279 0-1.9834.4557-2.5644 1.3672-.5811.9114-.8711 2.3574-.8711 4.3398v6.4766c0 2.0052.29 3.4635.8711 4.375.5924.9115 1.4583 1.3672 2.5976 1.3672 1.1166 0 1.9658-.4557 2.5469-1.3672s.8711-2.3698.8711-4.375v-6.4766c0-1.971-.2962-3.4127-.8887-4.3242-.5924-.9228-1.4459-1.3828-2.5625-1.3828zm19.4981 0c-.9115 0-1.6221.3005-2.1348.9043-.5013.5924-.7519 1.4023-.7519 2.4277 0 1.0368.2548 1.8633.7675 2.4785.5127.6039 1.2315.9043 2.1543.9043.9001 0 1.6065-.3004 2.1192-.9043.5241-.6152.7851-1.4417.7851-2.4785 0-1.0026-.2672-1.8063-.8027-2.4101-.5241-.6153-1.2367-.9219-2.1367-.9219zm0 10.5605c-1.0368 0-1.8737.3357-2.5117 1.0079-.6381.6722-.9571 1.567-.9571 2.6836 0 1.1393.319 2.0403.9571 2.7011.638.6494 1.4873.9727 2.5468.9727 1.0368 0 1.8737-.3294 2.5117-.9903.6495-.6608.9747-1.5556.9747-2.6835 0-1.1166-.3314-2.0114-.9922-2.6836-.6494-.6722-1.4925-1.0079-2.5293-1.0079zM378.78634 312.34897v73.875h73.6523v-73.875h-73.6523zm44.166 24.3164c2.5635 0 4.5791.667 6.0488 2 1.4697 1.333 2.2051 3.1103 2.2051 5.332 0 1.5039-.4164 2.8939-1.2481 4.1699-.8203 1.2761-2.1875 2.9395-4.1015 4.9903l-4.4258 4.8359.035.086h6.459l.2051-2.4609h3.7949v6.2891h-16.9883v-3.2657l8.0488-8.6289c1.1621-1.333 1.9886-2.4557 2.4785-3.3671.4899-.9229.7344-1.7784.7344-2.5645 0-1.0482-.2838-1.9017-.8535-2.5625-.5583-.6722-1.3558-1.0078-2.3926-1.0078-1.1507 0-2.029.3916-2.6328 1.1777-.5924.7748-.8887 1.8125-.8887 3.1113h-4.8535l-.033-.1035c-.057-2.2444.6784-4.1399 2.2051-5.6894 1.5381-1.5609 3.6055-2.3418 6.2031-2.3418zm-14.4239.3594v21.3789l4.2032.5117v2.9922h-13.3809v-2.9922l4.2051-.5117v-16.8516h-4.2559v-2.8535l9.2286-1.6738zM481.90544 312.34897v73.875h73.6523v-73.875h-73.6523zm46.1406 24.1367c.9343 0 1.794.091 2.5801.2734.7975.1709 1.595.4278 2.3926.7696l-.8711 3.6386c-.7178-.2506-1.3786-.4371-1.9824-.5625-.6039-.1367-1.2998-.205-2.086-.205-1.4811 0-2.6722.5406-3.5722 1.623-.8887 1.0824-1.3383 2.6774-1.3496 4.7852l.051.086c.5582-.5811 1.2646-1.0368 2.1191-1.3672.8659-.3304 1.8291-.4961 2.8887-.4961 2.2216 0 3.9658.7914 5.2304 2.375 1.2647 1.5723 1.8965 3.5837 1.8965 6.0332 0 2.5065-.7809 4.5739-2.3418 6.2031-1.5608 1.6293-3.5765 2.4434-6.0488 2.4434-2.6204 0-4.7581-.8887-6.4102-2.666-1.652-1.7887-2.4765-4.2601-2.4765-7.416v-4.375c0-3.5205.928-6.2549 2.7851-8.2032 1.8685-1.9596 4.2673-2.9394 7.1953-2.9394zm-16.6972.3594v21.3789l4.2031.5117v2.9922h-13.3809v-2.9922l4.2051-.5117v-16.8516h-4.2559v-2.8535l9.2286-1.6738zm15.5507 11.9629c-.9228 0-1.708.1471-2.3574.4433-.6494.2962-1.1507.7002-1.5039 1.2129v1.6582c0 1.971.3522 3.4873 1.0586 4.5469.7178 1.0596 1.6706 1.5879 2.8555 1.5879 1.0254 0 1.8457-.4662 2.4609-1.4004.6266-.9456.9395-2.085.9395-3.418 0-1.3786-.3129-2.4951-.9395-3.3496-.6266-.8545-1.4655-1.2812-2.5137-1.2812zM585.02454 312.34897v73.875h73.6524v-73.875h-73.6524zm26.7461 24.1367c2.5635 0 4.5791.667 6.0489 2 1.4697 1.333 2.205 3.1103 2.205 5.332 0 1.5039-.4163 2.8939-1.248 4.1699-.8203 1.2761-2.1875 2.9395-4.1016 4.9903l-4.4257 4.8359.033.086h6.4609l.2051-2.461h3.7929v6.2891h-16.9863v-3.2656l8.0488-8.6289c1.1622-1.3331 1.9886-2.4558 2.4786-3.3672.4899-.9229.7343-1.7784.7343-2.5645 0-1.0482-.2838-1.9017-.8535-2.5625-.5583-.6722-1.3558-1.0078-2.3926-1.0078-1.1507 0-2.0289.3916-2.6328 1.1777-.5924.7748-.8886 1.8125-.8886 3.1114h-4.8536l-.033-.1036c-.057-2.2444.6765-4.1399 2.2032-5.6894 1.538-1.5609 3.6074-2.3418 6.205-2.3418zm20.1485 0c2.5748 0 4.6194.8597 6.1347 2.5801 1.5267 1.709 2.2911 4.2051 2.2911 7.4863v5.4844c0 3.2926-.7582 5.7949-2.2735 7.5039-1.5039 1.6976-3.5443 2.5449-6.1191 2.5449-2.5977 0-4.6527-.8473-6.168-2.5449-1.5153-1.709-2.2734-4.2113-2.2734-7.5039v-5.4844c0-3.2812.7519-5.7773 2.2558-7.4863 1.5153-1.7204 3.5661-2.5801 6.1524-2.5801zm0 3.8457c-1.128 0-1.9834.4557-2.5645 1.3672-.581.9114-.8711 2.3574-.8711 4.3398v6.4766c0 2.0052.2901 3.4635.8711 4.375.5925.9115 1.4584 1.3672 2.5977 1.3672 1.1165 0 1.9658-.4557 2.5469-1.3672.581-.9115.871-2.3698.871-4.375v-6.4766c0-1.971-.2962-3.4127-.8886-4.3242-.5925-.9228-1.446-1.3828-2.5625-1.3828zM275.66524 216.34897v73.875h73.6523v-73.875h-73.6523zm27.0859 24.1367c2.5749 0 4.6195.8597 6.1348 2.5801 1.5267 1.709 2.291 4.2051 2.291 7.4863v5.4844c0 3.2926-.7582 5.7949-2.2735 7.5039-1.5039 1.6976-3.5442 2.5449-6.1191 2.5449-2.5976 0-4.6527-.8473-6.168-2.5449-1.5153-1.709-2.2734-4.2113-2.2734-7.5039v-5.4844c0-3.2812.752-5.7773 2.2559-7.4863 1.5153-1.7204 3.566-2.5801 6.1523-2.5801zm19.3281 0c2.5407 0 4.6039.8763 6.1875 2.6309 1.5837 1.7431 2.375 4.1998 2.375 7.3671v5.4004c0 3.2243-.8825 5.7308-2.6484 7.5196-1.7546 1.7887-4.0166 2.6816-6.7852 2.6816-.8658 0-1.7607-.091-2.6836-.2734-.9114-.1709-1.7545-.4258-2.5293-.7676l.5645-3.6074c.7633.2848 1.5029.4961 2.2207.6328.7178.1253 1.5277.1875 2.4277.1875 1.333 0 2.4102-.5056 3.2305-1.5196.8203-1.0253 1.2305-2.5582 1.2305-4.5976v-.377c-.5583.7178-1.2253 1.2647-2 1.6407-.7748.3645-1.6074.5468-2.4961.5468-2.3242 0-4.1472-.7561-5.4688-2.2714-1.3216-1.5267-1.9824-3.6293-1.9824-6.3067 0-2.5179.7871-4.6266 2.3594-6.3242 1.5836-1.709 3.5827-2.5625 5.998-2.5625zm-19.3281 3.8457c-1.1279 0-1.9834.4557-2.5644 1.3672-.5811.9114-.8711 2.3574-.8711 4.3398v6.4766c0 2.0052.29 3.4635.8711 4.375.5924.9115 1.4583 1.3672 2.5976 1.3672 1.1165 0 1.9658-.4557 2.5469-1.3672.581-.9115.8711-2.3698.8711-4.375v-6.4766c0-1.971-.2963-3.4127-.8887-4.3242-.5925-.9228-1.446-1.3828-2.5625-1.3828zm19.3633 0c-1.0026 0-1.8229.4951-2.461 1.4863-.6266.9798-.9414 2.1647-.9414 3.5547 0 1.5039.2797 2.6992.8379 3.5879.5697.8887 1.39 1.334 2.461 1.334.8317 0 1.5547-.1533 2.1699-.4609.6266-.3191 1.1237-.7416 1.4883-1.2657v-2.666c0-1.8229-.319-3.2067-.9571-4.1523-.638-.9457-1.5039-1.418-2.5976-1.418zM378.78634 216.34897v73.875h73.6523v-73.875h-73.6523zm44.2597 24.1367c2.5749 0 4.6257.6152 6.1524 1.8457 1.5381 1.2305 2.3066 2.985 2.3066 5.2637 0 1.0823-.3418 2.1139-1.0254 3.0937-.6836.9684-1.624 1.7246-2.8203 2.2715 1.3786.4899 2.4268 1.2419 3.1445 2.2559.7292 1.014 1.0938 2.1946 1.0938 3.539 0 2.2787-.8307 4.0726-2.4942 5.3828-1.652 1.2989-3.7711 1.9473-6.3574 1.9473-2.3128 0-4.3014-.609-5.9648-1.8281-1.652-1.2305-2.4496-2.9623-2.3926-5.1953l.035-.1016h4.8359c0 .957.3418 1.7484 1.0254 2.375.6836.6152 1.5495.9219 2.5977.9219 1.1507 0 2.056-.319 2.7168-.9571.6722-.638 1.0078-1.5039 1.0078-2.5976 0-1.3102-.3294-2.2673-.9902-2.8711-.6495-.6152-1.6127-.9219-2.8887-.9219h-2.8028v-3.7422h2.8028c1.1849 0 2.0631-.3086 2.6328-.9238.5697-.6266.8535-1.4925.8535-2.5976 0-1.0027-.2838-1.8064-.8535-2.4102-.5697-.6038-1.3962-.9043-2.4785-.9043-.9343 0-1.7214.2734-2.3594.8203-.638.5469-.957 1.2637-.957 2.1524h-4.836l-.033-.1016c-.068-1.9482.6774-3.5557 2.2383-4.8203 1.5609-1.2647 3.4977-1.8965 5.8106-1.8965zm-14.4922.3594v21.3789l4.2032.5117v2.9922h-13.3809v-2.9922l4.2051-.5117v-16.8516h-4.2559v-2.8535l9.2285-1.6738zM481.90544 216.34897v73.875h73.6523v-73.875h-73.6523zm29.6484 24.4961v21.3789l4.2032.5117v2.9922h-13.3809v-2.9922l4.2051-.5117v-16.8516h-4.2559v-2.8535l9.2285-1.6738zm5.9981 0h17.5859v3.8437c-2.666 3.1218-4.4889 6.0342-5.4687 8.7344-.9685 2.7002-1.6644 5.9587-2.086 9.7754l-.2382 2.5293h-4.9903l.2383-2.5293c.3874-3.6572 1.2201-7.013 2.4961-10.0664 1.276-3.0648 3.0244-5.8799 5.2461-8.4434h-8.7676l-.1875 2.461h-3.8281v-6.3047zM585.02454 216.34897v73.875h73.6524v-73.875h-73.6524zm28.7442 24.3164c2.5635 0 4.581.667 6.0508 2 1.4697 1.333 2.205 3.1103 2.205 5.332 0 1.5039-.4163 2.8939-1.248 4.1699-.8203 1.2761-2.1875 2.9395-4.1016 4.9903l-4.4257 4.8359.033.086h6.4609l.2051-2.4609h3.7929v6.2891h-16.9863v-3.2657l8.0488-8.6289c1.1622-1.333 1.9886-2.4557 2.4786-3.3671.4899-.9229.7343-1.7784.7343-2.5645 0-1.0482-.2858-1.9017-.8554-2.5625-.5583-.6722-1.3558-1.0078-2.3926-1.0078-1.1507 0-2.027.3916-2.6309 1.1777-.5924.7748-.8886 1.8125-.8886 3.1113h-4.8536l-.035-.1035c-.057-2.2444.6784-4.1399 2.2051-5.6894 1.538-1.5609 3.6054-2.3418 6.2031-2.3418zm20.3711.3594v21.3789l4.2051.5117v2.9922h-13.3809v-2.9922l4.2031-.5117v-16.8516h-4.2558v-2.8535l9.2285-1.6738z" opacity="1"/>
  </g>
  <text x="10888.278" y="3054.9736" fill="#000" fill-opacity="1" stroke="none" stroke-opacity="1" stroke-width="1" style="line-height:125%;text-align:center" xml:space="preserve" font-style="normal" font-weight="normal" font-size="40" font-family="sans-serif" letter-spacing="0" word-spacing="0" text-anchor="middle" stroke-linecap="butt" stroke-linejoin="miter"/>
  <flowRoot fill="#502d16" fill-opacity="1" stroke="none" stroke-opacity="1" stroke-width="1" transform="translate(12645.73 2975.27)" style="line-height:125%;text-align:center" xml:space="preserve" font-style="normal" font-weight="normal" font-size="29.9265213" font-family="sans-serif" letter-spacing="0" word-spacing="0" text-anchor="middle" stroke-linecap="butt" stroke-linejoin="miter">
    <flowRegion>
      <path fill="#502d16" fill-opacity="1" d="M-1117.8109-137.5394h477.63953v104.29471h-477.63953z"/>
    </flowRegion>
    <flowPara/>
  </flowRoot>
  <flowRoot fill="#502d16" fill-opacity="1" stroke="none" stroke-opacity="1" stroke-width="1" transform="translate(12645.73 2975.27)" xml:space="preserve" style="line-height:125%;text-align:center" font-style="normal" font-weight="normal" font-size="29.9265213" font-family="sans-serif" letter-spacing="0" word-spacing="0" text-anchor="middle" stroke-linecap="butt" stroke-linejoin="miter">
    <flowRegion>
      <path fill="#502d16" fill-opacity="1" d="M-1907.8108 652.46063h477.63953v104.29471h-477.63953z"/>
    </flowRegion>
    <flowPara/>
  </flowRoot>
  <flowRoot fill="#502d16" fill-opacity="1" stroke="none" stroke-opacity="1" stroke-width="1" transform="translate(8558.278 1018.61)" style="line-height:125%;text-align:center" xml:space="preserve" font-style="normal" font-weight="normal" font-size="29.9265213" font-family="sans-serif" letter-spacing="0" word-spacing="0" text-anchor="middle" stroke-linecap="butt" stroke-linejoin="miter">
    <flowRegion>
      <path fill="#502d16" fill-opacity="1" d="M2179.6399 3399.1187h477.63953v104.29471H2179.6399z"/>
    </flowRegion>
    <flowPara/>
  </flowRoot>
  <text x="5564.7451" y="1597.6584" fill="#000" fill-opacity="1" stroke="none" stroke-opacity="1" stroke-width="1" style="line-height:125%;text-align:center" xml:space="preserve" font-style="normal" font-weight="normal" font-size="40" font-family="sans-serif" letter-spacing="0" word-spacing="0" text-anchor="middle" stroke-linecap="butt" stroke-linejoin="miter"/>
  <flowRoot fill="#502d16" fill-opacity="1" stroke="none" stroke-opacity="1" stroke-width="1" transform="translate(7322.196 1517.955)" style="line-height:125%;text-align:center" xml:space="preserve" font-style="normal" font-weight="normal" font-size="29.9265213" font-family="sans-serif" letter-spacing="0" word-spacing="0" text-anchor="middle" stroke-linecap="butt" stroke-linejoin="miter">
    <flowRegion>
      <path fill="#502d16" fill-opacity="1" d="M-1117.8109-137.5394h477.63953v104.29471h-477.63953z"/>
    </flowRegion>
    <flowPara/>
  </flowRoot>
  <flowRoot fill="#502d16" fill-opacity="1" stroke="none" stroke-opacity="1" stroke-width="1" transform="translate(7322.196 1517.955)" xml:space="preserve" style="line-height:125%;text-align:center" font-style="normal" font-weight="normal" font-size="29.9265213" font-family="sans-serif" letter-spacing="0" word-spacing="0" text-anchor="middle" stroke-linecap="butt" stroke-linejoin="miter">
    <flowRegion>
      <path fill="#502d16" fill-opacity="1" d="M-1907.8108 652.46063h477.63953v104.29471h-477.63953z"/>
    </flowRegion>
    <flowPara/>
  </flowRoot>
  <flowRoot fill="#502d16" fill-opacity="1" stroke="none" stroke-opacity="1" stroke-width="1" transform="translate(3234.745 -438.704)" style="line-height:125%;text-align:center" xml:space="preserve" font-style="normal" font-weight="normal" font-size="29.9265213" font-family="sans-serif" letter-spacing="0" word-spacing="0" text-anchor="middle" stroke-linecap="butt" stroke-linejoin="miter">
    <flowRegion>
      <path fill="#502d16" fill-opacity="1" d="M2179.6399 3399.1187h477.63953v104.29471H2179.6399z"/>
    </flowRegion>
    <flowPara/>
  </flowRoot>
  <text x="-1020.8944" y="2431.7454" fill="#000" fill-opacity="1" stroke="none" stroke-opacity="1" stroke-width="1" style="line-height:125%;text-align:center" xml:space="preserve" font-style="normal" font-weight="normal" font-size="40" font-family="sans-serif" letter-spacing="0" word-spacing="0" text-anchor="middle" stroke-linecap="butt" stroke-linejoin="miter"/>
  <flowRoot fill="#502d16" fill-opacity="1" stroke="none" stroke-opacity="1" stroke-width="1" transform="translate(-3350.895 395.383)" style="line-height:125%;text-align:center" xml:space="preserve" font-style="normal" font-weight="normal" font-size="29.9265213" font-family="sans-serif" letter-spacing="0" word-spacing="0" text-anchor="middle" stroke-linecap="butt" stroke-linejoin="miter">
    <flowRegion>
      <path fill="#502d16" fill-opacity="1" d="M2179.6399 3399.1187h477.63953v104.29471H2179.6399z"/>
    </flowRegion>
    <flowPara/>
  </flowRoot>
  <flowRoot fill="#000" fill-opacity="1" stroke="none" stroke-opacity="1" stroke-width="1" transform="translate(12645.73 2975.27)" style="line-height:125%;text-align:center" xml:space="preserve" font-style="normal" font-weight="normal" font-size="40" font-family="sans-serif" letter-spacing="0" word-spacing="0" text-anchor="middle" stroke-linecap="butt" stroke-linejoin="miter">
    <flowRegion>
      <path d="M-13838-2563.6377h688v452h-688z"/>
    </flowRegion>
    <flowPara/>
  </flowRoot>
  <text x="1350.1165" y="878.68243" fill="#000" fill-opacity="1" stroke="none" stroke-opacity="1" stroke-width="1" style="line-height:125%;text-align:center" xml:space="preserve" font-style="normal" font-weight="normal" font-size="40" font-family="sans-serif" letter-spacing="0" word-spacing="0" text-anchor="middle" stroke-linecap="butt" stroke-linejoin="miter"/>
  <flowRoot fill="#502d16" fill-opacity="1" stroke="none" stroke-opacity="1" stroke-width="1" transform="translate(3107.567 798.978)" style="line-height:125%;text-align:center" xml:space="preserve" font-style="normal" font-weight="normal" font-size="29.9265213" font-family="sans-serif" letter-spacing="0" word-spacing="0" text-anchor="middle" stroke-linecap="butt" stroke-linejoin="miter">
    <flowRegion>
      <path fill="#502d16" fill-opacity="1" d="M-1117.8109-137.5394h477.63953v104.29471h-477.63953z"/>
    </flowRegion>
    <flowPara/>
  </flowRoot>
  <flowRoot fill="#502d16" fill-opacity="1" stroke="none" stroke-opacity="1" stroke-width="1" transform="translate(3107.567 798.978)" xml:space="preserve" style="line-height:125%;text-align:center" font-style="normal" font-weight="normal" font-size="29.9265213" font-family="sans-serif" letter-spacing="0" word-spacing="0" text-anchor="middle" stroke-linecap="butt" stroke-linejoin="miter">
    <flowRegion>
      <path fill="#502d16" fill-opacity="1" d="M-1907.8108 652.46063h477.63953v104.29471h-477.63953z"/>
    </flowRegion>
    <flowPara/>
  </flowRoot>
  <flowRoot fill="#502d16" fill-opacity="1" stroke="none" stroke-opacity="1" stroke-width="1" transform="translate(-979.883 -1157.68)" style="line-height:125%;text-align:center" xml:space="preserve" font-style="normal" font-weight="normal" font-size="29.9265213" font-family="sans-serif" letter-spacing="0" word-spacing="0" text-anchor="middle" stroke-linecap="butt" stroke-linejoin="miter">
    <flowRegion>
      <path fill="#502d16" fill-opacity="1" d="M2179.6399 3399.1187h477.63953v104.29471H2179.6399z"/>
    </flowRegion>
    <flowPara/>
  </flowRoot>
</svg>
