<svg xmlns="http://www.w3.org/2000/svg" xmlns:xlink="http://www.w3.org/1999/xlink" viewBox="0 0 708.75599 708.66607" version="1.1">
  <defs>
    <linearGradient id="e">
      <stop offset="0" stop-color="#000" stop-opacity="1"/>
      <stop offset="1" stop-color="#000" stop-opacity="0"/>
    </linearGradient>
    <linearGradient id="c">
      <stop offset="0" stop-color="#fff" stop-opacity="1"/>
      <stop offset="1" stop-color="#000" stop-opacity="1"/>
    </linearGradient>
    <linearGradient id="a">
      <stop offset="0" stop-color="#000" stop-opacity="1"/>
      <stop offset="1" stop-color="#fff" stop-opacity="1"/>
    </linearGradient>
    <linearGradient id="b" x1="3721.1494" x2="3796.2793" y1="-406.04547" y2="-397.20667" gradientUnits="userSpaceOnUse" xlink:href="#a"/>
    <linearGradient id="d" x1="3124.5281" x2="3246.062" y1="-293.35034" y2="-282.30179" gradientUnits="userSpaceOnUse" xlink:href="#c"/>
  </defs>
  <text x="11795.235" y="3051.2297" fill="#000" fill-opacity="1" stroke="none" stroke-opacity="1" stroke-width="1" style="line-height:125%;text-align:center" xml:space="preserve" font-style="normal" font-weight="normal" font-size="40" font-family="sans-serif" letter-spacing="0" word-spacing="0" text-anchor="middle" stroke-linecap="butt" stroke-linejoin="miter"/>
  <flowRoot fill="#502d16" fill-opacity="1" stroke="none" stroke-opacity="1" stroke-width="1" transform="translate(13552.686 2971.526)" style="line-height:125%;text-align:center" xml:space="preserve" font-style="normal" font-weight="normal" font-size="29.9265213" font-family="sans-serif" letter-spacing="0" word-spacing="0" text-anchor="middle" stroke-linecap="butt" stroke-linejoin="miter">
    <flowRegion>
      <path fill="#502d16" fill-opacity="1" d="M-1117.8109-137.5394h477.63953v104.29471h-477.63953z"/>
    </flowRegion>
    <flowPara/>
  </flowRoot>
  <flowRoot fill="#502d16" fill-opacity="1" stroke="none" stroke-opacity="1" stroke-width="1" transform="translate(13552.686 2971.526)" xml:space="preserve" style="line-height:125%;text-align:center" font-style="normal" font-weight="normal" font-size="29.9265213" font-family="sans-serif" letter-spacing="0" word-spacing="0" text-anchor="middle" stroke-linecap="butt" stroke-linejoin="miter">
    <flowRegion>
      <path fill="#502d16" fill-opacity="1" d="M-1907.8108 652.46063h477.63953v104.29471h-477.63953z"/>
    </flowRegion>
    <flowPara/>
  </flowRoot>
  <flowRoot fill="#502d16" fill-opacity="1" stroke="none" stroke-opacity="1" stroke-width="1" transform="translate(9465.235 1014.868)" style="line-height:125%;text-align:center" xml:space="preserve" font-style="normal" font-weight="normal" font-size="29.9265213" font-family="sans-serif" letter-spacing="0" word-spacing="0" text-anchor="middle" stroke-linecap="butt" stroke-linejoin="miter">
    <flowRegion>
      <path fill="#502d16" fill-opacity="1" d="M2179.6399 3399.1187h477.63953v104.29471H2179.6399z"/>
    </flowRegion>
    <flowPara/>
  </flowRoot>
  <text x="6471.7021" y="1593.9146" fill="#000" fill-opacity="1" stroke="none" stroke-opacity="1" stroke-width="1" style="line-height:125%;text-align:center" xml:space="preserve" font-style="normal" font-weight="normal" font-size="40" font-family="sans-serif" letter-spacing="0" word-spacing="0" text-anchor="middle" stroke-linecap="butt" stroke-linejoin="miter"/>
  <flowRoot fill="#502d16" fill-opacity="1" stroke="none" stroke-opacity="1" stroke-width="1" transform="translate(8229.153 1514.21)" style="line-height:125%;text-align:center" xml:space="preserve" font-style="normal" font-weight="normal" font-size="29.9265213" font-family="sans-serif" letter-spacing="0" word-spacing="0" text-anchor="middle" stroke-linecap="butt" stroke-linejoin="miter">
    <flowRegion>
      <path fill="#502d16" fill-opacity="1" d="M-1117.8109-137.5394h477.63953v104.29471h-477.63953z"/>
    </flowRegion>
    <flowPara/>
  </flowRoot>
  <flowRoot fill="#502d16" fill-opacity="1" stroke="none" stroke-opacity="1" stroke-width="1" transform="translate(8229.153 1514.21)" xml:space="preserve" style="line-height:125%;text-align:center" font-style="normal" font-weight="normal" font-size="29.9265213" font-family="sans-serif" letter-spacing="0" word-spacing="0" text-anchor="middle" stroke-linecap="butt" stroke-linejoin="miter">
    <flowRegion>
      <path fill="#502d16" fill-opacity="1" d="M-1907.8108 652.46063h477.63953v104.29471h-477.63953z"/>
    </flowRegion>
    <flowPara/>
  </flowRoot>
  <flowRoot fill="#502d16" fill-opacity="1" stroke="none" stroke-opacity="1" stroke-width="1" transform="translate(4141.702 -442.447)" style="line-height:125%;text-align:center" xml:space="preserve" font-style="normal" font-weight="normal" font-size="29.9265213" font-family="sans-serif" letter-spacing="0" word-spacing="0" text-anchor="middle" stroke-linecap="butt" stroke-linejoin="miter">
    <flowRegion>
      <path fill="#502d16" fill-opacity="1" d="M2179.6399 3399.1187h477.63953v104.29471H2179.6399z"/>
    </flowRegion>
    <flowPara/>
  </flowRoot>
  <text x="-113.93764" y="2428.0015" fill="#000" fill-opacity="1" stroke="none" stroke-opacity="1" stroke-width="1" style="line-height:125%;text-align:center" xml:space="preserve" font-style="normal" font-weight="normal" font-size="40" font-family="sans-serif" letter-spacing="0" word-spacing="0" text-anchor="middle" stroke-linecap="butt" stroke-linejoin="miter"/>
  <flowRoot fill="#502d16" fill-opacity="1" stroke="none" stroke-opacity="1" stroke-width="1" transform="translate(-2443.938 391.64)" style="line-height:125%;text-align:center" xml:space="preserve" font-style="normal" font-weight="normal" font-size="29.9265213" font-family="sans-serif" letter-spacing="0" word-spacing="0" text-anchor="middle" stroke-linecap="butt" stroke-linejoin="miter">
    <flowRegion>
      <path fill="#502d16" fill-opacity="1" d="M2179.6399 3399.1187h477.63953v104.29471H2179.6399z"/>
    </flowRegion>
    <flowPara/>
  </flowRoot>
  <flowRoot fill="#000" fill-opacity="1" stroke="none" stroke-opacity="1" stroke-width="1" transform="translate(13552.686 2971.526)" style="line-height:125%;text-align:center" xml:space="preserve" font-style="normal" font-weight="normal" font-size="40" font-family="sans-serif" letter-spacing="0" word-spacing="0" text-anchor="middle" stroke-linecap="butt" stroke-linejoin="miter">
    <flowRegion>
      <path d="M-13838-2563.6377h688v452h-688z"/>
    </flowRegion>
    <flowPara/>
  </flowRoot>
  <text x="2257.0732" y="874.9386" fill="#000" fill-opacity="1" stroke="none" stroke-opacity="1" stroke-width="1" style="line-height:125%;text-align:center" xml:space="preserve" font-style="normal" font-weight="normal" font-size="40" font-family="sans-serif" letter-spacing="0" word-spacing="0" text-anchor="middle" stroke-linecap="butt" stroke-linejoin="miter"/>
  <flowRoot fill="#502d16" fill-opacity="1" stroke="none" stroke-opacity="1" stroke-width="1" transform="translate(4014.524 795.235)" style="line-height:125%;text-align:center" xml:space="preserve" font-style="normal" font-weight="normal" font-size="29.9265213" font-family="sans-serif" letter-spacing="0" word-spacing="0" text-anchor="middle" stroke-linecap="butt" stroke-linejoin="miter">
    <flowRegion>
      <path fill="#502d16" fill-opacity="1" d="M-1117.8109-137.5394h477.63953v104.29471h-477.63953z"/>
    </flowRegion>
    <flowPara/>
  </flowRoot>
  <flowRoot fill="#502d16" fill-opacity="1" stroke="none" stroke-opacity="1" stroke-width="1" transform="translate(4014.524 795.235)" xml:space="preserve" style="line-height:125%;text-align:center" font-style="normal" font-weight="normal" font-size="29.9265213" font-family="sans-serif" letter-spacing="0" word-spacing="0" text-anchor="middle" stroke-linecap="butt" stroke-linejoin="miter">
    <flowRegion>
      <path fill="#502d16" fill-opacity="1" d="M-1907.8108 652.46063h477.63953v104.29471h-477.63953z"/>
    </flowRegion>
    <flowPara/>
  </flowRoot>
  <flowRoot fill="#502d16" fill-opacity="1" stroke="none" stroke-opacity="1" stroke-width="1" transform="translate(-72.927 -1161.424)" style="line-height:125%;text-align:center" xml:space="preserve" font-style="normal" font-weight="normal" font-size="29.9265213" font-family="sans-serif" letter-spacing="0" word-spacing="0" text-anchor="middle" stroke-linecap="butt" stroke-linejoin="miter">
    <flowRegion>
      <path fill="#502d16" fill-opacity="1" d="M2179.6399 3399.1187h477.63953v104.29471H2179.6399z"/>
    </flowRegion>
    <flowPara/>
  </flowRoot>
  <path fill="#47321e" fill-opacity="1" d="M.0000211.37267596h8.5725002V708.66607H.0000211z" opacity="1"/>
  <path fill="#47321e" fill-opacity="1" d="M4.125021 708.66608v-8.5725H708.756v8.5725z" opacity="1"/>
  <path fill="#47321e" fill-opacity="1" d="M708.75586 529.91003h-8.5725v177.20919h8.5725zM708.75586 294.75623h-8.5725v124.80042h8.5725zM708.75586-.0000047h-8.5725V196.56213h8.5725z" opacity="1"/>
  <path fill="#47321e" fill-opacity="1" d="M704.13086 8.572505V.00000477H.56378174V8.572505zM102.88674 262.14288h-8.572499v446.5232h8.572499zM1.2500211 213.24316v-8.5725H102.89419v8.5725z" opacity="1"/>
  <path fill="#47321e" fill-opacity="1" d="M94.314232 537.86816v-8.5725H255.16138v8.5725z" opacity="1"/>
  <path fill="#47321e" fill-opacity="1" d="M246.58888 529.29565h8.5725V703.843h-8.5725zM606.06445 528.67694h8.5725v174.54735h-8.5725zM487.2681 407.39923v73.875h73.6523v-73.875h-73.6523zm27.2051 24.13867c2.5748 0 4.6214.8597 6.1367 2.58008 1.5267 1.70898 2.289 4.20312 2.289 7.48437v5.48633c0 3.29264-.7581 5.79297-2.2734 7.50195-1.5039 1.69759-3.5423 2.54688-6.1172 2.54688-2.5976 0-4.6546-.84929-6.1699-2.54688-1.5153-1.70898-2.2734-4.20931-2.2734-7.50195v-5.48633c0-3.28125.7519-5.77539 2.2558-7.48437 1.5153-1.72038 3.5661-2.58008 6.1524-2.58008zm12.9043.35742h14.3203v5.67383h-3.0762l-.4434-1.67383h-6.6992l-.7011 5.74219c.4671-.3418 1.0244-.62142 1.6738-.83789.6494-.22787 1.3681-.34798 2.1543-.35938 2.3926-.0342 4.2444.69076 5.5547 2.17188 1.3102 1.48112 1.9648 3.54231 1.9648 6.18554 0 2.39258-.723 4.38119-2.1699 5.96485-1.4356 1.58366-3.5091 2.375-6.2207 2.375-2.2787 0-4.2341-.62142-5.8633-1.86328-1.6292-1.25326-2.4144-2.97266-2.3574-5.16016l.033-.0859 4.7851-.23828c0 1.10514.3148 1.97103.9414 2.59766.6267.61523 1.447.92187 2.461.92187 1.1621 0 2.0218-.41634 2.5801-1.24804.5582-.83171.8379-1.90691.8379-3.22852 0-1.43555-.2963-2.58724-.8887-3.45312-.5925-.86589-1.4769-1.29883-2.6504-1.29883-.9456 0-1.6748.1761-2.1875.52929-.5013.35319-.8597.83171-1.0762 1.43555l-4.4082-.28906 1.4356-13.86133zm-12.9043 3.48633c-1.128 0-1.9815.45573-2.5625 1.36719-.5811.91145-.8711 2.35937-.8711 4.34179v6.47657c0 2.0052.29 3.46354.8711 4.375.5924.91145 1.4583 1.36718 2.5976 1.36718 1.1166 0 1.9658-.45573 2.5469-1.36718.5811-.91146.8711-2.3698.8711-4.375v-6.47657c0-1.97103-.2962-3.41276-.8887-4.32422-.5924-.92285-1.4479-1.38476-2.5644-1.38476zM391.1021 407.39923v73.875h73.6523v-73.875h-73.6523zm26.6836 24.13867c2.5748 0 4.6194.8597 6.1347 2.58008 1.5267 1.70898 2.291 4.20312 2.291 7.48437v5.48633c0 3.29264-.7581 5.79297-2.2734 7.50195-1.5039 1.69759-3.5423 2.54688-6.1172 2.54688-2.5976 0-4.6546-.84929-6.1699-2.54688-1.5153-1.70898-2.2734-4.20931-2.2734-7.50195v-5.48633c0-3.28125.7519-5.77539 2.2558-7.48437 1.5153-1.72038 3.5661-2.58008 6.1524-2.58008zm20.8496.35742h5.0254v15.62109h2.8183v3.31446h-2.8183v2.44531l2.6484.51172v2.99023H436.02v-2.99023l2.6661-.51172v-2.44531h-10.1504l-.2403-2.44336 10.3399-16.49219zm-20.8496 3.48633c-1.128 0-1.9815.45573-2.5625 1.36719-.5811.91145-.8731 2.35937-.8731 4.34179v6.47657c0 2.0052.292 3.46354.8731 4.375.5924.91145 1.4583 1.36718 2.5976 1.36718 1.1166 0 1.9639-.45573 2.5449-1.36718.5811-.91146.8731-2.3698.8731-4.375v-6.47657c0-1.97103-.2962-3.41276-.8887-4.32422-.5924-.92285-1.4479-1.38476-2.5644-1.38476zm20.7988 3.1289l-.4102.7168-5.2129 8.28906h5.7247v-8.97265l-.1016-.0332zM294.9361 407.39923v73.875h73.6523v-73.875h-73.6523zm26.9902 24.13867c2.5749 0 4.6214.8597 6.1367 2.58008 1.5267 1.70898 2.2891 4.20312 2.2891 7.48437v5.48633c0 3.29264-.7582 5.79297-2.2735 7.50195-1.5039 1.69759-3.5423 2.54688-6.1172 2.54688-2.5976 0-4.6546-.84929-6.1699-2.54688-1.5153-1.70898-2.2734-4.20931-2.2734-7.50195v-5.48633c0-3.28125.7519-5.77539 2.2558-7.48437 1.5153-1.72038 3.5661-2.58008 6.1524-2.58008zm19.2266 0c2.5748 0 4.6256.61523 6.1523 1.8457 1.5381 1.23047 2.3066 2.98503 2.3066 5.26367 0 1.08236-.3418 2.11198-1.0254 3.0918-.6835.96842-1.622 1.72656-2.8183 2.27344 1.3786.48991 2.4267 1.24186 3.1445 2.25586.7292 1.01399 1.0938 2.19271 1.0938 3.53711 0 2.27864-.8327 4.07454-2.4961 5.38476-1.652 1.29883-3.7712 1.94727-6.3574 1.94727-2.3129 0-4.3015-.60905-5.9649-1.82813-1.652-1.23047-2.4495-2.96224-2.3926-5.19531l.035-.10352h4.8359c0 .95704.3418 1.75033 1.0254 2.37696.6836.61523 1.5495.92187 2.5977.92187 1.1507 0 2.056-.31901 2.7168-.95703.6722-.63802 1.0097-1.50391 1.0097-2.59765 0-1.31023-.3313-2.26726-.9922-2.8711-.6494-.61523-1.6126-.92187-2.8886-.92187h-2.8028v-3.74414h2.8028c1.1849 0 2.0631-.30665 2.6328-.92188.5696-.62663.8535-1.49251.8535-2.59766 0-1.0026-.2839-1.80631-.8535-2.41015-.5697-.60384-1.3962-.90625-2.4785-.90625-.9343 0-1.7194.27344-2.3575.82031-.638.54688-.957 1.26563-.957 2.1543h-4.8379l-.033-.10352c-.068-1.94824.6774-3.55371 2.2383-4.81836 1.5609-1.26465 3.4977-1.89648 5.8106-1.89648zm-19.2266 3.84375c-1.1279 0-1.9815.45573-2.5625 1.36719-.5811.91145-.8711 2.35937-.8711 4.34179v6.47657c0 2.0052.29 3.46354.8711 4.375.5924.91145 1.4583 1.36718 2.5976 1.36718 1.1166 0 1.9659-.45573 2.5469-1.36718.5811-.91146.8711-2.3698.8711-4.375v-6.47657c0-1.97103-.2962-3.41276-.8887-4.32422-.5924-.92285-1.4479-1.38476-2.5644-1.38476zM245.2388 305.64923v73.875h73.6523v-73.875h-73.6523zm26.666 24.13867c2.5749 0 4.6214.8597 6.1367 2.58008 1.5267 1.70898 2.2891 4.20312 2.2891 7.48437v5.48633c0 3.29264-.7582 5.79297-2.2735 7.50195-1.5039 1.69759-3.5423 2.54688-6.1171 2.54688-2.5977 0-4.6547-.84929-6.17-2.54688-1.5153-1.70898-2.2734-4.20931-2.2734-7.50195v-5.48633c0-3.28125.752-5.77539 2.2559-7.48437 1.5153-1.72038 3.566-2.58008 6.1523-2.58008zm21.4316 0c.9343 0 1.794.0911 2.5801.27344.7976.17089 1.5951.42578 2.3926.76757l-.8711 3.64063c-.7178-.25065-1.3786-.43913-1.9824-.56445-.6039-.13672-1.2998-.20508-2.0859-.20508-1.4812 0-2.6703.54264-3.5704 1.625-.8886 1.08235-1.3401 2.67741-1.3515 4.78515l.053.084c.5583-.58106 1.2647-1.03679 2.1192-1.36719.8658-.3304 1.8271-.49414 2.8867-.49414 2.2216 0 3.9658.79134 5.2304 2.375 1.2647 1.57227 1.8965 3.58366 1.8965 6.0332 0 2.50651-.7809 4.5739-2.3418 6.20313-1.5608 1.62923-3.5765 2.44336-6.0488 2.44336-2.6204 0-4.7562-.88867-6.4082-2.66602-1.652-1.78874-2.4785-4.26009-2.4785-7.41601v-4.375c0-3.52051.928-6.25489 2.7851-8.20313 1.8685-1.95963 4.2673-2.93945 7.1953-2.93945zm-21.4316 3.84375c-1.1279 0-1.9814.45573-2.5625 1.36719-.581.91145-.8711 2.35937-.8711 4.34179v6.47657c0 2.0052.2901 3.46354.8711 4.375.5925.91145 1.4583 1.36718 2.5977 1.36718 1.1165 0 1.9658-.45573 2.5468-1.36718.5811-.91146.8711-2.3698.8711-4.375v-6.47657c0-1.97103-.2962-3.41276-.8886-4.32422-.5925-.92285-1.448-1.38476-2.5645-1.38476zm20.2871 8.47656c-.9228 0-1.7099.14909-2.3594.44531-.6494.29623-1.1507.7002-1.5039 1.21289v1.65821c0 1.97103.3542 3.48535 1.0606 4.54492.7178 1.05957 1.6686 1.58984 2.8535 1.58984 1.0254 0 1.8457-.46614 2.4609-1.40039.6267-.94564.9395-2.08496.9395-3.41797 0-1.37858-.3128-2.49511-.9395-3.34961-.6266-.85449-1.4635-1.2832-2.5117-1.2832zM341.3501 305.64923v73.875h73.6524v-73.875h-73.6524zm26.8711 24.13867c2.5749 0 4.6214.8597 6.1367 2.58008 1.5267 1.70898 2.2891 4.20312 2.2891 7.48437v5.48633c0 3.29264-.7581 5.79297-2.2734 7.50195-1.5039 1.69759-3.5424 2.54688-6.1172 2.54688-2.5977 0-4.6547-.84929-6.17-2.54688-1.5153-1.70898-2.2734-4.20931-2.2734-7.50195v-5.48633c0-3.28125.752-5.77539 2.2559-7.48437 1.5153-1.72038 3.566-2.58008 6.1523-2.58008zm10.7324.35742h17.586v3.8457c-2.666 3.12175-4.489 6.03223-5.4688 8.73242-.9684 2.7002-1.6624 5.95866-2.084 9.7754l-.2402 2.52929h-4.9902l.2383-2.52929c.3873-3.65723 1.22-7.01107 2.496-10.06446 1.2761-3.06478 3.0245-5.87988 5.2461-8.44336h-8.7656l-.1894 2.46094h-3.8282v-6.30664zm-10.7324 3.48633c-1.1279 0-1.9814.45573-2.5625 1.36719-.581.91145-.8711 2.35937-.8711 4.34179v6.47657c0 2.0052.2901 3.46354.8711 4.375.5925.91145 1.4583 1.36718 2.5977 1.36718 1.1165 0 1.9658-.45573 2.5468-1.36718.5811-.91146.8711-2.3698.8711-4.375v-6.47657c0-1.97103-.2962-3.41276-.8886-4.32422-.5925-.92285-1.448-1.38476-2.5645-1.38476zM437.522 305.64923v73.875h73.6523v-73.875H437.522zm27.0332 24.13867c2.5749 0 4.6195.8597 6.1348 2.58008 1.5267 1.70898 2.291 4.20312 2.291 7.48437v5.48633c0 3.29264-.7582 5.79297-2.2735 7.50195-1.5039 1.69759-3.5423 2.54688-6.1171 2.54688-2.5977 0-4.6547-.84929-6.17-2.54688-1.5153-1.70898-2.2734-4.20931-2.2734-7.50195v-5.48633c0-3.28125.7519-5.77539 2.2559-7.48437 1.5153-1.72038 3.566-2.58008 6.1523-2.58008zm19.5 0c2.3698 0 4.2839.60905 5.7422 1.82812 1.4583 1.20769 2.1875 2.91667 2.1875 5.12696 0 1.24186-.3314 2.34179-.9922 3.29882-.6608.95704-1.5661 1.7028-2.7168 2.23829 1.3216.55826 2.3636 1.35579 3.127 2.39257.7633 1.03679 1.1464 2.22168 1.1464 3.55469 0 2.30143-.7809 4.07259-2.3418 5.31445-1.5608 1.23047-3.6012 1.84571-6.1191 1.84571-2.5293 0-4.5801-.61524-6.1523-1.84571-1.5609-1.24186-2.3399-3.01302-2.3399-5.31445 0-1.3444.375-2.5293 1.127-3.55469.7633-1.03678 1.8053-1.83431 3.1269-2.39257-1.1621-.53549-2.0674-1.28125-2.7168-2.23829-.6494-.95703-.9746-2.05696-.9746-3.29882 0-2.21029.7249-3.91927 2.1719-5.12696 1.4469-1.21907 3.3548-1.82812 5.7246-1.82812zm-19.5 3.84375c-1.1279 0-1.9814.45573-2.5625 1.36719-.5811.91145-.873 2.35937-.873 4.34179v6.47657c0 2.0052.2919 3.46354.873 4.375.5924.91145 1.4583 1.36718 2.5977 1.36718 1.1165 0 1.9638-.45573 2.5449-1.36718.581-.91146.873-2.3698.873-4.375v-6.47657c0-1.97103-.2962-3.41276-.8886-4.32422-.5925-.92285-1.448-1.38476-2.5645-1.38476zm19.5 0c-.9115 0-1.624.30241-2.1367.90625-.5013.59245-.752 1.40234-.752 2.42773 0 1.03679.2569 1.86133.7696 2.47657.5127.60384 1.2294.90624 2.1523.90624.9001 0 1.6064-.3024 2.1191-.90624.5241-.61524.7872-1.43978.7872-2.47657 0-1.0026-.2673-1.80631-.8028-2.41015-.5241-.61524-1.2366-.92383-2.1367-.92383zm0 10.5625c-1.0368 0-1.8737.33561-2.5117 1.00781-.638.6722-.9571 1.56706-.9571 2.68359 0 1.13933.3191 2.03842.9571 2.69922.638.64942 1.4853.97461 2.5449.97461 1.0368 0 1.8757-.32942 2.5137-.99023.6494-.66081.9726-1.55567.9726-2.6836 0-1.11653-.3294-2.01139-.9902-2.68359-.6494-.6722-1.4925-1.00781-2.5293-1.00781zM534.229 305.64923v73.875h73.6524v-73.875H534.229zm27.086 24.13867c2.5748 0 4.6194.8597 6.1347 2.58008 1.5267 1.70898 2.2891 4.20312 2.2891 7.48437v5.48633c0 3.29264-.7562 5.79297-2.2715 7.50195-1.5039 1.69759-3.5443 2.54688-6.1191 2.54688-2.5977 0-4.6547-.84929-6.17-2.54688-1.5153-1.70898-2.2734-4.20931-2.2734-7.50195v-5.48633c0-3.28125.7539-5.77539 2.2578-7.48437 1.5153-1.72038 3.5661-2.58008 6.1524-2.58008zm19.3281 0c2.5407 0 4.6019.8763 6.1855 2.63086 1.5837 1.74316 2.377 4.19791 2.377 7.36523v5.40039c0 3.22429-.8845 5.7308-2.6504 7.51953-1.7546 1.78874-4.0147 2.6836-6.7832 2.6836-.8659 0-1.7607-.0912-2.6836-.27344-.9115-.1709-1.7546-.42773-2.5293-.76953l.5645-3.60547c.7633.28483 1.5029.49609 2.2207.63281.7177.12533 1.5276.1875 2.4277.1875 1.333 0 2.4082-.50748 3.2285-1.52148.8203-1.02539 1.2305-2.55632 1.2305-4.5957v-.37696c-.5583.71778-1.2233 1.26465-1.9981 1.64063-.7747.36458-1.6074.54687-2.4961.54687-2.3242 0-4.1471-.75814-5.4687-2.27344-1.3216-1.52669-1.9824-3.62727-1.9824-6.30468 0-2.51791.7851-4.62663 2.3574-6.32422 1.5836-1.70899 3.5846-2.5625 6-2.5625zm-19.3281 3.84375c-1.128 0-1.9834.45573-2.5645 1.36719-.581.91145-.8711 2.35937-.8711 4.34179v6.47657c0 2.0052.2901 3.46354.8711 4.375.5925.91145 1.4583 1.36718 2.5977 1.36718 1.1165 0 1.9658-.45573 2.5468-1.36718.5811-.91146.8711-2.3698.8711-4.375v-6.47657c0-1.97103-.2962-3.41276-.8886-4.32422-.5925-.92285-1.446-1.38476-2.5625-1.38476zm19.3613 0c-1.0026 0-1.8229.49707-2.4609 1.48828-.6267.97982-.9395 2.16471-.9395 3.55469 0 1.5039.2796 2.69922.8379 3.58789.5697.88867 1.39 1.33398 2.4609 1.33398.8317 0 1.5547-.15527 2.17-.46289.6266-.31901 1.1217-.73958 1.4863-1.26367v-2.66602c0-1.82291-.319-3.2067-.9571-4.15234-.638-.94564-1.5039-1.41992-2.5976-1.41992zM245.1997 204.18048v73.875h73.6524v-73.875h-73.6524zm44.8418 24.13672c2.5749 0 4.6195.8597 6.1348 2.58007 1.5267 1.70899 2.2891 4.20508 2.2891 7.48633v5.48633c0 3.29264-.7562 5.79297-2.2715 7.50195-1.5039 1.69759-3.5443 2.54688-6.1192 2.54688-2.5976 0-4.6546-.84929-6.1699-2.54688-1.5153-1.70898-2.2734-4.20931-2.2734-7.50195v-5.48633c0-3.28125.7539-5.77734 2.2578-7.48633 1.5153-1.72037 3.5661-2.58008 6.1523-2.58007zm-15.2285.35937v21.37891l4.2051.51367v2.99023h-13.3828v-2.99023l4.2051-.51367v-16.84961h-4.2559v-2.85547l9.2285-1.67383zm15.2285 3.48633c-1.1279 0-1.9834.45573-2.5644 1.36719-.5811.91145-.8711 2.35742-.8711 4.33984v6.47851c0 2.00521.29 3.46355.8711 4.375.5924.91146 1.4583 1.36719 2.5976 1.36719 1.1166 0 1.9658-.45573 2.5469-1.36719.5811-.91145.8711-2.36979.8711-4.375v-6.47851c0-1.97103-.2962-3.41081-.8887-4.32227-.5924-.92285-1.4459-1.38476-2.5625-1.38476zM341.5415 204.18048v73.875h73.6524v-73.875h-73.6524zm31.6153 24.49609v21.37891l4.2031.51367v2.99023H363.979v-2.99023l4.2031-.51367v-16.84961h-4.2539v-2.85547l9.2286-1.67383zm15.4492 0v21.37891l4.2031.51367v2.99023h-13.3809v-2.99023l4.2032-.51367v-16.84961h-4.2539v-2.85547l9.2285-1.67383zM437.7095 204.18048v73.875h73.6523v-73.875h-73.6523zm44.166 24.3164c2.5635 0 4.5791.66699 6.0488 2 1.4698 1.33301 2.2051 3.11035 2.2051 5.33203 0 1.50391-.4163 2.89388-1.248 4.16993-.8203 1.27604-2.1875 2.93945-4.1016 4.99023l-4.4258 4.83594.035.0859h6.459l.205-2.46093h3.795v6.28906h-16.9883v-3.26367l8.0488-8.63086c1.1621-1.33301 1.9886-2.45573 2.4785-3.36719.4899-.92285.7344-1.77637.7344-2.5625 0-1.04818-.2839-1.90364-.8535-2.56445-.5583-.6722-1.3558-1.00781-2.3926-1.00781-1.1507 0-2.029.39355-2.6328 1.17968-.5925.77474-.8887 1.81055-.8887 3.10938h-4.8535l-.033-.10156c-.057-2.24447.6784-4.14193 2.2051-5.69141 1.5381-1.56087 3.6055-2.3418 6.2031-2.3418zm-14.4238.35938v21.3789l4.2031.51368v2.99023h-13.3809v-2.99023l4.2051-.51368v-16.84961h-4.2558v-2.85546l9.2285-1.67383zM1.8267 4.27032v146.61719c5.1895.53098 10.4806.80664 15.8554.80664h90.9454c70.3137 0 123.2129-44.13911 123.2129-98.96485 0-17.63077-.2696-30.52008-.2696-48.45898H1.8267zm121.1387 61.6543c1.5128 0 2.8782.27702 4.0957.83203 1.2174.54606 2.2247 1.27165 3.0214 2.17578v3.86719h-2.914l-.4024-2.60547c-.3849-.38493-.872-.69027-1.4629-.91406-.5818-.2238-1.2716-.33399-2.0683-.33399-1.7009 0-3.0135.61621-3.9356 1.85156-.913 1.23536-1.3691 2.84668-1.3691 4.83399v.68555c0 1.9873.4561 3.60335 1.3691 4.84765.9131 1.2443 2.2022 1.86524 3.8672 1.86524.7699 0 1.4738-.11019 2.1094-.33399.6445-.22379 1.1411-.52913 1.4902-.91406l.4024-2.60547h2.914v3.86719c-.7877.91308-1.795 1.64339-3.0214 2.18945-1.2175.53711-2.5829.80469-4.0957.80469-2.6229 0-4.7714-.90739-6.4454-2.72461-1.674-1.81722-2.5097-4.14942-2.5097-6.99609v-.65821c0-2.83773.831-5.16992 2.4961-6.99609 1.665-1.82617 3.8182-2.73828 6.459-2.73828zm17.9003 0c2.6498 0 4.7935.93847 6.4317 2.81836 1.6471 1.87988 2.4707 4.24316 2.4707 7.08984v.29688c0 2.86458-.8189 5.23258-2.457 7.10351-1.6382 1.87093-3.7819 2.80469-6.4317 2.80469-2.6408 0-4.777-.93376-6.4062-2.80469-1.6203-1.87093-2.4297-4.23893-2.4297-7.10351v-.29688c0-2.84668.8094-5.20996 2.4297-7.08984 1.6202-1.87989 3.7518-2.81836 6.3925-2.81836zm-76.9687.28125h9.3066c2.238 0 4 .57763 5.2891 1.73242 1.298 1.14583 1.9473 2.64974 1.9473 4.51172 0 1.87093-.6493 3.37483-1.9473 4.51172-1.2891 1.13688-3.0511 1.70507-5.2891 1.70507h-3.3047v4.3379l2.0958.40234v2.34961H63.897v-2.34961l2.082-.40234V68.97149l-2.082-.40234v-2.36328zm21.7539 0h4.0137l5.9082 17 1.3965.20117v2.34961h-6.6602v-2.34961l1.3574-.24219-.8594-2.68555h-6.3378l-.8594 2.68555 1.3555.24219v2.34961h-6.6602v-2.34961l1.3965-.20117 5.9492-17zm12.6211 0h8.0977v2.36328l-2.0958.40234v13.77735h5.5196l.1875-2.45704h2.9941v5.46485H98.272v-2.34961l2.082-.40234V68.97149l-2.082-.40234v-2.36328zm42.5937 2.77929c-1.6471 0-2.8787.62761-3.6933 1.88086-.8057 1.25326-1.209 2.90039-1.209 4.94141v.32227c0 2.05891.408 3.71826 1.2227 4.98046.8235 1.25326 2.0551 1.88086 3.6933 1.88086 1.6561 0 2.8999-.6276 3.7324-1.88086.8326-1.2622 1.2481-2.92155 1.2481-4.98046v-.32227c0-2.02311-.4203-3.66553-1.2617-4.92773-.8415-1.26221-2.0853-1.89454-3.7325-1.89454zm-70.9668.24219v6.41797h3.3047c1.0922 0 1.9157-.2959 2.4707-.88672.564-.59977.8457-1.35921.8457-2.28125 0-.93994-.2817-1.71549-.8457-2.32422-.555-.61767-1.3785-.92578-2.4707-.92578h-3.3047zm17.6993 1.47656l-2.2032 6.88868h4.4844l-2.2012-6.88868h-.08zM288.8989 611.37579v73.875h122.1524v-73.875H288.8989zm53.0879 24.13672c2.5749 0 4.6195.8597 6.1348 2.58008 1.5267 1.70898 2.2891 4.20507 2.2891 7.48632v5.48633c0 3.29265-.7562 5.79297-2.2715 7.50196-1.5039 1.69759-3.5443 2.54687-6.1192 2.54687-2.5976 0-4.6546-.84928-6.1699-2.54687-1.5153-1.70899-2.2734-4.20931-2.2734-7.50196v-5.48633c0-3.28125.7539-5.77734 2.2578-7.48632 1.5153-1.72038 3.5661-2.58008 6.1523-2.58008zm20.1817.35937v21.37891l4.2051.51367v2.99024h-13.3829v-2.99024l4.2051-.51367v-16.84961H352.94v-2.85547l9.2285-1.67383zm-20.1817 3.48633c-1.1279 0-1.9834.45573-2.5644 1.36719-.5811.91146-.8711 2.35742-.8711 4.33984v6.47852c0 2.00521.29 3.46354.8711 4.375.5924.91146 1.4583 1.36719 2.5976 1.36718 1.1166 0 1.9659-.45572 2.5469-1.36718.5811-.91146.8711-2.36979.8711-4.375v-6.47852c0-1.97103-.2962-3.41081-.8887-4.32226-.5924-.92286-1.4459-1.38477-2.5625-1.38477zM446.1489 611.37579v73.875h122.1524v-73.875H446.1489zm51.2149 24.13672c2.5749 0 4.6214.8597 6.1367 2.58008 1.5267 1.70898 2.2891 4.20507 2.2891 7.48632v5.48633c0 3.29265-.7582 5.79297-2.2735 7.50196-1.5039 1.69759-3.5423 2.54687-6.1172 2.54687-2.5976 0-4.6546-.84928-6.1699-2.54687-1.5153-1.70899-2.2734-4.20931-2.2734-7.50196v-5.48633c0-3.28125.7519-5.77734 2.2558-7.48632 1.5153-1.72038 3.5661-2.58008 6.1524-2.58008zm19.1582 0c2.5635 0 4.581.66699 6.0508 2 1.4697 1.33301 2.2031 3.11035 2.2031 5.33203 0 1.5039-.4144 2.89388-1.2461 4.16992-.8203 1.27604-2.1875 2.93945-4.1016 4.99024l-4.4277 4.83593.035.0859h6.459l.205-2.46094h3.795v6.28907h-16.9883v-3.26368l8.0507-8.63086c1.1622-1.333 1.9867-2.45573 2.4766-3.36718.4899-.92286.7363-1.77637.7363-2.5625 0-1.04818-.2858-1.90365-.8554-2.56446-.5583-.6722-1.3558-1.00781-2.3926-1.00781-1.1507 0-2.027.39356-2.6309 1.17969-.5924.77474-.8886 1.81055-.8886 3.10937h-4.8536l-.035-.10156c-.057-2.24447.6784-4.14193 2.2051-5.69141 1.5381-1.56087 3.6054-2.34179 6.2031-2.34179zm-19.1582 3.8457c-1.1279 0-1.9815.45573-2.5625 1.36719-.5811.91146-.8711 2.35742-.8711 4.33984v6.47852c0 2.00521.29 3.46354.8711 4.375.5924.91146 1.4583 1.36719 2.5976 1.36718 1.1166 0 1.9659-.45572 2.5469-1.36718.5811-.91146.8711-2.36979.8711-4.375v-6.47852c0-1.97103-.2962-3.41081-.8887-4.32226-.5924-.92286-1.4479-1.38477-2.5644-1.38477zM367.2896 11.25665c-11.357 0-20.5 9.143-20.5 20.5v32.875c0 11.357 9.143 20.5 20.5 20.5h122.6523c11.357 0 20.5-9.143 20.5-20.5v-32.875c0-11.357-9.143-20.5-20.5-20.5H367.2896zm68.5429 24.53711h4.1485l.027.0801-3.7051 3.49023h-3.1425l2.6718-3.57031zm-32.8437 4.68554c2.6497 0 4.7934.94043 6.4316 2.82032 1.6472 1.87988 2.4707 4.24316 2.4707 7.08984v.29492c0 2.86459-.8188 5.23259-2.457 7.10352-1.6382 1.87093-3.7819 2.80664-6.4316 2.80664-2.6408 0-4.7771-.93571-6.4063-2.80664-1.6203-1.87093-2.4297-4.23893-2.4297-7.10352v-.29492c0-2.84668.8094-5.20996 2.4297-7.08984 1.6203-1.87989 3.7518-2.82032 6.3926-2.82032zm57.1621 0c2.0231 0 3.6297.67562 4.8203 2.02735 1.1996 1.34277 1.7988 3.30273 1.7988 5.88086v4.31054c0 2.58708-.5945 4.55176-1.7851 5.89454-1.1817 1.33382-2.7855 2.00195-4.8086 2.00195-2.041 0-3.6551-.66813-4.8457-2.00195-1.1906-1.34278-1.7871-3.30746-1.7871-5.89454v-4.31054c0-2.57813.5918-4.53809 1.7734-5.88086 1.1906-1.35173 2.8019-2.02735 4.834-2.02735zm-75.1562.0137c1.5039 0 2.874.229 4.1093.68554 1.2354.45655 2.2738 1.06527 3.1153 1.82618v4h-2.9414l-.5098-2.68555c-.3402-.21485-.8368-.40137-1.4902-.5625-.6535-.16113-1.348-.24219-2.0821-.24219-1.0742 0-1.9053.22705-2.4961.68359-.5818.4476-.873 1.02995-.873 1.7461 0 .66243.3034 1.20898.9121 1.63867.6177.42074 1.6797.86735 3.1836 1.3418 2.1574.59977 3.7903 1.39225 4.9004 2.37695 1.119.9847 1.6777 2.27848 1.6777 3.88086 0 1.67399-.6614 2.99414-1.9863 3.96094-1.3249.96679-3.07 1.45117-5.2363 1.45117-1.5487 0-2.9499-.24593-4.2032-.73828-1.2443-.49235-2.2827-1.17269-3.1152-2.04102v-4.08203h3.0352l.416 2.7793c.3938.32226.9262.58984 1.5976.80469.6804.20589 1.437.30859 2.2696.30859 1.0742 0 1.8883-.21761 2.4433-.65625.564-.43864.8457-1.02572.8457-1.75977 0-.75195-.2695-1.35595-.8066-1.8125-.5282-.45654-1.4592-.88623-2.793-1.28906-2.3185-.67139-4.0711-1.46859-5.2617-2.39062-1.1906-.92204-1.7871-2.18474-1.7871-3.78711 0-1.58448.6709-2.87826 2.0136-3.88086 1.3428-1.01156 3.0305-1.52979 5.0626-1.55664zm28.4667.26757h15.5625v5.35938h-3.0078l-.1738-2.33789h-6.3789v5.38476h6.8496v3.02149h-6.8496v5.37109l2.0957.40235v2.34961h-8.0977v-2.34961l2.0821-.40235V43.52815l-2.0821-.40429v-2.36329zm20.1426 0h4.0137l5.9082 17 1.3965.20118v2.34961h-6.6602v-2.34961l1.3575-.24024-.8594-2.68555h-6.3379l-.8594 2.68555 1.3555.24024v2.34961h-6.6602v-2.34961l1.3965-.20118 5.9492-17zm42.4043 0V57.5594l3.3028.40235v2.34961h-10.5137v-2.34961l3.3027-.40235V44.31917h-3.3437v-2.24219l7.2519-1.31641zm-15.8574 2.74024c-.8862 0-1.5591.35807-2.0156 1.07422-.4566.71614-.6836 1.85254-.6836 3.41015v5.08985c0 1.57552.227 2.72135.6836 3.4375.4655.71614 1.1458 1.07422 2.041 1.07422.8773 0 1.5454-.35808 2.0019-1.07422.4566-.71615.6836-1.86198.6836-3.4375v-5.08985c0-1.54866-.2317-2.68033-.6972-3.39648-.4655-.7251-1.1364-1.08789-2.0137-1.08789zm-57.1621.041c-1.6471 0-2.8788.62566-3.6934 1.87891-.8056 1.25326-1.209 2.90039-1.209 4.94141v.32226c0 2.05892.4081 3.72022 1.2227 4.98242.8236 1.25326 2.0552 1.87891 3.6934 1.87891 1.656 0 2.8999-.62565 3.7324-1.87891.8325-1.2622 1.248-2.9235 1.248-4.98242v-.32226c0-2.02312-.4202-3.66553-1.2617-4.92774-.8415-1.2622-2.0853-1.89258-3.7324-1.89258zm32.5625 1.71875l-2.2031 6.88672h4.4843l-2.2011-6.88672h-.08zM554.3306 11.25665c-11.357 0-20.5 9.143-20.5 20.5v32.875c0 11.357 9.143 20.5 20.5 20.5h69.2773v71.05664c0 11.357 9.143 20.5 20.5 20.5h32.875c11.357 0 20.5-9.143 20.5-20.5V31.75665c0-11.357-9.143-20.5-20.5-20.5H554.3306zm67.0742 24.53711h4.1484l.027.0801-3.707 3.49023h-3.1407l2.6719-3.57031zm-32.8437 4.68554c2.6497 0 4.7934.94043 6.4316 2.82032 1.6471 1.87988 2.4707 4.24316 2.4707 7.08984v.29492c0 2.86459-.8188 5.23259-2.457 7.10352-1.6382 1.87093-3.7839 2.80664-6.4336 2.80664-2.6408 0-4.7751-.93571-6.4043-2.80664-1.6203-1.87093-2.4297-4.23893-2.4297-7.10352v-.29492c0-2.84668.8094-5.20996 2.4297-7.08984 1.6203-1.87989 3.7518-2.82032 6.3926-2.82032zm57.1601 0c2.0231 0 3.6317.67562 4.8223 2.02735 1.1995 1.34277 1.7988 3.30273 1.7988 5.88086v4.31054c0 2.58708-.5946 4.55176-1.7852 5.89454-1.1816 1.33382-2.7854 2.00195-4.8085 2.00195-2.0411 0-3.6571-.66813-4.8477-2.00195-1.1906-1.34278-1.7852-3.30746-1.7852-5.89454v-4.31054c0-2.57813.5918-4.53809 1.7735-5.88086 1.1906-1.35173 2.7999-2.02735 4.832-2.02735zm15.0527 0c2.0142 0 3.5992.52295 4.754 1.57032 1.1547 1.04736 1.7324 2.44384 1.7324 4.18945 0 1.18164-.327 2.27474-.9805 3.27734-.6445 1.00261-1.7187 2.3086-3.2227 3.91993l-3.4765 3.80078.025.0664h5.0761l.1602-1.93359h2.9824v4.94141h-13.3476v-2.56446l6.3242-6.78125c.9131-1.04736 1.5623-1.92838 1.9473-2.64453.3849-.7251.5781-1.39599.5781-2.01367 0-.82357-.2243-1.49447-.6719-2.01367-.4386-.52816-1.0662-.79297-1.8809-.79297-.9041 0-1.5919.3081-2.0664.92578-.4655.60872-.6992 1.4248-.6992 2.44531h-3.8125l-.027-.082c-.045-1.76351.5329-3.25325 1.7324-4.4707 1.2085-1.2264 2.832-1.83985 4.873-1.83985zm-90.207.0137c1.5039 0 2.874.229 4.1094.68554 1.2353.45655 2.2738 1.06527 3.1152 1.82618v4h-2.9414l-.5097-2.68555c-.3402-.21485-.8368-.40137-1.4903-.5625s-1.348-.24219-2.082-.24219c-1.0742 0-1.9053.22705-2.4961.68359-.5819.4476-.8731 1.02995-.8731 1.7461 0 .66243.3034 1.20898.9122 1.63867.6176.42074 1.6796.86735 3.1836 1.3418 2.1573.59977 3.7903 1.39225 4.9003 2.37695 1.119.9847 1.6778 2.27848 1.6778 3.88086 0 1.67399-.6615 2.99414-1.9864 3.96094-1.3248.96679-3.0699 1.45117-5.2363 1.45117-1.5486 0-2.9499-.24593-4.2031-.73828-1.2443-.49235-2.2827-1.17269-3.1152-2.04102v-4.08203h3.0332l.4179 2.7793c.3939.32226.9263.58984 1.5977.80469.6803.20589 1.437.30859 2.2695.30859 1.0742 0 1.8884-.21761 2.4434-.65625.5639-.43864.8457-1.02572.8457-1.75977 0-.75195-.2695-1.35595-.8067-1.8125-.5281-.45654-1.4591-.88623-2.7929-1.28906-2.3186-.67139-4.0731-1.46859-5.2637-2.39062-1.1906-.92204-1.7852-2.18474-1.7852-3.78711 0-1.58448.6709-2.87826 2.0137-3.88086 1.3428-1.01156 3.0305-1.52979 5.0625-1.55664zm28.4668.26757h15.5625v5.35938h-3.0078l-.1738-2.33789h-6.3789v5.38476h6.8496v3.02149h-6.8496v5.37109l2.0957.40235v2.34961h-8.0977v-2.34961l2.082-.40235V43.52815l-2.082-.40429v-2.36329zm20.1426 0h4.0137l5.9082 17 1.3965.20118v2.34961h-6.6602v-2.34961l1.3574-.24024-.8594-2.68555h-6.3378l-.8594 2.68555 1.3554.24024v2.34961h-6.6601v-2.34961l1.3965-.20118 5.9492-17zm26.5449 2.74024c-.8862 0-1.5571.35807-2.0137 1.07422-.4565.71614-.6836 1.85254-.6836 3.41015v5.08985c0 1.57552.2271 2.72135.6836 3.4375.4655.71614 1.1459 1.07422 2.0411 1.07422.8772 0 1.5454-.35808 2.0019-1.07422.4566-.71615.6836-1.86198.6836-3.4375v-5.08985c0-1.54866-.2318-2.68033-.6973-3.39648-.4655-.7251-1.1383-1.08789-2.0156-1.08789zm-57.1601.041c-1.6472 0-2.8788.62566-3.6934 1.87891-.8057 1.25326-1.209 2.90039-1.209 4.94141v.32226c0 2.05892.4081 3.72022 1.2227 4.98242.8235 1.25326 2.0532 1.87891 3.6914 1.87891 1.6561 0 2.9018-.62565 3.7343-1.87891.8326-1.2622 1.2481-2.9235 1.2481-4.98242v-.32226c0-2.02312-.4203-3.66553-1.2617-4.92774-.8415-1.2622-2.0853-1.89258-3.7324-1.89258zm32.5625 1.71875l-2.2032 6.88672h4.4844l-2.2012-6.88672h-.08z" opacity="1"/>
  <g fill="#47321e" fill-opacity="1" stroke="none" stroke-opacity="1" stroke-width="1" style="line-height:125%;text-align:center" font-style="normal" font-weight="bold" font-size="27.5" font-family="Roboto Slab" letter-spacing="0" word-spacing="0" text-anchor="middle" stroke-linecap="butt" stroke-linejoin="miter" font-variant="normal" font-stretch="normal">
    <path d="M57.703636 168.97833l-1.611328.20142-3.961182 16.98608H48.49221l-3.585205-12.90405h-.08057l-3.585205 12.90405h-3.638916l-3.988037-16.98608-1.597901-.20142v-2.36328h7.197266v2.36328l-1.785889.30884 2.242432 10.71533.08057.0134 3.665772-13.40088h2.886963l3.692627 13.40088.08057-.0134 2.229004-10.71533-1.785889-.30884v-2.36328h7.183838v2.36328zM74.877708 173.20807H71.96389l-.402832-2.60498q-.577393-.57739-1.463623-.91309-.872803-.33569-2.067871-.33569-2.55127 0-3.934326 1.85303-1.369629 1.85302-1.369629 4.83398v.68482q0 2.98095 1.369629 4.84741 1.369629 1.86645 3.867187 1.86645 1.154785 0 2.108155-.33569.966796-.33569 1.490478-.91309l.402832-2.60498h2.913818v3.86719q-1.18164 1.36963-3.02124 2.18872-1.826172.80566-4.095459.80566-3.934326 0-6.445312-2.72583-2.510987-2.72583-2.510987-6.99584v-.65796q0-4.2566 2.497559-6.99585 2.497559-2.73926 6.45874-2.73926 2.269287 0 4.095459.83252 1.826172.81909 3.02124 2.17529v3.86719z" style="-inkscape-font-specification:'Roboto Slab Bold'"/>
  </g>
  <g fill="#47321e" fill-opacity="1" stroke="none" stroke-opacity="1" stroke-width="1" style="line-height:125%;text-align:center" font-style="normal" font-weight="bold" font-size="27.5" font-family="Roboto Slab" letter-spacing="0" word-spacing="0" text-anchor="middle" stroke-linecap="butt" stroke-linejoin="miter" font-variant="normal" font-stretch="normal">
    <path d="M50.986595 437.25409q3.450928 0 5.384522 1.34277 1.933593 1.34278 1.933593 4.0149 0 1.3562-.725097 2.43042-.71167 1.06079-2.081299 1.5979 1.759033.37597 2.631836 1.61132.88623 1.23536.88623 2.86011 0 2.8064-1.853027 4.25659-1.853027 1.43677-5.250244 1.43677h-9.614258v-2.34985l2.081299-.40283V440.0202l-2.081299-.40283v-2.36328h8.687744zm-2.685547 10.90332v5.63965h3.612061q1.557617 0 2.376709-.67139.819092-.68481.819092-2.01416 0-1.43677-.698243-2.18872-.698242-.76538-2.202148-.76538h-3.907471zm0-2.7124h2.819824q1.571045 0 2.416993-.64453.845947-.64454.845947-1.87989 0-1.3562-.859375-2.00073-.845947-.64453-2.537842-.64453h-2.685547v5.16968zM41.318626 488.83002l1.396485-.20142 5.948486-16.99951h4.014893l5.908203 16.99951 1.396484.20142v2.34985h-6.660156v-2.34985l1.356201-.2417-.859375-2.68555h-6.337891l-.859375 2.68555 1.356202.2417v2.34985h-6.660157v-2.34985zm7.089844-5.81421h4.484863l-2.202148-6.88843h-.08057l-2.202149 6.88843zM50.731468 506.00409q3.330078 0 5.223389 1.53076 1.89331 1.51734 1.89331 4.20288 0 1.47705-.792236 2.5647-.792236 1.08765-2.322998 1.75903 1.732178.51026 2.484131 1.70532.765381 1.18165.765381 2.94068v.99365q0 .64453.255127 1.00708.255127.34912.845947.41626l.483398.0671v2.36328H57.53933q-1.920166 0-2.698975-1.03393-.778809-1.03394-.778809-2.67212v-1.11451q0-1.42334-.765381-2.229-.751953-.81909-2.135009-.85937h-3.209229v5.15625l2.094727.40283v2.34985H41.94973v-2.34985l2.081299-.40283v-14.03199l-2.081299-.40283v-2.36328h8.781738zm-2.779541 8.6206h2.712403q1.638183 0 2.457275-.69824.819092-.69824.819092-2.01416t-.819092-2.09472q-.805664-.79224-2.390137-.79224h-2.779541v5.59936z" style="-inkscape-font-specification:'Roboto Slab Bold'"/>
  </g>
  <g fill="#47321e" fill-opacity="1" stroke="none" stroke-opacity="1" stroke-width="1" style="line-height:125%;text-align:center" font-style="normal" font-weight="bold" font-size="27.5" font-family="Roboto Slab" letter-spacing="0" word-spacing="0" text-anchor="middle" stroke-linecap="butt" stroke-linejoin="miter" font-variant="normal" font-stretch="normal">
    <path d="M135.4817 600.56348h-6.61987v5.58593h6.31104l.17456-2.33642h2.98095v5.34424h-15.46875v-2.34986l2.0813-.40283v-14.03198l-2.0813-.40283v-2.36328h15.4419v5.35766h-3.00781l-.17456-2.33642h-6.25733v4.91455h6.61987v3.02124zM155.27419 595.85034h-2.94068l-.51025-2.68555q-.51026-.32226-1.49048-.56396-.98023-.2417-2.0813-.2417-1.61133 0-2.49756.68482-.8728.67138-.8728 1.7456 0 .99365.91308 1.63818.92652.63111 3.18238 1.34278 3.23608.89966 4.90112 2.37671 1.67847 1.47705 1.67847 3.88061 0 2.51099-1.98731 3.96118-1.9873 1.4502-5.23681 1.4502-2.323 0-4.20288-.73853-1.86646-.73852-3.11524-2.04101v-4.08203h3.03467l.41626 2.77954q.59082.4834 1.5979.80566 1.02051.30884 2.26929.30884 1.61132 0 2.44384-.65796.84595-.65796.84595-1.75903 0-1.12793-.80566-1.81275-.79224-.68481-2.79297-1.28906-3.47778-1.00708-5.26367-2.39014-1.78589-1.38305-1.78589-3.78662 0-2.37671 2.01416-3.88061 2.01416-1.51734 5.06225-1.55762 2.25586 0 4.10889.68482 1.85303.68481 3.11524 1.82617v4.00146zM166.43263 589.60645q3.35694 0 5.29053 1.73217 1.94702 1.71875 1.94702 4.51172 0 2.8064-1.94702 4.51172-1.93359 1.70532-5.29053 1.70532h-3.30322v4.33716l2.09473.40283v2.34986h-8.09693v-2.34986l2.0813-.40283v-14.03198l-2.0813-.40283v-2.36328h9.30542zm-3.30322 9.43969h3.30322q1.63819 0 2.47071-.88623.84594-.89966.84594-2.28271 0-1.40991-.84594-2.323-.83252-.92651-2.47071-.92651h-3.30322v6.41845zM171.53517 606.80737l1.39649-.20141 5.94848-16.99951h4.01489l5.90821 16.99951 1.39648.20141v2.34986h-6.66015v-2.34986l1.3562-.2417-.85938-2.68554h-6.33789l-.85937 2.68554 1.3562.2417v2.34986h-6.66016v-2.34986zm7.08985-5.81421h4.48486l-2.20215-6.88842h-.0806l-2.20214 6.88842zM190.64284 609.15723zm16.073-12.95777h-2.91382l-.40283-2.60498q-.5774-.57739-1.46363-.91308-.8728-.3357-2.06787-.3357-2.55127 0-3.93433 1.85303-1.36962 1.85303-1.36962 4.83398v.68482q0 2.98096 1.36962 4.84741 1.36963 1.86646 3.86719 1.86646 1.15479 0 2.10816-.3357.96679-.33569 1.49048-.91308l.40283-2.60498h2.91382v3.86718q-1.18165 1.36963-3.02124 2.18872-1.82618.80567-4.09546.80567-3.93433 0-6.44532-2.72583-2.51098-2.72583-2.51098-6.99585v-.65796q0-4.25659 2.49756-6.99585 2.49755-2.73926 6.45874-2.73926 2.26928 0 4.09546.83252 1.82617.81909 3.02124 2.1753v3.86718zm-5.90821 12.90406l-.1477.76538q.85937.1477 1.43676.69824.5774.55054.5774 1.62475 0 1.43677-1.23535 2.29615-1.22193.85937-3.47779.85937l-.094-2.16186q.68481 0 1.08765-.28199.40283-.26855.40283-.83252 0-.55053-.42969-.7788-.42969-.21485-1.47705-.28199l.41626-1.90673h2.94067zM226.40089 599.52954q0 4.29688-2.45727 7.10327-2.45728 2.8064-6.43189 2.8064-3.96118 0-6.40503-2.8064-2.43042-2.80639-2.43042-7.10327v-.29541q0-4.27002 2.43042-7.08984 2.43042-2.81983 6.39161-2.81983 3.97461 0 6.43188 2.81983 2.4707 2.81982 2.4707 7.08984v.29541zm-3.90747-.32226q0-3.03467-1.2622-4.92798-1.26221-1.89331-3.73291-1.89331-2.47071 0-3.69263 1.87988-1.2085 1.87988-1.2085 4.94141v.32226q0 3.08838 1.22193 4.98169 1.23535 1.87988 3.69262 1.87988 2.48413 0 3.73291-1.87988 1.24878-1.89331 1.24878-4.98169v-.32226zM124.10841 630.57446h-2.91381l-.40284-2.60498q-.57739-.57739-1.46362-.91308-.8728-.3357-2.06787-.3357-2.55127 0-3.93433 1.85303-1.36963 1.85303-1.36963 4.83398v.68482q0 2.98096 1.36963 4.84741 1.36963 1.86646 3.86719 1.86646 1.15479 0 2.10815-.3357.9668-.33569 1.49048-.91308l.40284-2.60498h2.91381v3.86718q-1.18164 1.36963-3.02124 2.18872-1.82617.80567-4.09546.80567-3.93432 0-6.44531-2.72583-2.51098-2.72583-2.51098-6.99585v-.65796q0-4.25659 2.49755-6.99585 2.49756-2.73926 6.45874-2.73926 2.26929 0 4.09546.83252 1.82618.81909 3.02124 2.1753v3.86718zM143.79347 633.90454q0 4.29688-2.45727 7.10327-2.45728 2.8064-6.43189 2.8064-3.96118 0-6.40503-2.8064-2.43042-2.80639-2.43042-7.10327v-.29541q0-4.27002 2.43042-7.08984 2.43042-2.81983 6.3916-2.81983 3.97461 0 6.43189 2.81983 2.4707 2.81982 2.4707 7.08984v.29541zm-3.90747-.32226q0-3.03467-1.26221-4.92798-1.2622-1.89331-3.73291-1.89331-2.4707 0-3.69262 1.87988-1.2085 1.87988-1.2085 4.94141v.32226q0 3.08838 1.22193 4.98169 1.23535 1.87988 3.69262 1.87988 2.48413 0 3.73291-1.87988 1.24878-1.89331 1.24878-4.98169v-.32226zM164.23048 629.07056l-.0806-.0134-5.23682 14.4751h-2.63183l-5.20997-14.42139-.0806.0134.37597 8.58032v3.07495l2.09473.40283v2.34986h-8.09692v-2.34986l2.0813-.40283v-14.03198l-2.0813-.40283v-2.36328h7.19726l4.98169 14.40795h.0806l5.02197-14.40795h7.22412v2.36328l-2.09472.40283v14.03198l2.09472.40283v2.34986h-8.09692v-2.34986l2.0813-.40283v-3.07495l.37597-8.63403zM179.94093 623.98145q3.45093 0 5.38452 1.34277 1.9336 1.34277 1.9336 4.01489 0 1.3562-.7251 2.43042-.71167 1.06079-2.0813 1.5979 1.75904.37598 2.63184 1.61133.88623 1.23535.88623 2.86011 0 2.80639-1.85303 4.25659-1.85303 1.43677-5.25024 1.43677h-9.61426v-2.34986l2.0813-.40283v-14.03198l-2.0813-.40283v-2.36328h8.68774zm-2.68554 10.90332v5.63964h3.61206q1.55761 0 2.37671-.67138.81909-.68482.81909-2.01416 0-1.43677-.69824-2.18872-.69825-.76538-2.20215-.76538h-3.90747zm0-2.71241h2.81982q1.57105 0 2.41699-.64453.84595-.64453.84595-1.87988 0-1.3562-.85937-2.00073-.84595-.64453-2.53785-.64453h-2.68554v5.16967zM198.25636 623.98145q3.58521 0 5.90821 2.29614 2.32299 2.28271 2.32299 5.86792v3.23608q0 3.59863-2.32299 5.88135-2.323 2.26929-5.90821 2.26929h-8.79516v-2.34986l2.0813-.40283v-14.03198l-2.0813-.40283v-2.36328H198.25636zm-2.79297 3.02124v13.52172h2.59156q2.10815 0 3.30322-1.42334 1.19507-1.42334 1.19507-3.71948v-3.26294q0-2.26928-1.19507-3.69262-1.19507-1.42334-3.30322-1.42334h-2.59156zM207.41408 641.18237l1.39648-.20141 5.94849-16.99951h4.01489l5.9082 16.99951 1.39649.20141v2.34986h-6.66016v-2.34986l1.3562-.2417-.85937-2.68554h-6.33789l-.85938 2.68554 1.3562.2417v2.34986h-6.66015v-2.34986zm7.08984-5.81421h4.48486l-2.20214-6.88842h-.0806l-2.20215 6.88842zM231.07375 626.34473l-1.5979.22827 3.03466 6.41846h.0806l3.03467-6.41846-1.58447-.22827v-2.36328h7.39868v2.36328l-1.66504.26855-5.31739 10.04395v4.12231l2.09473.40283v2.34986h-8.09692v-2.34986l2.09472-.40283v-4.32373l-5.22338-9.84253-1.65162-.26855v-2.36328h7.39869v2.36328z" style="-inkscape-font-specification:'Roboto Slab Bold'"/>
  </g>
  <g fill="#47321e" fill-opacity="1" stroke="none" stroke-opacity="1" stroke-width="1" style="line-height:125%;text-align:center" font-style="normal" font-weight="bold" font-size="27.5" font-family="Roboto Slab" letter-spacing="0" word-spacing="0" text-anchor="middle" stroke-linecap="butt" stroke-linejoin="miter" font-variant="normal" font-stretch="normal">
    <path d="M663.70361 534.79254h-2.91382l-.40283-2.60498q-.57739-.57739-1.46362-.91308-.8728-.3357-2.06787-.3357-2.55127 0-3.93433 1.85303-1.36963 1.85303-1.36963 4.83398v.68482q0 2.98095 1.36963 4.84741t3.86719 1.86646q1.15479 0 2.10815-.3357.9668-.33569 1.49048-.91308l.40283-2.60498h2.91382v3.86718q-1.18164 1.36963-3.02124 2.18872-1.82617.80567-4.09546.80567-3.93432 0-6.44531-2.72583-2.51098-2.72583-2.51098-6.99585v-.65796q0-4.25659 2.49755-6.99585 2.49756-2.73926 6.45874-2.73926 2.26929 0 4.09546.83252 1.82617.81909 3.02124 2.17529v3.86719zM646.51611 579.77545l1.39649-.20141 5.94848-16.99952h4.0149l5.9082 16.99952 1.39648.20141v2.34986h-6.66015v-2.34986l1.3562-.2417-.85938-2.68554h-6.33789l-.85937 2.68554 1.3562.2417v2.34986h-6.66016v-2.34986zm7.08985-5.81421h4.48486l-2.20215-6.88843h-.0806l-2.20215 6.88843zM651.80664 599.31281v-2.36329h8.09692v2.36329l-2.09472.40283v14.03198l2.09472.40283v2.34986h-8.09692v-2.34986l2.09473-.40283v-14.03198l-2.09473-.40283zM646.62354 648.52545l1.65161-.32226 5.16967-7.18384-5.0354-6.99585-1.63818-.33569v-2.36329h7.5061v2.36329l-1.5979.17456 3.02124 4.7937 3.03467-4.7937-1.57104-.17456v-2.36329h7.53296v2.36329l-1.63819.33569-5.0354 6.99585 5.2771 7.17041 1.73218.33569v2.34986h-7.69409v-2.34986l1.55761-.16113-3.14209-4.94141-3.15551 4.94141 1.57104.16113v2.34986h-7.54638v-2.34986zM646.51611 682.90045l1.39649-.20141 5.94848-16.99952h4.0149l5.9082 16.99952 1.39648.20141v2.34986h-6.66015v-2.34986l1.3562-.2417-.85938-2.68554h-6.33789l-.85937 2.68554 1.3562.2417v2.34986h-6.66016v-2.34986zm7.08985-5.81421h4.48486l-2.20215-6.88843h-.0806l-2.20215 6.88843z" style="-inkscape-font-specification:'Roboto Slab Bold'"/>
  </g>
  <g fill="#47321e" fill-opacity="1" stroke="none" stroke-opacity="1" stroke-width="1" style="line-height:125%;text-align:center" font-style="normal" font-weight="bold" font-size="20.90659332" font-family="Roboto Slab" letter-spacing="0" word-spacing="0" text-anchor="middle" stroke-linecap="butt" stroke-linejoin="miter" font-variant="normal" font-stretch="normal">
    <path d="M608.99265 474.74092h-5.03269v4.24665h4.7979l.1327-1.77624h2.26625v4.0629h-11.75996v-1.78645l1.58228-.30625v-10.66767l-1.58228-.30625v-1.79666H611.13639v4.07311h-2.28666l-.13271-1.77624h-4.75706v3.73623h5.03269v2.29687zM627.93925 466.41095v1.79666l-1.5925.30625v12.76037h-2.97061l-6.00248-10.00413-.0612.0102v7.90122l1.59249.30625v1.78645h-6.1556v-1.78645l1.58229-.30625v-10.66767l-1.58229-.30625v-1.79666h4.56311l6.00248 10.00413.0612-.0102v-7.89101l-1.5925-.30625v-1.79666h6.15561zM642.00628 466.41095v3.96082h-2.28666l-.1225-1.66395h-2.73582v10.47371l1.59249.30625v1.78645h-6.16581v-1.78645l1.5925-.30625v-10.47371h-2.72562l-.1225 1.66395h-2.27645v-3.96082h13.25037zM649.64209 466.41095q2.53166 0 3.97103 1.16375 1.43937 1.15353 1.43937 3.19519 0 1.12292-.60229 1.94979t-1.76604 1.33728q1.31687.38792 1.88854 1.29646.58187.89833.58187 2.23562v.75541q0 .49.19396.76562.19396.26542.64312.31646l.3675.051v1.79666h-1.54145q-1.45979 0-2.05187-.78604-.59208-.78604-.59208-2.03145v-.84729q0-1.08208-.58187-1.69458-.57167-.6227-1.62312-.65333h-2.43979v3.91999l1.5925.30625v1.78645h-6.15561v-1.78645l1.58229-.30625v-10.66767l-1.58229-.30625v-1.79666h6.67623zm-2.11312 6.55373h2.06208q1.24541 0 1.86812-.53083.6227-.53084.6227-1.53125t-.6227-1.59249q-.6125-.60229-1.81708-.60229h-2.11312v4.25686zM657.18602 479.48778l1.06167-.15313 4.52227-12.9237h3.05228l4.49165 12.9237 1.06167.15313v1.78645h-5.06332v-1.78645l1.03104-.18375-.65333-2.04166h-4.81832l-.65333 2.04166 1.03104.18375v1.78645h-5.06332v-1.78645zm5.38998-4.42019h3.40957l-1.67416-5.23686h-.0612l-1.67416 5.23686zM679.05219 466.41095q2.72562 0 4.49165 1.74562 1.76604 1.73541 1.76604 4.46102v2.4602q0 2.73583-1.76604 4.47124-1.76603 1.7252-4.49165 1.7252h-6.68643v-1.78645l1.58228-.30625v-10.66767l-1.58228-.30625v-1.79666h6.68643zm-2.12332 2.29687v10.27975h1.9702q1.6027 0 2.51124-1.08208.90854-1.08208.90854-2.8277v-2.48061q0-1.7252-.90854-2.80728t-2.51124-1.08208h-1.9702zM686.01425 479.48778l1.06167-.15313 4.52227-12.9237h3.05228l4.49165 12.9237 1.06167.15313v1.78645h-5.06332v-1.78645l1.03104-.18375-.65333-2.04166h-4.81832l-.65333 2.04166 1.03104.18375v1.78645h-5.06332v-1.78645zm5.38999-4.42019h3.40957l-1.67416-5.23686h-.0612l-1.67416 5.23686z" style="-inkscape-font-specification:'Roboto Slab Bold'"/>
  </g>
  <text x="10610.004" y="2060.0923" fill="#000" fill-opacity="1" stroke="none" stroke-opacity="1" stroke-width="1" style="line-height:125%;text-align:center" xml:space="preserve" font-style="normal" font-weight="normal" font-size="40" font-family="sans-serif" letter-spacing="0" word-spacing="0" text-anchor="middle" stroke-linecap="butt" stroke-linejoin="miter"/>
  <flowRoot fill="#502d16" fill-opacity="1" stroke="none" stroke-opacity="1" stroke-width="1" transform="translate(12367.454 1980.388)" style="line-height:125%;text-align:center" xml:space="preserve" font-style="normal" font-weight="normal" font-size="29.9265213" font-family="sans-serif" letter-spacing="0" word-spacing="0" text-anchor="middle" stroke-linecap="butt" stroke-linejoin="miter">
    <flowRegion>
      <path fill="#502d16" fill-opacity="1" d="M-1117.8109-137.5394h477.63953v104.29471h-477.63953z"/>
    </flowRegion>
    <flowPara/>
  </flowRoot>
  <flowRoot fill="#502d16" fill-opacity="1" stroke="none" stroke-opacity="1" stroke-width="1" transform="translate(12367.454 1980.388)" xml:space="preserve" style="line-height:125%;text-align:center" font-style="normal" font-weight="normal" font-size="29.9265213" font-family="sans-serif" letter-spacing="0" word-spacing="0" text-anchor="middle" stroke-linecap="butt" stroke-linejoin="miter">
    <flowRegion>
      <path fill="#502d16" fill-opacity="1" d="M-1907.8108 652.46063h477.63953v104.29471h-477.63953z"/>
    </flowRegion>
    <flowPara/>
  </flowRoot>
  <flowRoot fill="#502d16" fill-opacity="1" stroke="none" stroke-opacity="1" stroke-width="1" transform="translate(8280.003 23.73)" style="line-height:125%;text-align:center" xml:space="preserve" font-style="normal" font-weight="normal" font-size="29.9265213" font-family="sans-serif" letter-spacing="0" word-spacing="0" text-anchor="middle" stroke-linecap="butt" stroke-linejoin="miter">
    <flowRegion>
      <path fill="#502d16" fill-opacity="1" d="M2179.6399 3399.1187h477.63953v104.29471H2179.6399z"/>
    </flowRegion>
    <flowPara/>
  </flowRoot>
  <text x="5286.4702" y="602.77704" fill="#000" fill-opacity="1" stroke="none" stroke-opacity="1" stroke-width="1" style="line-height:125%;text-align:center" xml:space="preserve" font-style="normal" font-weight="normal" font-size="40" font-family="sans-serif" letter-spacing="0" word-spacing="0" text-anchor="middle" stroke-linecap="butt" stroke-linejoin="miter"/>
  <flowRoot fill="#502d16" fill-opacity="1" stroke="none" stroke-opacity="1" stroke-width="1" transform="translate(7043.92 523.073)" style="line-height:125%;text-align:center" xml:space="preserve" font-style="normal" font-weight="normal" font-size="29.9265213" font-family="sans-serif" letter-spacing="0" word-spacing="0" text-anchor="middle" stroke-linecap="butt" stroke-linejoin="miter">
    <flowRegion>
      <path fill="#502d16" fill-opacity="1" d="M-1117.8109-137.5394h477.63953v104.29471h-477.63953z"/>
    </flowRegion>
    <flowPara/>
  </flowRoot>
  <flowRoot fill="#502d16" fill-opacity="1" stroke="none" stroke-opacity="1" stroke-width="1" transform="translate(7043.92 523.073)" xml:space="preserve" style="line-height:125%;text-align:center" font-style="normal" font-weight="normal" font-size="29.9265213" font-family="sans-serif" letter-spacing="0" word-spacing="0" text-anchor="middle" stroke-linecap="butt" stroke-linejoin="miter">
    <flowRegion>
      <path fill="#502d16" fill-opacity="1" d="M-1907.8108 652.46063h477.63953v104.29471h-477.63953z"/>
    </flowRegion>
    <flowPara/>
  </flowRoot>
  <flowRoot fill="#502d16" fill-opacity="1" stroke="none" stroke-opacity="1" stroke-width="1" transform="translate(2956.47 -1433.585)" style="line-height:125%;text-align:center" xml:space="preserve" font-style="normal" font-weight="normal" font-size="29.9265213" font-family="sans-serif" letter-spacing="0" word-spacing="0" text-anchor="middle" stroke-linecap="butt" stroke-linejoin="miter">
    <flowRegion>
      <path fill="#502d16" fill-opacity="1" d="M2179.6399 3399.1187h477.63953v104.29471H2179.6399z"/>
    </flowRegion>
    <flowPara/>
  </flowRoot>
  <text x="-1299.1693" y="1436.864" fill="#000" fill-opacity="1" stroke="none" stroke-opacity="1" stroke-width="1" style="line-height:125%;text-align:center" xml:space="preserve" font-style="normal" font-weight="normal" font-size="40" font-family="sans-serif" letter-spacing="0" word-spacing="0" text-anchor="middle" stroke-linecap="butt" stroke-linejoin="miter"/>
  <flowRoot fill="#502d16" fill-opacity="1" stroke="none" stroke-opacity="1" stroke-width="1" transform="translate(-3629.17 -599.498)" style="line-height:125%;text-align:center" xml:space="preserve" font-style="normal" font-weight="normal" font-size="29.9265213" font-family="sans-serif" letter-spacing="0" word-spacing="0" text-anchor="middle" stroke-linecap="butt" stroke-linejoin="miter">
    <flowRegion>
      <path fill="#502d16" fill-opacity="1" d="M2179.6399 3399.1187h477.63953v104.29471H2179.6399z"/>
    </flowRegion>
    <flowPara/>
  </flowRoot>
  <flowRoot fill="#000" fill-opacity="1" stroke="none" stroke-opacity="1" stroke-width="1" transform="translate(12367.454 1980.388)" style="line-height:125%;text-align:center" xml:space="preserve" font-style="normal" font-weight="normal" font-size="40" font-family="sans-serif" letter-spacing="0" word-spacing="0" text-anchor="middle" stroke-linecap="butt" stroke-linejoin="miter">
    <flowRegion>
      <path d="M-13838-2563.6377h688v452h-688z"/>
    </flowRegion>
    <flowPara/>
  </flowRoot>
  <text x="1071.8416" y="-116.19896" fill="#000" fill-opacity="1" stroke="none" stroke-opacity="1" stroke-width="1" style="line-height:125%;text-align:center" xml:space="preserve" font-style="normal" font-weight="normal" font-size="40" font-family="sans-serif" letter-spacing="0" word-spacing="0" text-anchor="middle" stroke-linecap="butt" stroke-linejoin="miter"/>
  <flowRoot fill="#502d16" fill-opacity="1" stroke="none" stroke-opacity="1" stroke-width="1" transform="translate(2829.292 -195.903)" style="line-height:125%;text-align:center" xml:space="preserve" font-style="normal" font-weight="normal" font-size="29.9265213" font-family="sans-serif" letter-spacing="0" word-spacing="0" text-anchor="middle" stroke-linecap="butt" stroke-linejoin="miter">
    <flowRegion>
      <path fill="#502d16" fill-opacity="1" d="M-1117.8109-137.5394h477.63953v104.29471h-477.63953z"/>
    </flowRegion>
    <flowPara/>
  </flowRoot>
  <flowRoot fill="#502d16" fill-opacity="1" stroke="none" stroke-opacity="1" stroke-width="1" transform="translate(2829.292 -195.903)" xml:space="preserve" style="line-height:125%;text-align:center" font-style="normal" font-weight="normal" font-size="29.9265213" font-family="sans-serif" letter-spacing="0" word-spacing="0" text-anchor="middle" stroke-linecap="butt" stroke-linejoin="miter">
    <flowRegion>
      <path fill="#502d16" fill-opacity="1" d="M-1907.8108 652.46063h477.63953v104.29471h-477.63953z"/>
    </flowRegion>
    <flowPara/>
  </flowRoot>
  <flowRoot fill="#502d16" fill-opacity="1" stroke="none" stroke-opacity="1" stroke-width="1" transform="translate(-1258.158 -2152.56)" style="line-height:125%;text-align:center" xml:space="preserve" font-style="normal" font-weight="normal" font-size="29.9265213" font-family="sans-serif" letter-spacing="0" word-spacing="0" text-anchor="middle" stroke-linecap="butt" stroke-linejoin="miter">
    <flowRegion>
      <path fill="#502d16" fill-opacity="1" d="M2179.6399 3399.1187h477.63953v104.29471H2179.6399z"/>
    </flowRegion>
    <flowPara/>
  </flowRoot>
</svg>
